G04 #@! TF.FileFunction,Soldermask,Bot*
%FSLAX46Y46*%
G04 Gerber Fmt 4.6, Leading zero omitted, Abs format (unit mm)*
G04 Created by KiCad (PCBNEW 4.0.0-rc1-stable) date 25/07/2016 14:35:55*
%MOMM*%
G01*
G04 APERTURE LIST*
%ADD10C,0.100000*%
%ADD11C,0.600000*%
%ADD12R,1.524000X4.064000*%
%ADD13C,0.762000*%
%ADD14C,0.742240*%
%ADD15C,0.736600*%
%ADD16C,0.777240*%
%ADD17R,0.600000X0.500000*%
%ADD18R,0.500000X0.600000*%
%ADD19R,1.727200X1.727200*%
%ADD20O,1.727200X1.727200*%
%ADD21R,0.600000X0.400000*%
%ADD22C,4.064000*%
G04 APERTURE END LIST*
D10*
D11*
X78232000Y-86106000D03*
X53594000Y-82423000D03*
X58420000Y-77851000D03*
X56388000Y-79883000D03*
X59182000Y-80899000D03*
X57912000Y-79629000D03*
X43942000Y-77470000D03*
X42672000Y-76962000D03*
X60706000Y-73914000D03*
X59182000Y-73914000D03*
X62230000Y-73914000D03*
X64770000Y-73914000D03*
X70358000Y-71374000D03*
X71374000Y-70612000D03*
X72136000Y-69850000D03*
X73152000Y-69088000D03*
X73152000Y-68072000D03*
X71882000Y-68072000D03*
X70612000Y-68072000D03*
X69342000Y-68072000D03*
X68072000Y-68072000D03*
X66802000Y-68072000D03*
X65532000Y-68072000D03*
X64262000Y-68072000D03*
X62992000Y-68072000D03*
X61722000Y-68072000D03*
X39979600Y-74269600D03*
X28829000Y-102235000D03*
X30988000Y-102235000D03*
X30988000Y-100203000D03*
X28829000Y-100203000D03*
X30988000Y-98425000D03*
X28829000Y-98425000D03*
X26924000Y-78740000D03*
X30226000Y-81915000D03*
X27940000Y-83947000D03*
X37084000Y-80899000D03*
X34671000Y-77216000D03*
X35052000Y-80899000D03*
X32385000Y-77216000D03*
X35179000Y-88646000D03*
X35179000Y-85979000D03*
X35179000Y-83439000D03*
X32385000Y-88646000D03*
X32385000Y-85979000D03*
X32385000Y-83439000D03*
X32385000Y-90551000D03*
X30226000Y-90551000D03*
X28194000Y-90551000D03*
X34544000Y-93726000D03*
X32385000Y-93726000D03*
X30226000Y-93726000D03*
X28194000Y-93726000D03*
X60452000Y-68072000D03*
X59290000Y-68070000D03*
X52806600Y-78968600D03*
X38862000Y-73279000D03*
X40995600Y-75285600D03*
X37846000Y-72136000D03*
X34417000Y-70231000D03*
X34417000Y-71882000D03*
X34417000Y-73787000D03*
X35179000Y-74930000D03*
X47879000Y-76708000D03*
X41910000Y-76200000D03*
X54483000Y-77470000D03*
X55499000Y-76454000D03*
X56515000Y-75438000D03*
X57531000Y-74295000D03*
X21336000Y-116332000D03*
X21336000Y-115062000D03*
X21336000Y-113792000D03*
X21336000Y-112522000D03*
X21336000Y-111125000D03*
X21336000Y-109855000D03*
X21336000Y-108712000D03*
X21336000Y-71882000D03*
X21336000Y-70612000D03*
X21336000Y-69215000D03*
X21971000Y-68199000D03*
X23368000Y-68199000D03*
X24765000Y-68199000D03*
X26035000Y-68199000D03*
X27432000Y-68199000D03*
X28829000Y-68199000D03*
X30226000Y-68199000D03*
X31623000Y-68199000D03*
X33020000Y-68199000D03*
X34417000Y-68199000D03*
X34417000Y-68199000D03*
X33020000Y-68199000D03*
X31623000Y-68199000D03*
X30226000Y-68199000D03*
X28829000Y-68199000D03*
X27432000Y-68199000D03*
X26035000Y-68199000D03*
X24765000Y-68199000D03*
X23368000Y-68199000D03*
X23368000Y-68199000D03*
X24765000Y-68199000D03*
X26035000Y-68199000D03*
X27432000Y-68199000D03*
X28829000Y-68199000D03*
X30226000Y-68199000D03*
X31623000Y-68199000D03*
X33020000Y-68199000D03*
X34417000Y-68199000D03*
X34417000Y-68199000D03*
X33020000Y-68199000D03*
X31623000Y-68199000D03*
X30226000Y-68199000D03*
X28829000Y-68199000D03*
X27432000Y-68199000D03*
X26035000Y-68199000D03*
X24765000Y-68199000D03*
X23368000Y-68199000D03*
X23368000Y-68199000D03*
X24765000Y-68199000D03*
X26035000Y-68199000D03*
X27432000Y-68199000D03*
X28829000Y-68199000D03*
X30226000Y-68199000D03*
X31623000Y-68199000D03*
X33020000Y-68199000D03*
X34417000Y-68199000D03*
X34417000Y-68199000D03*
X33020000Y-68199000D03*
X31623000Y-68199000D03*
X30226000Y-68199000D03*
X28829000Y-68199000D03*
X27432000Y-68199000D03*
X26035000Y-68199000D03*
X24765000Y-68199000D03*
X23368000Y-68199000D03*
X23368000Y-68199000D03*
X24765000Y-68199000D03*
X26035000Y-68199000D03*
X27432000Y-68199000D03*
X28829000Y-68199000D03*
X30226000Y-68199000D03*
X31623000Y-68199000D03*
X33020000Y-68199000D03*
X34417000Y-68199000D03*
X34417000Y-68199000D03*
X33020000Y-68199000D03*
X31623000Y-68199000D03*
X30226000Y-68199000D03*
X28829000Y-68199000D03*
X27432000Y-68199000D03*
X26035000Y-68199000D03*
X24765000Y-68199000D03*
X23368000Y-68199000D03*
X23368000Y-68199000D03*
X24765000Y-68199000D03*
X26035000Y-68199000D03*
X27432000Y-68199000D03*
X28829000Y-68199000D03*
X30226000Y-68199000D03*
X31623000Y-68199000D03*
X33020000Y-68199000D03*
X34417000Y-68199000D03*
X34417000Y-68199000D03*
X33020000Y-68199000D03*
X31623000Y-68199000D03*
X30226000Y-68199000D03*
X28829000Y-68199000D03*
X27432000Y-68199000D03*
X26035000Y-68199000D03*
X24765000Y-68199000D03*
X23368000Y-68199000D03*
X23368000Y-68199000D03*
X24765000Y-68199000D03*
X26035000Y-68199000D03*
X27432000Y-68199000D03*
X28829000Y-68199000D03*
X30226000Y-68199000D03*
X31623000Y-68199000D03*
X33020000Y-68199000D03*
X34417000Y-68199000D03*
X34417000Y-68199000D03*
X33020000Y-68199000D03*
X31623000Y-68199000D03*
X30226000Y-68199000D03*
X28829000Y-68199000D03*
X27432000Y-68199000D03*
X26035000Y-68199000D03*
X24765000Y-68199000D03*
X23368000Y-68199000D03*
X23368000Y-68199000D03*
X24765000Y-68199000D03*
X26035000Y-68199000D03*
X27432000Y-68199000D03*
X28829000Y-68199000D03*
X30226000Y-68199000D03*
X31623000Y-68199000D03*
X33020000Y-68199000D03*
X34417000Y-68199000D03*
X34417000Y-68199000D03*
X33020000Y-68199000D03*
X31623000Y-68199000D03*
X30226000Y-68199000D03*
X28829000Y-68199000D03*
X27432000Y-68199000D03*
X26035000Y-68199000D03*
X24765000Y-68199000D03*
X23368000Y-68199000D03*
X23368000Y-68199000D03*
X24765000Y-68199000D03*
X26035000Y-68199000D03*
X27432000Y-68199000D03*
X28829000Y-68199000D03*
X30226000Y-68199000D03*
X31623000Y-68199000D03*
X33020000Y-68199000D03*
X34417000Y-68199000D03*
X34417000Y-68199000D03*
X33020000Y-68199000D03*
X31623000Y-68199000D03*
X30226000Y-68199000D03*
X28829000Y-68199000D03*
X27432000Y-68199000D03*
X26035000Y-68199000D03*
X24765000Y-68199000D03*
X23368000Y-68199000D03*
X88900000Y-117094000D03*
X90297000Y-117094000D03*
X87630000Y-117094000D03*
X75311000Y-117094000D03*
X76708000Y-117094000D03*
X77978000Y-117094000D03*
X79375000Y-117094000D03*
X80772000Y-117094000D03*
X82169000Y-117094000D03*
X83566000Y-117094000D03*
X84963000Y-117094000D03*
X86360000Y-117094000D03*
X86360000Y-117094000D03*
X84963000Y-117094000D03*
X83566000Y-117094000D03*
X82169000Y-117094000D03*
X80772000Y-117094000D03*
X79375000Y-117094000D03*
X77978000Y-117094000D03*
X76708000Y-117094000D03*
X75311000Y-117094000D03*
X75311000Y-117094000D03*
X76708000Y-117094000D03*
X77978000Y-117094000D03*
X79375000Y-117094000D03*
X80772000Y-117094000D03*
X82169000Y-117094000D03*
X83566000Y-117094000D03*
X84963000Y-117094000D03*
X86360000Y-117094000D03*
X86360000Y-117094000D03*
X84963000Y-117094000D03*
X83566000Y-117094000D03*
X82169000Y-117094000D03*
X80772000Y-117094000D03*
X79375000Y-117094000D03*
X77978000Y-117094000D03*
X76708000Y-117094000D03*
X75311000Y-117094000D03*
X75311000Y-117094000D03*
X76708000Y-117094000D03*
X77978000Y-117094000D03*
X79375000Y-117094000D03*
X80772000Y-117094000D03*
X82169000Y-117094000D03*
X83566000Y-117094000D03*
X84963000Y-117094000D03*
X86360000Y-117094000D03*
X86360000Y-117094000D03*
X84963000Y-117094000D03*
X83566000Y-117094000D03*
X82169000Y-117094000D03*
X80772000Y-117094000D03*
X79375000Y-117094000D03*
X77978000Y-117094000D03*
X76708000Y-117094000D03*
X75311000Y-117094000D03*
X75311000Y-117094000D03*
X76708000Y-117094000D03*
X77978000Y-117094000D03*
X79375000Y-117094000D03*
X80772000Y-117094000D03*
X82169000Y-117094000D03*
X83566000Y-117094000D03*
X84963000Y-117094000D03*
X86360000Y-117094000D03*
X86360000Y-117094000D03*
X84963000Y-117094000D03*
X83566000Y-117094000D03*
X82169000Y-117094000D03*
X80772000Y-117094000D03*
X79375000Y-117094000D03*
X77978000Y-117094000D03*
X76708000Y-117094000D03*
X75311000Y-117094000D03*
X75311000Y-117094000D03*
X76708000Y-117094000D03*
X77978000Y-117094000D03*
X79375000Y-117094000D03*
X80772000Y-117094000D03*
X82169000Y-117094000D03*
X83566000Y-117094000D03*
X84963000Y-117094000D03*
X86360000Y-117094000D03*
X86360000Y-117094000D03*
X84963000Y-117094000D03*
X83566000Y-117094000D03*
X82169000Y-117094000D03*
X80772000Y-117094000D03*
X79375000Y-117094000D03*
X77978000Y-117094000D03*
X76708000Y-117094000D03*
X75311000Y-117094000D03*
X75311000Y-117094000D03*
X76708000Y-117094000D03*
X77978000Y-117094000D03*
X79375000Y-117094000D03*
X80772000Y-117094000D03*
X82169000Y-117094000D03*
X83566000Y-117094000D03*
X84963000Y-117094000D03*
X86360000Y-117094000D03*
X86360000Y-117094000D03*
X84963000Y-117094000D03*
X83566000Y-117094000D03*
X82169000Y-117094000D03*
X80772000Y-117094000D03*
X79375000Y-117094000D03*
X77978000Y-117094000D03*
X76708000Y-117094000D03*
X75311000Y-117094000D03*
X75311000Y-117094000D03*
X76708000Y-117094000D03*
X77978000Y-117094000D03*
X79375000Y-117094000D03*
X80772000Y-117094000D03*
X82169000Y-117094000D03*
X83566000Y-117094000D03*
X84963000Y-117094000D03*
X86360000Y-117094000D03*
X86360000Y-117094000D03*
X84963000Y-117094000D03*
X83566000Y-117094000D03*
X82169000Y-117094000D03*
X80772000Y-117094000D03*
X79375000Y-117094000D03*
X77978000Y-117094000D03*
X76708000Y-117094000D03*
X75311000Y-117094000D03*
X75311000Y-117094000D03*
X76708000Y-117094000D03*
X77978000Y-117094000D03*
X79375000Y-117094000D03*
X80772000Y-117094000D03*
X82169000Y-117094000D03*
X83566000Y-117094000D03*
X84963000Y-117094000D03*
X86360000Y-117094000D03*
X86360000Y-117094000D03*
X84963000Y-117094000D03*
X83566000Y-117094000D03*
X82169000Y-117094000D03*
X80772000Y-117094000D03*
X79375000Y-117094000D03*
X77978000Y-117094000D03*
X76708000Y-117094000D03*
X75311000Y-117094000D03*
X59055000Y-117094000D03*
X60452000Y-117094000D03*
X61722000Y-117094000D03*
X63119000Y-117094000D03*
X64516000Y-117094000D03*
X65913000Y-117094000D03*
X67310000Y-117094000D03*
X68707000Y-117094000D03*
X70104000Y-117094000D03*
X70104000Y-117094000D03*
X68707000Y-117094000D03*
X67310000Y-117094000D03*
X65913000Y-117094000D03*
X64516000Y-117094000D03*
X63119000Y-117094000D03*
X61722000Y-117094000D03*
X60452000Y-117094000D03*
X59055000Y-117094000D03*
X59055000Y-117094000D03*
X60452000Y-117094000D03*
X61722000Y-117094000D03*
X63119000Y-117094000D03*
X64516000Y-117094000D03*
X65913000Y-117094000D03*
X67310000Y-117094000D03*
X68707000Y-117094000D03*
X70104000Y-117094000D03*
X70104000Y-117094000D03*
X68707000Y-117094000D03*
X67310000Y-117094000D03*
X65913000Y-117094000D03*
X64516000Y-117094000D03*
X63119000Y-117094000D03*
X61722000Y-117094000D03*
X60452000Y-117094000D03*
X59055000Y-117094000D03*
X59055000Y-117094000D03*
X60452000Y-117094000D03*
X61722000Y-117094000D03*
X63119000Y-117094000D03*
X64516000Y-117094000D03*
X65913000Y-117094000D03*
X67310000Y-117094000D03*
X68707000Y-117094000D03*
X70104000Y-117094000D03*
X70104000Y-117094000D03*
X68707000Y-117094000D03*
X67310000Y-117094000D03*
X65913000Y-117094000D03*
X64516000Y-117094000D03*
X63119000Y-117094000D03*
X61722000Y-117094000D03*
X60452000Y-117094000D03*
X59055000Y-117094000D03*
X59055000Y-117094000D03*
X60452000Y-117094000D03*
X61722000Y-117094000D03*
X63119000Y-117094000D03*
X64516000Y-117094000D03*
X65913000Y-117094000D03*
X67310000Y-117094000D03*
X68707000Y-117094000D03*
X70104000Y-117094000D03*
X70104000Y-117094000D03*
X68707000Y-117094000D03*
X67310000Y-117094000D03*
X65913000Y-117094000D03*
X64516000Y-117094000D03*
X63119000Y-117094000D03*
X61722000Y-117094000D03*
X60452000Y-117094000D03*
X59055000Y-117094000D03*
X59055000Y-117094000D03*
X60452000Y-117094000D03*
X61722000Y-117094000D03*
X63119000Y-117094000D03*
X64516000Y-117094000D03*
X65913000Y-117094000D03*
X67310000Y-117094000D03*
X68707000Y-117094000D03*
X70104000Y-117094000D03*
X70104000Y-117094000D03*
X68707000Y-117094000D03*
X67310000Y-117094000D03*
X65913000Y-117094000D03*
X64516000Y-117094000D03*
X63119000Y-117094000D03*
X61722000Y-117094000D03*
X60452000Y-117094000D03*
X59055000Y-117094000D03*
X59055000Y-117094000D03*
X60452000Y-117094000D03*
X61722000Y-117094000D03*
X63119000Y-117094000D03*
X64516000Y-117094000D03*
X65913000Y-117094000D03*
X67310000Y-117094000D03*
X68707000Y-117094000D03*
X70104000Y-117094000D03*
X70104000Y-117094000D03*
X68707000Y-117094000D03*
X67310000Y-117094000D03*
X65913000Y-117094000D03*
X64516000Y-117094000D03*
X63119000Y-117094000D03*
X61722000Y-117094000D03*
X60452000Y-117094000D03*
X59055000Y-117094000D03*
X59055000Y-117094000D03*
X60452000Y-117094000D03*
X61722000Y-117094000D03*
X63119000Y-117094000D03*
X64516000Y-117094000D03*
X65913000Y-117094000D03*
X67310000Y-117094000D03*
X68707000Y-117094000D03*
X70104000Y-117094000D03*
X70104000Y-117094000D03*
X68707000Y-117094000D03*
X67310000Y-117094000D03*
X65913000Y-117094000D03*
X64516000Y-117094000D03*
X63119000Y-117094000D03*
X61722000Y-117094000D03*
X60452000Y-117094000D03*
X59055000Y-117094000D03*
X59055000Y-117094000D03*
X60452000Y-117094000D03*
X61722000Y-117094000D03*
X63119000Y-117094000D03*
X64516000Y-117094000D03*
X65913000Y-117094000D03*
X67310000Y-117094000D03*
X68707000Y-117094000D03*
X70104000Y-117094000D03*
X70104000Y-117094000D03*
X68707000Y-117094000D03*
X67310000Y-117094000D03*
X65913000Y-117094000D03*
X64516000Y-117094000D03*
X63119000Y-117094000D03*
X61722000Y-117094000D03*
X60452000Y-117094000D03*
X59055000Y-117094000D03*
X71374000Y-117094000D03*
X74041000Y-117094000D03*
X72644000Y-117094000D03*
X59182000Y-84709000D03*
X22606000Y-117348000D03*
X23876000Y-117348000D03*
X25273000Y-117348000D03*
X26670000Y-117348000D03*
X28067000Y-117348000D03*
X29464000Y-117348000D03*
X30861000Y-117348000D03*
X32258000Y-117348000D03*
X32258000Y-117348000D03*
X30861000Y-117348000D03*
X29464000Y-117348000D03*
X28067000Y-117348000D03*
X26670000Y-117348000D03*
X25273000Y-117348000D03*
X23876000Y-117348000D03*
X22606000Y-117348000D03*
X43307000Y-100584000D03*
X64516000Y-76835000D03*
X22606000Y-117348000D03*
X23876000Y-117348000D03*
X25273000Y-117348000D03*
X26670000Y-117348000D03*
X28067000Y-117348000D03*
X29464000Y-117348000D03*
X30861000Y-117348000D03*
X32258000Y-117348000D03*
X32258000Y-117348000D03*
X30861000Y-117348000D03*
X29464000Y-117348000D03*
X28067000Y-117348000D03*
X26670000Y-117348000D03*
X25273000Y-117348000D03*
X23876000Y-117348000D03*
X22606000Y-117348000D03*
X52705000Y-93599000D03*
X22606000Y-117348000D03*
X23876000Y-117348000D03*
X25273000Y-117348000D03*
X26670000Y-117348000D03*
X28067000Y-117348000D03*
X29464000Y-117348000D03*
X30861000Y-117348000D03*
X32258000Y-117348000D03*
X32258000Y-117348000D03*
X30861000Y-117348000D03*
X29464000Y-117348000D03*
X28067000Y-117348000D03*
X26670000Y-117348000D03*
X25273000Y-117348000D03*
X23876000Y-117348000D03*
X22606000Y-117348000D03*
X43307000Y-98679000D03*
X61087000Y-87630000D03*
X22606000Y-117348000D03*
X23876000Y-117348000D03*
X25273000Y-117348000D03*
X26670000Y-117348000D03*
X28067000Y-117348000D03*
X29464000Y-117348000D03*
X30861000Y-117348000D03*
X32258000Y-117348000D03*
X32258000Y-117348000D03*
X30861000Y-117348000D03*
X29464000Y-117348000D03*
X28067000Y-117348000D03*
X26670000Y-117348000D03*
X25273000Y-117348000D03*
X23876000Y-117348000D03*
X22606000Y-117348000D03*
X61214000Y-82042000D03*
X68580000Y-76835000D03*
X22606000Y-117348000D03*
X23876000Y-117348000D03*
X25273000Y-117348000D03*
X26670000Y-117348000D03*
X28067000Y-117348000D03*
X29464000Y-117348000D03*
X30861000Y-117348000D03*
X32258000Y-117348000D03*
X32258000Y-117348000D03*
X30861000Y-117348000D03*
X29464000Y-117348000D03*
X28067000Y-117348000D03*
X26670000Y-117348000D03*
X25273000Y-117348000D03*
X23876000Y-117348000D03*
X22606000Y-117348000D03*
X66040000Y-76835000D03*
X44577000Y-101600000D03*
X22606000Y-117348000D03*
X23876000Y-117348000D03*
X25273000Y-117348000D03*
X26670000Y-117348000D03*
X28067000Y-117348000D03*
X29464000Y-117348000D03*
X30861000Y-117348000D03*
X32258000Y-117348000D03*
X32258000Y-117348000D03*
X30861000Y-117348000D03*
X29464000Y-117348000D03*
X28067000Y-117348000D03*
X26670000Y-117348000D03*
X25273000Y-117348000D03*
X23876000Y-117348000D03*
X22606000Y-117348000D03*
X42799000Y-96774000D03*
X36576000Y-101600000D03*
X22606000Y-117348000D03*
X23876000Y-117348000D03*
X25273000Y-117348000D03*
X26670000Y-117348000D03*
X28067000Y-117348000D03*
X29464000Y-117348000D03*
X30861000Y-117348000D03*
X32258000Y-117348000D03*
X32258000Y-117348000D03*
X30861000Y-117348000D03*
X29464000Y-117348000D03*
X28067000Y-117348000D03*
X26670000Y-117348000D03*
X25273000Y-117348000D03*
X23876000Y-117348000D03*
X22606000Y-117348000D03*
X61087000Y-90805000D03*
X36576000Y-100076000D03*
X22606000Y-117348000D03*
X23876000Y-117348000D03*
X25273000Y-117348000D03*
X26670000Y-117348000D03*
X28067000Y-117348000D03*
X29464000Y-117348000D03*
X30861000Y-117348000D03*
X32258000Y-117348000D03*
X32258000Y-117348000D03*
X30861000Y-117348000D03*
X29464000Y-117348000D03*
X28067000Y-117348000D03*
X26670000Y-117348000D03*
X25273000Y-117348000D03*
X23876000Y-117348000D03*
X22606000Y-117348000D03*
X40132000Y-80772000D03*
X67310000Y-108585000D03*
X33528000Y-117348000D03*
X92329000Y-115824000D03*
X49276000Y-117221000D03*
X36195000Y-117348000D03*
X34798000Y-117348000D03*
X50800000Y-117221000D03*
X46355000Y-117221000D03*
X47752000Y-117221000D03*
X92329000Y-114173000D03*
X45085000Y-117221000D03*
X36195000Y-75946000D03*
X80010000Y-102870000D03*
X59436000Y-93726000D03*
X65151000Y-96266000D03*
X62230000Y-94488000D03*
X37719000Y-105791000D03*
X36830000Y-98679000D03*
X80010000Y-100965000D03*
X77470000Y-102870000D03*
X59182000Y-89154000D03*
X77470000Y-100965000D03*
X72517000Y-88900000D03*
X74930000Y-100965000D03*
X91694000Y-117094000D03*
X80010000Y-104775000D03*
X42164000Y-105791000D03*
X77470000Y-104775000D03*
X42164000Y-108331000D03*
X54483000Y-95123000D03*
X74549000Y-104775000D03*
X55372000Y-93472000D03*
X40005000Y-105791000D03*
X60452000Y-95631000D03*
X60960000Y-93726000D03*
X33147000Y-102997000D03*
X40005000Y-108331000D03*
X63246000Y-96266000D03*
X73025000Y-106045000D03*
X71755000Y-107315000D03*
X69850000Y-108585000D03*
X72898000Y-103505000D03*
X64770000Y-108585000D03*
X59690000Y-108585000D03*
X59436000Y-76327000D03*
X41021000Y-96266000D03*
X56515000Y-108585000D03*
X62230000Y-108585000D03*
X52832000Y-89535000D03*
X39370000Y-96266000D03*
X33147000Y-108331000D03*
X33147000Y-105791000D03*
X44069000Y-108331000D03*
X44069000Y-105791000D03*
X62230000Y-76835000D03*
X29464000Y-108966000D03*
X27940000Y-105664000D03*
X71755000Y-102870000D03*
X73025000Y-100965000D03*
X71120000Y-100965000D03*
X68961000Y-94615000D03*
X66040000Y-106045000D03*
X68580000Y-102870000D03*
X67310000Y-104140000D03*
X41910000Y-101981000D03*
X64770000Y-104140000D03*
X66040000Y-102870000D03*
X62230000Y-104140000D03*
X60960000Y-106045000D03*
X59690000Y-104140000D03*
X57150000Y-104140000D03*
X69850000Y-101600000D03*
X41910000Y-98679000D03*
X35306000Y-105791000D03*
X63500000Y-106045000D03*
X35306000Y-108331000D03*
X60960000Y-102870000D03*
X63500000Y-102870000D03*
X58420000Y-102870000D03*
X37719000Y-108331000D03*
X66040000Y-101600000D03*
X69215000Y-105410000D03*
X63500000Y-101600000D03*
X61468000Y-101600000D03*
X38100000Y-97409000D03*
X58801000Y-101600000D03*
X59055000Y-106045000D03*
X80010000Y-97155000D03*
X51562000Y-94742000D03*
X77470000Y-97155000D03*
X70485000Y-95885000D03*
X66802000Y-94615000D03*
X80010000Y-99695000D03*
X55245000Y-91313000D03*
X55245000Y-89408000D03*
X77470000Y-99695000D03*
X74930000Y-102870000D03*
X74930000Y-99695000D03*
X74930000Y-97155000D03*
X40132000Y-97536000D03*
X67056000Y-96266000D03*
X71755000Y-97155000D03*
X69215000Y-97155000D03*
X41910000Y-100584000D03*
X41680000Y-103160000D03*
X54356000Y-88519000D03*
X66040000Y-97155000D03*
X64135000Y-97155000D03*
X62230000Y-97155000D03*
X60325000Y-97155000D03*
X58420000Y-97155000D03*
X56515000Y-97155000D03*
X54610000Y-97155000D03*
X52705000Y-97155000D03*
X71120000Y-99695000D03*
X73025000Y-99695000D03*
X29464000Y-107442000D03*
X69215000Y-99695000D03*
X67310000Y-100330000D03*
X64770000Y-100330000D03*
X62865000Y-100330000D03*
X71120000Y-94615000D03*
X60325000Y-100330000D03*
X38100000Y-103124000D03*
X58801000Y-99695000D03*
X57404000Y-99695000D03*
X56007000Y-99695000D03*
X54483000Y-99695000D03*
X51435000Y-99695000D03*
X50800000Y-97155000D03*
X53721000Y-91313000D03*
X50165000Y-98425000D03*
X51689000Y-90551000D03*
X50165000Y-95885000D03*
X37338000Y-102362000D03*
X48260000Y-96520000D03*
X46736000Y-92456000D03*
X45720000Y-91821000D03*
X44450000Y-91821000D03*
X43307000Y-91821000D03*
X41910000Y-91821000D03*
X40640000Y-91567000D03*
X39497000Y-91948000D03*
X39624000Y-90424000D03*
X39370000Y-89154000D03*
X39370000Y-87884000D03*
X39370000Y-86614000D03*
X38227000Y-90424000D03*
X38227000Y-89154000D03*
X38227000Y-87884000D03*
X38227000Y-86614000D03*
X37846000Y-85090000D03*
X39370000Y-83693000D03*
X40894000Y-85090000D03*
X41656000Y-82804000D03*
X41656000Y-80772000D03*
X50647600Y-68173600D03*
X49123600Y-68173600D03*
X47599600Y-68173600D03*
X46075600Y-68173600D03*
X44551600Y-68173600D03*
D12*
X42926000Y-115824000D03*
X37846000Y-115824000D03*
D13*
X38186000Y-114256000D03*
X37486000Y-114256000D03*
X38186000Y-115256000D03*
X38186000Y-116256000D03*
X37486000Y-116256000D03*
X37486000Y-115256000D03*
X42586000Y-114256000D03*
X42586000Y-115256000D03*
X42586000Y-116256000D03*
X43286000Y-116256000D03*
X43286000Y-115256000D03*
X43286000Y-114256000D03*
D14*
X48006000Y-103378000D03*
X47346000Y-102718000D03*
X48666000Y-102718000D03*
X48666000Y-104038000D03*
X47346000Y-104038000D03*
D15*
X48006000Y-84963000D03*
X48006000Y-83463000D03*
X49506000Y-83463000D03*
X49506000Y-84963000D03*
X49506000Y-86463000D03*
X48006000Y-86463000D03*
X46506000Y-86463000D03*
X46506000Y-84963000D03*
X46506000Y-83463000D03*
D16*
X68707000Y-84963000D03*
X68707000Y-86613000D03*
X67057000Y-86613000D03*
X67057000Y-84963000D03*
X67057000Y-83313000D03*
X68707000Y-83313000D03*
X70357000Y-83313000D03*
X70357000Y-84963000D03*
X70357000Y-86613000D03*
D17*
X51604000Y-86487000D03*
X50504000Y-86487000D03*
D18*
X50419000Y-81365000D03*
X50419000Y-82465000D03*
D19*
X91213000Y-68599000D03*
D20*
X88673000Y-68599000D03*
X91213000Y-71139000D03*
X88673000Y-71139000D03*
X91213000Y-73679000D03*
X88673000Y-73679000D03*
X91213000Y-76219000D03*
X88673000Y-76219000D03*
X91213000Y-78759000D03*
X88673000Y-78759000D03*
X91213000Y-81299000D03*
X88673000Y-81299000D03*
X91213000Y-83839000D03*
X88673000Y-83839000D03*
X91213000Y-86379000D03*
X88673000Y-86379000D03*
X91213000Y-88919000D03*
X88673000Y-88919000D03*
X91213000Y-91459000D03*
X88673000Y-91459000D03*
X91213000Y-93999000D03*
X88673000Y-93999000D03*
X91213000Y-96539000D03*
X88673000Y-96539000D03*
X91213000Y-99079000D03*
X88673000Y-99079000D03*
X91213000Y-101619000D03*
X88673000Y-101619000D03*
X91213000Y-104159000D03*
X88673000Y-104159000D03*
X91213000Y-106699000D03*
X88673000Y-106699000D03*
X91213000Y-109239000D03*
X88673000Y-109239000D03*
X91213000Y-111779000D03*
X88673000Y-111779000D03*
D19*
X85213000Y-76219000D03*
D20*
X82673000Y-76219000D03*
X85213000Y-78759000D03*
X82673000Y-78759000D03*
X85213000Y-81299000D03*
X82673000Y-81299000D03*
X85213000Y-83839000D03*
X82673000Y-83839000D03*
X85213000Y-86379000D03*
X82673000Y-86379000D03*
X85213000Y-88919000D03*
X82673000Y-88919000D03*
X85213000Y-91459000D03*
X82673000Y-91459000D03*
X85213000Y-93999000D03*
X82673000Y-93999000D03*
X85213000Y-96539000D03*
X82673000Y-96539000D03*
X85213000Y-99079000D03*
X82673000Y-99079000D03*
X85213000Y-101619000D03*
X82673000Y-101619000D03*
X85213000Y-104159000D03*
X82673000Y-104159000D03*
D19*
X24713000Y-73679000D03*
D20*
X22173000Y-73679000D03*
X24713000Y-76219000D03*
X22173000Y-76219000D03*
X24713000Y-78759000D03*
X22173000Y-78759000D03*
X24713000Y-81299000D03*
X22173000Y-81299000D03*
X24713000Y-83839000D03*
X22173000Y-83839000D03*
X24713000Y-86379000D03*
X22173000Y-86379000D03*
X24713000Y-88919000D03*
X22173000Y-88919000D03*
X24713000Y-91459000D03*
X22173000Y-91459000D03*
X24713000Y-93999000D03*
X22173000Y-93999000D03*
X24713000Y-96539000D03*
X22173000Y-96539000D03*
X24713000Y-99079000D03*
X22173000Y-99079000D03*
X24713000Y-101619000D03*
X22173000Y-101619000D03*
X24713000Y-104159000D03*
X22173000Y-104159000D03*
X24713000Y-106699000D03*
X22173000Y-106699000D03*
D12*
X52324000Y-69469000D03*
X57404000Y-69469000D03*
D13*
X57064000Y-71037000D03*
X57764000Y-71037000D03*
X57064000Y-70037000D03*
X57064000Y-69037000D03*
X57764000Y-69037000D03*
X57764000Y-70037000D03*
X52664000Y-71037000D03*
X52664000Y-70037000D03*
X52664000Y-69037000D03*
X51964000Y-69037000D03*
X51964000Y-70037000D03*
X51964000Y-71037000D03*
D12*
X37846000Y-69342000D03*
X42926000Y-69342000D03*
D13*
X42586000Y-70910000D03*
X43286000Y-70910000D03*
X42586000Y-69910000D03*
X42586000Y-68910000D03*
X43286000Y-68910000D03*
X43286000Y-69910000D03*
X38186000Y-70910000D03*
X38186000Y-69910000D03*
X38186000Y-68910000D03*
X37486000Y-68910000D03*
X37486000Y-69910000D03*
X37486000Y-70910000D03*
D12*
X57404000Y-115824000D03*
X52324000Y-115824000D03*
D13*
X52664000Y-114256000D03*
X51964000Y-114256000D03*
X52664000Y-115256000D03*
X52664000Y-116256000D03*
X51964000Y-116256000D03*
X51964000Y-115256000D03*
X57064000Y-114256000D03*
X57064000Y-115256000D03*
X57064000Y-116256000D03*
X57764000Y-116256000D03*
X57764000Y-115256000D03*
X57764000Y-114256000D03*
D18*
X48006000Y-81365000D03*
X48006000Y-82465000D03*
D17*
X64982000Y-83312000D03*
X66082000Y-83312000D03*
X51604000Y-83439000D03*
X50504000Y-83439000D03*
D18*
X68707000Y-88688000D03*
X68707000Y-87588000D03*
D17*
X64982000Y-84963000D03*
X66082000Y-84963000D03*
X64982000Y-86614000D03*
X66082000Y-86614000D03*
D18*
X67056000Y-81238000D03*
X67056000Y-82338000D03*
D17*
X63288000Y-88138000D03*
X62188000Y-88138000D03*
X63288000Y-89154000D03*
X62188000Y-89154000D03*
X63288000Y-90043000D03*
X62188000Y-90043000D03*
D18*
X67056000Y-88688000D03*
X67056000Y-87588000D03*
D21*
X29210000Y-105860000D03*
X29210000Y-104960000D03*
X31750000Y-105860000D03*
X31750000Y-104960000D03*
X30480000Y-105860000D03*
X30480000Y-104960000D03*
X30480000Y-107119000D03*
X30480000Y-108019000D03*
D17*
X44408000Y-84455000D03*
X45508000Y-84455000D03*
X44408000Y-86487000D03*
X45508000Y-86487000D03*
X44408000Y-83439000D03*
X45508000Y-83439000D03*
D18*
X70358000Y-88688000D03*
X70358000Y-87588000D03*
D17*
X44408000Y-85471000D03*
X45508000Y-85471000D03*
X72559000Y-84963000D03*
X71459000Y-84963000D03*
X51604000Y-84963000D03*
X50504000Y-84963000D03*
D22*
X67310000Y-72390000D03*
D19*
X77597000Y-111760000D03*
D20*
X77597000Y-109220000D03*
D11*
X51816000Y-76708000D03*
X37338000Y-76962000D03*
D17*
X50842000Y-104140000D03*
X49742000Y-104140000D03*
D18*
X48768000Y-106214000D03*
X48768000Y-105114000D03*
D17*
X50842000Y-102616000D03*
X49742000Y-102616000D03*
D18*
X46990000Y-100542000D03*
X46990000Y-101642000D03*
X48768000Y-100542000D03*
X48768000Y-101642000D03*
M02*
