G04 #@! TF.FileFunction,Legend,Top*
%FSLAX46Y46*%
G04 Gerber Fmt 4.6, Leading zero omitted, Abs format (unit mm)*
G04 Created by KiCad (PCBNEW 4.0.0-rc1-stable) date 05/07/2016 17:06:47*
%MOMM*%
G01*
G04 APERTURE LIST*
%ADD10C,0.100000*%
%ADD11C,0.200000*%
%ADD12C,0.250000*%
%ADD13C,0.150000*%
%ADD14C,0.203200*%
%ADD15C,0.254000*%
%ADD16C,0.110000*%
%ADD17C,0.124460*%
%ADD18C,0.120000*%
%ADD19C,0.095250*%
%ADD20C,0.096520*%
%ADD21C,0.190500*%
%ADD22C,0.101600*%
G04 APERTURE END LIST*
D10*
D11*
X107206738Y-86202059D02*
X107206738Y-85249678D01*
X106254357Y-85154440D01*
X106349595Y-85249678D01*
X106444833Y-85440155D01*
X106444833Y-85916345D01*
X106349595Y-86106821D01*
X106254357Y-86202059D01*
X106063881Y-86297298D01*
X105587690Y-86297298D01*
X105397214Y-86202059D01*
X105301976Y-86106821D01*
X105206738Y-85916345D01*
X105206738Y-85440155D01*
X105301976Y-85249678D01*
X105397214Y-85154440D01*
X107206738Y-87535393D02*
X107206738Y-87725869D01*
X107111500Y-87916345D01*
X107016262Y-88011583D01*
X106825786Y-88106821D01*
X106444833Y-88202060D01*
X105968643Y-88202060D01*
X105587690Y-88106821D01*
X105397214Y-88011583D01*
X105301976Y-87916345D01*
X105206738Y-87725869D01*
X105206738Y-87535393D01*
X105301976Y-87344917D01*
X105397214Y-87249679D01*
X105587690Y-87154440D01*
X105968643Y-87059202D01*
X106444833Y-87059202D01*
X106825786Y-87154440D01*
X107016262Y-87249679D01*
X107111500Y-87344917D01*
X107206738Y-87535393D01*
X105301976Y-89154441D02*
X105206738Y-89154441D01*
X105016262Y-89059202D01*
X104921024Y-88963964D01*
X105206738Y-90106822D02*
X105206738Y-90487774D01*
X105301976Y-90678250D01*
X105397214Y-90773488D01*
X105682929Y-90963964D01*
X106063881Y-91059203D01*
X106825786Y-91059203D01*
X107016262Y-90963964D01*
X107111500Y-90868726D01*
X107206738Y-90678250D01*
X107206738Y-90297298D01*
X107111500Y-90106822D01*
X107016262Y-90011583D01*
X106825786Y-89916345D01*
X106349595Y-89916345D01*
X106159119Y-90011583D01*
X106063881Y-90106822D01*
X105968643Y-90297298D01*
X105968643Y-90678250D01*
X106063881Y-90868726D01*
X106159119Y-90963964D01*
X106349595Y-91059203D01*
X105206738Y-92011584D02*
X105206738Y-92392536D01*
X105301976Y-92583012D01*
X105397214Y-92678250D01*
X105682929Y-92868726D01*
X106063881Y-92963965D01*
X106825786Y-92963965D01*
X107016262Y-92868726D01*
X107111500Y-92773488D01*
X107206738Y-92583012D01*
X107206738Y-92202060D01*
X107111500Y-92011584D01*
X107016262Y-91916345D01*
X106825786Y-91821107D01*
X106349595Y-91821107D01*
X106159119Y-91916345D01*
X106063881Y-92011584D01*
X105968643Y-92202060D01*
X105968643Y-92583012D01*
X106063881Y-92773488D01*
X106159119Y-92868726D01*
X106349595Y-92963965D01*
X107206738Y-94202060D02*
X107206738Y-94392536D01*
X107111500Y-94583012D01*
X107016262Y-94678250D01*
X106825786Y-94773488D01*
X106444833Y-94868727D01*
X105968643Y-94868727D01*
X105587690Y-94773488D01*
X105397214Y-94678250D01*
X105301976Y-94583012D01*
X105206738Y-94392536D01*
X105206738Y-94202060D01*
X105301976Y-94011584D01*
X105397214Y-93916346D01*
X105587690Y-93821107D01*
X105968643Y-93725869D01*
X106444833Y-93725869D01*
X106825786Y-93821107D01*
X107016262Y-93916346D01*
X107111500Y-94011584D01*
X107206738Y-94202060D01*
X105206738Y-95725869D02*
X106540071Y-95725869D01*
X106349595Y-95725869D02*
X106444833Y-95821108D01*
X106540071Y-96011584D01*
X106540071Y-96297298D01*
X106444833Y-96487774D01*
X106254357Y-96583012D01*
X105206738Y-96583012D01*
X106254357Y-96583012D02*
X106444833Y-96678250D01*
X106540071Y-96868727D01*
X106540071Y-97154441D01*
X106444833Y-97344917D01*
X106254357Y-97440155D01*
X105206738Y-97440155D01*
X105206738Y-98392536D02*
X106540071Y-98392536D01*
X106349595Y-98392536D02*
X106444833Y-98487775D01*
X106540071Y-98678251D01*
X106540071Y-98963965D01*
X106444833Y-99154441D01*
X106254357Y-99249679D01*
X105206738Y-99249679D01*
X106254357Y-99249679D02*
X106444833Y-99344917D01*
X106540071Y-99535394D01*
X106540071Y-99821108D01*
X106444833Y-100011584D01*
X106254357Y-100106822D01*
X105206738Y-100106822D01*
X104711500Y-67183000D02*
X104711500Y-118173500D01*
X93345000Y-67183000D02*
X107511500Y-67183000D01*
X93345000Y-118173500D02*
X107511500Y-118173500D01*
X104711500Y-118173500D02*
X104125079Y-117046996D01*
X104711500Y-118173500D02*
X105297921Y-117046996D01*
X104711500Y-67183000D02*
X104125079Y-68309504D01*
X104711500Y-67183000D02*
X105297921Y-68309504D01*
X49268154Y-59052740D02*
X50601456Y-59062032D01*
X49730397Y-61056010D01*
X51266778Y-59257149D02*
X51362678Y-59162577D01*
X51553814Y-59068668D01*
X52029992Y-59071987D01*
X52219800Y-59168550D01*
X52314372Y-59264449D01*
X52408281Y-59455584D01*
X52406954Y-59646056D01*
X52309726Y-59931100D01*
X51158933Y-61065965D01*
X52396999Y-61074593D01*
X53350020Y-60985994D02*
X53349357Y-61081229D01*
X53252793Y-61271037D01*
X53156893Y-61365609D01*
X54301715Y-61087866D02*
X54682657Y-61090521D01*
X54873792Y-60996612D01*
X54969692Y-60902040D01*
X55162154Y-60617660D01*
X55260045Y-60237381D01*
X55265355Y-59475494D01*
X55171445Y-59284359D01*
X55076873Y-59188460D01*
X54887066Y-59091897D01*
X54506123Y-59089242D01*
X54314988Y-59183150D01*
X54219088Y-59277722D01*
X54122525Y-59467530D01*
X54119206Y-59943710D01*
X54213115Y-60134845D01*
X54307688Y-60230744D01*
X54497495Y-60327307D01*
X54878438Y-60329962D01*
X55069573Y-60236053D01*
X55165472Y-60141481D01*
X55262036Y-59951673D01*
X56506074Y-59103179D02*
X56696546Y-59104506D01*
X56886353Y-59201069D01*
X56980925Y-59296969D01*
X57074834Y-59488104D01*
X57167416Y-59869711D01*
X57164098Y-60345890D01*
X57066206Y-60726170D01*
X56969643Y-60915977D01*
X56873744Y-61010549D01*
X56682609Y-61104458D01*
X56492137Y-61103130D01*
X56302330Y-61006567D01*
X56207758Y-60910668D01*
X56113848Y-60719533D01*
X56021267Y-60337926D01*
X56024586Y-59861747D01*
X56122476Y-59481467D01*
X56219040Y-59291659D01*
X56314939Y-59197087D01*
X56506074Y-59103179D01*
X58410790Y-59116452D02*
X58601262Y-59117780D01*
X58791069Y-59214343D01*
X58885641Y-59310242D01*
X58979550Y-59501377D01*
X59072132Y-59882984D01*
X59068813Y-60359163D01*
X58970922Y-60739443D01*
X58874359Y-60929251D01*
X58778460Y-61023823D01*
X58587325Y-61117731D01*
X58396853Y-61116404D01*
X58207045Y-61019841D01*
X58112473Y-60923941D01*
X58018564Y-60732806D01*
X57925983Y-60351199D01*
X57929301Y-59875020D01*
X58027192Y-59494740D01*
X58123756Y-59304933D01*
X58219655Y-59210361D01*
X58410790Y-59116452D01*
X59920625Y-61127022D02*
X59929916Y-59793722D01*
X59928589Y-59984193D02*
X60024490Y-59889621D01*
X60215625Y-59795713D01*
X60501332Y-59797704D01*
X60691139Y-59894267D01*
X60785048Y-60085402D01*
X60777747Y-61132995D01*
X60785048Y-60085402D02*
X60881611Y-59895594D01*
X61072747Y-59801686D01*
X61358454Y-59803677D01*
X61548262Y-59900240D01*
X61642170Y-60091375D01*
X61634870Y-61138968D01*
X62587227Y-61145605D02*
X62596519Y-59812304D01*
X62595191Y-60002776D02*
X62691092Y-59908204D01*
X62882227Y-59814295D01*
X63167934Y-59816286D01*
X63357742Y-59912849D01*
X63451650Y-60103984D01*
X63444350Y-61151578D01*
X63451650Y-60103984D02*
X63548213Y-59914177D01*
X63739349Y-59820268D01*
X64025056Y-59822259D01*
X64214864Y-59918822D01*
X64308772Y-60109957D01*
X64301472Y-61157551D01*
X20420629Y-61347011D02*
X93318629Y-61855011D01*
X20383500Y-66675000D02*
X20440141Y-58547079D01*
X93281500Y-67183000D02*
X93338141Y-59055079D01*
X93318629Y-61855011D02*
X92188066Y-62433567D01*
X93318629Y-61855011D02*
X92196239Y-61260754D01*
X20420629Y-61347011D02*
X21543019Y-61941268D01*
X20420629Y-61347011D02*
X21551192Y-60768455D01*
D12*
X85817286Y-68466619D02*
X85864905Y-68419000D01*
X85960143Y-68371381D01*
X86198239Y-68371381D01*
X86293477Y-68419000D01*
X86341096Y-68466619D01*
X86388715Y-68561857D01*
X86388715Y-68657095D01*
X86341096Y-68799952D01*
X85769667Y-69371381D01*
X86388715Y-69371381D01*
X80097286Y-75266619D02*
X80144905Y-75219000D01*
X80240143Y-75171381D01*
X80478239Y-75171381D01*
X80573477Y-75219000D01*
X80621096Y-75266619D01*
X80668715Y-75361857D01*
X80668715Y-75457095D01*
X80621096Y-75599952D01*
X80049667Y-76171381D01*
X80668715Y-76171381D01*
D13*
X49563000Y-75823000D02*
X49563000Y-76323000D01*
X50513000Y-76323000D02*
X50513000Y-75823000D01*
X55050500Y-87155000D02*
X54550500Y-87155000D01*
X54550500Y-88105000D02*
X55050500Y-88105000D01*
X87403000Y-67329000D02*
X87403000Y-113049000D01*
X92483000Y-113049000D02*
X92483000Y-69869000D01*
X87403000Y-113049000D02*
X92483000Y-113049000D01*
X87403000Y-67329000D02*
X89943000Y-67329000D01*
X92483000Y-67329000D02*
X92483000Y-69869000D01*
X89943000Y-67329000D02*
X89943000Y-69869000D01*
X89943000Y-69869000D02*
X92483000Y-69869000D01*
X92483000Y-67329000D02*
X89943000Y-67329000D01*
X81403000Y-105429000D02*
X81403000Y-74949000D01*
X86483000Y-77489000D02*
X86483000Y-105429000D01*
X81403000Y-105429000D02*
X86483000Y-105429000D01*
X81403000Y-74949000D02*
X83943000Y-74949000D01*
X86483000Y-74949000D02*
X86483000Y-77489000D01*
X83943000Y-74949000D02*
X83943000Y-77489000D01*
X83943000Y-77489000D02*
X86483000Y-77489000D01*
X86483000Y-74949000D02*
X83943000Y-74949000D01*
X20903000Y-107969000D02*
X20903000Y-72409000D01*
X25983000Y-74949000D02*
X25983000Y-107969000D01*
X20903000Y-107969000D02*
X25983000Y-107969000D01*
X20903000Y-72409000D02*
X23443000Y-72409000D01*
X25983000Y-72409000D02*
X25983000Y-74949000D01*
X23443000Y-72409000D02*
X23443000Y-74949000D01*
X23443000Y-74949000D02*
X25983000Y-74949000D01*
X25983000Y-72409000D02*
X23443000Y-72409000D01*
X76053160Y-104413760D02*
X76004900Y-104413760D01*
X73254180Y-105114800D02*
X73254180Y-104413760D01*
X73254180Y-104413760D02*
X73503100Y-104413760D01*
X76053160Y-104413760D02*
X76253820Y-104413760D01*
X76253820Y-104413760D02*
X76253820Y-105114800D01*
D14*
X51290220Y-74333100D02*
X51290220Y-73032620D01*
X52087780Y-72732900D02*
X52087780Y-74333100D01*
X52087780Y-72732900D02*
X51689000Y-72732900D01*
X51290220Y-72732900D02*
X51389280Y-72732900D01*
X52087780Y-74333100D02*
X51290220Y-74333100D01*
X40114220Y-74587100D02*
X40114220Y-73286620D01*
X40911780Y-72986900D02*
X40911780Y-74587100D01*
X40911780Y-72986900D02*
X40513000Y-72986900D01*
X40114220Y-72986900D02*
X40213280Y-72986900D01*
X40911780Y-74587100D02*
X40114220Y-74587100D01*
X50606960Y-81963260D02*
X51005740Y-82362040D01*
X45006260Y-82362040D02*
X45006260Y-81963260D01*
X45006260Y-81963260D02*
X45405040Y-81963260D01*
X45405040Y-87962740D02*
X45006260Y-87962740D01*
X45006260Y-87962740D02*
X45006260Y-87563960D01*
X51005740Y-87563960D02*
X51005740Y-87962740D01*
X51005740Y-87962740D02*
X50606960Y-87962740D01*
X65206880Y-88061800D02*
X65608200Y-88463120D01*
X65608200Y-81462880D02*
X65206880Y-81462880D01*
X65206880Y-81462880D02*
X65206880Y-81864200D01*
X72207120Y-81864200D02*
X72207120Y-81462880D01*
X72207120Y-81462880D02*
X71805800Y-81462880D01*
X71805800Y-88463120D02*
X72207120Y-88463120D01*
X72207120Y-88463120D02*
X72207120Y-88061800D01*
X38722300Y-100238560D02*
X38722300Y-100040440D01*
X41922700Y-100238560D02*
X41922700Y-100040440D01*
X40073580Y-101389180D02*
X40571420Y-101389180D01*
X40073580Y-98889820D02*
X40571420Y-98889820D01*
D10*
X29823000Y-112679000D02*
G75*
G03X29823000Y-112679000I-2000000J0D01*
G01*
X67072000Y-106728000D02*
X73072000Y-106728000D01*
X67072000Y-113728000D02*
X73072000Y-113728000D01*
X67072000Y-111728000D02*
X73072000Y-111728000D01*
X73072000Y-106728000D02*
X73072000Y-113728000D01*
X67072000Y-106728000D02*
X67072000Y-113728000D01*
D14*
X75638400Y-106836000D02*
X75638400Y-110392000D01*
X75638400Y-110392000D02*
X73809600Y-110392000D01*
X73809600Y-110392000D02*
X73809600Y-106836000D01*
X73809600Y-106836000D02*
X75638400Y-106836000D01*
X44627800Y-101506020D02*
X44229020Y-101904800D01*
X48226980Y-101904800D02*
X48226980Y-101506020D01*
X48226980Y-101506020D02*
X47828200Y-101506020D01*
X47828200Y-105503980D02*
X48226980Y-105503980D01*
X48226980Y-105503980D02*
X48226980Y-105105200D01*
X44229020Y-105105200D02*
X44229020Y-105503980D01*
X44229020Y-105503980D02*
X44627800Y-105503980D01*
X50800000Y-75692000D02*
X50800000Y-74930000D01*
X50800000Y-74930000D02*
X52578000Y-74930000D01*
X52578000Y-74930000D02*
X52578000Y-75692000D01*
X52578000Y-75692000D02*
X50800000Y-75692000D01*
X50800000Y-77216000D02*
X50800000Y-76454000D01*
X50800000Y-76454000D02*
X52578000Y-76454000D01*
X52578000Y-76454000D02*
X52578000Y-77216000D01*
X52578000Y-77216000D02*
X50800000Y-77216000D01*
X39624000Y-75946000D02*
X39624000Y-75184000D01*
X39624000Y-75184000D02*
X41402000Y-75184000D01*
X41402000Y-75184000D02*
X41402000Y-75946000D01*
X41402000Y-75946000D02*
X39624000Y-75946000D01*
X39624000Y-77216000D02*
X39624000Y-76454000D01*
X39624000Y-76454000D02*
X41402000Y-76454000D01*
X41402000Y-76454000D02*
X41402000Y-77216000D01*
X41402000Y-77216000D02*
X39624000Y-77216000D01*
D13*
X42286348Y-82518599D02*
X42639901Y-82872152D01*
X43311652Y-82200401D02*
X42958099Y-81846848D01*
X48989901Y-77719348D02*
X48636348Y-78072901D01*
X49308099Y-78744652D02*
X49661652Y-78391099D01*
X51783901Y-77719348D02*
X51430348Y-78072901D01*
X52102099Y-78744652D02*
X52455652Y-78391099D01*
X66834099Y-91635152D02*
X67187652Y-91281599D01*
X66515901Y-90609848D02*
X66162348Y-90963401D01*
X40136000Y-88613000D02*
X40636000Y-88613000D01*
X40636000Y-87663000D02*
X40136000Y-87663000D01*
X40136000Y-87343000D02*
X40636000Y-87343000D01*
X40636000Y-86393000D02*
X40136000Y-86393000D01*
X46512500Y-91944000D02*
X46512500Y-91444000D01*
X45562500Y-91444000D02*
X45562500Y-91944000D01*
X70326599Y-90873152D02*
X70680152Y-90519599D01*
X70008401Y-89847848D02*
X69654848Y-90201401D01*
X62234000Y-83533000D02*
X62734000Y-83533000D01*
X62734000Y-82583000D02*
X62234000Y-82583000D01*
X40136000Y-86073000D02*
X40636000Y-86073000D01*
X40636000Y-85123000D02*
X40136000Y-85123000D01*
X62234000Y-85438000D02*
X62734000Y-85438000D01*
X62734000Y-84488000D02*
X62234000Y-84488000D01*
X54796500Y-79281000D02*
X54296500Y-79281000D01*
X54296500Y-80231000D02*
X54796500Y-80231000D01*
X62234000Y-87597000D02*
X62734000Y-87597000D01*
X62734000Y-86647000D02*
X62234000Y-86647000D01*
X53209000Y-104300000D02*
X52709000Y-104300000D01*
X52709000Y-105250000D02*
X53209000Y-105250000D01*
X66771500Y-77918500D02*
X66771500Y-78418500D01*
X67721500Y-78418500D02*
X67721500Y-77918500D01*
X77884000Y-104271000D02*
X77884000Y-104771000D01*
X78834000Y-104771000D02*
X78834000Y-104271000D01*
X55339000Y-81911000D02*
X55339000Y-81411000D01*
X54389000Y-81411000D02*
X54389000Y-81911000D01*
X55339000Y-84387500D02*
X55339000Y-83887500D01*
X54389000Y-83887500D02*
X54389000Y-84387500D01*
X62234000Y-89121000D02*
X62734000Y-89121000D01*
X62734000Y-88171000D02*
X62234000Y-88171000D01*
X62234000Y-90518000D02*
X62734000Y-90518000D01*
X62734000Y-89568000D02*
X62234000Y-89568000D01*
X77720000Y-110523000D02*
X77220000Y-110523000D01*
X77220000Y-111473000D02*
X77720000Y-111473000D01*
X52865000Y-75823000D02*
X52865000Y-76323000D01*
X53815000Y-76323000D02*
X53815000Y-75823000D01*
X62234000Y-91851500D02*
X62734000Y-91851500D01*
X62734000Y-90901500D02*
X62234000Y-90901500D01*
X58831500Y-91499500D02*
X58831500Y-90999500D01*
X57881500Y-90999500D02*
X57881500Y-91499500D01*
X55339000Y-93976000D02*
X55339000Y-93476000D01*
X54389000Y-93476000D02*
X54389000Y-93976000D01*
X41816000Y-75950000D02*
X41816000Y-76450000D01*
X42766000Y-76450000D02*
X42766000Y-75950000D01*
X45242500Y-91944000D02*
X45242500Y-91444000D01*
X44292500Y-91444000D02*
X44292500Y-91944000D01*
X57019000Y-94013000D02*
X56519000Y-94013000D01*
X56519000Y-94963000D02*
X57019000Y-94963000D01*
X57019000Y-92362000D02*
X56519000Y-92362000D01*
X56519000Y-93312000D02*
X57019000Y-93312000D01*
X57019000Y-90774500D02*
X56519000Y-90774500D01*
X56519000Y-91724500D02*
X57019000Y-91724500D01*
X57019000Y-88996500D02*
X56519000Y-88996500D01*
X56519000Y-89946500D02*
X57019000Y-89946500D01*
X38387000Y-75950000D02*
X38387000Y-76450000D01*
X39337000Y-76450000D02*
X39337000Y-75950000D01*
X41689000Y-90174000D02*
X41689000Y-90674000D01*
X42639000Y-90674000D02*
X42639000Y-90174000D01*
X44102000Y-98683000D02*
X44102000Y-99183000D01*
X45052000Y-99183000D02*
X45052000Y-98683000D01*
X64929099Y-90809652D02*
X65282652Y-90456099D01*
X64610901Y-89784348D02*
X64257348Y-90137901D01*
X38130500Y-100326000D02*
X38130500Y-99826000D01*
X37180500Y-99826000D02*
X37180500Y-100326000D01*
X40572500Y-97315000D02*
X40072500Y-97315000D01*
X40072500Y-98265000D02*
X40572500Y-98265000D01*
X40636000Y-82583000D02*
X40136000Y-82583000D01*
X40136000Y-83533000D02*
X40636000Y-83533000D01*
X38577500Y-90174000D02*
X38577500Y-90674000D01*
X39527500Y-90674000D02*
X39527500Y-90174000D01*
X24226500Y-70552500D02*
X24226500Y-71052500D01*
X25176500Y-71052500D02*
X25176500Y-70552500D01*
X40136000Y-84803000D02*
X40636000Y-84803000D01*
X40636000Y-83853000D02*
X40136000Y-83853000D01*
X54643000Y-101096000D02*
X54643000Y-101596000D01*
X55593000Y-101596000D02*
X55593000Y-101096000D01*
X55593000Y-104326500D02*
X55593000Y-103826500D01*
X54643000Y-103826500D02*
X54643000Y-104326500D01*
X53209000Y-107983000D02*
X52709000Y-107983000D01*
X52709000Y-108933000D02*
X53209000Y-108933000D01*
X53209000Y-111285000D02*
X52709000Y-111285000D01*
X52709000Y-112235000D02*
X53209000Y-112235000D01*
X53209000Y-99918500D02*
X52709000Y-99918500D01*
X52709000Y-100868500D02*
X53209000Y-100868500D01*
X76741000Y-104271000D02*
X76741000Y-104771000D01*
X77691000Y-104771000D02*
X77691000Y-104271000D01*
X45880000Y-98683000D02*
X45880000Y-99183000D01*
X46830000Y-99183000D02*
X46830000Y-98683000D01*
X49751000Y-109343000D02*
X49751000Y-108843000D01*
X48801000Y-108843000D02*
X48801000Y-109343000D01*
X42578000Y-108843000D02*
X42578000Y-109343000D01*
X43528000Y-109343000D02*
X43528000Y-108843000D01*
X52709000Y-110838000D02*
X53209000Y-110838000D01*
X53209000Y-109888000D02*
X52709000Y-109888000D01*
X74454000Y-111559000D02*
X74954000Y-111559000D01*
X74954000Y-110509000D02*
X74454000Y-110509000D01*
X58170000Y-83456000D02*
X58670000Y-83456000D01*
X58670000Y-82406000D02*
X58170000Y-82406000D01*
X58170000Y-85234000D02*
X58670000Y-85234000D01*
X58670000Y-84184000D02*
X58170000Y-84184000D01*
X58170000Y-87012000D02*
X58670000Y-87012000D01*
X58670000Y-85962000D02*
X58170000Y-85962000D01*
X58170000Y-88790000D02*
X58670000Y-88790000D01*
X58670000Y-87740000D02*
X58170000Y-87740000D01*
X57019000Y-86851000D02*
X56519000Y-86851000D01*
X56519000Y-87901000D02*
X57019000Y-87901000D01*
X57019000Y-85073000D02*
X56519000Y-85073000D01*
X56519000Y-86123000D02*
X57019000Y-86123000D01*
X57019000Y-83295000D02*
X56519000Y-83295000D01*
X56519000Y-84345000D02*
X57019000Y-84345000D01*
X57019000Y-81580500D02*
X56519000Y-81580500D01*
X56519000Y-82630500D02*
X57019000Y-82630500D01*
X54339000Y-88904000D02*
X54339000Y-89404000D01*
X55389000Y-89404000D02*
X55389000Y-88904000D01*
X54339000Y-91126500D02*
X54339000Y-91626500D01*
X55389000Y-91626500D02*
X55389000Y-91126500D01*
X51693000Y-90377500D02*
X52193000Y-90377500D01*
X52193000Y-89327500D02*
X51693000Y-89327500D01*
X51693000Y-91774500D02*
X52193000Y-91774500D01*
X52193000Y-90724500D02*
X51693000Y-90724500D01*
X42909000Y-91444000D02*
X42909000Y-91944000D01*
X43959000Y-91944000D02*
X43959000Y-91444000D01*
X40130500Y-90250500D02*
X40630500Y-90250500D01*
X40630500Y-89200500D02*
X40130500Y-89200500D01*
X40136000Y-91711000D02*
X40636000Y-91711000D01*
X40636000Y-90661000D02*
X40136000Y-90661000D01*
X39493000Y-105520000D02*
X38993000Y-105520000D01*
X38993000Y-106570000D02*
X39493000Y-106570000D01*
X39493000Y-103869000D02*
X38993000Y-103869000D01*
X38993000Y-104919000D02*
X39493000Y-104919000D01*
X39493000Y-102345000D02*
X38993000Y-102345000D01*
X38993000Y-103395000D02*
X39493000Y-103395000D01*
X52709000Y-102379000D02*
X53209000Y-102379000D01*
X53209000Y-101329000D02*
X52709000Y-101329000D01*
X52709000Y-103903000D02*
X53209000Y-103903000D01*
X53209000Y-102853000D02*
X52709000Y-102853000D01*
X47100000Y-108843000D02*
X47100000Y-109343000D01*
X48150000Y-109343000D02*
X48150000Y-108843000D01*
X42054000Y-109343000D02*
X42054000Y-108843000D01*
X41004000Y-108843000D02*
X41004000Y-109343000D01*
X45576000Y-108843000D02*
X45576000Y-109343000D01*
X46626000Y-109343000D02*
X46626000Y-108843000D01*
X44052000Y-108843000D02*
X44052000Y-109343000D01*
X45102000Y-109343000D02*
X45102000Y-108843000D01*
X88269000Y-114571000D02*
X88769000Y-114571000D01*
X88769000Y-113521000D02*
X88269000Y-113521000D01*
X76204000Y-91457000D02*
X76704000Y-91457000D01*
X76704000Y-90407000D02*
X76204000Y-90407000D01*
X76704000Y-78977000D02*
X76204000Y-78977000D01*
X76204000Y-80027000D02*
X76704000Y-80027000D01*
X76704000Y-80374000D02*
X76204000Y-80374000D01*
X76204000Y-81424000D02*
X76704000Y-81424000D01*
X76704000Y-81771000D02*
X76204000Y-81771000D01*
X76204000Y-82821000D02*
X76704000Y-82821000D01*
X76704000Y-83295000D02*
X76204000Y-83295000D01*
X76204000Y-84345000D02*
X76704000Y-84345000D01*
X76704000Y-86216000D02*
X76204000Y-86216000D01*
X76204000Y-87266000D02*
X76704000Y-87266000D01*
X76704000Y-87613000D02*
X76204000Y-87613000D01*
X76204000Y-88663000D02*
X76704000Y-88663000D01*
X76704000Y-89010000D02*
X76204000Y-89010000D01*
X76204000Y-90060000D02*
X76704000Y-90060000D01*
X33143000Y-83295000D02*
X32643000Y-83295000D01*
X32643000Y-84345000D02*
X33143000Y-84345000D01*
X33143000Y-80755000D02*
X32643000Y-80755000D01*
X32643000Y-81805000D02*
X33143000Y-81805000D01*
X33143000Y-85835000D02*
X32643000Y-85835000D01*
X32643000Y-86885000D02*
X33143000Y-86885000D01*
X30818000Y-83270000D02*
X28918000Y-83270000D01*
X30818000Y-84370000D02*
X28918000Y-84370000D01*
X29918000Y-83820000D02*
X29468000Y-83820000D01*
X29968000Y-84070000D02*
X29968000Y-83570000D01*
X29968000Y-83820000D02*
X29718000Y-84070000D01*
X29718000Y-84070000D02*
X29718000Y-83570000D01*
X29718000Y-83570000D02*
X29968000Y-83820000D01*
X30818000Y-80730000D02*
X28918000Y-80730000D01*
X30818000Y-81830000D02*
X28918000Y-81830000D01*
X29918000Y-81280000D02*
X29468000Y-81280000D01*
X29968000Y-81530000D02*
X29968000Y-81030000D01*
X29968000Y-81280000D02*
X29718000Y-81530000D01*
X29718000Y-81530000D02*
X29718000Y-81030000D01*
X29718000Y-81030000D02*
X29968000Y-81280000D01*
X30818000Y-85810000D02*
X28918000Y-85810000D01*
X30818000Y-86910000D02*
X28918000Y-86910000D01*
X29918000Y-86360000D02*
X29468000Y-86360000D01*
X29968000Y-86610000D02*
X29968000Y-86110000D01*
X29968000Y-86360000D02*
X29718000Y-86610000D01*
X29718000Y-86610000D02*
X29718000Y-86110000D01*
X29718000Y-86110000D02*
X29968000Y-86360000D01*
X76704000Y-84742000D02*
X76204000Y-84742000D01*
X76204000Y-85692000D02*
X76704000Y-85692000D01*
X33651000Y-108949000D02*
X33151000Y-108949000D01*
X33151000Y-109999000D02*
X33651000Y-109999000D01*
X54704000Y-86419500D02*
X54704000Y-85919500D01*
X53754000Y-85919500D02*
X53754000Y-86419500D01*
X38488600Y-72648000D02*
X38488600Y-73148000D01*
X39438600Y-73148000D02*
X39438600Y-72648000D01*
X57081000Y-127709001D02*
X56581000Y-127709001D01*
X56581000Y-128659001D02*
X57081000Y-128659001D01*
X57081000Y-127709001D02*
X56581000Y-127709001D01*
X56581000Y-128659001D02*
X57081000Y-128659001D01*
X59117000Y-128184001D02*
G75*
G03X59117000Y-128184001I-2286000J0D01*
G01*
X75339024Y-129233600D02*
X76482024Y-129233600D01*
X76482024Y-129233600D02*
X76482024Y-130376600D01*
X76482024Y-130376600D02*
X76482024Y-130503600D01*
X76482024Y-130503600D02*
X75339024Y-130503600D01*
X75339024Y-130503600D02*
X75212024Y-130376600D01*
X75212024Y-130376600D02*
X75212024Y-129233600D01*
X75212024Y-129233600D02*
X75339024Y-129233600D01*
X67101119Y-134012600D02*
X68244119Y-134012600D01*
X68244119Y-134012600D02*
X68244119Y-135155600D01*
X68244119Y-135155600D02*
X68244119Y-135282600D01*
X68244119Y-135282600D02*
X67101119Y-135282600D01*
X67101119Y-135282600D02*
X66974119Y-135155600D01*
X66974119Y-135155600D02*
X66974119Y-134012600D01*
X66974119Y-134012600D02*
X67101119Y-134012600D01*
X68050644Y-126753600D02*
X69193644Y-126753600D01*
X69193644Y-126753600D02*
X69193644Y-127896600D01*
X69193644Y-127896600D02*
X69193644Y-128023600D01*
X69193644Y-128023600D02*
X68050644Y-128023600D01*
X68050644Y-128023600D02*
X67923644Y-127896600D01*
X67923644Y-127896600D02*
X67923644Y-126753600D01*
X67923644Y-126753600D02*
X68050644Y-126753600D01*
X62643477Y-132237100D02*
X63786477Y-132237100D01*
X63786477Y-132237100D02*
X63786477Y-133380100D01*
X63786477Y-133380100D02*
X63786477Y-133507100D01*
X63786477Y-133507100D02*
X62643477Y-133507100D01*
X62643477Y-133507100D02*
X62516477Y-133380100D01*
X62516477Y-133380100D02*
X62516477Y-132237100D01*
X62516477Y-132237100D02*
X62643477Y-132237100D01*
X58513477Y-136234100D02*
X59656477Y-136234100D01*
X59656477Y-136234100D02*
X59656477Y-137377100D01*
X59656477Y-137377100D02*
X59656477Y-137504100D01*
X59656477Y-137504100D02*
X58513477Y-137504100D01*
X58513477Y-137504100D02*
X58386477Y-137377100D01*
X58386477Y-137377100D02*
X58386477Y-136234100D01*
X58386477Y-136234100D02*
X58513477Y-136234100D01*
X67911548Y-129103600D02*
X69054548Y-129103600D01*
X69054548Y-129103600D02*
X69054548Y-130246600D01*
X69054548Y-130246600D02*
X69054548Y-130373600D01*
X69054548Y-130373600D02*
X67911548Y-130373600D01*
X67911548Y-130373600D02*
X67784548Y-130246600D01*
X67784548Y-130246600D02*
X67784548Y-129103600D01*
X67784548Y-129103600D02*
X67911548Y-129103600D01*
X71048643Y-129230600D02*
X72191643Y-129230600D01*
X72191643Y-129230600D02*
X72191643Y-130373600D01*
X72191643Y-130373600D02*
X72191643Y-130500600D01*
X72191643Y-130500600D02*
X71048643Y-130500600D01*
X71048643Y-130500600D02*
X70921643Y-130373600D01*
X70921643Y-130373600D02*
X70921643Y-129230600D01*
X70921643Y-129230600D02*
X71048643Y-129230600D01*
X70985976Y-126753600D02*
X72128976Y-126753600D01*
X72128976Y-126753600D02*
X72128976Y-127896600D01*
X72128976Y-127896600D02*
X72128976Y-128023600D01*
X72128976Y-128023600D02*
X70985976Y-128023600D01*
X70985976Y-128023600D02*
X70858976Y-127896600D01*
X70858976Y-127896600D02*
X70858976Y-126753600D01*
X70858976Y-126753600D02*
X70985976Y-126753600D01*
X65655601Y-131340101D02*
X66798601Y-131340101D01*
X66798601Y-131340101D02*
X66798601Y-132483101D01*
X66798601Y-132483101D02*
X66798601Y-132610101D01*
X66798601Y-132610101D02*
X65655601Y-132610101D01*
X65655601Y-132610101D02*
X65528601Y-132483101D01*
X65528601Y-132483101D02*
X65528601Y-131340101D01*
X65528601Y-131340101D02*
X65655601Y-131340101D01*
X70307667Y-131456600D02*
X71450667Y-131456600D01*
X71450667Y-131456600D02*
X71450667Y-132599600D01*
X71450667Y-132599600D02*
X71450667Y-132726600D01*
X71450667Y-132726600D02*
X70307667Y-132726600D01*
X70307667Y-132726600D02*
X70180667Y-132599600D01*
X70180667Y-132599600D02*
X70180667Y-131456600D01*
X70180667Y-131456600D02*
X70307667Y-131456600D01*
X69081405Y-133560101D02*
X70224405Y-133560101D01*
X70224405Y-133560101D02*
X70224405Y-134703101D01*
X70224405Y-134703101D02*
X70224405Y-134830101D01*
X70224405Y-134830101D02*
X69081405Y-134830101D01*
X69081405Y-134830101D02*
X68954405Y-134703101D01*
X68954405Y-134703101D02*
X68954405Y-133560101D01*
X68954405Y-133560101D02*
X69081405Y-133560101D01*
X62541601Y-135030101D02*
X61398601Y-135030101D01*
X61398601Y-135030101D02*
X61398601Y-133887101D01*
X61398601Y-133887101D02*
X61398601Y-133760101D01*
X61398601Y-133760101D02*
X62541601Y-133760101D01*
X62541601Y-133760101D02*
X62668601Y-133887101D01*
X62668601Y-133887101D02*
X62668601Y-135030101D01*
X62668601Y-135030101D02*
X62541601Y-135030101D01*
X56895601Y-128270101D02*
X58038601Y-128270101D01*
X58038601Y-128270101D02*
X58038601Y-129413101D01*
X58038601Y-129413101D02*
X58038601Y-129540101D01*
X58038601Y-129540101D02*
X56895601Y-129540101D01*
X56895601Y-129540101D02*
X56768601Y-129413101D01*
X56768601Y-129413101D02*
X56768601Y-128270101D01*
X56768601Y-128270101D02*
X56895601Y-128270101D01*
X67045601Y-136427100D02*
X68188601Y-136427100D01*
X68188601Y-136427100D02*
X68188601Y-137570100D01*
X68188601Y-137570100D02*
X68188601Y-137697100D01*
X68188601Y-137697100D02*
X67045601Y-137697100D01*
X67045601Y-137697100D02*
X66918601Y-137570100D01*
X66918601Y-137570100D02*
X66918601Y-136427100D01*
X66918601Y-136427100D02*
X67045601Y-136427100D01*
X62907619Y-135288100D02*
X64050619Y-135288100D01*
X64050619Y-135288100D02*
X64050619Y-136431100D01*
X64050619Y-136431100D02*
X64050619Y-136558100D01*
X64050619Y-136558100D02*
X62907619Y-136558100D01*
X62907619Y-136558100D02*
X62780619Y-136431100D01*
X62780619Y-136431100D02*
X62780619Y-135288100D01*
X62780619Y-135288100D02*
X62907619Y-135288100D01*
X62907619Y-136810101D02*
X64050619Y-136810101D01*
X64050619Y-136810101D02*
X64050619Y-137953101D01*
X64050619Y-137953101D02*
X64050619Y-138080101D01*
X64050619Y-138080101D02*
X62907619Y-138080101D01*
X62907619Y-138080101D02*
X62780619Y-137953101D01*
X62780619Y-137953101D02*
X62780619Y-136810101D01*
X62780619Y-136810101D02*
X62907619Y-136810101D01*
X65526405Y-135530101D02*
X66669405Y-135530101D01*
X66669405Y-135530101D02*
X66669405Y-136673101D01*
X66669405Y-136673101D02*
X66669405Y-136800101D01*
X66669405Y-136800101D02*
X65526405Y-136800101D01*
X65526405Y-136800101D02*
X65399405Y-136673101D01*
X65399405Y-136673101D02*
X65399405Y-135530101D01*
X65399405Y-135530101D02*
X65526405Y-135530101D01*
X71387405Y-137040101D02*
X72530405Y-137040101D01*
X72530405Y-137040101D02*
X72530405Y-138183101D01*
X72530405Y-138183101D02*
X72530405Y-138310101D01*
X72530405Y-138310101D02*
X71387405Y-138310101D01*
X71387405Y-138310101D02*
X71260405Y-138183101D01*
X71260405Y-138183101D02*
X71260405Y-137040101D01*
X71260405Y-137040101D02*
X71387405Y-137040101D01*
X73377405Y-134690101D02*
X74520405Y-134690101D01*
X74520405Y-134690101D02*
X74520405Y-135833101D01*
X74520405Y-135833101D02*
X74520405Y-135960101D01*
X74520405Y-135960101D02*
X73377405Y-135960101D01*
X73377405Y-135960101D02*
X73250405Y-135833101D01*
X73250405Y-135833101D02*
X73250405Y-134690101D01*
X73250405Y-134690101D02*
X73377405Y-134690101D01*
X74886262Y-130750101D02*
X76029262Y-130750101D01*
X76029262Y-130750101D02*
X76029262Y-131893101D01*
X76029262Y-131893101D02*
X76029262Y-132020101D01*
X76029262Y-132020101D02*
X74886262Y-132020101D01*
X74886262Y-132020101D02*
X74759262Y-131893101D01*
X74759262Y-131893101D02*
X74759262Y-130750101D01*
X74759262Y-130750101D02*
X74886262Y-130750101D01*
X71411595Y-135520101D02*
X72554595Y-135520101D01*
X72554595Y-135520101D02*
X72554595Y-136663101D01*
X72554595Y-136663101D02*
X72554595Y-136790101D01*
X72554595Y-136790101D02*
X71411595Y-136790101D01*
X71411595Y-136790101D02*
X71284595Y-136663101D01*
X71284595Y-136663101D02*
X71284595Y-135520101D01*
X71284595Y-135520101D02*
X71411595Y-135520101D01*
X73291595Y-133170101D02*
X74434595Y-133170101D01*
X74434595Y-133170101D02*
X74434595Y-134313101D01*
X74434595Y-134313101D02*
X74434595Y-134440101D01*
X74434595Y-134440101D02*
X73291595Y-134440101D01*
X73291595Y-134440101D02*
X73164595Y-134313101D01*
X73164595Y-134313101D02*
X73164595Y-133170101D01*
X73164595Y-133170101D02*
X73291595Y-133170101D01*
X71365095Y-134003600D02*
X72508095Y-134003600D01*
X72508095Y-134003600D02*
X72508095Y-135146600D01*
X72508095Y-135146600D02*
X72508095Y-135273600D01*
X72508095Y-135273600D02*
X71365095Y-135273600D01*
X71365095Y-135273600D02*
X71238095Y-135146600D01*
X71238095Y-135146600D02*
X71238095Y-134003600D01*
X71238095Y-134003600D02*
X71365095Y-134003600D01*
X72875095Y-131647100D02*
X74018095Y-131647100D01*
X74018095Y-131647100D02*
X74018095Y-132790100D01*
X74018095Y-132790100D02*
X74018095Y-132917100D01*
X74018095Y-132917100D02*
X72875095Y-132917100D01*
X72875095Y-132917100D02*
X72748095Y-132790100D01*
X72748095Y-132790100D02*
X72748095Y-131647100D01*
X72748095Y-131647100D02*
X72875095Y-131647100D01*
X77198095Y-128400101D02*
X78341095Y-128400101D01*
X78341095Y-128400101D02*
X78341095Y-129543101D01*
X78341095Y-129543101D02*
X78341095Y-129670101D01*
X78341095Y-129670101D02*
X77198095Y-129670101D01*
X77198095Y-129670101D02*
X77071095Y-129543101D01*
X77071095Y-129543101D02*
X77071095Y-128400101D01*
X77071095Y-128400101D02*
X77198095Y-128400101D01*
X77888595Y-126753600D02*
X79031595Y-126753600D01*
X79031595Y-126753600D02*
X79031595Y-127896600D01*
X79031595Y-127896600D02*
X79031595Y-128023600D01*
X79031595Y-128023600D02*
X77888595Y-128023600D01*
X77888595Y-128023600D02*
X77761595Y-127896600D01*
X77761595Y-127896600D02*
X77761595Y-126753600D01*
X77761595Y-126753600D02*
X77888595Y-126753600D01*
X69485095Y-136333600D02*
X70628095Y-136333600D01*
X70628095Y-136333600D02*
X70628095Y-137476600D01*
X70628095Y-137476600D02*
X70628095Y-137603600D01*
X70628095Y-137603600D02*
X69485095Y-137603600D01*
X69485095Y-137603600D02*
X69358095Y-137476600D01*
X69358095Y-137476600D02*
X69358095Y-136333600D01*
X69358095Y-136333600D02*
X69485095Y-136333600D01*
X73485095Y-128400101D02*
X74628095Y-128400101D01*
X74628095Y-128400101D02*
X74628095Y-129543101D01*
X74628095Y-129543101D02*
X74628095Y-129670101D01*
X74628095Y-129670101D02*
X73485095Y-129670101D01*
X73485095Y-129670101D02*
X73358095Y-129543101D01*
X73358095Y-129543101D02*
X73358095Y-128400101D01*
X73358095Y-128400101D02*
X73485095Y-128400101D01*
X77261595Y-130690101D02*
X78404595Y-130690101D01*
X78404595Y-130690101D02*
X78404595Y-131833101D01*
X78404595Y-131833101D02*
X78404595Y-131960101D01*
X78404595Y-131960101D02*
X77261595Y-131960101D01*
X77261595Y-131960101D02*
X77134595Y-131833101D01*
X77134595Y-131833101D02*
X77134595Y-130690101D01*
X77134595Y-130690101D02*
X77261595Y-130690101D01*
X75281595Y-132270101D02*
X76424595Y-132270101D01*
X76424595Y-132270101D02*
X76424595Y-133413101D01*
X76424595Y-133413101D02*
X76424595Y-133540101D01*
X76424595Y-133540101D02*
X75281595Y-133540101D01*
X75281595Y-133540101D02*
X75154595Y-133413101D01*
X75154595Y-133413101D02*
X75154595Y-132270101D01*
X75154595Y-132270101D02*
X75281595Y-132270101D01*
X63398400Y-126568200D02*
X64541400Y-126568200D01*
X64541400Y-126568200D02*
X64541400Y-127711200D01*
X64541400Y-127711200D02*
X64541400Y-127838200D01*
X64541400Y-127838200D02*
X63398400Y-127838200D01*
X63398400Y-127838200D02*
X63271400Y-127711200D01*
X63271400Y-127711200D02*
X63271400Y-126568200D01*
X63271400Y-126568200D02*
X63398400Y-126568200D01*
X76007071Y-126880600D02*
X77150071Y-126880600D01*
X77150071Y-126880600D02*
X77150071Y-128023600D01*
X77150071Y-128023600D02*
X77150071Y-128150600D01*
X77150071Y-128150600D02*
X76007071Y-128150600D01*
X76007071Y-128150600D02*
X75880071Y-128023600D01*
X75880071Y-128023600D02*
X75880071Y-126880600D01*
X75880071Y-126880600D02*
X76007071Y-126880600D01*
D15*
D16*
D15*
D16*
D15*
D16*
X49149771Y-76419828D02*
X49173581Y-76443638D01*
X49197390Y-76515066D01*
X49197390Y-76562685D01*
X49173581Y-76634114D01*
X49125962Y-76681733D01*
X49078343Y-76705542D01*
X48983105Y-76729352D01*
X48911676Y-76729352D01*
X48816438Y-76705542D01*
X48768819Y-76681733D01*
X48721200Y-76634114D01*
X48697390Y-76562685D01*
X48697390Y-76515066D01*
X48721200Y-76443638D01*
X48745010Y-76419828D01*
X48697390Y-76253161D02*
X48697390Y-75943638D01*
X48887867Y-76110304D01*
X48887867Y-76038876D01*
X48911676Y-75991257D01*
X48935486Y-75967447D01*
X48983105Y-75943638D01*
X49102152Y-75943638D01*
X49149771Y-75967447D01*
X49173581Y-75991257D01*
X49197390Y-76038876D01*
X49197390Y-76181733D01*
X49173581Y-76229352D01*
X49149771Y-76253161D01*
X48864057Y-75515067D02*
X49197390Y-75515067D01*
X48673581Y-75634114D02*
X49030724Y-75753162D01*
X49030724Y-75443638D01*
X53739267Y-88595971D02*
X53715457Y-88619781D01*
X53644029Y-88643590D01*
X53596410Y-88643590D01*
X53524981Y-88619781D01*
X53477362Y-88572162D01*
X53453553Y-88524543D01*
X53429743Y-88429305D01*
X53429743Y-88357876D01*
X53453553Y-88262638D01*
X53477362Y-88215019D01*
X53524981Y-88167400D01*
X53596410Y-88143590D01*
X53644029Y-88143590D01*
X53715457Y-88167400D01*
X53739267Y-88191210D01*
X53929743Y-88191210D02*
X53953553Y-88167400D01*
X54001172Y-88143590D01*
X54120219Y-88143590D01*
X54167838Y-88167400D01*
X54191648Y-88191210D01*
X54215457Y-88238829D01*
X54215457Y-88286448D01*
X54191648Y-88357876D01*
X53905934Y-88643590D01*
X54215457Y-88643590D01*
D17*
X33855962Y-117752404D02*
X33355582Y-117752404D01*
X33355582Y-117561783D01*
X33379410Y-117514128D01*
X33403238Y-117490300D01*
X33450893Y-117466472D01*
X33522376Y-117466472D01*
X33570031Y-117490300D01*
X33593859Y-117514128D01*
X33617686Y-117561783D01*
X33617686Y-117752404D01*
X33355582Y-117299679D02*
X33355582Y-116989920D01*
X33546203Y-117156713D01*
X33546203Y-117085231D01*
X33570031Y-117037575D01*
X33593859Y-117013748D01*
X33641514Y-116989920D01*
X33760652Y-116989920D01*
X33808307Y-117013748D01*
X33832135Y-117037575D01*
X33855962Y-117085231D01*
X33855962Y-117228196D01*
X33832135Y-117275852D01*
X33808307Y-117299679D01*
X33570031Y-116703989D02*
X33546203Y-116751644D01*
X33522376Y-116775472D01*
X33474720Y-116799300D01*
X33450893Y-116799300D01*
X33403238Y-116775472D01*
X33379410Y-116751644D01*
X33355582Y-116703989D01*
X33355582Y-116608679D01*
X33379410Y-116561023D01*
X33403238Y-116537196D01*
X33450893Y-116513368D01*
X33474720Y-116513368D01*
X33522376Y-116537196D01*
X33546203Y-116561023D01*
X33570031Y-116608679D01*
X33570031Y-116703989D01*
X33593859Y-116751644D01*
X33617686Y-116775472D01*
X33665341Y-116799300D01*
X33760652Y-116799300D01*
X33808307Y-116775472D01*
X33832135Y-116751644D01*
X33855962Y-116703989D01*
X33855962Y-116608679D01*
X33832135Y-116561023D01*
X33808307Y-116537196D01*
X33760652Y-116513368D01*
X33665341Y-116513368D01*
X33617686Y-116537196D01*
X33593859Y-116561023D01*
X33570031Y-116608679D01*
X41898207Y-116409107D02*
X41922035Y-116432935D01*
X41945862Y-116504418D01*
X41945862Y-116552073D01*
X41922035Y-116623556D01*
X41874380Y-116671211D01*
X41826724Y-116695039D01*
X41731414Y-116718867D01*
X41659931Y-116718867D01*
X41564620Y-116695039D01*
X41516965Y-116671211D01*
X41469310Y-116623556D01*
X41445482Y-116552073D01*
X41445482Y-116504418D01*
X41469310Y-116432935D01*
X41493138Y-116409107D01*
X41945862Y-115956383D02*
X41945862Y-116194659D01*
X41445482Y-116194659D01*
X41945862Y-115789589D02*
X41445482Y-115789589D01*
X41945862Y-115503657D02*
X41659931Y-115718106D01*
X41445482Y-115503657D02*
X41731414Y-115789589D01*
X41945862Y-115289209D02*
X41445482Y-115289209D01*
X41945862Y-115050933D02*
X41445482Y-115050933D01*
X41945862Y-114765001D01*
X41445482Y-114765001D01*
D18*
X88024429Y-67091381D02*
X88024429Y-66091381D01*
X88405382Y-66091381D01*
X88500620Y-66139000D01*
X88548239Y-66186619D01*
X88595858Y-66281857D01*
X88595858Y-66424714D01*
X88548239Y-66519952D01*
X88500620Y-66567571D01*
X88405382Y-66615190D01*
X88024429Y-66615190D01*
X89357763Y-66567571D02*
X89024429Y-66567571D01*
X89024429Y-67091381D02*
X89024429Y-66091381D01*
X89500620Y-66091381D01*
X89881572Y-67091381D02*
X89881572Y-66091381D01*
X90548238Y-66091381D02*
X90738715Y-66091381D01*
X90833953Y-66139000D01*
X90929191Y-66234238D01*
X90976810Y-66424714D01*
X90976810Y-66758048D01*
X90929191Y-66948524D01*
X90833953Y-67043762D01*
X90738715Y-67091381D01*
X90548238Y-67091381D01*
X90453000Y-67043762D01*
X90357762Y-66948524D01*
X90310143Y-66758048D01*
X90310143Y-66424714D01*
X90357762Y-66234238D01*
X90453000Y-66139000D01*
X90548238Y-66091381D01*
X91929191Y-67091381D02*
X91357762Y-67091381D01*
X91643476Y-67091381D02*
X91643476Y-66091381D01*
X91548238Y-66234238D01*
X91453000Y-66329476D01*
X91357762Y-66377095D01*
X81774429Y-74391381D02*
X81774429Y-73391381D01*
X82155382Y-73391381D01*
X82250620Y-73439000D01*
X82298239Y-73486619D01*
X82345858Y-73581857D01*
X82345858Y-73724714D01*
X82298239Y-73819952D01*
X82250620Y-73867571D01*
X82155382Y-73915190D01*
X81774429Y-73915190D01*
X83107763Y-73867571D02*
X82774429Y-73867571D01*
X82774429Y-74391381D02*
X82774429Y-73391381D01*
X83250620Y-73391381D01*
X83631572Y-74391381D02*
X83631572Y-73391381D01*
X84298238Y-73391381D02*
X84488715Y-73391381D01*
X84583953Y-73439000D01*
X84679191Y-73534238D01*
X84726810Y-73724714D01*
X84726810Y-74058048D01*
X84679191Y-74248524D01*
X84583953Y-74343762D01*
X84488715Y-74391381D01*
X84298238Y-74391381D01*
X84203000Y-74343762D01*
X84107762Y-74248524D01*
X84060143Y-74058048D01*
X84060143Y-73724714D01*
X84107762Y-73534238D01*
X84203000Y-73439000D01*
X84298238Y-73391381D01*
X85107762Y-73486619D02*
X85155381Y-73439000D01*
X85250619Y-73391381D01*
X85488715Y-73391381D01*
X85583953Y-73439000D01*
X85631572Y-73486619D01*
X85679191Y-73581857D01*
X85679191Y-73677095D01*
X85631572Y-73819952D01*
X85060143Y-74391381D01*
X85679191Y-74391381D01*
X21850143Y-72041381D02*
X21850143Y-71041381D01*
X22231096Y-71041381D01*
X22326334Y-71089000D01*
X22373953Y-71136619D01*
X22421572Y-71231857D01*
X22421572Y-71374714D01*
X22373953Y-71469952D01*
X22326334Y-71517571D01*
X22231096Y-71565190D01*
X21850143Y-71565190D01*
X22802524Y-71993762D02*
X22945381Y-72041381D01*
X23183477Y-72041381D01*
X23278715Y-71993762D01*
X23326334Y-71946143D01*
X23373953Y-71850905D01*
X23373953Y-71755667D01*
X23326334Y-71660429D01*
X23278715Y-71612810D01*
X23183477Y-71565190D01*
X22993000Y-71517571D01*
X22897762Y-71469952D01*
X22850143Y-71422333D01*
X22802524Y-71327095D01*
X22802524Y-71231857D01*
X22850143Y-71136619D01*
X22897762Y-71089000D01*
X22993000Y-71041381D01*
X23231096Y-71041381D01*
X23373953Y-71089000D01*
X23754905Y-71755667D02*
X24231096Y-71755667D01*
X23659667Y-72041381D02*
X23993000Y-71041381D01*
X24326334Y-72041381D01*
X25183477Y-72041381D02*
X24612048Y-72041381D01*
X24897762Y-72041381D02*
X24897762Y-71041381D01*
X24802524Y-71184238D01*
X24707286Y-71279476D01*
X24612048Y-71327095D01*
D16*
X74706381Y-103087810D02*
X74658762Y-103064000D01*
X74611143Y-103016381D01*
X74539714Y-102944952D01*
X74492095Y-102921143D01*
X74444476Y-102921143D01*
X74468286Y-103040190D02*
X74420667Y-103016381D01*
X74373048Y-102968762D01*
X74349238Y-102873524D01*
X74349238Y-102706857D01*
X74373048Y-102611619D01*
X74420667Y-102564000D01*
X74468286Y-102540190D01*
X74563524Y-102540190D01*
X74611143Y-102564000D01*
X74658762Y-102611619D01*
X74682571Y-102706857D01*
X74682571Y-102873524D01*
X74658762Y-102968762D01*
X74611143Y-103016381D01*
X74563524Y-103040190D01*
X74468286Y-103040190D01*
X75158762Y-103040190D02*
X74873048Y-103040190D01*
X75015905Y-103040190D02*
X75015905Y-102540190D01*
X74968286Y-102611619D01*
X74920667Y-102659238D01*
X74873048Y-102683048D01*
D17*
X51915362Y-69757652D02*
X51677086Y-69924446D01*
X51915362Y-70043584D02*
X51414982Y-70043584D01*
X51414982Y-69852963D01*
X51438810Y-69805308D01*
X51462638Y-69781480D01*
X51510293Y-69757652D01*
X51581776Y-69757652D01*
X51629431Y-69781480D01*
X51653259Y-69805308D01*
X51677086Y-69852963D01*
X51677086Y-70043584D01*
X51414982Y-69590859D02*
X51915362Y-69257272D01*
X51414982Y-69257272D02*
X51915362Y-69590859D01*
X51915362Y-68804548D02*
X51915362Y-69090480D01*
X51915362Y-68947514D02*
X51414982Y-68947514D01*
X51486465Y-68995169D01*
X51534120Y-69042824D01*
X51557948Y-69090480D01*
X47867207Y-70448654D02*
X47891035Y-70472482D01*
X47914862Y-70543965D01*
X47914862Y-70591620D01*
X47891035Y-70663103D01*
X47843380Y-70710758D01*
X47795724Y-70734586D01*
X47700414Y-70758414D01*
X47628931Y-70758414D01*
X47533620Y-70734586D01*
X47485965Y-70710758D01*
X47438310Y-70663103D01*
X47414482Y-70591620D01*
X47414482Y-70543965D01*
X47438310Y-70472482D01*
X47462138Y-70448654D01*
X47914862Y-69995930D02*
X47914862Y-70234206D01*
X47414482Y-70234206D01*
X47914862Y-69829136D02*
X47414482Y-69829136D01*
X47914862Y-69543204D02*
X47628931Y-69757653D01*
X47414482Y-69543204D02*
X47700414Y-69829136D01*
X47414482Y-69233445D02*
X47414482Y-69138135D01*
X47438310Y-69090480D01*
X47485965Y-69042824D01*
X47581276Y-69018997D01*
X47748069Y-69018997D01*
X47843380Y-69042824D01*
X47891035Y-69090480D01*
X47914862Y-69138135D01*
X47914862Y-69233445D01*
X47891035Y-69281101D01*
X47843380Y-69328756D01*
X47748069Y-69352584D01*
X47581276Y-69352584D01*
X47485965Y-69328756D01*
X47438310Y-69281101D01*
X47414482Y-69233445D01*
X47414482Y-68804548D02*
X47819552Y-68804548D01*
X47867207Y-68780720D01*
X47891035Y-68756893D01*
X47914862Y-68709237D01*
X47914862Y-68613927D01*
X47891035Y-68566272D01*
X47867207Y-68542444D01*
X47819552Y-68518616D01*
X47414482Y-68518616D01*
X47414482Y-68351823D02*
X47414482Y-68065891D01*
X47914862Y-68208857D02*
X47414482Y-68208857D01*
D19*
X51480357Y-73823285D02*
X51480357Y-73605571D01*
X51861357Y-73714428D02*
X51480357Y-73714428D01*
X51861357Y-73278999D02*
X51861357Y-73496714D01*
X51861357Y-73387856D02*
X51480357Y-73387856D01*
X51534786Y-73424142D01*
X51571071Y-73460428D01*
X51589214Y-73496714D01*
D20*
D19*
X40304357Y-74077285D02*
X40304357Y-73859571D01*
X40685357Y-73968428D02*
X40304357Y-73968428D01*
X40340643Y-73750714D02*
X40322500Y-73732571D01*
X40304357Y-73696285D01*
X40304357Y-73605571D01*
X40322500Y-73569285D01*
X40340643Y-73551142D01*
X40376929Y-73532999D01*
X40413214Y-73532999D01*
X40467643Y-73551142D01*
X40685357Y-73768856D01*
X40685357Y-73532999D01*
D20*
D17*
X40238982Y-70055498D02*
X40238982Y-69769566D01*
X40739362Y-69912532D02*
X40238982Y-69912532D01*
X40238982Y-69650428D02*
X40739362Y-69316841D01*
X40238982Y-69316841D02*
X40739362Y-69650428D01*
X40739362Y-68864117D02*
X40739362Y-69150049D01*
X40739362Y-69007083D02*
X40238982Y-69007083D01*
X40310465Y-69054738D01*
X40358120Y-69102393D01*
X40381948Y-69150049D01*
X36691207Y-70448654D02*
X36715035Y-70472482D01*
X36738862Y-70543965D01*
X36738862Y-70591620D01*
X36715035Y-70663103D01*
X36667380Y-70710758D01*
X36619724Y-70734586D01*
X36524414Y-70758414D01*
X36452931Y-70758414D01*
X36357620Y-70734586D01*
X36309965Y-70710758D01*
X36262310Y-70663103D01*
X36238482Y-70591620D01*
X36238482Y-70543965D01*
X36262310Y-70472482D01*
X36286138Y-70448654D01*
X36738862Y-69995930D02*
X36738862Y-70234206D01*
X36238482Y-70234206D01*
X36738862Y-69829136D02*
X36238482Y-69829136D01*
X36738862Y-69543204D02*
X36452931Y-69757653D01*
X36238482Y-69543204D02*
X36524414Y-69829136D01*
X36238482Y-69233445D02*
X36238482Y-69138135D01*
X36262310Y-69090480D01*
X36309965Y-69042824D01*
X36405276Y-69018997D01*
X36572069Y-69018997D01*
X36667380Y-69042824D01*
X36715035Y-69090480D01*
X36738862Y-69138135D01*
X36738862Y-69233445D01*
X36715035Y-69281101D01*
X36667380Y-69328756D01*
X36572069Y-69352584D01*
X36405276Y-69352584D01*
X36309965Y-69328756D01*
X36262310Y-69281101D01*
X36238482Y-69233445D01*
X36238482Y-68804548D02*
X36643552Y-68804548D01*
X36691207Y-68780720D01*
X36715035Y-68756893D01*
X36738862Y-68709237D01*
X36738862Y-68613927D01*
X36715035Y-68566272D01*
X36691207Y-68542444D01*
X36643552Y-68518616D01*
X36238482Y-68518616D01*
X36238482Y-68351823D02*
X36238482Y-68065891D01*
X36738862Y-68208857D02*
X36238482Y-68208857D01*
D16*
X51028648Y-81412590D02*
X51028648Y-81817352D01*
X51052457Y-81864971D01*
X51076267Y-81888781D01*
X51123886Y-81912590D01*
X51219124Y-81912590D01*
X51266743Y-81888781D01*
X51290552Y-81864971D01*
X51314362Y-81817352D01*
X51314362Y-81412590D01*
X51814362Y-81912590D02*
X51528648Y-81912590D01*
X51671505Y-81912590D02*
X51671505Y-81412590D01*
X51623886Y-81484019D01*
X51576267Y-81531638D01*
X51528648Y-81555448D01*
D14*
X68158965Y-85725484D02*
X68969104Y-85725484D01*
X69064414Y-85677829D01*
X69112070Y-85630173D01*
X69159725Y-85534863D01*
X69159725Y-85344242D01*
X69112070Y-85248931D01*
X69064414Y-85201276D01*
X68969104Y-85153621D01*
X68158965Y-85153621D01*
X68254275Y-84724724D02*
X68206620Y-84677069D01*
X68158965Y-84581758D01*
X68158965Y-84343482D01*
X68206620Y-84248172D01*
X68254275Y-84200516D01*
X68349586Y-84152861D01*
X68444896Y-84152861D01*
X68587862Y-84200516D01*
X69159725Y-84772379D01*
X69159725Y-84152861D01*
D16*
X39917739Y-99865690D02*
X40251072Y-100365690D01*
X40251072Y-99865690D02*
X39917739Y-100365690D01*
X40703452Y-100365690D02*
X40417738Y-100365690D01*
X40560595Y-100365690D02*
X40560595Y-99865690D01*
X40512976Y-99937119D01*
X40465357Y-99984738D01*
X40417738Y-100008548D01*
D13*
X69333905Y-115180381D02*
X69333905Y-114180381D01*
X69714858Y-114180381D01*
X69810096Y-114228000D01*
X69857715Y-114275619D01*
X69905334Y-114370857D01*
X69905334Y-114513714D01*
X69857715Y-114608952D01*
X69810096Y-114656571D01*
X69714858Y-114704190D01*
X69333905Y-114704190D01*
X70286286Y-114275619D02*
X70333905Y-114228000D01*
X70429143Y-114180381D01*
X70667239Y-114180381D01*
X70762477Y-114228000D01*
X70810096Y-114275619D01*
X70857715Y-114370857D01*
X70857715Y-114466095D01*
X70810096Y-114608952D01*
X70238667Y-115180381D01*
X70857715Y-115180381D01*
D21*
X76247171Y-109194599D02*
X76247171Y-109448599D01*
X76646314Y-109448599D02*
X75884314Y-109448599D01*
X75884314Y-109085742D01*
X76247171Y-108541456D02*
X76283457Y-108432599D01*
X76319743Y-108396314D01*
X76392314Y-108360028D01*
X76501171Y-108360028D01*
X76573743Y-108396314D01*
X76610029Y-108432599D01*
X76646314Y-108505171D01*
X76646314Y-108795456D01*
X75884314Y-108795456D01*
X75884314Y-108541456D01*
X75920600Y-108468885D01*
X75956886Y-108432599D01*
X76029457Y-108396314D01*
X76102029Y-108396314D01*
X76174600Y-108432599D01*
X76210886Y-108468885D01*
X76247171Y-108541456D01*
X76247171Y-108795456D01*
X76646314Y-107634314D02*
X76646314Y-108069742D01*
X76646314Y-107852028D02*
X75884314Y-107852028D01*
X75993171Y-107924599D01*
X76065743Y-107997171D01*
X76102029Y-108069742D01*
D17*
X56868362Y-116177604D02*
X56367982Y-116177604D01*
X56367982Y-115986983D01*
X56391810Y-115939328D01*
X56415638Y-115915500D01*
X56463293Y-115891672D01*
X56534776Y-115891672D01*
X56582431Y-115915500D01*
X56606259Y-115939328D01*
X56630086Y-115986983D01*
X56630086Y-116177604D01*
X56367982Y-115724879D02*
X56367982Y-115415120D01*
X56558603Y-115581913D01*
X56558603Y-115510431D01*
X56582431Y-115462775D01*
X56606259Y-115438948D01*
X56653914Y-115415120D01*
X56773052Y-115415120D01*
X56820707Y-115438948D01*
X56844535Y-115462775D01*
X56868362Y-115510431D01*
X56868362Y-115653396D01*
X56844535Y-115701052D01*
X56820707Y-115724879D01*
X56868362Y-115176844D02*
X56868362Y-115081534D01*
X56844535Y-115033879D01*
X56820707Y-115010051D01*
X56749224Y-114962396D01*
X56653914Y-114938568D01*
X56463293Y-114938568D01*
X56415638Y-114962396D01*
X56391810Y-114986223D01*
X56367982Y-115033879D01*
X56367982Y-115129189D01*
X56391810Y-115176844D01*
X56415638Y-115200672D01*
X56463293Y-115224500D01*
X56582431Y-115224500D01*
X56630086Y-115200672D01*
X56653914Y-115176844D01*
X56677741Y-115129189D01*
X56677741Y-115033879D01*
X56653914Y-114986223D01*
X56630086Y-114962396D01*
X56582431Y-114938568D01*
X56630207Y-116615694D02*
X56654035Y-116639522D01*
X56677862Y-116711005D01*
X56677862Y-116758660D01*
X56654035Y-116830143D01*
X56606380Y-116877798D01*
X56558724Y-116901626D01*
X56463414Y-116925454D01*
X56391931Y-116925454D01*
X56296620Y-116901626D01*
X56248965Y-116877798D01*
X56201310Y-116830143D01*
X56177482Y-116758660D01*
X56177482Y-116711005D01*
X56201310Y-116639522D01*
X56225138Y-116615694D01*
X56677862Y-116162970D02*
X56677862Y-116401246D01*
X56177482Y-116401246D01*
X56677862Y-115996176D02*
X56177482Y-115996176D01*
X56677862Y-115710244D02*
X56391931Y-115924693D01*
X56177482Y-115710244D02*
X56463414Y-115996176D01*
X56177482Y-115400485D02*
X56177482Y-115305175D01*
X56201310Y-115257520D01*
X56248965Y-115209864D01*
X56344276Y-115186037D01*
X56511069Y-115186037D01*
X56606380Y-115209864D01*
X56654035Y-115257520D01*
X56677862Y-115305175D01*
X56677862Y-115400485D01*
X56654035Y-115448141D01*
X56606380Y-115495796D01*
X56511069Y-115519624D01*
X56344276Y-115519624D01*
X56248965Y-115495796D01*
X56201310Y-115448141D01*
X56177482Y-115400485D01*
X56177482Y-114971588D02*
X56582552Y-114971588D01*
X56630207Y-114947760D01*
X56654035Y-114923933D01*
X56677862Y-114876277D01*
X56677862Y-114780967D01*
X56654035Y-114733312D01*
X56630207Y-114709484D01*
X56582552Y-114685656D01*
X56177482Y-114685656D01*
X56177482Y-114518863D02*
X56177482Y-114232931D01*
X56677862Y-114375897D02*
X56177482Y-114375897D01*
D16*
X45847048Y-103231190D02*
X45847048Y-103635952D01*
X45870857Y-103683571D01*
X45894667Y-103707381D01*
X45942286Y-103731190D01*
X46037524Y-103731190D01*
X46085143Y-103707381D01*
X46108952Y-103683571D01*
X46132762Y-103635952D01*
X46132762Y-103231190D01*
X46323239Y-103231190D02*
X46632762Y-103231190D01*
X46466096Y-103421667D01*
X46537524Y-103421667D01*
X46585143Y-103445476D01*
X46608953Y-103469286D01*
X46632762Y-103516905D01*
X46632762Y-103635952D01*
X46608953Y-103683571D01*
X46585143Y-103707381D01*
X46537524Y-103731190D01*
X46394667Y-103731190D01*
X46347048Y-103707381D01*
X46323239Y-103683571D01*
D22*
X51621267Y-75444048D02*
X51427743Y-75444048D01*
X51427743Y-75037648D01*
X51969609Y-75444048D02*
X51737381Y-75444048D01*
X51853495Y-75444048D02*
X51853495Y-75037648D01*
X51814790Y-75095705D01*
X51776085Y-75134410D01*
X51737381Y-75153762D01*
X51621267Y-76968048D02*
X51427743Y-76968048D01*
X51427743Y-76561648D01*
X51737381Y-76600352D02*
X51756733Y-76581000D01*
X51795438Y-76561648D01*
X51892200Y-76561648D01*
X51930904Y-76581000D01*
X51950257Y-76600352D01*
X51969609Y-76639057D01*
X51969609Y-76677762D01*
X51950257Y-76735819D01*
X51718028Y-76968048D01*
X51969609Y-76968048D01*
X40445267Y-75698048D02*
X40251743Y-75698048D01*
X40251743Y-75291648D01*
X40542028Y-75291648D02*
X40793609Y-75291648D01*
X40658142Y-75446467D01*
X40716200Y-75446467D01*
X40754904Y-75465819D01*
X40774257Y-75485171D01*
X40793609Y-75523876D01*
X40793609Y-75620638D01*
X40774257Y-75659343D01*
X40754904Y-75678695D01*
X40716200Y-75698048D01*
X40600085Y-75698048D01*
X40561381Y-75678695D01*
X40542028Y-75659343D01*
X40445267Y-76968048D02*
X40251743Y-76968048D01*
X40251743Y-76561648D01*
X40754904Y-76697114D02*
X40754904Y-76968048D01*
X40658142Y-76542295D02*
X40561381Y-76832581D01*
X40812961Y-76832581D01*
D16*
X41928006Y-83074543D02*
X41894333Y-83074543D01*
X41826991Y-83040872D01*
X41793319Y-83007200D01*
X41759647Y-82939857D01*
X41759647Y-82872513D01*
X41776483Y-82822006D01*
X41826990Y-82737826D01*
X41877498Y-82687318D01*
X41961678Y-82636811D01*
X42012185Y-82619975D01*
X42079528Y-82619975D01*
X42146872Y-82653647D01*
X42180544Y-82687318D01*
X42214215Y-82754662D01*
X42214215Y-82788334D01*
X42231051Y-83444932D02*
X42029021Y-83242902D01*
X42130036Y-83343917D02*
X42483590Y-82990364D01*
X42399410Y-83007200D01*
X42332067Y-83007200D01*
X42281559Y-82990364D01*
X48632143Y-77502794D02*
X48632143Y-77536467D01*
X48598472Y-77603809D01*
X48564800Y-77637481D01*
X48497457Y-77671153D01*
X48430113Y-77671153D01*
X48379606Y-77654317D01*
X48295426Y-77603810D01*
X48244918Y-77553302D01*
X48194411Y-77469122D01*
X48177575Y-77418615D01*
X48177575Y-77351272D01*
X48211247Y-77283928D01*
X48244918Y-77250256D01*
X48312262Y-77216585D01*
X48345934Y-77216585D01*
X48480621Y-77081898D02*
X48480621Y-77048226D01*
X48497457Y-76997718D01*
X48581636Y-76913539D01*
X48632143Y-76896703D01*
X48665816Y-76896703D01*
X48716323Y-76913539D01*
X48749995Y-76947211D01*
X48783667Y-77014554D01*
X48783667Y-77418614D01*
X49002532Y-77199749D01*
X51121343Y-78061594D02*
X51121343Y-78095267D01*
X51087672Y-78162609D01*
X51054000Y-78196281D01*
X50986657Y-78229953D01*
X50919313Y-78229953D01*
X50868806Y-78213117D01*
X50784626Y-78162610D01*
X50734118Y-78112102D01*
X50683611Y-78027922D01*
X50666775Y-77977415D01*
X50666775Y-77910072D01*
X50700447Y-77842728D01*
X50734118Y-77809056D01*
X50801462Y-77775385D01*
X50835134Y-77775385D01*
X50919313Y-77623861D02*
X51138179Y-77404995D01*
X51155016Y-77657533D01*
X51205523Y-77607026D01*
X51256030Y-77590190D01*
X51289703Y-77590190D01*
X51340210Y-77607026D01*
X51424389Y-77691205D01*
X51441225Y-77741712D01*
X51441225Y-77775385D01*
X51424389Y-77825892D01*
X51323374Y-77926907D01*
X51272867Y-77943743D01*
X51239195Y-77943743D01*
X67428143Y-92006194D02*
X67428143Y-92039867D01*
X67394472Y-92107209D01*
X67360800Y-92140881D01*
X67293457Y-92174553D01*
X67226113Y-92174553D01*
X67175606Y-92157717D01*
X67091426Y-92107210D01*
X67040918Y-92056702D01*
X66990411Y-91972522D01*
X66973575Y-91922015D01*
X66973575Y-91854672D01*
X67007247Y-91787328D01*
X67040918Y-91753656D01*
X67108262Y-91719985D01*
X67141934Y-91719985D01*
X67226113Y-91568461D02*
X67461815Y-91332759D01*
X67663845Y-91837836D01*
X38829467Y-88341971D02*
X38805657Y-88365781D01*
X38734229Y-88389590D01*
X38686610Y-88389590D01*
X38615181Y-88365781D01*
X38567562Y-88318162D01*
X38543753Y-88270543D01*
X38519943Y-88175305D01*
X38519943Y-88103876D01*
X38543753Y-88008638D01*
X38567562Y-87961019D01*
X38615181Y-87913400D01*
X38686610Y-87889590D01*
X38734229Y-87889590D01*
X38805657Y-87913400D01*
X38829467Y-87937210D01*
X39115181Y-88103876D02*
X39067562Y-88080067D01*
X39043753Y-88056257D01*
X39019943Y-88008638D01*
X39019943Y-87984829D01*
X39043753Y-87937210D01*
X39067562Y-87913400D01*
X39115181Y-87889590D01*
X39210419Y-87889590D01*
X39258038Y-87913400D01*
X39281848Y-87937210D01*
X39305657Y-87984829D01*
X39305657Y-88008638D01*
X39281848Y-88056257D01*
X39258038Y-88080067D01*
X39210419Y-88103876D01*
X39115181Y-88103876D01*
X39067562Y-88127686D01*
X39043753Y-88151495D01*
X39019943Y-88199114D01*
X39019943Y-88294352D01*
X39043753Y-88341971D01*
X39067562Y-88365781D01*
X39115181Y-88389590D01*
X39210419Y-88389590D01*
X39258038Y-88365781D01*
X39281848Y-88341971D01*
X39305657Y-88294352D01*
X39305657Y-88199114D01*
X39281848Y-88151495D01*
X39258038Y-88127686D01*
X39210419Y-88103876D01*
X38600867Y-87249771D02*
X38577057Y-87273581D01*
X38505629Y-87297390D01*
X38458010Y-87297390D01*
X38386581Y-87273581D01*
X38338962Y-87225962D01*
X38315153Y-87178343D01*
X38291343Y-87083105D01*
X38291343Y-87011676D01*
X38315153Y-86916438D01*
X38338962Y-86868819D01*
X38386581Y-86821200D01*
X38458010Y-86797390D01*
X38505629Y-86797390D01*
X38577057Y-86821200D01*
X38600867Y-86845010D01*
X38838962Y-87297390D02*
X38934200Y-87297390D01*
X38981819Y-87273581D01*
X39005629Y-87249771D01*
X39053248Y-87178343D01*
X39077057Y-87083105D01*
X39077057Y-86892629D01*
X39053248Y-86845010D01*
X39029438Y-86821200D01*
X38981819Y-86797390D01*
X38886581Y-86797390D01*
X38838962Y-86821200D01*
X38815153Y-86845010D01*
X38791343Y-86892629D01*
X38791343Y-87011676D01*
X38815153Y-87059295D01*
X38838962Y-87083105D01*
X38886581Y-87106914D01*
X38981819Y-87106914D01*
X39029438Y-87083105D01*
X39053248Y-87059295D01*
X39077057Y-87011676D01*
X47916071Y-92015428D02*
X47939881Y-92039238D01*
X47963690Y-92110666D01*
X47963690Y-92158285D01*
X47939881Y-92229714D01*
X47892262Y-92277333D01*
X47844643Y-92301142D01*
X47749405Y-92324952D01*
X47677976Y-92324952D01*
X47582738Y-92301142D01*
X47535119Y-92277333D01*
X47487500Y-92229714D01*
X47463690Y-92158285D01*
X47463690Y-92110666D01*
X47487500Y-92039238D01*
X47511310Y-92015428D01*
X47963690Y-91539238D02*
X47963690Y-91824952D01*
X47963690Y-91682095D02*
X47463690Y-91682095D01*
X47535119Y-91729714D01*
X47582738Y-91777333D01*
X47606548Y-91824952D01*
X47463690Y-91229714D02*
X47463690Y-91182095D01*
X47487500Y-91134476D01*
X47511310Y-91110667D01*
X47558929Y-91086857D01*
X47654167Y-91063048D01*
X47773214Y-91063048D01*
X47868452Y-91086857D01*
X47916071Y-91110667D01*
X47939881Y-91134476D01*
X47963690Y-91182095D01*
X47963690Y-91229714D01*
X47939881Y-91277333D01*
X47916071Y-91301143D01*
X47868452Y-91324952D01*
X47773214Y-91348762D01*
X47654167Y-91348762D01*
X47558929Y-91324952D01*
X47511310Y-91301143D01*
X47487500Y-91277333D01*
X47463690Y-91229714D01*
X71268567Y-91916135D02*
X71268567Y-91949807D01*
X71234895Y-92017150D01*
X71201223Y-92050822D01*
X71133880Y-92084494D01*
X71066537Y-92084494D01*
X71016029Y-92067658D01*
X70931850Y-92017151D01*
X70881342Y-91966643D01*
X70830835Y-91882463D01*
X70813998Y-91831956D01*
X70813998Y-91764612D01*
X70847670Y-91697268D01*
X70881342Y-91663596D01*
X70948685Y-91629925D01*
X70982358Y-91629925D01*
X71638956Y-91613089D02*
X71436925Y-91815120D01*
X71537941Y-91714104D02*
X71184387Y-91360551D01*
X71201223Y-91444731D01*
X71201223Y-91512074D01*
X71184388Y-91562582D01*
X71975673Y-91276372D02*
X71773643Y-91478402D01*
X71874658Y-91377387D02*
X71521104Y-91023834D01*
X71537941Y-91108013D01*
X71537941Y-91175357D01*
X71521105Y-91225865D01*
X62137172Y-82271371D02*
X62113362Y-82295181D01*
X62041934Y-82318990D01*
X61994315Y-82318990D01*
X61922886Y-82295181D01*
X61875267Y-82247562D01*
X61851458Y-82199943D01*
X61827648Y-82104705D01*
X61827648Y-82033276D01*
X61851458Y-81938038D01*
X61875267Y-81890419D01*
X61922886Y-81842800D01*
X61994315Y-81818990D01*
X62041934Y-81818990D01*
X62113362Y-81842800D01*
X62137172Y-81866610D01*
X62613362Y-82318990D02*
X62327648Y-82318990D01*
X62470505Y-82318990D02*
X62470505Y-81818990D01*
X62422886Y-81890419D01*
X62375267Y-81938038D01*
X62327648Y-81961848D01*
X62803838Y-81866610D02*
X62827648Y-81842800D01*
X62875267Y-81818990D01*
X62994314Y-81818990D01*
X63041933Y-81842800D01*
X63065743Y-81866610D01*
X63089552Y-81914229D01*
X63089552Y-81961848D01*
X63065743Y-82033276D01*
X62780029Y-82318990D01*
X63089552Y-82318990D01*
X38311972Y-85522571D02*
X38288162Y-85546381D01*
X38216734Y-85570190D01*
X38169115Y-85570190D01*
X38097686Y-85546381D01*
X38050067Y-85498762D01*
X38026258Y-85451143D01*
X38002448Y-85355905D01*
X38002448Y-85284476D01*
X38026258Y-85189238D01*
X38050067Y-85141619D01*
X38097686Y-85094000D01*
X38169115Y-85070190D01*
X38216734Y-85070190D01*
X38288162Y-85094000D01*
X38311972Y-85117810D01*
X38788162Y-85570190D02*
X38502448Y-85570190D01*
X38645305Y-85570190D02*
X38645305Y-85070190D01*
X38597686Y-85141619D01*
X38550067Y-85189238D01*
X38502448Y-85213048D01*
X39216733Y-85236857D02*
X39216733Y-85570190D01*
X39097686Y-85046381D02*
X38978638Y-85403524D01*
X39288162Y-85403524D01*
X62111772Y-84176371D02*
X62087962Y-84200181D01*
X62016534Y-84223990D01*
X61968915Y-84223990D01*
X61897486Y-84200181D01*
X61849867Y-84152562D01*
X61826058Y-84104943D01*
X61802248Y-84009705D01*
X61802248Y-83938276D01*
X61826058Y-83843038D01*
X61849867Y-83795419D01*
X61897486Y-83747800D01*
X61968915Y-83723990D01*
X62016534Y-83723990D01*
X62087962Y-83747800D01*
X62111772Y-83771610D01*
X62587962Y-84223990D02*
X62302248Y-84223990D01*
X62445105Y-84223990D02*
X62445105Y-83723990D01*
X62397486Y-83795419D01*
X62349867Y-83843038D01*
X62302248Y-83866848D01*
X62754629Y-83723990D02*
X63087962Y-83723990D01*
X62873676Y-84223990D01*
X53628172Y-78918571D02*
X53604362Y-78942381D01*
X53532934Y-78966190D01*
X53485315Y-78966190D01*
X53413886Y-78942381D01*
X53366267Y-78894762D01*
X53342458Y-78847143D01*
X53318648Y-78751905D01*
X53318648Y-78680476D01*
X53342458Y-78585238D01*
X53366267Y-78537619D01*
X53413886Y-78490000D01*
X53485315Y-78466190D01*
X53532934Y-78466190D01*
X53604362Y-78490000D01*
X53628172Y-78513810D01*
X53818648Y-78513810D02*
X53842458Y-78490000D01*
X53890077Y-78466190D01*
X54009124Y-78466190D01*
X54056743Y-78490000D01*
X54080553Y-78513810D01*
X54104362Y-78561429D01*
X54104362Y-78609048D01*
X54080553Y-78680476D01*
X53794839Y-78966190D01*
X54104362Y-78966190D01*
X54413886Y-78466190D02*
X54461505Y-78466190D01*
X54509124Y-78490000D01*
X54532933Y-78513810D01*
X54556743Y-78561429D01*
X54580552Y-78656667D01*
X54580552Y-78775714D01*
X54556743Y-78870952D01*
X54532933Y-78918571D01*
X54509124Y-78942381D01*
X54461505Y-78966190D01*
X54413886Y-78966190D01*
X54366267Y-78942381D01*
X54342457Y-78918571D01*
X54318648Y-78870952D01*
X54294838Y-78775714D01*
X54294838Y-78656667D01*
X54318648Y-78561429D01*
X54342457Y-78513810D01*
X54366267Y-78490000D01*
X54413886Y-78466190D01*
X62137172Y-86360771D02*
X62113362Y-86384581D01*
X62041934Y-86408390D01*
X61994315Y-86408390D01*
X61922886Y-86384581D01*
X61875267Y-86336962D01*
X61851458Y-86289343D01*
X61827648Y-86194105D01*
X61827648Y-86122676D01*
X61851458Y-86027438D01*
X61875267Y-85979819D01*
X61922886Y-85932200D01*
X61994315Y-85908390D01*
X62041934Y-85908390D01*
X62113362Y-85932200D01*
X62137172Y-85956010D01*
X62327648Y-85956010D02*
X62351458Y-85932200D01*
X62399077Y-85908390D01*
X62518124Y-85908390D01*
X62565743Y-85932200D01*
X62589553Y-85956010D01*
X62613362Y-86003629D01*
X62613362Y-86051248D01*
X62589553Y-86122676D01*
X62303839Y-86408390D01*
X62613362Y-86408390D01*
X63089552Y-86408390D02*
X62803838Y-86408390D01*
X62946695Y-86408390D02*
X62946695Y-85908390D01*
X62899076Y-85979819D01*
X62851457Y-86027438D01*
X62803838Y-86051248D01*
X52612172Y-105994971D02*
X52588362Y-106018781D01*
X52516934Y-106042590D01*
X52469315Y-106042590D01*
X52397886Y-106018781D01*
X52350267Y-105971162D01*
X52326458Y-105923543D01*
X52302648Y-105828305D01*
X52302648Y-105756876D01*
X52326458Y-105661638D01*
X52350267Y-105614019D01*
X52397886Y-105566400D01*
X52469315Y-105542590D01*
X52516934Y-105542590D01*
X52588362Y-105566400D01*
X52612172Y-105590210D01*
X52802648Y-105590210D02*
X52826458Y-105566400D01*
X52874077Y-105542590D01*
X52993124Y-105542590D01*
X53040743Y-105566400D01*
X53064553Y-105590210D01*
X53088362Y-105637829D01*
X53088362Y-105685448D01*
X53064553Y-105756876D01*
X52778839Y-106042590D01*
X53088362Y-106042590D01*
X53278838Y-105590210D02*
X53302648Y-105566400D01*
X53350267Y-105542590D01*
X53469314Y-105542590D01*
X53516933Y-105566400D01*
X53540743Y-105590210D01*
X53564552Y-105637829D01*
X53564552Y-105685448D01*
X53540743Y-105756876D01*
X53255029Y-106042590D01*
X53564552Y-106042590D01*
X65464572Y-78359771D02*
X65440762Y-78383581D01*
X65369334Y-78407390D01*
X65321715Y-78407390D01*
X65250286Y-78383581D01*
X65202667Y-78335962D01*
X65178858Y-78288343D01*
X65155048Y-78193105D01*
X65155048Y-78121676D01*
X65178858Y-78026438D01*
X65202667Y-77978819D01*
X65250286Y-77931200D01*
X65321715Y-77907390D01*
X65369334Y-77907390D01*
X65440762Y-77931200D01*
X65464572Y-77955010D01*
X65655048Y-77955010D02*
X65678858Y-77931200D01*
X65726477Y-77907390D01*
X65845524Y-77907390D01*
X65893143Y-77931200D01*
X65916953Y-77955010D01*
X65940762Y-78002629D01*
X65940762Y-78050248D01*
X65916953Y-78121676D01*
X65631239Y-78407390D01*
X65940762Y-78407390D01*
X66369333Y-78074057D02*
X66369333Y-78407390D01*
X66250286Y-77883581D02*
X66131238Y-78240724D01*
X66440762Y-78240724D01*
X79629771Y-104918628D02*
X79653581Y-104942438D01*
X79677390Y-105013866D01*
X79677390Y-105061485D01*
X79653581Y-105132914D01*
X79605962Y-105180533D01*
X79558343Y-105204342D01*
X79463105Y-105228152D01*
X79391676Y-105228152D01*
X79296438Y-105204342D01*
X79248819Y-105180533D01*
X79201200Y-105132914D01*
X79177390Y-105061485D01*
X79177390Y-105013866D01*
X79201200Y-104942438D01*
X79225010Y-104918628D01*
X79225010Y-104728152D02*
X79201200Y-104704342D01*
X79177390Y-104656723D01*
X79177390Y-104537676D01*
X79201200Y-104490057D01*
X79225010Y-104466247D01*
X79272629Y-104442438D01*
X79320248Y-104442438D01*
X79391676Y-104466247D01*
X79677390Y-104751961D01*
X79677390Y-104442438D01*
X79177390Y-103990057D02*
X79177390Y-104228152D01*
X79415486Y-104251962D01*
X79391676Y-104228152D01*
X79367867Y-104180533D01*
X79367867Y-104061486D01*
X79391676Y-104013867D01*
X79415486Y-103990057D01*
X79463105Y-103966248D01*
X79582152Y-103966248D01*
X79629771Y-103990057D01*
X79653581Y-104013867D01*
X79677390Y-104061486D01*
X79677390Y-104180533D01*
X79653581Y-104228152D01*
X79629771Y-104251962D01*
X53272572Y-81102971D02*
X53248762Y-81126781D01*
X53177334Y-81150590D01*
X53129715Y-81150590D01*
X53058286Y-81126781D01*
X53010667Y-81079162D01*
X52986858Y-81031543D01*
X52963048Y-80936305D01*
X52963048Y-80864876D01*
X52986858Y-80769638D01*
X53010667Y-80722019D01*
X53058286Y-80674400D01*
X53129715Y-80650590D01*
X53177334Y-80650590D01*
X53248762Y-80674400D01*
X53272572Y-80698210D01*
X53463048Y-80698210D02*
X53486858Y-80674400D01*
X53534477Y-80650590D01*
X53653524Y-80650590D01*
X53701143Y-80674400D01*
X53724953Y-80698210D01*
X53748762Y-80745829D01*
X53748762Y-80793448D01*
X53724953Y-80864876D01*
X53439239Y-81150590D01*
X53748762Y-81150590D01*
X54177333Y-80650590D02*
X54082095Y-80650590D01*
X54034476Y-80674400D01*
X54010667Y-80698210D01*
X53963048Y-80769638D01*
X53939238Y-80864876D01*
X53939238Y-81055352D01*
X53963048Y-81102971D01*
X53986857Y-81126781D01*
X54034476Y-81150590D01*
X54129714Y-81150590D01*
X54177333Y-81126781D01*
X54201143Y-81102971D01*
X54224952Y-81055352D01*
X54224952Y-80936305D01*
X54201143Y-80888686D01*
X54177333Y-80864876D01*
X54129714Y-80841067D01*
X54034476Y-80841067D01*
X53986857Y-80864876D01*
X53963048Y-80888686D01*
X53939238Y-80936305D01*
X53170972Y-84354171D02*
X53147162Y-84377981D01*
X53075734Y-84401790D01*
X53028115Y-84401790D01*
X52956686Y-84377981D01*
X52909067Y-84330362D01*
X52885258Y-84282743D01*
X52861448Y-84187505D01*
X52861448Y-84116076D01*
X52885258Y-84020838D01*
X52909067Y-83973219D01*
X52956686Y-83925600D01*
X53028115Y-83901790D01*
X53075734Y-83901790D01*
X53147162Y-83925600D01*
X53170972Y-83949410D01*
X53361448Y-83949410D02*
X53385258Y-83925600D01*
X53432877Y-83901790D01*
X53551924Y-83901790D01*
X53599543Y-83925600D01*
X53623353Y-83949410D01*
X53647162Y-83997029D01*
X53647162Y-84044648D01*
X53623353Y-84116076D01*
X53337639Y-84401790D01*
X53647162Y-84401790D01*
X53813829Y-83901790D02*
X54147162Y-83901790D01*
X53932876Y-84401790D01*
X63280172Y-88087971D02*
X63256362Y-88111781D01*
X63184934Y-88135590D01*
X63137315Y-88135590D01*
X63065886Y-88111781D01*
X63018267Y-88064162D01*
X62994458Y-88016543D01*
X62970648Y-87921305D01*
X62970648Y-87849876D01*
X62994458Y-87754638D01*
X63018267Y-87707019D01*
X63065886Y-87659400D01*
X63137315Y-87635590D01*
X63184934Y-87635590D01*
X63256362Y-87659400D01*
X63280172Y-87683210D01*
X63470648Y-87683210D02*
X63494458Y-87659400D01*
X63542077Y-87635590D01*
X63661124Y-87635590D01*
X63708743Y-87659400D01*
X63732553Y-87683210D01*
X63756362Y-87730829D01*
X63756362Y-87778448D01*
X63732553Y-87849876D01*
X63446839Y-88135590D01*
X63756362Y-88135590D01*
X64042076Y-87849876D02*
X63994457Y-87826067D01*
X63970648Y-87802257D01*
X63946838Y-87754638D01*
X63946838Y-87730829D01*
X63970648Y-87683210D01*
X63994457Y-87659400D01*
X64042076Y-87635590D01*
X64137314Y-87635590D01*
X64184933Y-87659400D01*
X64208743Y-87683210D01*
X64232552Y-87730829D01*
X64232552Y-87754638D01*
X64208743Y-87802257D01*
X64184933Y-87826067D01*
X64137314Y-87849876D01*
X64042076Y-87849876D01*
X63994457Y-87873686D01*
X63970648Y-87897495D01*
X63946838Y-87945114D01*
X63946838Y-88040352D01*
X63970648Y-88087971D01*
X63994457Y-88111781D01*
X64042076Y-88135590D01*
X64137314Y-88135590D01*
X64184933Y-88111781D01*
X64208743Y-88087971D01*
X64232552Y-88040352D01*
X64232552Y-87945114D01*
X64208743Y-87897495D01*
X64184933Y-87873686D01*
X64137314Y-87849876D01*
X63762772Y-89561171D02*
X63738962Y-89584981D01*
X63667534Y-89608790D01*
X63619915Y-89608790D01*
X63548486Y-89584981D01*
X63500867Y-89537362D01*
X63477058Y-89489743D01*
X63453248Y-89394505D01*
X63453248Y-89323076D01*
X63477058Y-89227838D01*
X63500867Y-89180219D01*
X63548486Y-89132600D01*
X63619915Y-89108790D01*
X63667534Y-89108790D01*
X63738962Y-89132600D01*
X63762772Y-89156410D01*
X63953248Y-89156410D02*
X63977058Y-89132600D01*
X64024677Y-89108790D01*
X64143724Y-89108790D01*
X64191343Y-89132600D01*
X64215153Y-89156410D01*
X64238962Y-89204029D01*
X64238962Y-89251648D01*
X64215153Y-89323076D01*
X63929439Y-89608790D01*
X64238962Y-89608790D01*
X64477057Y-89608790D02*
X64572295Y-89608790D01*
X64619914Y-89584981D01*
X64643724Y-89561171D01*
X64691343Y-89489743D01*
X64715152Y-89394505D01*
X64715152Y-89204029D01*
X64691343Y-89156410D01*
X64667533Y-89132600D01*
X64619914Y-89108790D01*
X64524676Y-89108790D01*
X64477057Y-89132600D01*
X64453248Y-89156410D01*
X64429438Y-89204029D01*
X64429438Y-89323076D01*
X64453248Y-89370695D01*
X64477057Y-89394505D01*
X64524676Y-89418314D01*
X64619914Y-89418314D01*
X64667533Y-89394505D01*
X64691343Y-89370695D01*
X64715152Y-89323076D01*
X79028172Y-111024171D02*
X79004362Y-111047981D01*
X78932934Y-111071790D01*
X78885315Y-111071790D01*
X78813886Y-111047981D01*
X78766267Y-111000362D01*
X78742458Y-110952743D01*
X78718648Y-110857505D01*
X78718648Y-110786076D01*
X78742458Y-110690838D01*
X78766267Y-110643219D01*
X78813886Y-110595600D01*
X78885315Y-110571790D01*
X78932934Y-110571790D01*
X79004362Y-110595600D01*
X79028172Y-110619410D01*
X79194839Y-110571790D02*
X79504362Y-110571790D01*
X79337696Y-110762267D01*
X79409124Y-110762267D01*
X79456743Y-110786076D01*
X79480553Y-110809886D01*
X79504362Y-110857505D01*
X79504362Y-110976552D01*
X79480553Y-111024171D01*
X79456743Y-111047981D01*
X79409124Y-111071790D01*
X79266267Y-111071790D01*
X79218648Y-111047981D01*
X79194839Y-111024171D01*
X79813886Y-110571790D02*
X79861505Y-110571790D01*
X79909124Y-110595600D01*
X79932933Y-110619410D01*
X79956743Y-110667029D01*
X79980552Y-110762267D01*
X79980552Y-110881314D01*
X79956743Y-110976552D01*
X79932933Y-111024171D01*
X79909124Y-111047981D01*
X79861505Y-111071790D01*
X79813886Y-111071790D01*
X79766267Y-111047981D01*
X79742457Y-111024171D01*
X79718648Y-110976552D01*
X79694838Y-110881314D01*
X79694838Y-110762267D01*
X79718648Y-110667029D01*
X79742457Y-110619410D01*
X79766267Y-110595600D01*
X79813886Y-110571790D01*
X53518571Y-74591028D02*
X53542381Y-74614838D01*
X53566190Y-74686266D01*
X53566190Y-74733885D01*
X53542381Y-74805314D01*
X53494762Y-74852933D01*
X53447143Y-74876742D01*
X53351905Y-74900552D01*
X53280476Y-74900552D01*
X53185238Y-74876742D01*
X53137619Y-74852933D01*
X53090000Y-74805314D01*
X53066190Y-74733885D01*
X53066190Y-74686266D01*
X53090000Y-74614838D01*
X53113810Y-74591028D01*
X53066190Y-74424361D02*
X53066190Y-74114838D01*
X53256667Y-74281504D01*
X53256667Y-74210076D01*
X53280476Y-74162457D01*
X53304286Y-74138647D01*
X53351905Y-74114838D01*
X53470952Y-74114838D01*
X53518571Y-74138647D01*
X53542381Y-74162457D01*
X53566190Y-74210076D01*
X53566190Y-74352933D01*
X53542381Y-74400552D01*
X53518571Y-74424361D01*
X53566190Y-73638648D02*
X53566190Y-73924362D01*
X53566190Y-73781505D02*
X53066190Y-73781505D01*
X53137619Y-73829124D01*
X53185238Y-73876743D01*
X53209048Y-73924362D01*
X62619772Y-92685371D02*
X62595962Y-92709181D01*
X62524534Y-92732990D01*
X62476915Y-92732990D01*
X62405486Y-92709181D01*
X62357867Y-92661562D01*
X62334058Y-92613943D01*
X62310248Y-92518705D01*
X62310248Y-92447276D01*
X62334058Y-92352038D01*
X62357867Y-92304419D01*
X62405486Y-92256800D01*
X62476915Y-92232990D01*
X62524534Y-92232990D01*
X62595962Y-92256800D01*
X62619772Y-92280610D01*
X62786439Y-92232990D02*
X63095962Y-92232990D01*
X62929296Y-92423467D01*
X63000724Y-92423467D01*
X63048343Y-92447276D01*
X63072153Y-92471086D01*
X63095962Y-92518705D01*
X63095962Y-92637752D01*
X63072153Y-92685371D01*
X63048343Y-92709181D01*
X63000724Y-92732990D01*
X62857867Y-92732990D01*
X62810248Y-92709181D01*
X62786439Y-92685371D01*
X63286438Y-92280610D02*
X63310248Y-92256800D01*
X63357867Y-92232990D01*
X63476914Y-92232990D01*
X63524533Y-92256800D01*
X63548343Y-92280610D01*
X63572152Y-92328229D01*
X63572152Y-92375848D01*
X63548343Y-92447276D01*
X63262629Y-92732990D01*
X63572152Y-92732990D01*
X59165372Y-92101171D02*
X59141562Y-92124981D01*
X59070134Y-92148790D01*
X59022515Y-92148790D01*
X58951086Y-92124981D01*
X58903467Y-92077362D01*
X58879658Y-92029743D01*
X58855848Y-91934505D01*
X58855848Y-91863076D01*
X58879658Y-91767838D01*
X58903467Y-91720219D01*
X58951086Y-91672600D01*
X59022515Y-91648790D01*
X59070134Y-91648790D01*
X59141562Y-91672600D01*
X59165372Y-91696410D01*
X59332039Y-91648790D02*
X59641562Y-91648790D01*
X59474896Y-91839267D01*
X59546324Y-91839267D01*
X59593943Y-91863076D01*
X59617753Y-91886886D01*
X59641562Y-91934505D01*
X59641562Y-92053552D01*
X59617753Y-92101171D01*
X59593943Y-92124981D01*
X59546324Y-92148790D01*
X59403467Y-92148790D01*
X59355848Y-92124981D01*
X59332039Y-92101171D01*
X59808229Y-91648790D02*
X60117752Y-91648790D01*
X59951086Y-91839267D01*
X60022514Y-91839267D01*
X60070133Y-91863076D01*
X60093943Y-91886886D01*
X60117752Y-91934505D01*
X60117752Y-92053552D01*
X60093943Y-92101171D01*
X60070133Y-92124981D01*
X60022514Y-92148790D01*
X59879657Y-92148790D01*
X59832038Y-92124981D01*
X59808229Y-92101171D01*
X53196372Y-94641171D02*
X53172562Y-94664981D01*
X53101134Y-94688790D01*
X53053515Y-94688790D01*
X52982086Y-94664981D01*
X52934467Y-94617362D01*
X52910658Y-94569743D01*
X52886848Y-94474505D01*
X52886848Y-94403076D01*
X52910658Y-94307838D01*
X52934467Y-94260219D01*
X52982086Y-94212600D01*
X53053515Y-94188790D01*
X53101134Y-94188790D01*
X53172562Y-94212600D01*
X53196372Y-94236410D01*
X53363039Y-94188790D02*
X53672562Y-94188790D01*
X53505896Y-94379267D01*
X53577324Y-94379267D01*
X53624943Y-94403076D01*
X53648753Y-94426886D01*
X53672562Y-94474505D01*
X53672562Y-94593552D01*
X53648753Y-94641171D01*
X53624943Y-94664981D01*
X53577324Y-94688790D01*
X53434467Y-94688790D01*
X53386848Y-94664981D01*
X53363039Y-94641171D01*
X54124943Y-94188790D02*
X53886848Y-94188790D01*
X53863038Y-94426886D01*
X53886848Y-94403076D01*
X53934467Y-94379267D01*
X54053514Y-94379267D01*
X54101133Y-94403076D01*
X54124943Y-94426886D01*
X54148752Y-94474505D01*
X54148752Y-94593552D01*
X54124943Y-94641171D01*
X54101133Y-94664981D01*
X54053514Y-94688790D01*
X53934467Y-94688790D01*
X53886848Y-94664981D01*
X53863038Y-94641171D01*
X43561771Y-76521428D02*
X43585581Y-76545238D01*
X43609390Y-76616666D01*
X43609390Y-76664285D01*
X43585581Y-76735714D01*
X43537962Y-76783333D01*
X43490343Y-76807142D01*
X43395105Y-76830952D01*
X43323676Y-76830952D01*
X43228438Y-76807142D01*
X43180819Y-76783333D01*
X43133200Y-76735714D01*
X43109390Y-76664285D01*
X43109390Y-76616666D01*
X43133200Y-76545238D01*
X43157010Y-76521428D01*
X43109390Y-76354761D02*
X43109390Y-76045238D01*
X43299867Y-76211904D01*
X43299867Y-76140476D01*
X43323676Y-76092857D01*
X43347486Y-76069047D01*
X43395105Y-76045238D01*
X43514152Y-76045238D01*
X43561771Y-76069047D01*
X43585581Y-76092857D01*
X43609390Y-76140476D01*
X43609390Y-76283333D01*
X43585581Y-76330952D01*
X43561771Y-76354761D01*
X43109390Y-75616667D02*
X43109390Y-75711905D01*
X43133200Y-75759524D01*
X43157010Y-75783333D01*
X43228438Y-75830952D01*
X43323676Y-75854762D01*
X43514152Y-75854762D01*
X43561771Y-75830952D01*
X43585581Y-75807143D01*
X43609390Y-75759524D01*
X43609390Y-75664286D01*
X43585581Y-75616667D01*
X43561771Y-75592857D01*
X43514152Y-75569048D01*
X43395105Y-75569048D01*
X43347486Y-75592857D01*
X43323676Y-75616667D01*
X43299867Y-75664286D01*
X43299867Y-75759524D01*
X43323676Y-75807143D01*
X43347486Y-75830952D01*
X43395105Y-75854762D01*
X46646071Y-92015428D02*
X46669881Y-92039238D01*
X46693690Y-92110666D01*
X46693690Y-92158285D01*
X46669881Y-92229714D01*
X46622262Y-92277333D01*
X46574643Y-92301142D01*
X46479405Y-92324952D01*
X46407976Y-92324952D01*
X46312738Y-92301142D01*
X46265119Y-92277333D01*
X46217500Y-92229714D01*
X46193690Y-92158285D01*
X46193690Y-92110666D01*
X46217500Y-92039238D01*
X46241310Y-92015428D01*
X46193690Y-91848761D02*
X46193690Y-91539238D01*
X46384167Y-91705904D01*
X46384167Y-91634476D01*
X46407976Y-91586857D01*
X46431786Y-91563047D01*
X46479405Y-91539238D01*
X46598452Y-91539238D01*
X46646071Y-91563047D01*
X46669881Y-91586857D01*
X46693690Y-91634476D01*
X46693690Y-91777333D01*
X46669881Y-91824952D01*
X46646071Y-91848761D01*
X46193690Y-91372571D02*
X46193690Y-91039238D01*
X46693690Y-91253524D01*
X56447572Y-95682571D02*
X56423762Y-95706381D01*
X56352334Y-95730190D01*
X56304715Y-95730190D01*
X56233286Y-95706381D01*
X56185667Y-95658762D01*
X56161858Y-95611143D01*
X56138048Y-95515905D01*
X56138048Y-95444476D01*
X56161858Y-95349238D01*
X56185667Y-95301619D01*
X56233286Y-95254000D01*
X56304715Y-95230190D01*
X56352334Y-95230190D01*
X56423762Y-95254000D01*
X56447572Y-95277810D01*
X56614239Y-95230190D02*
X56923762Y-95230190D01*
X56757096Y-95420667D01*
X56828524Y-95420667D01*
X56876143Y-95444476D01*
X56899953Y-95468286D01*
X56923762Y-95515905D01*
X56923762Y-95634952D01*
X56899953Y-95682571D01*
X56876143Y-95706381D01*
X56828524Y-95730190D01*
X56685667Y-95730190D01*
X56638048Y-95706381D01*
X56614239Y-95682571D01*
X57209476Y-95444476D02*
X57161857Y-95420667D01*
X57138048Y-95396857D01*
X57114238Y-95349238D01*
X57114238Y-95325429D01*
X57138048Y-95277810D01*
X57161857Y-95254000D01*
X57209476Y-95230190D01*
X57304714Y-95230190D01*
X57352333Y-95254000D01*
X57376143Y-95277810D01*
X57399952Y-95325429D01*
X57399952Y-95349238D01*
X57376143Y-95396857D01*
X57352333Y-95420667D01*
X57304714Y-95444476D01*
X57209476Y-95444476D01*
X57161857Y-95468286D01*
X57138048Y-95492095D01*
X57114238Y-95539714D01*
X57114238Y-95634952D01*
X57138048Y-95682571D01*
X57161857Y-95706381D01*
X57209476Y-95730190D01*
X57304714Y-95730190D01*
X57352333Y-95706381D01*
X57376143Y-95682571D01*
X57399952Y-95634952D01*
X57399952Y-95539714D01*
X57376143Y-95492095D01*
X57352333Y-95468286D01*
X57304714Y-95444476D01*
X57514372Y-93879171D02*
X57490562Y-93902981D01*
X57419134Y-93926790D01*
X57371515Y-93926790D01*
X57300086Y-93902981D01*
X57252467Y-93855362D01*
X57228658Y-93807743D01*
X57204848Y-93712505D01*
X57204848Y-93641076D01*
X57228658Y-93545838D01*
X57252467Y-93498219D01*
X57300086Y-93450600D01*
X57371515Y-93426790D01*
X57419134Y-93426790D01*
X57490562Y-93450600D01*
X57514372Y-93474410D01*
X57681039Y-93426790D02*
X57990562Y-93426790D01*
X57823896Y-93617267D01*
X57895324Y-93617267D01*
X57942943Y-93641076D01*
X57966753Y-93664886D01*
X57990562Y-93712505D01*
X57990562Y-93831552D01*
X57966753Y-93879171D01*
X57942943Y-93902981D01*
X57895324Y-93926790D01*
X57752467Y-93926790D01*
X57704848Y-93902981D01*
X57681039Y-93879171D01*
X58228657Y-93926790D02*
X58323895Y-93926790D01*
X58371514Y-93902981D01*
X58395324Y-93879171D01*
X58442943Y-93807743D01*
X58466752Y-93712505D01*
X58466752Y-93522029D01*
X58442943Y-93474410D01*
X58419133Y-93450600D01*
X58371514Y-93426790D01*
X58276276Y-93426790D01*
X58228657Y-93450600D01*
X58204848Y-93474410D01*
X58181038Y-93522029D01*
X58181038Y-93641076D01*
X58204848Y-93688695D01*
X58228657Y-93712505D01*
X58276276Y-93736314D01*
X58371514Y-93736314D01*
X58419133Y-93712505D01*
X58442943Y-93688695D01*
X58466752Y-93641076D01*
X56676172Y-90577171D02*
X56652362Y-90600981D01*
X56580934Y-90624790D01*
X56533315Y-90624790D01*
X56461886Y-90600981D01*
X56414267Y-90553362D01*
X56390458Y-90505743D01*
X56366648Y-90410505D01*
X56366648Y-90339076D01*
X56390458Y-90243838D01*
X56414267Y-90196219D01*
X56461886Y-90148600D01*
X56533315Y-90124790D01*
X56580934Y-90124790D01*
X56652362Y-90148600D01*
X56676172Y-90172410D01*
X57104743Y-90291457D02*
X57104743Y-90624790D01*
X56985696Y-90100981D02*
X56866648Y-90458124D01*
X57176172Y-90458124D01*
X57461886Y-90124790D02*
X57509505Y-90124790D01*
X57557124Y-90148600D01*
X57580933Y-90172410D01*
X57604743Y-90220029D01*
X57628552Y-90315267D01*
X57628552Y-90434314D01*
X57604743Y-90529552D01*
X57580933Y-90577171D01*
X57557124Y-90600981D01*
X57509505Y-90624790D01*
X57461886Y-90624790D01*
X57414267Y-90600981D01*
X57390457Y-90577171D01*
X57366648Y-90529552D01*
X57342838Y-90434314D01*
X57342838Y-90315267D01*
X57366648Y-90220029D01*
X57390457Y-90172410D01*
X57414267Y-90148600D01*
X57461886Y-90124790D01*
X56422172Y-88748371D02*
X56398362Y-88772181D01*
X56326934Y-88795990D01*
X56279315Y-88795990D01*
X56207886Y-88772181D01*
X56160267Y-88724562D01*
X56136458Y-88676943D01*
X56112648Y-88581705D01*
X56112648Y-88510276D01*
X56136458Y-88415038D01*
X56160267Y-88367419D01*
X56207886Y-88319800D01*
X56279315Y-88295990D01*
X56326934Y-88295990D01*
X56398362Y-88319800D01*
X56422172Y-88343610D01*
X56850743Y-88462657D02*
X56850743Y-88795990D01*
X56731696Y-88272181D02*
X56612648Y-88629324D01*
X56922172Y-88629324D01*
X57374552Y-88795990D02*
X57088838Y-88795990D01*
X57231695Y-88795990D02*
X57231695Y-88295990D01*
X57184076Y-88367419D01*
X57136457Y-88415038D01*
X57088838Y-88438848D01*
X38075371Y-76521428D02*
X38099181Y-76545238D01*
X38122990Y-76616666D01*
X38122990Y-76664285D01*
X38099181Y-76735714D01*
X38051562Y-76783333D01*
X38003943Y-76807142D01*
X37908705Y-76830952D01*
X37837276Y-76830952D01*
X37742038Y-76807142D01*
X37694419Y-76783333D01*
X37646800Y-76735714D01*
X37622990Y-76664285D01*
X37622990Y-76616666D01*
X37646800Y-76545238D01*
X37670610Y-76521428D01*
X37789657Y-76092857D02*
X38122990Y-76092857D01*
X37599181Y-76211904D02*
X37956324Y-76330952D01*
X37956324Y-76021428D01*
X37670610Y-75854762D02*
X37646800Y-75830952D01*
X37622990Y-75783333D01*
X37622990Y-75664286D01*
X37646800Y-75616667D01*
X37670610Y-75592857D01*
X37718229Y-75569048D01*
X37765848Y-75569048D01*
X37837276Y-75592857D01*
X38122990Y-75878571D01*
X38122990Y-75569048D01*
X43061772Y-89916771D02*
X43037962Y-89940581D01*
X42966534Y-89964390D01*
X42918915Y-89964390D01*
X42847486Y-89940581D01*
X42799867Y-89892962D01*
X42776058Y-89845343D01*
X42752248Y-89750105D01*
X42752248Y-89678676D01*
X42776058Y-89583438D01*
X42799867Y-89535819D01*
X42847486Y-89488200D01*
X42918915Y-89464390D01*
X42966534Y-89464390D01*
X43037962Y-89488200D01*
X43061772Y-89512010D01*
X43490343Y-89631057D02*
X43490343Y-89964390D01*
X43371296Y-89440581D02*
X43252248Y-89797724D01*
X43561772Y-89797724D01*
X43704629Y-89464390D02*
X44014152Y-89464390D01*
X43847486Y-89654867D01*
X43918914Y-89654867D01*
X43966533Y-89678676D01*
X43990343Y-89702486D01*
X44014152Y-89750105D01*
X44014152Y-89869152D01*
X43990343Y-89916771D01*
X43966533Y-89940581D01*
X43918914Y-89964390D01*
X43776057Y-89964390D01*
X43728438Y-89940581D01*
X43704629Y-89916771D01*
X43764971Y-98568628D02*
X43788781Y-98592438D01*
X43812590Y-98663866D01*
X43812590Y-98711485D01*
X43788781Y-98782914D01*
X43741162Y-98830533D01*
X43693543Y-98854342D01*
X43598305Y-98878152D01*
X43526876Y-98878152D01*
X43431638Y-98854342D01*
X43384019Y-98830533D01*
X43336400Y-98782914D01*
X43312590Y-98711485D01*
X43312590Y-98663866D01*
X43336400Y-98592438D01*
X43360210Y-98568628D01*
X43479257Y-98140057D02*
X43812590Y-98140057D01*
X43288781Y-98259104D02*
X43645924Y-98378152D01*
X43645924Y-98068628D01*
X43479257Y-97663867D02*
X43812590Y-97663867D01*
X43288781Y-97782914D02*
X43645924Y-97901962D01*
X43645924Y-97592438D01*
X65227785Y-91387153D02*
X65227785Y-91420825D01*
X65194113Y-91488168D01*
X65160441Y-91521840D01*
X65093098Y-91555512D01*
X65025755Y-91555512D01*
X64975247Y-91538676D01*
X64891068Y-91488169D01*
X64840560Y-91437661D01*
X64790053Y-91353481D01*
X64773216Y-91302974D01*
X64773216Y-91235630D01*
X64806888Y-91168286D01*
X64840560Y-91134614D01*
X64907903Y-91100943D01*
X64941576Y-91100943D01*
X65328800Y-90882077D02*
X65564502Y-91117779D01*
X65109934Y-90831569D02*
X65278293Y-91168287D01*
X65497159Y-90949420D01*
X65564502Y-90410672D02*
X65396143Y-90579031D01*
X65547667Y-90764226D01*
X65547667Y-90730554D01*
X65564503Y-90680047D01*
X65648682Y-90595868D01*
X65699189Y-90579031D01*
X65732861Y-90579031D01*
X65783369Y-90595868D01*
X65867547Y-90680047D01*
X65884384Y-90730554D01*
X65884384Y-90764226D01*
X65867547Y-90814733D01*
X65783369Y-90898912D01*
X65732861Y-90915749D01*
X65699189Y-90915749D01*
X36856171Y-100448228D02*
X36879981Y-100472038D01*
X36903790Y-100543466D01*
X36903790Y-100591085D01*
X36879981Y-100662514D01*
X36832362Y-100710133D01*
X36784743Y-100733942D01*
X36689505Y-100757752D01*
X36618076Y-100757752D01*
X36522838Y-100733942D01*
X36475219Y-100710133D01*
X36427600Y-100662514D01*
X36403790Y-100591085D01*
X36403790Y-100543466D01*
X36427600Y-100472038D01*
X36451410Y-100448228D01*
X36570457Y-100019657D02*
X36903790Y-100019657D01*
X36379981Y-100138704D02*
X36737124Y-100257752D01*
X36737124Y-99948228D01*
X36403790Y-99805371D02*
X36403790Y-99472038D01*
X36903790Y-99686324D01*
X40001072Y-96268571D02*
X39977262Y-96292381D01*
X39905834Y-96316190D01*
X39858215Y-96316190D01*
X39786786Y-96292381D01*
X39739167Y-96244762D01*
X39715358Y-96197143D01*
X39691548Y-96101905D01*
X39691548Y-96030476D01*
X39715358Y-95935238D01*
X39739167Y-95887619D01*
X39786786Y-95840000D01*
X39858215Y-95816190D01*
X39905834Y-95816190D01*
X39977262Y-95840000D01*
X40001072Y-95863810D01*
X40429643Y-95982857D02*
X40429643Y-96316190D01*
X40310596Y-95792381D02*
X40191548Y-96149524D01*
X40501072Y-96149524D01*
X40762976Y-96030476D02*
X40715357Y-96006667D01*
X40691548Y-95982857D01*
X40667738Y-95935238D01*
X40667738Y-95911429D01*
X40691548Y-95863810D01*
X40715357Y-95840000D01*
X40762976Y-95816190D01*
X40858214Y-95816190D01*
X40905833Y-95840000D01*
X40929643Y-95863810D01*
X40953452Y-95911429D01*
X40953452Y-95935238D01*
X40929643Y-95982857D01*
X40905833Y-96006667D01*
X40858214Y-96030476D01*
X40762976Y-96030476D01*
X40715357Y-96054286D01*
X40691548Y-96078095D01*
X40667738Y-96125714D01*
X40667738Y-96220952D01*
X40691548Y-96268571D01*
X40715357Y-96292381D01*
X40762976Y-96316190D01*
X40858214Y-96316190D01*
X40905833Y-96292381D01*
X40929643Y-96268571D01*
X40953452Y-96220952D01*
X40953452Y-96125714D01*
X40929643Y-96078095D01*
X40905833Y-96054286D01*
X40858214Y-96030476D01*
X38362772Y-83211171D02*
X38338962Y-83234981D01*
X38267534Y-83258790D01*
X38219915Y-83258790D01*
X38148486Y-83234981D01*
X38100867Y-83187362D01*
X38077058Y-83139743D01*
X38053248Y-83044505D01*
X38053248Y-82973076D01*
X38077058Y-82877838D01*
X38100867Y-82830219D01*
X38148486Y-82782600D01*
X38219915Y-82758790D01*
X38267534Y-82758790D01*
X38338962Y-82782600D01*
X38362772Y-82806410D01*
X38791343Y-82925457D02*
X38791343Y-83258790D01*
X38672296Y-82734981D02*
X38553248Y-83092124D01*
X38862772Y-83092124D01*
X39077057Y-83258790D02*
X39172295Y-83258790D01*
X39219914Y-83234981D01*
X39243724Y-83211171D01*
X39291343Y-83139743D01*
X39315152Y-83044505D01*
X39315152Y-82854029D01*
X39291343Y-82806410D01*
X39267533Y-82782600D01*
X39219914Y-82758790D01*
X39124676Y-82758790D01*
X39077057Y-82782600D01*
X39053248Y-82806410D01*
X39029438Y-82854029D01*
X39029438Y-82973076D01*
X39053248Y-83020695D01*
X39077057Y-83044505D01*
X39124676Y-83068314D01*
X39219914Y-83068314D01*
X39267533Y-83044505D01*
X39291343Y-83020695D01*
X39315152Y-82973076D01*
X37372172Y-90602571D02*
X37348362Y-90626381D01*
X37276934Y-90650190D01*
X37229315Y-90650190D01*
X37157886Y-90626381D01*
X37110267Y-90578762D01*
X37086458Y-90531143D01*
X37062648Y-90435905D01*
X37062648Y-90364476D01*
X37086458Y-90269238D01*
X37110267Y-90221619D01*
X37157886Y-90174000D01*
X37229315Y-90150190D01*
X37276934Y-90150190D01*
X37348362Y-90174000D01*
X37372172Y-90197810D01*
X37824553Y-90150190D02*
X37586458Y-90150190D01*
X37562648Y-90388286D01*
X37586458Y-90364476D01*
X37634077Y-90340667D01*
X37753124Y-90340667D01*
X37800743Y-90364476D01*
X37824553Y-90388286D01*
X37848362Y-90435905D01*
X37848362Y-90554952D01*
X37824553Y-90602571D01*
X37800743Y-90626381D01*
X37753124Y-90650190D01*
X37634077Y-90650190D01*
X37586458Y-90626381D01*
X37562648Y-90602571D01*
X38157886Y-90150190D02*
X38205505Y-90150190D01*
X38253124Y-90174000D01*
X38276933Y-90197810D01*
X38300743Y-90245429D01*
X38324552Y-90340667D01*
X38324552Y-90459714D01*
X38300743Y-90554952D01*
X38276933Y-90602571D01*
X38253124Y-90626381D01*
X38205505Y-90650190D01*
X38157886Y-90650190D01*
X38110267Y-90626381D01*
X38086457Y-90602571D01*
X38062648Y-90554952D01*
X38038838Y-90459714D01*
X38038838Y-90340667D01*
X38062648Y-90245429D01*
X38086457Y-90197810D01*
X38110267Y-90174000D01*
X38157886Y-90150190D01*
X26238971Y-71085828D02*
X26262781Y-71109638D01*
X26286590Y-71181066D01*
X26286590Y-71228685D01*
X26262781Y-71300114D01*
X26215162Y-71347733D01*
X26167543Y-71371542D01*
X26072305Y-71395352D01*
X26000876Y-71395352D01*
X25905638Y-71371542D01*
X25858019Y-71347733D01*
X25810400Y-71300114D01*
X25786590Y-71228685D01*
X25786590Y-71181066D01*
X25810400Y-71109638D01*
X25834210Y-71085828D01*
X25786590Y-70633447D02*
X25786590Y-70871542D01*
X26024686Y-70895352D01*
X26000876Y-70871542D01*
X25977067Y-70823923D01*
X25977067Y-70704876D01*
X26000876Y-70657257D01*
X26024686Y-70633447D01*
X26072305Y-70609638D01*
X26191352Y-70609638D01*
X26238971Y-70633447D01*
X26262781Y-70657257D01*
X26286590Y-70704876D01*
X26286590Y-70823923D01*
X26262781Y-70871542D01*
X26238971Y-70895352D01*
X26286590Y-70133448D02*
X26286590Y-70419162D01*
X26286590Y-70276305D02*
X25786590Y-70276305D01*
X25858019Y-70323924D01*
X25905638Y-70371543D01*
X25929448Y-70419162D01*
X38286572Y-84557371D02*
X38262762Y-84581181D01*
X38191334Y-84604990D01*
X38143715Y-84604990D01*
X38072286Y-84581181D01*
X38024667Y-84533562D01*
X38000858Y-84485943D01*
X37977048Y-84390705D01*
X37977048Y-84319276D01*
X38000858Y-84224038D01*
X38024667Y-84176419D01*
X38072286Y-84128800D01*
X38143715Y-84104990D01*
X38191334Y-84104990D01*
X38262762Y-84128800D01*
X38286572Y-84152610D01*
X38738953Y-84104990D02*
X38500858Y-84104990D01*
X38477048Y-84343086D01*
X38500858Y-84319276D01*
X38548477Y-84295467D01*
X38667524Y-84295467D01*
X38715143Y-84319276D01*
X38738953Y-84343086D01*
X38762762Y-84390705D01*
X38762762Y-84509752D01*
X38738953Y-84557371D01*
X38715143Y-84581181D01*
X38667524Y-84604990D01*
X38548477Y-84604990D01*
X38500858Y-84581181D01*
X38477048Y-84557371D01*
X38953238Y-84152610D02*
X38977048Y-84128800D01*
X39024667Y-84104990D01*
X39143714Y-84104990D01*
X39191333Y-84128800D01*
X39215143Y-84152610D01*
X39238952Y-84200229D01*
X39238952Y-84247848D01*
X39215143Y-84319276D01*
X38929429Y-84604990D01*
X39238952Y-84604990D01*
X56218972Y-101219771D02*
X56195162Y-101243581D01*
X56123734Y-101267390D01*
X56076115Y-101267390D01*
X56004686Y-101243581D01*
X55957067Y-101195962D01*
X55933258Y-101148343D01*
X55909448Y-101053105D01*
X55909448Y-100981676D01*
X55933258Y-100886438D01*
X55957067Y-100838819D01*
X56004686Y-100791200D01*
X56076115Y-100767390D01*
X56123734Y-100767390D01*
X56195162Y-100791200D01*
X56218972Y-100815010D01*
X56671353Y-100767390D02*
X56433258Y-100767390D01*
X56409448Y-101005486D01*
X56433258Y-100981676D01*
X56480877Y-100957867D01*
X56599924Y-100957867D01*
X56647543Y-100981676D01*
X56671353Y-101005486D01*
X56695162Y-101053105D01*
X56695162Y-101172152D01*
X56671353Y-101219771D01*
X56647543Y-101243581D01*
X56599924Y-101267390D01*
X56480877Y-101267390D01*
X56433258Y-101243581D01*
X56409448Y-101219771D01*
X56861829Y-100767390D02*
X57171352Y-100767390D01*
X57004686Y-100957867D01*
X57076114Y-100957867D01*
X57123733Y-100981676D01*
X57147543Y-101005486D01*
X57171352Y-101053105D01*
X57171352Y-101172152D01*
X57147543Y-101219771D01*
X57123733Y-101243581D01*
X57076114Y-101267390D01*
X56933257Y-101267390D01*
X56885638Y-101243581D01*
X56861829Y-101219771D01*
X56617371Y-104410628D02*
X56641181Y-104434438D01*
X56664990Y-104505866D01*
X56664990Y-104553485D01*
X56641181Y-104624914D01*
X56593562Y-104672533D01*
X56545943Y-104696342D01*
X56450705Y-104720152D01*
X56379276Y-104720152D01*
X56284038Y-104696342D01*
X56236419Y-104672533D01*
X56188800Y-104624914D01*
X56164990Y-104553485D01*
X56164990Y-104505866D01*
X56188800Y-104434438D01*
X56212610Y-104410628D01*
X56164990Y-103958247D02*
X56164990Y-104196342D01*
X56403086Y-104220152D01*
X56379276Y-104196342D01*
X56355467Y-104148723D01*
X56355467Y-104029676D01*
X56379276Y-103982057D01*
X56403086Y-103958247D01*
X56450705Y-103934438D01*
X56569752Y-103934438D01*
X56617371Y-103958247D01*
X56641181Y-103982057D01*
X56664990Y-104029676D01*
X56664990Y-104148723D01*
X56641181Y-104196342D01*
X56617371Y-104220152D01*
X56331657Y-103505867D02*
X56664990Y-103505867D01*
X56141181Y-103624914D02*
X56498324Y-103743962D01*
X56498324Y-103434438D01*
X52612172Y-107620571D02*
X52588362Y-107644381D01*
X52516934Y-107668190D01*
X52469315Y-107668190D01*
X52397886Y-107644381D01*
X52350267Y-107596762D01*
X52326458Y-107549143D01*
X52302648Y-107453905D01*
X52302648Y-107382476D01*
X52326458Y-107287238D01*
X52350267Y-107239619D01*
X52397886Y-107192000D01*
X52469315Y-107168190D01*
X52516934Y-107168190D01*
X52588362Y-107192000D01*
X52612172Y-107215810D01*
X53064553Y-107168190D02*
X52826458Y-107168190D01*
X52802648Y-107406286D01*
X52826458Y-107382476D01*
X52874077Y-107358667D01*
X52993124Y-107358667D01*
X53040743Y-107382476D01*
X53064553Y-107406286D01*
X53088362Y-107453905D01*
X53088362Y-107572952D01*
X53064553Y-107620571D01*
X53040743Y-107644381D01*
X52993124Y-107668190D01*
X52874077Y-107668190D01*
X52826458Y-107644381D01*
X52802648Y-107620571D01*
X53540743Y-107168190D02*
X53302648Y-107168190D01*
X53278838Y-107406286D01*
X53302648Y-107382476D01*
X53350267Y-107358667D01*
X53469314Y-107358667D01*
X53516933Y-107382476D01*
X53540743Y-107406286D01*
X53564552Y-107453905D01*
X53564552Y-107572952D01*
X53540743Y-107620571D01*
X53516933Y-107644381D01*
X53469314Y-107668190D01*
X53350267Y-107668190D01*
X53302648Y-107644381D01*
X53278838Y-107620571D01*
X50580172Y-111938571D02*
X50556362Y-111962381D01*
X50484934Y-111986190D01*
X50437315Y-111986190D01*
X50365886Y-111962381D01*
X50318267Y-111914762D01*
X50294458Y-111867143D01*
X50270648Y-111771905D01*
X50270648Y-111700476D01*
X50294458Y-111605238D01*
X50318267Y-111557619D01*
X50365886Y-111510000D01*
X50437315Y-111486190D01*
X50484934Y-111486190D01*
X50556362Y-111510000D01*
X50580172Y-111533810D01*
X51032553Y-111486190D02*
X50794458Y-111486190D01*
X50770648Y-111724286D01*
X50794458Y-111700476D01*
X50842077Y-111676667D01*
X50961124Y-111676667D01*
X51008743Y-111700476D01*
X51032553Y-111724286D01*
X51056362Y-111771905D01*
X51056362Y-111890952D01*
X51032553Y-111938571D01*
X51008743Y-111962381D01*
X50961124Y-111986190D01*
X50842077Y-111986190D01*
X50794458Y-111962381D01*
X50770648Y-111938571D01*
X51484933Y-111486190D02*
X51389695Y-111486190D01*
X51342076Y-111510000D01*
X51318267Y-111533810D01*
X51270648Y-111605238D01*
X51246838Y-111700476D01*
X51246838Y-111890952D01*
X51270648Y-111938571D01*
X51294457Y-111962381D01*
X51342076Y-111986190D01*
X51437314Y-111986190D01*
X51484933Y-111962381D01*
X51508743Y-111938571D01*
X51532552Y-111890952D01*
X51532552Y-111771905D01*
X51508743Y-111724286D01*
X51484933Y-111700476D01*
X51437314Y-111676667D01*
X51342076Y-111676667D01*
X51294457Y-111700476D01*
X51270648Y-111724286D01*
X51246838Y-111771905D01*
X52637572Y-98872071D02*
X52613762Y-98895881D01*
X52542334Y-98919690D01*
X52494715Y-98919690D01*
X52423286Y-98895881D01*
X52375667Y-98848262D01*
X52351858Y-98800643D01*
X52328048Y-98705405D01*
X52328048Y-98633976D01*
X52351858Y-98538738D01*
X52375667Y-98491119D01*
X52423286Y-98443500D01*
X52494715Y-98419690D01*
X52542334Y-98419690D01*
X52613762Y-98443500D01*
X52637572Y-98467310D01*
X53089953Y-98419690D02*
X52851858Y-98419690D01*
X52828048Y-98657786D01*
X52851858Y-98633976D01*
X52899477Y-98610167D01*
X53018524Y-98610167D01*
X53066143Y-98633976D01*
X53089953Y-98657786D01*
X53113762Y-98705405D01*
X53113762Y-98824452D01*
X53089953Y-98872071D01*
X53066143Y-98895881D01*
X53018524Y-98919690D01*
X52899477Y-98919690D01*
X52851858Y-98895881D01*
X52828048Y-98872071D01*
X53280429Y-98419690D02*
X53613762Y-98419690D01*
X53399476Y-98919690D01*
X76530971Y-103750228D02*
X76554781Y-103774038D01*
X76578590Y-103845466D01*
X76578590Y-103893085D01*
X76554781Y-103964514D01*
X76507162Y-104012133D01*
X76459543Y-104035942D01*
X76364305Y-104059752D01*
X76292876Y-104059752D01*
X76197638Y-104035942D01*
X76150019Y-104012133D01*
X76102400Y-103964514D01*
X76078590Y-103893085D01*
X76078590Y-103845466D01*
X76102400Y-103774038D01*
X76126210Y-103750228D01*
X76078590Y-103297847D02*
X76078590Y-103535942D01*
X76316686Y-103559752D01*
X76292876Y-103535942D01*
X76269067Y-103488323D01*
X76269067Y-103369276D01*
X76292876Y-103321657D01*
X76316686Y-103297847D01*
X76364305Y-103274038D01*
X76483352Y-103274038D01*
X76530971Y-103297847D01*
X76554781Y-103321657D01*
X76578590Y-103369276D01*
X76578590Y-103488323D01*
X76554781Y-103535942D01*
X76530971Y-103559752D01*
X76292876Y-102988324D02*
X76269067Y-103035943D01*
X76245257Y-103059752D01*
X76197638Y-103083562D01*
X76173829Y-103083562D01*
X76126210Y-103059752D01*
X76102400Y-103035943D01*
X76078590Y-102988324D01*
X76078590Y-102893086D01*
X76102400Y-102845467D01*
X76126210Y-102821657D01*
X76173829Y-102797848D01*
X76197638Y-102797848D01*
X76245257Y-102821657D01*
X76269067Y-102845467D01*
X76292876Y-102893086D01*
X76292876Y-102988324D01*
X76316686Y-103035943D01*
X76340495Y-103059752D01*
X76388114Y-103083562D01*
X76483352Y-103083562D01*
X76530971Y-103059752D01*
X76554781Y-103035943D01*
X76578590Y-102988324D01*
X76578590Y-102893086D01*
X76554781Y-102845467D01*
X76530971Y-102821657D01*
X76483352Y-102797848D01*
X76388114Y-102797848D01*
X76340495Y-102821657D01*
X76316686Y-102845467D01*
X76292876Y-102893086D01*
X47227372Y-99848171D02*
X47203562Y-99871981D01*
X47132134Y-99895790D01*
X47084515Y-99895790D01*
X47013086Y-99871981D01*
X46965467Y-99824362D01*
X46941658Y-99776743D01*
X46917848Y-99681505D01*
X46917848Y-99610076D01*
X46941658Y-99514838D01*
X46965467Y-99467219D01*
X47013086Y-99419600D01*
X47084515Y-99395790D01*
X47132134Y-99395790D01*
X47203562Y-99419600D01*
X47227372Y-99443410D01*
X47679753Y-99395790D02*
X47441658Y-99395790D01*
X47417848Y-99633886D01*
X47441658Y-99610076D01*
X47489277Y-99586267D01*
X47608324Y-99586267D01*
X47655943Y-99610076D01*
X47679753Y-99633886D01*
X47703562Y-99681505D01*
X47703562Y-99800552D01*
X47679753Y-99848171D01*
X47655943Y-99871981D01*
X47608324Y-99895790D01*
X47489277Y-99895790D01*
X47441658Y-99871981D01*
X47417848Y-99848171D01*
X47941657Y-99895790D02*
X48036895Y-99895790D01*
X48084514Y-99871981D01*
X48108324Y-99848171D01*
X48155943Y-99776743D01*
X48179752Y-99681505D01*
X48179752Y-99491029D01*
X48155943Y-99443410D01*
X48132133Y-99419600D01*
X48084514Y-99395790D01*
X47989276Y-99395790D01*
X47941657Y-99419600D01*
X47917848Y-99443410D01*
X47894038Y-99491029D01*
X47894038Y-99610076D01*
X47917848Y-99657695D01*
X47941657Y-99681505D01*
X47989276Y-99705314D01*
X48084514Y-99705314D01*
X48132133Y-99681505D01*
X48155943Y-99657695D01*
X48179752Y-99610076D01*
X49505371Y-107458628D02*
X49529181Y-107482438D01*
X49552990Y-107553866D01*
X49552990Y-107601485D01*
X49529181Y-107672914D01*
X49481562Y-107720533D01*
X49433943Y-107744342D01*
X49338705Y-107768152D01*
X49267276Y-107768152D01*
X49172038Y-107744342D01*
X49124419Y-107720533D01*
X49076800Y-107672914D01*
X49052990Y-107601485D01*
X49052990Y-107553866D01*
X49076800Y-107482438D01*
X49100610Y-107458628D01*
X49052990Y-107030057D02*
X49052990Y-107125295D01*
X49076800Y-107172914D01*
X49100610Y-107196723D01*
X49172038Y-107244342D01*
X49267276Y-107268152D01*
X49457752Y-107268152D01*
X49505371Y-107244342D01*
X49529181Y-107220533D01*
X49552990Y-107172914D01*
X49552990Y-107077676D01*
X49529181Y-107030057D01*
X49505371Y-107006247D01*
X49457752Y-106982438D01*
X49338705Y-106982438D01*
X49291086Y-107006247D01*
X49267276Y-107030057D01*
X49243467Y-107077676D01*
X49243467Y-107172914D01*
X49267276Y-107220533D01*
X49291086Y-107244342D01*
X49338705Y-107268152D01*
X49052990Y-106672914D02*
X49052990Y-106625295D01*
X49076800Y-106577676D01*
X49100610Y-106553867D01*
X49148229Y-106530057D01*
X49243467Y-106506248D01*
X49362514Y-106506248D01*
X49457752Y-106530057D01*
X49505371Y-106553867D01*
X49529181Y-106577676D01*
X49552990Y-106625295D01*
X49552990Y-106672914D01*
X49529181Y-106720533D01*
X49505371Y-106744343D01*
X49457752Y-106768152D01*
X49362514Y-106791962D01*
X49243467Y-106791962D01*
X49148229Y-106768152D01*
X49100610Y-106744343D01*
X49076800Y-106720533D01*
X49052990Y-106672914D01*
X43253790Y-107912647D02*
X42753790Y-107912647D01*
X42753790Y-107793600D01*
X42777600Y-107722171D01*
X42825219Y-107674552D01*
X42872838Y-107650743D01*
X42968076Y-107626933D01*
X43039505Y-107626933D01*
X43134743Y-107650743D01*
X43182362Y-107674552D01*
X43229981Y-107722171D01*
X43253790Y-107793600D01*
X43253790Y-107912647D01*
X43253790Y-107150743D02*
X43253790Y-107436457D01*
X43253790Y-107293600D02*
X42753790Y-107293600D01*
X42825219Y-107341219D01*
X42872838Y-107388838D01*
X42896648Y-107436457D01*
X51091353Y-110614590D02*
X51091353Y-110114590D01*
X51210400Y-110114590D01*
X51281829Y-110138400D01*
X51329448Y-110186019D01*
X51353257Y-110233638D01*
X51377067Y-110328876D01*
X51377067Y-110400305D01*
X51353257Y-110495543D01*
X51329448Y-110543162D01*
X51281829Y-110590781D01*
X51210400Y-110614590D01*
X51091353Y-110614590D01*
X51567543Y-110162210D02*
X51591353Y-110138400D01*
X51638972Y-110114590D01*
X51758019Y-110114590D01*
X51805638Y-110138400D01*
X51829448Y-110162210D01*
X51853257Y-110209829D01*
X51853257Y-110257448D01*
X51829448Y-110328876D01*
X51543734Y-110614590D01*
X51853257Y-110614590D01*
X74620667Y-113060190D02*
X74454000Y-112822095D01*
X74334953Y-113060190D02*
X74334953Y-112560190D01*
X74525429Y-112560190D01*
X74573048Y-112584000D01*
X74596857Y-112607810D01*
X74620667Y-112655429D01*
X74620667Y-112726857D01*
X74596857Y-112774476D01*
X74573048Y-112798286D01*
X74525429Y-112822095D01*
X74334953Y-112822095D01*
X75096857Y-113060190D02*
X74811143Y-113060190D01*
X74954000Y-113060190D02*
X74954000Y-112560190D01*
X74906381Y-112631619D01*
X74858762Y-112679238D01*
X74811143Y-112703048D01*
X58336667Y-82115790D02*
X58170000Y-81877695D01*
X58050953Y-82115790D02*
X58050953Y-81615790D01*
X58241429Y-81615790D01*
X58289048Y-81639600D01*
X58312857Y-81663410D01*
X58336667Y-81711029D01*
X58336667Y-81782457D01*
X58312857Y-81830076D01*
X58289048Y-81853886D01*
X58241429Y-81877695D01*
X58050953Y-81877695D01*
X58527143Y-81663410D02*
X58550953Y-81639600D01*
X58598572Y-81615790D01*
X58717619Y-81615790D01*
X58765238Y-81639600D01*
X58789048Y-81663410D01*
X58812857Y-81711029D01*
X58812857Y-81758648D01*
X58789048Y-81830076D01*
X58503334Y-82115790D01*
X58812857Y-82115790D01*
X60165467Y-84960590D02*
X59998800Y-84722495D01*
X59879753Y-84960590D02*
X59879753Y-84460590D01*
X60070229Y-84460590D01*
X60117848Y-84484400D01*
X60141657Y-84508210D01*
X60165467Y-84555829D01*
X60165467Y-84627257D01*
X60141657Y-84674876D01*
X60117848Y-84698686D01*
X60070229Y-84722495D01*
X59879753Y-84722495D01*
X60332134Y-84460590D02*
X60641657Y-84460590D01*
X60474991Y-84651067D01*
X60546419Y-84651067D01*
X60594038Y-84674876D01*
X60617848Y-84698686D01*
X60641657Y-84746305D01*
X60641657Y-84865352D01*
X60617848Y-84912971D01*
X60594038Y-84936781D01*
X60546419Y-84960590D01*
X60403562Y-84960590D01*
X60355943Y-84936781D01*
X60332134Y-84912971D01*
X59809867Y-86713190D02*
X59643200Y-86475095D01*
X59524153Y-86713190D02*
X59524153Y-86213190D01*
X59714629Y-86213190D01*
X59762248Y-86237000D01*
X59786057Y-86260810D01*
X59809867Y-86308429D01*
X59809867Y-86379857D01*
X59786057Y-86427476D01*
X59762248Y-86451286D01*
X59714629Y-86475095D01*
X59524153Y-86475095D01*
X60238438Y-86379857D02*
X60238438Y-86713190D01*
X60119391Y-86189381D02*
X60000343Y-86546524D01*
X60309867Y-86546524D01*
X58336667Y-90291190D02*
X58170000Y-90053095D01*
X58050953Y-90291190D02*
X58050953Y-89791190D01*
X58241429Y-89791190D01*
X58289048Y-89815000D01*
X58312857Y-89838810D01*
X58336667Y-89886429D01*
X58336667Y-89957857D01*
X58312857Y-90005476D01*
X58289048Y-90029286D01*
X58241429Y-90053095D01*
X58050953Y-90053095D01*
X58789048Y-89791190D02*
X58550953Y-89791190D01*
X58527143Y-90029286D01*
X58550953Y-90005476D01*
X58598572Y-89981667D01*
X58717619Y-89981667D01*
X58765238Y-90005476D01*
X58789048Y-90029286D01*
X58812857Y-90076905D01*
X58812857Y-90195952D01*
X58789048Y-90243571D01*
X58765238Y-90267381D01*
X58717619Y-90291190D01*
X58598572Y-90291190D01*
X58550953Y-90267381D01*
X58527143Y-90243571D01*
X58209667Y-87602190D02*
X58043000Y-87364095D01*
X57923953Y-87602190D02*
X57923953Y-87102190D01*
X58114429Y-87102190D01*
X58162048Y-87126000D01*
X58185857Y-87149810D01*
X58209667Y-87197429D01*
X58209667Y-87268857D01*
X58185857Y-87316476D01*
X58162048Y-87340286D01*
X58114429Y-87364095D01*
X57923953Y-87364095D01*
X58638238Y-87102190D02*
X58543000Y-87102190D01*
X58495381Y-87126000D01*
X58471572Y-87149810D01*
X58423953Y-87221238D01*
X58400143Y-87316476D01*
X58400143Y-87506952D01*
X58423953Y-87554571D01*
X58447762Y-87578381D01*
X58495381Y-87602190D01*
X58590619Y-87602190D01*
X58638238Y-87578381D01*
X58662048Y-87554571D01*
X58685857Y-87506952D01*
X58685857Y-87387905D01*
X58662048Y-87340286D01*
X58638238Y-87316476D01*
X58590619Y-87292667D01*
X58495381Y-87292667D01*
X58447762Y-87316476D01*
X58423953Y-87340286D01*
X58400143Y-87387905D01*
X55593467Y-85214590D02*
X55426800Y-84976495D01*
X55307753Y-85214590D02*
X55307753Y-84714590D01*
X55498229Y-84714590D01*
X55545848Y-84738400D01*
X55569657Y-84762210D01*
X55593467Y-84809829D01*
X55593467Y-84881257D01*
X55569657Y-84928876D01*
X55545848Y-84952686D01*
X55498229Y-84976495D01*
X55307753Y-84976495D01*
X55760134Y-84714590D02*
X56093467Y-84714590D01*
X55879181Y-85214590D01*
X55288667Y-83690590D02*
X55122000Y-83452495D01*
X55002953Y-83690590D02*
X55002953Y-83190590D01*
X55193429Y-83190590D01*
X55241048Y-83214400D01*
X55264857Y-83238210D01*
X55288667Y-83285829D01*
X55288667Y-83357257D01*
X55264857Y-83404876D01*
X55241048Y-83428686D01*
X55193429Y-83452495D01*
X55002953Y-83452495D01*
X55574381Y-83404876D02*
X55526762Y-83381067D01*
X55502953Y-83357257D01*
X55479143Y-83309638D01*
X55479143Y-83285829D01*
X55502953Y-83238210D01*
X55526762Y-83214400D01*
X55574381Y-83190590D01*
X55669619Y-83190590D01*
X55717238Y-83214400D01*
X55741048Y-83238210D01*
X55764857Y-83285829D01*
X55764857Y-83309638D01*
X55741048Y-83357257D01*
X55717238Y-83381067D01*
X55669619Y-83404876D01*
X55574381Y-83404876D01*
X55526762Y-83428686D01*
X55502953Y-83452495D01*
X55479143Y-83500114D01*
X55479143Y-83595352D01*
X55502953Y-83642971D01*
X55526762Y-83666781D01*
X55574381Y-83690590D01*
X55669619Y-83690590D01*
X55717238Y-83666781D01*
X55741048Y-83642971D01*
X55764857Y-83595352D01*
X55764857Y-83500114D01*
X55741048Y-83452495D01*
X55717238Y-83428686D01*
X55669619Y-83404876D01*
X57219067Y-81404590D02*
X57052400Y-81166495D01*
X56933353Y-81404590D02*
X56933353Y-80904590D01*
X57123829Y-80904590D01*
X57171448Y-80928400D01*
X57195257Y-80952210D01*
X57219067Y-80999829D01*
X57219067Y-81071257D01*
X57195257Y-81118876D01*
X57171448Y-81142686D01*
X57123829Y-81166495D01*
X56933353Y-81166495D01*
X57457162Y-81404590D02*
X57552400Y-81404590D01*
X57600019Y-81380781D01*
X57623829Y-81356971D01*
X57671448Y-81285543D01*
X57695257Y-81190305D01*
X57695257Y-80999829D01*
X57671448Y-80952210D01*
X57647638Y-80928400D01*
X57600019Y-80904590D01*
X57504781Y-80904590D01*
X57457162Y-80928400D01*
X57433353Y-80952210D01*
X57409543Y-80999829D01*
X57409543Y-81118876D01*
X57433353Y-81166495D01*
X57457162Y-81190305D01*
X57504781Y-81214114D01*
X57600019Y-81214114D01*
X57647638Y-81190305D01*
X57671448Y-81166495D01*
X57695257Y-81118876D01*
X53290190Y-89475428D02*
X53052095Y-89642095D01*
X53290190Y-89761142D02*
X52790190Y-89761142D01*
X52790190Y-89570666D01*
X52814000Y-89523047D01*
X52837810Y-89499238D01*
X52885429Y-89475428D01*
X52956857Y-89475428D01*
X53004476Y-89499238D01*
X53028286Y-89523047D01*
X53052095Y-89570666D01*
X53052095Y-89761142D01*
X53290190Y-88999238D02*
X53290190Y-89284952D01*
X53290190Y-89142095D02*
X52790190Y-89142095D01*
X52861619Y-89189714D01*
X52909238Y-89237333D01*
X52933048Y-89284952D01*
X52790190Y-88689714D02*
X52790190Y-88642095D01*
X52814000Y-88594476D01*
X52837810Y-88570667D01*
X52885429Y-88546857D01*
X52980667Y-88523048D01*
X53099714Y-88523048D01*
X53194952Y-88546857D01*
X53242571Y-88570667D01*
X53266381Y-88594476D01*
X53290190Y-88642095D01*
X53290190Y-88689714D01*
X53266381Y-88737333D01*
X53242571Y-88761143D01*
X53194952Y-88784952D01*
X53099714Y-88808762D01*
X52980667Y-88808762D01*
X52885429Y-88784952D01*
X52837810Y-88761143D01*
X52814000Y-88737333D01*
X52790190Y-88689714D01*
X53399572Y-92707590D02*
X53232905Y-92469495D01*
X53113858Y-92707590D02*
X53113858Y-92207590D01*
X53304334Y-92207590D01*
X53351953Y-92231400D01*
X53375762Y-92255210D01*
X53399572Y-92302829D01*
X53399572Y-92374257D01*
X53375762Y-92421876D01*
X53351953Y-92445686D01*
X53304334Y-92469495D01*
X53113858Y-92469495D01*
X53875762Y-92707590D02*
X53590048Y-92707590D01*
X53732905Y-92707590D02*
X53732905Y-92207590D01*
X53685286Y-92279019D01*
X53637667Y-92326638D01*
X53590048Y-92350448D01*
X54351952Y-92707590D02*
X54066238Y-92707590D01*
X54209095Y-92707590D02*
X54209095Y-92207590D01*
X54161476Y-92279019D01*
X54113857Y-92326638D01*
X54066238Y-92350448D01*
X51596172Y-89075390D02*
X51429505Y-88837295D01*
X51310458Y-89075390D02*
X51310458Y-88575390D01*
X51500934Y-88575390D01*
X51548553Y-88599200D01*
X51572362Y-88623010D01*
X51596172Y-88670629D01*
X51596172Y-88742057D01*
X51572362Y-88789676D01*
X51548553Y-88813486D01*
X51500934Y-88837295D01*
X51310458Y-88837295D01*
X52072362Y-89075390D02*
X51786648Y-89075390D01*
X51929505Y-89075390D02*
X51929505Y-88575390D01*
X51881886Y-88646819D01*
X51834267Y-88694438D01*
X51786648Y-88718248D01*
X52262838Y-88623010D02*
X52286648Y-88599200D01*
X52334267Y-88575390D01*
X52453314Y-88575390D01*
X52500933Y-88599200D01*
X52524743Y-88623010D01*
X52548552Y-88670629D01*
X52548552Y-88718248D01*
X52524743Y-88789676D01*
X52239029Y-89075390D01*
X52548552Y-89075390D01*
X49970572Y-92072590D02*
X49803905Y-91834495D01*
X49684858Y-92072590D02*
X49684858Y-91572590D01*
X49875334Y-91572590D01*
X49922953Y-91596400D01*
X49946762Y-91620210D01*
X49970572Y-91667829D01*
X49970572Y-91739257D01*
X49946762Y-91786876D01*
X49922953Y-91810686D01*
X49875334Y-91834495D01*
X49684858Y-91834495D01*
X50446762Y-92072590D02*
X50161048Y-92072590D01*
X50303905Y-92072590D02*
X50303905Y-91572590D01*
X50256286Y-91644019D01*
X50208667Y-91691638D01*
X50161048Y-91715448D01*
X50613429Y-91572590D02*
X50922952Y-91572590D01*
X50756286Y-91763067D01*
X50827714Y-91763067D01*
X50875333Y-91786876D01*
X50899143Y-91810686D01*
X50922952Y-91858305D01*
X50922952Y-91977352D01*
X50899143Y-92024971D01*
X50875333Y-92048781D01*
X50827714Y-92072590D01*
X50684857Y-92072590D01*
X50637238Y-92048781D01*
X50613429Y-92024971D01*
X43163372Y-93164790D02*
X42996705Y-92926695D01*
X42877658Y-93164790D02*
X42877658Y-92664790D01*
X43068134Y-92664790D01*
X43115753Y-92688600D01*
X43139562Y-92712410D01*
X43163372Y-92760029D01*
X43163372Y-92831457D01*
X43139562Y-92879076D01*
X43115753Y-92902886D01*
X43068134Y-92926695D01*
X42877658Y-92926695D01*
X43639562Y-93164790D02*
X43353848Y-93164790D01*
X43496705Y-93164790D02*
X43496705Y-92664790D01*
X43449086Y-92736219D01*
X43401467Y-92783838D01*
X43353848Y-92807648D01*
X44068133Y-92831457D02*
X44068133Y-93164790D01*
X43949086Y-92640981D02*
X43830038Y-92998124D01*
X44139562Y-92998124D01*
X41410772Y-89176990D02*
X41244105Y-88938895D01*
X41125058Y-89176990D02*
X41125058Y-88676990D01*
X41315534Y-88676990D01*
X41363153Y-88700800D01*
X41386962Y-88724610D01*
X41410772Y-88772229D01*
X41410772Y-88843657D01*
X41386962Y-88891276D01*
X41363153Y-88915086D01*
X41315534Y-88938895D01*
X41125058Y-88938895D01*
X41886962Y-89176990D02*
X41601248Y-89176990D01*
X41744105Y-89176990D02*
X41744105Y-88676990D01*
X41696486Y-88748419D01*
X41648867Y-88796038D01*
X41601248Y-88819848D01*
X42339343Y-88676990D02*
X42101248Y-88676990D01*
X42077438Y-88915086D01*
X42101248Y-88891276D01*
X42148867Y-88867467D01*
X42267914Y-88867467D01*
X42315533Y-88891276D01*
X42339343Y-88915086D01*
X42363152Y-88962705D01*
X42363152Y-89081752D01*
X42339343Y-89129371D01*
X42315533Y-89153181D01*
X42267914Y-89176990D01*
X42148867Y-89176990D01*
X42101248Y-89153181D01*
X42077438Y-89129371D01*
X40089972Y-92402790D02*
X39923305Y-92164695D01*
X39804258Y-92402790D02*
X39804258Y-91902790D01*
X39994734Y-91902790D01*
X40042353Y-91926600D01*
X40066162Y-91950410D01*
X40089972Y-91998029D01*
X40089972Y-92069457D01*
X40066162Y-92117076D01*
X40042353Y-92140886D01*
X39994734Y-92164695D01*
X39804258Y-92164695D01*
X40566162Y-92402790D02*
X40280448Y-92402790D01*
X40423305Y-92402790D02*
X40423305Y-91902790D01*
X40375686Y-91974219D01*
X40328067Y-92021838D01*
X40280448Y-92045648D01*
X40994733Y-91902790D02*
X40899495Y-91902790D01*
X40851876Y-91926600D01*
X40828067Y-91950410D01*
X40780448Y-92021838D01*
X40756638Y-92117076D01*
X40756638Y-92307552D01*
X40780448Y-92355171D01*
X40804257Y-92378981D01*
X40851876Y-92402790D01*
X40947114Y-92402790D01*
X40994733Y-92378981D01*
X41018543Y-92355171D01*
X41042352Y-92307552D01*
X41042352Y-92188505D01*
X41018543Y-92140886D01*
X40994733Y-92117076D01*
X40947114Y-92093267D01*
X40851876Y-92093267D01*
X40804257Y-92117076D01*
X40780448Y-92140886D01*
X40756638Y-92188505D01*
X40775772Y-106296590D02*
X40609105Y-106058495D01*
X40490058Y-106296590D02*
X40490058Y-105796590D01*
X40680534Y-105796590D01*
X40728153Y-105820400D01*
X40751962Y-105844210D01*
X40775772Y-105891829D01*
X40775772Y-105963257D01*
X40751962Y-106010876D01*
X40728153Y-106034686D01*
X40680534Y-106058495D01*
X40490058Y-106058495D01*
X41251962Y-106296590D02*
X40966248Y-106296590D01*
X41109105Y-106296590D02*
X41109105Y-105796590D01*
X41061486Y-105868019D01*
X41013867Y-105915638D01*
X40966248Y-105939448D01*
X41418629Y-105796590D02*
X41751962Y-105796590D01*
X41537676Y-106296590D01*
X40826572Y-104620190D02*
X40659905Y-104382095D01*
X40540858Y-104620190D02*
X40540858Y-104120190D01*
X40731334Y-104120190D01*
X40778953Y-104144000D01*
X40802762Y-104167810D01*
X40826572Y-104215429D01*
X40826572Y-104286857D01*
X40802762Y-104334476D01*
X40778953Y-104358286D01*
X40731334Y-104382095D01*
X40540858Y-104382095D01*
X41302762Y-104620190D02*
X41017048Y-104620190D01*
X41159905Y-104620190D02*
X41159905Y-104120190D01*
X41112286Y-104191619D01*
X41064667Y-104239238D01*
X41017048Y-104263048D01*
X41588476Y-104334476D02*
X41540857Y-104310667D01*
X41517048Y-104286857D01*
X41493238Y-104239238D01*
X41493238Y-104215429D01*
X41517048Y-104167810D01*
X41540857Y-104144000D01*
X41588476Y-104120190D01*
X41683714Y-104120190D01*
X41731333Y-104144000D01*
X41755143Y-104167810D01*
X41778952Y-104215429D01*
X41778952Y-104239238D01*
X41755143Y-104286857D01*
X41731333Y-104310667D01*
X41683714Y-104334476D01*
X41588476Y-104334476D01*
X41540857Y-104358286D01*
X41517048Y-104382095D01*
X41493238Y-104429714D01*
X41493238Y-104524952D01*
X41517048Y-104572571D01*
X41540857Y-104596381D01*
X41588476Y-104620190D01*
X41683714Y-104620190D01*
X41731333Y-104596381D01*
X41755143Y-104572571D01*
X41778952Y-104524952D01*
X41778952Y-104429714D01*
X41755143Y-104382095D01*
X41731333Y-104358286D01*
X41683714Y-104334476D01*
X40877372Y-103096190D02*
X40710705Y-102858095D01*
X40591658Y-103096190D02*
X40591658Y-102596190D01*
X40782134Y-102596190D01*
X40829753Y-102620000D01*
X40853562Y-102643810D01*
X40877372Y-102691429D01*
X40877372Y-102762857D01*
X40853562Y-102810476D01*
X40829753Y-102834286D01*
X40782134Y-102858095D01*
X40591658Y-102858095D01*
X41353562Y-103096190D02*
X41067848Y-103096190D01*
X41210705Y-103096190D02*
X41210705Y-102596190D01*
X41163086Y-102667619D01*
X41115467Y-102715238D01*
X41067848Y-102739048D01*
X41591657Y-103096190D02*
X41686895Y-103096190D01*
X41734514Y-103072381D01*
X41758324Y-103048571D01*
X41805943Y-102977143D01*
X41829752Y-102881905D01*
X41829752Y-102691429D01*
X41805943Y-102643810D01*
X41782133Y-102620000D01*
X41734514Y-102596190D01*
X41639276Y-102596190D01*
X41591657Y-102620000D01*
X41567848Y-102643810D01*
X41544038Y-102691429D01*
X41544038Y-102810476D01*
X41567848Y-102858095D01*
X41591657Y-102881905D01*
X41639276Y-102905714D01*
X41734514Y-102905714D01*
X41782133Y-102881905D01*
X41805943Y-102858095D01*
X41829752Y-102810476D01*
X51088172Y-102080190D02*
X50921505Y-101842095D01*
X50802458Y-102080190D02*
X50802458Y-101580190D01*
X50992934Y-101580190D01*
X51040553Y-101604000D01*
X51064362Y-101627810D01*
X51088172Y-101675429D01*
X51088172Y-101746857D01*
X51064362Y-101794476D01*
X51040553Y-101818286D01*
X50992934Y-101842095D01*
X50802458Y-101842095D01*
X51278648Y-101627810D02*
X51302458Y-101604000D01*
X51350077Y-101580190D01*
X51469124Y-101580190D01*
X51516743Y-101604000D01*
X51540553Y-101627810D01*
X51564362Y-101675429D01*
X51564362Y-101723048D01*
X51540553Y-101794476D01*
X51254839Y-102080190D01*
X51564362Y-102080190D01*
X51873886Y-101580190D02*
X51921505Y-101580190D01*
X51969124Y-101604000D01*
X51992933Y-101627810D01*
X52016743Y-101675429D01*
X52040552Y-101770667D01*
X52040552Y-101889714D01*
X52016743Y-101984952D01*
X51992933Y-102032571D01*
X51969124Y-102056381D01*
X51921505Y-102080190D01*
X51873886Y-102080190D01*
X51826267Y-102056381D01*
X51802457Y-102032571D01*
X51778648Y-101984952D01*
X51754838Y-101889714D01*
X51754838Y-101770667D01*
X51778648Y-101675429D01*
X51802457Y-101627810D01*
X51826267Y-101604000D01*
X51873886Y-101580190D01*
X51088172Y-103045390D02*
X50921505Y-102807295D01*
X50802458Y-103045390D02*
X50802458Y-102545390D01*
X50992934Y-102545390D01*
X51040553Y-102569200D01*
X51064362Y-102593010D01*
X51088172Y-102640629D01*
X51088172Y-102712057D01*
X51064362Y-102759676D01*
X51040553Y-102783486D01*
X50992934Y-102807295D01*
X50802458Y-102807295D01*
X51278648Y-102593010D02*
X51302458Y-102569200D01*
X51350077Y-102545390D01*
X51469124Y-102545390D01*
X51516743Y-102569200D01*
X51540553Y-102593010D01*
X51564362Y-102640629D01*
X51564362Y-102688248D01*
X51540553Y-102759676D01*
X51254839Y-103045390D01*
X51564362Y-103045390D01*
X52040552Y-103045390D02*
X51754838Y-103045390D01*
X51897695Y-103045390D02*
X51897695Y-102545390D01*
X51850076Y-102616819D01*
X51802457Y-102664438D01*
X51754838Y-102688248D01*
X47774990Y-107865028D02*
X47536895Y-108031695D01*
X47774990Y-108150742D02*
X47274990Y-108150742D01*
X47274990Y-107960266D01*
X47298800Y-107912647D01*
X47322610Y-107888838D01*
X47370229Y-107865028D01*
X47441657Y-107865028D01*
X47489276Y-107888838D01*
X47513086Y-107912647D01*
X47536895Y-107960266D01*
X47536895Y-108150742D01*
X47322610Y-107674552D02*
X47298800Y-107650742D01*
X47274990Y-107603123D01*
X47274990Y-107484076D01*
X47298800Y-107436457D01*
X47322610Y-107412647D01*
X47370229Y-107388838D01*
X47417848Y-107388838D01*
X47489276Y-107412647D01*
X47774990Y-107698361D01*
X47774990Y-107388838D01*
X47322610Y-107198362D02*
X47298800Y-107174552D01*
X47274990Y-107126933D01*
X47274990Y-107007886D01*
X47298800Y-106960267D01*
X47322610Y-106936457D01*
X47370229Y-106912648D01*
X47417848Y-106912648D01*
X47489276Y-106936457D01*
X47774990Y-107222171D01*
X47774990Y-106912648D01*
X42034590Y-107865028D02*
X41796495Y-108031695D01*
X42034590Y-108150742D02*
X41534590Y-108150742D01*
X41534590Y-107960266D01*
X41558400Y-107912647D01*
X41582210Y-107888838D01*
X41629829Y-107865028D01*
X41701257Y-107865028D01*
X41748876Y-107888838D01*
X41772686Y-107912647D01*
X41796495Y-107960266D01*
X41796495Y-108150742D01*
X41582210Y-107674552D02*
X41558400Y-107650742D01*
X41534590Y-107603123D01*
X41534590Y-107484076D01*
X41558400Y-107436457D01*
X41582210Y-107412647D01*
X41629829Y-107388838D01*
X41677448Y-107388838D01*
X41748876Y-107412647D01*
X42034590Y-107698361D01*
X42034590Y-107388838D01*
X41534590Y-107222171D02*
X41534590Y-106912648D01*
X41725067Y-107079314D01*
X41725067Y-107007886D01*
X41748876Y-106960267D01*
X41772686Y-106936457D01*
X41820305Y-106912648D01*
X41939352Y-106912648D01*
X41986971Y-106936457D01*
X42010781Y-106960267D01*
X42034590Y-107007886D01*
X42034590Y-107150743D01*
X42010781Y-107198362D01*
X41986971Y-107222171D01*
X46403390Y-107865028D02*
X46165295Y-108031695D01*
X46403390Y-108150742D02*
X45903390Y-108150742D01*
X45903390Y-107960266D01*
X45927200Y-107912647D01*
X45951010Y-107888838D01*
X45998629Y-107865028D01*
X46070057Y-107865028D01*
X46117676Y-107888838D01*
X46141486Y-107912647D01*
X46165295Y-107960266D01*
X46165295Y-108150742D01*
X45951010Y-107674552D02*
X45927200Y-107650742D01*
X45903390Y-107603123D01*
X45903390Y-107484076D01*
X45927200Y-107436457D01*
X45951010Y-107412647D01*
X45998629Y-107388838D01*
X46046248Y-107388838D01*
X46117676Y-107412647D01*
X46403390Y-107698361D01*
X46403390Y-107388838D01*
X46070057Y-106960267D02*
X46403390Y-106960267D01*
X45879581Y-107079314D02*
X46236724Y-107198362D01*
X46236724Y-106888838D01*
X44777790Y-107661828D02*
X44539695Y-107828495D01*
X44777790Y-107947542D02*
X44277790Y-107947542D01*
X44277790Y-107757066D01*
X44301600Y-107709447D01*
X44325410Y-107685638D01*
X44373029Y-107661828D01*
X44444457Y-107661828D01*
X44492076Y-107685638D01*
X44515886Y-107709447D01*
X44539695Y-107757066D01*
X44539695Y-107947542D01*
X44325410Y-107471352D02*
X44301600Y-107447542D01*
X44277790Y-107399923D01*
X44277790Y-107280876D01*
X44301600Y-107233257D01*
X44325410Y-107209447D01*
X44373029Y-107185638D01*
X44420648Y-107185638D01*
X44492076Y-107209447D01*
X44777790Y-107495161D01*
X44777790Y-107185638D01*
X44277790Y-106733257D02*
X44277790Y-106971352D01*
X44515886Y-106995162D01*
X44492076Y-106971352D01*
X44468267Y-106923733D01*
X44468267Y-106804686D01*
X44492076Y-106757067D01*
X44515886Y-106733257D01*
X44563505Y-106709448D01*
X44682552Y-106709448D01*
X44730171Y-106733257D01*
X44753981Y-106757067D01*
X44777790Y-106804686D01*
X44777790Y-106923733D01*
X44753981Y-106971352D01*
X44730171Y-106995162D01*
X88197572Y-116072190D02*
X88030905Y-115834095D01*
X87911858Y-116072190D02*
X87911858Y-115572190D01*
X88102334Y-115572190D01*
X88149953Y-115596000D01*
X88173762Y-115619810D01*
X88197572Y-115667429D01*
X88197572Y-115738857D01*
X88173762Y-115786476D01*
X88149953Y-115810286D01*
X88102334Y-115834095D01*
X87911858Y-115834095D01*
X88388048Y-115619810D02*
X88411858Y-115596000D01*
X88459477Y-115572190D01*
X88578524Y-115572190D01*
X88626143Y-115596000D01*
X88649953Y-115619810D01*
X88673762Y-115667429D01*
X88673762Y-115715048D01*
X88649953Y-115786476D01*
X88364239Y-116072190D01*
X88673762Y-116072190D01*
X89102333Y-115572190D02*
X89007095Y-115572190D01*
X88959476Y-115596000D01*
X88935667Y-115619810D01*
X88888048Y-115691238D01*
X88864238Y-115786476D01*
X88864238Y-115976952D01*
X88888048Y-116024571D01*
X88911857Y-116048381D01*
X88959476Y-116072190D01*
X89054714Y-116072190D01*
X89102333Y-116048381D01*
X89126143Y-116024571D01*
X89149952Y-115976952D01*
X89149952Y-115857905D01*
X89126143Y-115810286D01*
X89102333Y-115786476D01*
X89054714Y-115762667D01*
X88959476Y-115762667D01*
X88911857Y-115786476D01*
X88888048Y-115810286D01*
X88864238Y-115857905D01*
X74506972Y-91158190D02*
X74340305Y-90920095D01*
X74221258Y-91158190D02*
X74221258Y-90658190D01*
X74411734Y-90658190D01*
X74459353Y-90682000D01*
X74483162Y-90705810D01*
X74506972Y-90753429D01*
X74506972Y-90824857D01*
X74483162Y-90872476D01*
X74459353Y-90896286D01*
X74411734Y-90920095D01*
X74221258Y-90920095D01*
X74697448Y-90705810D02*
X74721258Y-90682000D01*
X74768877Y-90658190D01*
X74887924Y-90658190D01*
X74935543Y-90682000D01*
X74959353Y-90705810D01*
X74983162Y-90753429D01*
X74983162Y-90801048D01*
X74959353Y-90872476D01*
X74673639Y-91158190D01*
X74983162Y-91158190D01*
X75149829Y-90658190D02*
X75483162Y-90658190D01*
X75268876Y-91158190D01*
X77910572Y-79728190D02*
X77743905Y-79490095D01*
X77624858Y-79728190D02*
X77624858Y-79228190D01*
X77815334Y-79228190D01*
X77862953Y-79252000D01*
X77886762Y-79275810D01*
X77910572Y-79323429D01*
X77910572Y-79394857D01*
X77886762Y-79442476D01*
X77862953Y-79466286D01*
X77815334Y-79490095D01*
X77624858Y-79490095D01*
X78101048Y-79275810D02*
X78124858Y-79252000D01*
X78172477Y-79228190D01*
X78291524Y-79228190D01*
X78339143Y-79252000D01*
X78362953Y-79275810D01*
X78386762Y-79323429D01*
X78386762Y-79371048D01*
X78362953Y-79442476D01*
X78077239Y-79728190D01*
X78386762Y-79728190D01*
X78672476Y-79442476D02*
X78624857Y-79418667D01*
X78601048Y-79394857D01*
X78577238Y-79347238D01*
X78577238Y-79323429D01*
X78601048Y-79275810D01*
X78624857Y-79252000D01*
X78672476Y-79228190D01*
X78767714Y-79228190D01*
X78815333Y-79252000D01*
X78839143Y-79275810D01*
X78862952Y-79323429D01*
X78862952Y-79347238D01*
X78839143Y-79394857D01*
X78815333Y-79418667D01*
X78767714Y-79442476D01*
X78672476Y-79442476D01*
X78624857Y-79466286D01*
X78601048Y-79490095D01*
X78577238Y-79537714D01*
X78577238Y-79632952D01*
X78601048Y-79680571D01*
X78624857Y-79704381D01*
X78672476Y-79728190D01*
X78767714Y-79728190D01*
X78815333Y-79704381D01*
X78839143Y-79680571D01*
X78862952Y-79632952D01*
X78862952Y-79537714D01*
X78839143Y-79490095D01*
X78815333Y-79466286D01*
X78767714Y-79442476D01*
X73912072Y-81126690D02*
X73745405Y-80888595D01*
X73626358Y-81126690D02*
X73626358Y-80626690D01*
X73816834Y-80626690D01*
X73864453Y-80650500D01*
X73888262Y-80674310D01*
X73912072Y-80721929D01*
X73912072Y-80793357D01*
X73888262Y-80840976D01*
X73864453Y-80864786D01*
X73816834Y-80888595D01*
X73626358Y-80888595D01*
X74102548Y-80674310D02*
X74126358Y-80650500D01*
X74173977Y-80626690D01*
X74293024Y-80626690D01*
X74340643Y-80650500D01*
X74364453Y-80674310D01*
X74388262Y-80721929D01*
X74388262Y-80769548D01*
X74364453Y-80840976D01*
X74078739Y-81126690D01*
X74388262Y-81126690D01*
X74626357Y-81126690D02*
X74721595Y-81126690D01*
X74769214Y-81102881D01*
X74793024Y-81079071D01*
X74840643Y-81007643D01*
X74864452Y-80912405D01*
X74864452Y-80721929D01*
X74840643Y-80674310D01*
X74816833Y-80650500D01*
X74769214Y-80626690D01*
X74673976Y-80626690D01*
X74626357Y-80650500D01*
X74602548Y-80674310D01*
X74578738Y-80721929D01*
X74578738Y-80840976D01*
X74602548Y-80888595D01*
X74626357Y-80912405D01*
X74673976Y-80936214D01*
X74769214Y-80936214D01*
X74816833Y-80912405D01*
X74840643Y-80888595D01*
X74864452Y-80840976D01*
X74456172Y-82522190D02*
X74289505Y-82284095D01*
X74170458Y-82522190D02*
X74170458Y-82022190D01*
X74360934Y-82022190D01*
X74408553Y-82046000D01*
X74432362Y-82069810D01*
X74456172Y-82117429D01*
X74456172Y-82188857D01*
X74432362Y-82236476D01*
X74408553Y-82260286D01*
X74360934Y-82284095D01*
X74170458Y-82284095D01*
X74622839Y-82022190D02*
X74932362Y-82022190D01*
X74765696Y-82212667D01*
X74837124Y-82212667D01*
X74884743Y-82236476D01*
X74908553Y-82260286D01*
X74932362Y-82307905D01*
X74932362Y-82426952D01*
X74908553Y-82474571D01*
X74884743Y-82498381D01*
X74837124Y-82522190D01*
X74694267Y-82522190D01*
X74646648Y-82498381D01*
X74622839Y-82474571D01*
X75241886Y-82022190D02*
X75289505Y-82022190D01*
X75337124Y-82046000D01*
X75360933Y-82069810D01*
X75384743Y-82117429D01*
X75408552Y-82212667D01*
X75408552Y-82331714D01*
X75384743Y-82426952D01*
X75360933Y-82474571D01*
X75337124Y-82498381D01*
X75289505Y-82522190D01*
X75241886Y-82522190D01*
X75194267Y-82498381D01*
X75170457Y-82474571D01*
X75146648Y-82426952D01*
X75122838Y-82331714D01*
X75122838Y-82212667D01*
X75146648Y-82117429D01*
X75170457Y-82069810D01*
X75194267Y-82046000D01*
X75241886Y-82022190D01*
X74557772Y-84046190D02*
X74391105Y-83808095D01*
X74272058Y-84046190D02*
X74272058Y-83546190D01*
X74462534Y-83546190D01*
X74510153Y-83570000D01*
X74533962Y-83593810D01*
X74557772Y-83641429D01*
X74557772Y-83712857D01*
X74533962Y-83760476D01*
X74510153Y-83784286D01*
X74462534Y-83808095D01*
X74272058Y-83808095D01*
X74724439Y-83546190D02*
X75033962Y-83546190D01*
X74867296Y-83736667D01*
X74938724Y-83736667D01*
X74986343Y-83760476D01*
X75010153Y-83784286D01*
X75033962Y-83831905D01*
X75033962Y-83950952D01*
X75010153Y-83998571D01*
X74986343Y-84022381D01*
X74938724Y-84046190D01*
X74795867Y-84046190D01*
X74748248Y-84022381D01*
X74724439Y-83998571D01*
X75510152Y-84046190D02*
X75224438Y-84046190D01*
X75367295Y-84046190D02*
X75367295Y-83546190D01*
X75319676Y-83617619D01*
X75272057Y-83665238D01*
X75224438Y-83689048D01*
X74481572Y-86967190D02*
X74314905Y-86729095D01*
X74195858Y-86967190D02*
X74195858Y-86467190D01*
X74386334Y-86467190D01*
X74433953Y-86491000D01*
X74457762Y-86514810D01*
X74481572Y-86562429D01*
X74481572Y-86633857D01*
X74457762Y-86681476D01*
X74433953Y-86705286D01*
X74386334Y-86729095D01*
X74195858Y-86729095D01*
X74648239Y-86467190D02*
X74957762Y-86467190D01*
X74791096Y-86657667D01*
X74862524Y-86657667D01*
X74910143Y-86681476D01*
X74933953Y-86705286D01*
X74957762Y-86752905D01*
X74957762Y-86871952D01*
X74933953Y-86919571D01*
X74910143Y-86943381D01*
X74862524Y-86967190D01*
X74719667Y-86967190D01*
X74672048Y-86943381D01*
X74648239Y-86919571D01*
X75148238Y-86514810D02*
X75172048Y-86491000D01*
X75219667Y-86467190D01*
X75338714Y-86467190D01*
X75386333Y-86491000D01*
X75410143Y-86514810D01*
X75433952Y-86562429D01*
X75433952Y-86610048D01*
X75410143Y-86681476D01*
X75124429Y-86967190D01*
X75433952Y-86967190D01*
X74557772Y-88364190D02*
X74391105Y-88126095D01*
X74272058Y-88364190D02*
X74272058Y-87864190D01*
X74462534Y-87864190D01*
X74510153Y-87888000D01*
X74533962Y-87911810D01*
X74557772Y-87959429D01*
X74557772Y-88030857D01*
X74533962Y-88078476D01*
X74510153Y-88102286D01*
X74462534Y-88126095D01*
X74272058Y-88126095D01*
X74724439Y-87864190D02*
X75033962Y-87864190D01*
X74867296Y-88054667D01*
X74938724Y-88054667D01*
X74986343Y-88078476D01*
X75010153Y-88102286D01*
X75033962Y-88149905D01*
X75033962Y-88268952D01*
X75010153Y-88316571D01*
X74986343Y-88340381D01*
X74938724Y-88364190D01*
X74795867Y-88364190D01*
X74748248Y-88340381D01*
X74724439Y-88316571D01*
X75200629Y-87864190D02*
X75510152Y-87864190D01*
X75343486Y-88054667D01*
X75414914Y-88054667D01*
X75462533Y-88078476D01*
X75486343Y-88102286D01*
X75510152Y-88149905D01*
X75510152Y-88268952D01*
X75486343Y-88316571D01*
X75462533Y-88340381D01*
X75414914Y-88364190D01*
X75272057Y-88364190D01*
X75224438Y-88340381D01*
X75200629Y-88316571D01*
X74532372Y-89761190D02*
X74365705Y-89523095D01*
X74246658Y-89761190D02*
X74246658Y-89261190D01*
X74437134Y-89261190D01*
X74484753Y-89285000D01*
X74508562Y-89308810D01*
X74532372Y-89356429D01*
X74532372Y-89427857D01*
X74508562Y-89475476D01*
X74484753Y-89499286D01*
X74437134Y-89523095D01*
X74246658Y-89523095D01*
X74699039Y-89261190D02*
X75008562Y-89261190D01*
X74841896Y-89451667D01*
X74913324Y-89451667D01*
X74960943Y-89475476D01*
X74984753Y-89499286D01*
X75008562Y-89546905D01*
X75008562Y-89665952D01*
X74984753Y-89713571D01*
X74960943Y-89737381D01*
X74913324Y-89761190D01*
X74770467Y-89761190D01*
X74722848Y-89737381D01*
X74699039Y-89713571D01*
X75437133Y-89427857D02*
X75437133Y-89761190D01*
X75318086Y-89237381D02*
X75199038Y-89594524D01*
X75508562Y-89594524D01*
X32596972Y-83080990D02*
X32430305Y-82842895D01*
X32311258Y-83080990D02*
X32311258Y-82580990D01*
X32501734Y-82580990D01*
X32549353Y-82604800D01*
X32573162Y-82628610D01*
X32596972Y-82676229D01*
X32596972Y-82747657D01*
X32573162Y-82795276D01*
X32549353Y-82819086D01*
X32501734Y-82842895D01*
X32311258Y-82842895D01*
X32763639Y-82580990D02*
X33073162Y-82580990D01*
X32906496Y-82771467D01*
X32977924Y-82771467D01*
X33025543Y-82795276D01*
X33049353Y-82819086D01*
X33073162Y-82866705D01*
X33073162Y-82985752D01*
X33049353Y-83033371D01*
X33025543Y-83057181D01*
X32977924Y-83080990D01*
X32835067Y-83080990D01*
X32787448Y-83057181D01*
X32763639Y-83033371D01*
X33525543Y-82580990D02*
X33287448Y-82580990D01*
X33263638Y-82819086D01*
X33287448Y-82795276D01*
X33335067Y-82771467D01*
X33454114Y-82771467D01*
X33501733Y-82795276D01*
X33525543Y-82819086D01*
X33549352Y-82866705D01*
X33549352Y-82985752D01*
X33525543Y-83033371D01*
X33501733Y-83057181D01*
X33454114Y-83080990D01*
X33335067Y-83080990D01*
X33287448Y-83057181D01*
X33263638Y-83033371D01*
X32596972Y-80337790D02*
X32430305Y-80099695D01*
X32311258Y-80337790D02*
X32311258Y-79837790D01*
X32501734Y-79837790D01*
X32549353Y-79861600D01*
X32573162Y-79885410D01*
X32596972Y-79933029D01*
X32596972Y-80004457D01*
X32573162Y-80052076D01*
X32549353Y-80075886D01*
X32501734Y-80099695D01*
X32311258Y-80099695D01*
X32763639Y-79837790D02*
X33073162Y-79837790D01*
X32906496Y-80028267D01*
X32977924Y-80028267D01*
X33025543Y-80052076D01*
X33049353Y-80075886D01*
X33073162Y-80123505D01*
X33073162Y-80242552D01*
X33049353Y-80290171D01*
X33025543Y-80313981D01*
X32977924Y-80337790D01*
X32835067Y-80337790D01*
X32787448Y-80313981D01*
X32763639Y-80290171D01*
X33501733Y-79837790D02*
X33406495Y-79837790D01*
X33358876Y-79861600D01*
X33335067Y-79885410D01*
X33287448Y-79956838D01*
X33263638Y-80052076D01*
X33263638Y-80242552D01*
X33287448Y-80290171D01*
X33311257Y-80313981D01*
X33358876Y-80337790D01*
X33454114Y-80337790D01*
X33501733Y-80313981D01*
X33525543Y-80290171D01*
X33549352Y-80242552D01*
X33549352Y-80123505D01*
X33525543Y-80075886D01*
X33501733Y-80052076D01*
X33454114Y-80028267D01*
X33358876Y-80028267D01*
X33311257Y-80052076D01*
X33287448Y-80075886D01*
X33263638Y-80123505D01*
X32596972Y-85620990D02*
X32430305Y-85382895D01*
X32311258Y-85620990D02*
X32311258Y-85120990D01*
X32501734Y-85120990D01*
X32549353Y-85144800D01*
X32573162Y-85168610D01*
X32596972Y-85216229D01*
X32596972Y-85287657D01*
X32573162Y-85335276D01*
X32549353Y-85359086D01*
X32501734Y-85382895D01*
X32311258Y-85382895D01*
X32763639Y-85120990D02*
X33073162Y-85120990D01*
X32906496Y-85311467D01*
X32977924Y-85311467D01*
X33025543Y-85335276D01*
X33049353Y-85359086D01*
X33073162Y-85406705D01*
X33073162Y-85525752D01*
X33049353Y-85573371D01*
X33025543Y-85597181D01*
X32977924Y-85620990D01*
X32835067Y-85620990D01*
X32787448Y-85597181D01*
X32763639Y-85573371D01*
X33239829Y-85120990D02*
X33573162Y-85120990D01*
X33358876Y-85620990D01*
X29348953Y-85546190D02*
X29348953Y-85046190D01*
X29468000Y-85046190D01*
X29539429Y-85070000D01*
X29587048Y-85117619D01*
X29610857Y-85165238D01*
X29634667Y-85260476D01*
X29634667Y-85331905D01*
X29610857Y-85427143D01*
X29587048Y-85474762D01*
X29539429Y-85522381D01*
X29468000Y-85546190D01*
X29348953Y-85546190D01*
X29801334Y-85046190D02*
X30110857Y-85046190D01*
X29944191Y-85236667D01*
X30015619Y-85236667D01*
X30063238Y-85260476D01*
X30087048Y-85284286D01*
X30110857Y-85331905D01*
X30110857Y-85450952D01*
X30087048Y-85498571D01*
X30063238Y-85522381D01*
X30015619Y-85546190D01*
X29872762Y-85546190D01*
X29825143Y-85522381D01*
X29801334Y-85498571D01*
X29348953Y-83006190D02*
X29348953Y-82506190D01*
X29468000Y-82506190D01*
X29539429Y-82530000D01*
X29587048Y-82577619D01*
X29610857Y-82625238D01*
X29634667Y-82720476D01*
X29634667Y-82791905D01*
X29610857Y-82887143D01*
X29587048Y-82934762D01*
X29539429Y-82982381D01*
X29468000Y-83006190D01*
X29348953Y-83006190D01*
X30063238Y-82672857D02*
X30063238Y-83006190D01*
X29944191Y-82482381D02*
X29825143Y-82839524D01*
X30134667Y-82839524D01*
X29348953Y-88086190D02*
X29348953Y-87586190D01*
X29468000Y-87586190D01*
X29539429Y-87610000D01*
X29587048Y-87657619D01*
X29610857Y-87705238D01*
X29634667Y-87800476D01*
X29634667Y-87871905D01*
X29610857Y-87967143D01*
X29587048Y-88014762D01*
X29539429Y-88062381D01*
X29468000Y-88086190D01*
X29348953Y-88086190D01*
X30087048Y-87586190D02*
X29848953Y-87586190D01*
X29825143Y-87824286D01*
X29848953Y-87800476D01*
X29896572Y-87776667D01*
X30015619Y-87776667D01*
X30063238Y-87800476D01*
X30087048Y-87824286D01*
X30110857Y-87871905D01*
X30110857Y-87990952D01*
X30087048Y-88038571D01*
X30063238Y-88062381D01*
X30015619Y-88086190D01*
X29896572Y-88086190D01*
X29848953Y-88062381D01*
X29825143Y-88038571D01*
X77935972Y-85522571D02*
X77912162Y-85546381D01*
X77840734Y-85570190D01*
X77793115Y-85570190D01*
X77721686Y-85546381D01*
X77674067Y-85498762D01*
X77650258Y-85451143D01*
X77626448Y-85355905D01*
X77626448Y-85284476D01*
X77650258Y-85189238D01*
X77674067Y-85141619D01*
X77721686Y-85094000D01*
X77793115Y-85070190D01*
X77840734Y-85070190D01*
X77912162Y-85094000D01*
X77935972Y-85117810D01*
X78364543Y-85070190D02*
X78269305Y-85070190D01*
X78221686Y-85094000D01*
X78197877Y-85117810D01*
X78150258Y-85189238D01*
X78126448Y-85284476D01*
X78126448Y-85474952D01*
X78150258Y-85522571D01*
X78174067Y-85546381D01*
X78221686Y-85570190D01*
X78316924Y-85570190D01*
X78364543Y-85546381D01*
X78388353Y-85522571D01*
X78412162Y-85474952D01*
X78412162Y-85355905D01*
X78388353Y-85308286D01*
X78364543Y-85284476D01*
X78316924Y-85260667D01*
X78221686Y-85260667D01*
X78174067Y-85284476D01*
X78150258Y-85308286D01*
X78126448Y-85355905D01*
X78578829Y-85070190D02*
X78912162Y-85070190D01*
X78697876Y-85570190D01*
D15*
D16*
X33104972Y-108480990D02*
X32938305Y-108242895D01*
X32819258Y-108480990D02*
X32819258Y-107980990D01*
X33009734Y-107980990D01*
X33057353Y-108004800D01*
X33081162Y-108028610D01*
X33104972Y-108076229D01*
X33104972Y-108147657D01*
X33081162Y-108195276D01*
X33057353Y-108219086D01*
X33009734Y-108242895D01*
X32819258Y-108242895D01*
X33271639Y-107980990D02*
X33581162Y-107980990D01*
X33414496Y-108171467D01*
X33485924Y-108171467D01*
X33533543Y-108195276D01*
X33557353Y-108219086D01*
X33581162Y-108266705D01*
X33581162Y-108385752D01*
X33557353Y-108433371D01*
X33533543Y-108457181D01*
X33485924Y-108480990D01*
X33343067Y-108480990D01*
X33295448Y-108457181D01*
X33271639Y-108433371D01*
X33866876Y-108195276D02*
X33819257Y-108171467D01*
X33795448Y-108147657D01*
X33771638Y-108100038D01*
X33771638Y-108076229D01*
X33795448Y-108028610D01*
X33819257Y-108004800D01*
X33866876Y-107980990D01*
X33962114Y-107980990D01*
X34009733Y-108004800D01*
X34033543Y-108028610D01*
X34057352Y-108076229D01*
X34057352Y-108100038D01*
X34033543Y-108147657D01*
X34009733Y-108171467D01*
X33962114Y-108195276D01*
X33866876Y-108195276D01*
X33819257Y-108219086D01*
X33795448Y-108242895D01*
X33771638Y-108290514D01*
X33771638Y-108385752D01*
X33795448Y-108433371D01*
X33819257Y-108457181D01*
X33866876Y-108480990D01*
X33962114Y-108480990D01*
X34009733Y-108457181D01*
X34033543Y-108433371D01*
X34057352Y-108385752D01*
X34057352Y-108290514D01*
X34033543Y-108242895D01*
X34009733Y-108219086D01*
X33962114Y-108195276D01*
X55152172Y-86868771D02*
X55128362Y-86892581D01*
X55056934Y-86916390D01*
X55009315Y-86916390D01*
X54937886Y-86892581D01*
X54890267Y-86844962D01*
X54866458Y-86797343D01*
X54842648Y-86702105D01*
X54842648Y-86630676D01*
X54866458Y-86535438D01*
X54890267Y-86487819D01*
X54937886Y-86440200D01*
X55009315Y-86416390D01*
X55056934Y-86416390D01*
X55128362Y-86440200D01*
X55152172Y-86464010D01*
X55580743Y-86416390D02*
X55485505Y-86416390D01*
X55437886Y-86440200D01*
X55414077Y-86464010D01*
X55366458Y-86535438D01*
X55342648Y-86630676D01*
X55342648Y-86821152D01*
X55366458Y-86868771D01*
X55390267Y-86892581D01*
X55437886Y-86916390D01*
X55533124Y-86916390D01*
X55580743Y-86892581D01*
X55604553Y-86868771D01*
X55628362Y-86821152D01*
X55628362Y-86702105D01*
X55604553Y-86654486D01*
X55580743Y-86630676D01*
X55533124Y-86606867D01*
X55437886Y-86606867D01*
X55390267Y-86630676D01*
X55366458Y-86654486D01*
X55342648Y-86702105D01*
X55866457Y-86916390D02*
X55961695Y-86916390D01*
X56009314Y-86892581D01*
X56033124Y-86868771D01*
X56080743Y-86797343D01*
X56104552Y-86702105D01*
X56104552Y-86511629D01*
X56080743Y-86464010D01*
X56056933Y-86440200D01*
X56009314Y-86416390D01*
X55914076Y-86416390D01*
X55866457Y-86440200D01*
X55842648Y-86464010D01*
X55818838Y-86511629D01*
X55818838Y-86630676D01*
X55842648Y-86678295D01*
X55866457Y-86702105D01*
X55914076Y-86725914D01*
X56009314Y-86725914D01*
X56056933Y-86702105D01*
X56080743Y-86678295D01*
X56104552Y-86630676D01*
D15*
D16*
X37442171Y-73219428D02*
X37465981Y-73243238D01*
X37489790Y-73314666D01*
X37489790Y-73362285D01*
X37465981Y-73433714D01*
X37418362Y-73481333D01*
X37370743Y-73505142D01*
X37275505Y-73528952D01*
X37204076Y-73528952D01*
X37108838Y-73505142D01*
X37061219Y-73481333D01*
X37013600Y-73433714D01*
X36989790Y-73362285D01*
X36989790Y-73314666D01*
X37013600Y-73243238D01*
X37037410Y-73219428D01*
X36989790Y-73052761D02*
X36989790Y-72719428D01*
X37489790Y-72933714D01*
X37037410Y-72552762D02*
X37013600Y-72528952D01*
X36989790Y-72481333D01*
X36989790Y-72362286D01*
X37013600Y-72314667D01*
X37037410Y-72290857D01*
X37085029Y-72267048D01*
X37132648Y-72267048D01*
X37204076Y-72290857D01*
X37489790Y-72576571D01*
X37489790Y-72267048D01*
D13*
X56188143Y-126841144D02*
X56140524Y-126888763D01*
X55997667Y-126936382D01*
X55902429Y-126936382D01*
X55759571Y-126888763D01*
X55664333Y-126793525D01*
X55616714Y-126698287D01*
X55569095Y-126507811D01*
X55569095Y-126364953D01*
X55616714Y-126174477D01*
X55664333Y-126079239D01*
X55759571Y-125984001D01*
X55902429Y-125936382D01*
X55997667Y-125936382D01*
X56140524Y-125984001D01*
X56188143Y-126031620D01*
X56521476Y-125936382D02*
X57188143Y-125936382D01*
X56759571Y-126936382D01*
X57759571Y-125936382D02*
X57854810Y-125936382D01*
X57950048Y-125984001D01*
X57997667Y-126031620D01*
X58045286Y-126126858D01*
X58092905Y-126317334D01*
X58092905Y-126555430D01*
X58045286Y-126745906D01*
X57997667Y-126841144D01*
X57950048Y-126888763D01*
X57854810Y-126936382D01*
X57759571Y-126936382D01*
X57664333Y-126888763D01*
X57616714Y-126841144D01*
X57569095Y-126745906D01*
X57521476Y-126555430D01*
X57521476Y-126317334D01*
X57569095Y-126126858D01*
X57616714Y-126031620D01*
X57664333Y-125984001D01*
X57759571Y-125936382D01*
X56188143Y-126841144D02*
X56140524Y-126888763D01*
X55997667Y-126936382D01*
X55902429Y-126936382D01*
X55759571Y-126888763D01*
X55664333Y-126793525D01*
X55616714Y-126698287D01*
X55569095Y-126507811D01*
X55569095Y-126364953D01*
X55616714Y-126174477D01*
X55664333Y-126079239D01*
X55759571Y-125984001D01*
X55902429Y-125936382D01*
X55997667Y-125936382D01*
X56140524Y-125984001D01*
X56188143Y-126031620D01*
X56521476Y-125936382D02*
X57188143Y-125936382D01*
X56759571Y-126936382D01*
X58092905Y-126936382D02*
X57521476Y-126936382D01*
X57807190Y-126936382D02*
X57807190Y-125936382D01*
X57711952Y-126079239D01*
X57616714Y-126174477D01*
X57521476Y-126222096D01*
X54307191Y-124636001D02*
X54211953Y-124588382D01*
X54069096Y-124588382D01*
X53926238Y-124636001D01*
X53831000Y-124731239D01*
X53783381Y-124826477D01*
X53735762Y-125016953D01*
X53735762Y-125159811D01*
X53783381Y-125350287D01*
X53831000Y-125445525D01*
X53926238Y-125540763D01*
X54069096Y-125588382D01*
X54164334Y-125588382D01*
X54307191Y-125540763D01*
X54354810Y-125493144D01*
X54354810Y-125159811D01*
X54164334Y-125159811D01*
X54783381Y-124921715D02*
X54783381Y-125588382D01*
X54783381Y-125016953D02*
X54831000Y-124969334D01*
X54926238Y-124921715D01*
X55069096Y-124921715D01*
X55164334Y-124969334D01*
X55211953Y-125064572D01*
X55211953Y-125588382D01*
X56116715Y-125588382D02*
X56116715Y-124588382D01*
X56116715Y-125540763D02*
X56021477Y-125588382D01*
X55831000Y-125588382D01*
X55735762Y-125540763D01*
X55688143Y-125493144D01*
X55640524Y-125397906D01*
X55640524Y-125112191D01*
X55688143Y-125016953D01*
X55735762Y-124969334D01*
X55831000Y-124921715D01*
X56021477Y-124921715D01*
X56116715Y-124969334D01*
X57164334Y-125493144D02*
X57116715Y-125540763D01*
X56973858Y-125588382D01*
X56878620Y-125588382D01*
X56735762Y-125540763D01*
X56640524Y-125445525D01*
X56592905Y-125350287D01*
X56545286Y-125159811D01*
X56545286Y-125016953D01*
X56592905Y-124826477D01*
X56640524Y-124731239D01*
X56735762Y-124636001D01*
X56878620Y-124588382D01*
X56973858Y-124588382D01*
X57116715Y-124636001D01*
X57164334Y-124683620D01*
X57735762Y-125588382D02*
X57640524Y-125540763D01*
X57592905Y-125493144D01*
X57545286Y-125397906D01*
X57545286Y-125112191D01*
X57592905Y-125016953D01*
X57640524Y-124969334D01*
X57735762Y-124921715D01*
X57878620Y-124921715D01*
X57973858Y-124969334D01*
X58021477Y-125016953D01*
X58069096Y-125112191D01*
X58069096Y-125397906D01*
X58021477Y-125493144D01*
X57973858Y-125540763D01*
X57878620Y-125588382D01*
X57735762Y-125588382D01*
X58497667Y-124921715D02*
X58497667Y-125588382D01*
X58497667Y-125016953D02*
X58545286Y-124969334D01*
X58640524Y-124921715D01*
X58783382Y-124921715D01*
X58878620Y-124969334D01*
X58926239Y-125064572D01*
X58926239Y-125588382D01*
X59926239Y-125588382D02*
X59354810Y-125588382D01*
X59640524Y-125588382D02*
X59640524Y-124588382D01*
X59545286Y-124731239D01*
X59450048Y-124826477D01*
X59354810Y-124874096D01*
D15*
X56081096Y-125595620D02*
X56081096Y-124579620D01*
X56468143Y-124579620D01*
X56564905Y-124628001D01*
X56613286Y-124676382D01*
X56661667Y-124773144D01*
X56661667Y-124918287D01*
X56613286Y-125015049D01*
X56564905Y-125063430D01*
X56468143Y-125111811D01*
X56081096Y-125111811D01*
X57629286Y-125595620D02*
X57048715Y-125595620D01*
X57339001Y-125595620D02*
X57339001Y-124579620D01*
X57242239Y-124724763D01*
X57145477Y-124821525D01*
X57048715Y-124869906D01*
X55597286Y-125595620D02*
X55597286Y-124579620D01*
X55984333Y-124579620D01*
X56081095Y-124628001D01*
X56129476Y-124676382D01*
X56177857Y-124773144D01*
X56177857Y-124918287D01*
X56129476Y-125015049D01*
X56081095Y-125063430D01*
X55984333Y-125111811D01*
X55597286Y-125111811D01*
X56516524Y-124579620D02*
X57145476Y-124579620D01*
X56806810Y-124966668D01*
X56951952Y-124966668D01*
X57048714Y-125015049D01*
X57097095Y-125063430D01*
X57145476Y-125160191D01*
X57145476Y-125402096D01*
X57097095Y-125498858D01*
X57048714Y-125547239D01*
X56951952Y-125595620D01*
X56661667Y-125595620D01*
X56564905Y-125547239D01*
X56516524Y-125498858D01*
X58016333Y-124918287D02*
X58016333Y-125595620D01*
X57774429Y-124531239D02*
X57532524Y-125256953D01*
X58161476Y-125256953D01*
D13*
X75489929Y-128923981D02*
X75489929Y-127923981D01*
X75870882Y-127923981D01*
X75966120Y-127971600D01*
X76013739Y-128019219D01*
X76061358Y-128114457D01*
X76061358Y-128257314D01*
X76013739Y-128352552D01*
X75966120Y-128400171D01*
X75870882Y-128447790D01*
X75489929Y-128447790D01*
X76394691Y-127923981D02*
X77013739Y-127923981D01*
X76680405Y-128304933D01*
X76823263Y-128304933D01*
X76918501Y-128352552D01*
X76966120Y-128400171D01*
X77013739Y-128495410D01*
X77013739Y-128733505D01*
X76966120Y-128828743D01*
X76918501Y-128876362D01*
X76823263Y-128923981D01*
X76537548Y-128923981D01*
X76442310Y-128876362D01*
X76394691Y-128828743D01*
X67252024Y-133702981D02*
X67252024Y-132702981D01*
X67632977Y-132702981D01*
X67728215Y-132750600D01*
X67775834Y-132798219D01*
X67823453Y-132893457D01*
X67823453Y-133036314D01*
X67775834Y-133131552D01*
X67728215Y-133179171D01*
X67632977Y-133226790D01*
X67252024Y-133226790D01*
X68680596Y-133036314D02*
X68680596Y-133702981D01*
X68442500Y-132655362D02*
X68204405Y-133369648D01*
X68823453Y-133369648D01*
X68201549Y-126443981D02*
X68201549Y-125443981D01*
X68582502Y-125443981D01*
X68677740Y-125491600D01*
X68725359Y-125539219D01*
X68772978Y-125634457D01*
X68772978Y-125777314D01*
X68725359Y-125872552D01*
X68677740Y-125920171D01*
X68582502Y-125967790D01*
X68201549Y-125967790D01*
X69677740Y-125443981D02*
X69201549Y-125443981D01*
X69153930Y-125920171D01*
X69201549Y-125872552D01*
X69296787Y-125824933D01*
X69534883Y-125824933D01*
X69630121Y-125872552D01*
X69677740Y-125920171D01*
X69725359Y-126015410D01*
X69725359Y-126253505D01*
X69677740Y-126348743D01*
X69630121Y-126396362D01*
X69534883Y-126443981D01*
X69296787Y-126443981D01*
X69201549Y-126396362D01*
X69153930Y-126348743D01*
X62794382Y-131927481D02*
X62794382Y-130927481D01*
X63175335Y-130927481D01*
X63270573Y-130975100D01*
X63318192Y-131022719D01*
X63365811Y-131117957D01*
X63365811Y-131260814D01*
X63318192Y-131356052D01*
X63270573Y-131403671D01*
X63175335Y-131451290D01*
X62794382Y-131451290D01*
X64222954Y-130927481D02*
X64032477Y-130927481D01*
X63937239Y-130975100D01*
X63889620Y-131022719D01*
X63794382Y-131165576D01*
X63746763Y-131356052D01*
X63746763Y-131737005D01*
X63794382Y-131832243D01*
X63842001Y-131879862D01*
X63937239Y-131927481D01*
X64127716Y-131927481D01*
X64222954Y-131879862D01*
X64270573Y-131832243D01*
X64318192Y-131737005D01*
X64318192Y-131498910D01*
X64270573Y-131403671D01*
X64222954Y-131356052D01*
X64127716Y-131308433D01*
X63937239Y-131308433D01*
X63842001Y-131356052D01*
X63794382Y-131403671D01*
X63746763Y-131498910D01*
X58664382Y-135924481D02*
X58664382Y-134924481D01*
X59045335Y-134924481D01*
X59140573Y-134972100D01*
X59188192Y-135019719D01*
X59235811Y-135114957D01*
X59235811Y-135257814D01*
X59188192Y-135353052D01*
X59140573Y-135400671D01*
X59045335Y-135448290D01*
X58664382Y-135448290D01*
X59569144Y-134924481D02*
X60235811Y-134924481D01*
X59807239Y-135924481D01*
X68062453Y-128793981D02*
X68062453Y-127793981D01*
X68443406Y-127793981D01*
X68538644Y-127841600D01*
X68586263Y-127889219D01*
X68633882Y-127984457D01*
X68633882Y-128127314D01*
X68586263Y-128222552D01*
X68538644Y-128270171D01*
X68443406Y-128317790D01*
X68062453Y-128317790D01*
X69205310Y-128222552D02*
X69110072Y-128174933D01*
X69062453Y-128127314D01*
X69014834Y-128032076D01*
X69014834Y-127984457D01*
X69062453Y-127889219D01*
X69110072Y-127841600D01*
X69205310Y-127793981D01*
X69395787Y-127793981D01*
X69491025Y-127841600D01*
X69538644Y-127889219D01*
X69586263Y-127984457D01*
X69586263Y-128032076D01*
X69538644Y-128127314D01*
X69491025Y-128174933D01*
X69395787Y-128222552D01*
X69205310Y-128222552D01*
X69110072Y-128270171D01*
X69062453Y-128317790D01*
X69014834Y-128413029D01*
X69014834Y-128603505D01*
X69062453Y-128698743D01*
X69110072Y-128746362D01*
X69205310Y-128793981D01*
X69395787Y-128793981D01*
X69491025Y-128746362D01*
X69538644Y-128698743D01*
X69586263Y-128603505D01*
X69586263Y-128413029D01*
X69538644Y-128317790D01*
X69491025Y-128270171D01*
X69395787Y-128222552D01*
X71199548Y-128920981D02*
X71199548Y-127920981D01*
X71580501Y-127920981D01*
X71675739Y-127968600D01*
X71723358Y-128016219D01*
X71770977Y-128111457D01*
X71770977Y-128254314D01*
X71723358Y-128349552D01*
X71675739Y-128397171D01*
X71580501Y-128444790D01*
X71199548Y-128444790D01*
X72247167Y-128920981D02*
X72437643Y-128920981D01*
X72532882Y-128873362D01*
X72580501Y-128825743D01*
X72675739Y-128682886D01*
X72723358Y-128492410D01*
X72723358Y-128111457D01*
X72675739Y-128016219D01*
X72628120Y-127968600D01*
X72532882Y-127920981D01*
X72342405Y-127920981D01*
X72247167Y-127968600D01*
X72199548Y-128016219D01*
X72151929Y-128111457D01*
X72151929Y-128349552D01*
X72199548Y-128444790D01*
X72247167Y-128492410D01*
X72342405Y-128540029D01*
X72532882Y-128540029D01*
X72628120Y-128492410D01*
X72675739Y-128444790D01*
X72723358Y-128349552D01*
X70660690Y-126443981D02*
X70660690Y-125443981D01*
X71041643Y-125443981D01*
X71136881Y-125491600D01*
X71184500Y-125539219D01*
X71232119Y-125634457D01*
X71232119Y-125777314D01*
X71184500Y-125872552D01*
X71136881Y-125920171D01*
X71041643Y-125967790D01*
X70660690Y-125967790D01*
X72184500Y-126443981D02*
X71613071Y-126443981D01*
X71898785Y-126443981D02*
X71898785Y-125443981D01*
X71803547Y-125586838D01*
X71708309Y-125682076D01*
X71613071Y-125729695D01*
X72803547Y-125443981D02*
X72898786Y-125443981D01*
X72994024Y-125491600D01*
X73041643Y-125539219D01*
X73089262Y-125634457D01*
X73136881Y-125824933D01*
X73136881Y-126063029D01*
X73089262Y-126253505D01*
X73041643Y-126348743D01*
X72994024Y-126396362D01*
X72898786Y-126443981D01*
X72803547Y-126443981D01*
X72708309Y-126396362D01*
X72660690Y-126348743D01*
X72613071Y-126253505D01*
X72565452Y-126063029D01*
X72565452Y-125824933D01*
X72613071Y-125634457D01*
X72660690Y-125539219D01*
X72708309Y-125491600D01*
X72803547Y-125443981D01*
X65330315Y-131030482D02*
X65330315Y-130030482D01*
X65711268Y-130030482D01*
X65806506Y-130078101D01*
X65854125Y-130125720D01*
X65901744Y-130220958D01*
X65901744Y-130363815D01*
X65854125Y-130459053D01*
X65806506Y-130506672D01*
X65711268Y-130554291D01*
X65330315Y-130554291D01*
X66854125Y-131030482D02*
X66282696Y-131030482D01*
X66568410Y-131030482D02*
X66568410Y-130030482D01*
X66473172Y-130173339D01*
X66377934Y-130268577D01*
X66282696Y-130316196D01*
X67806506Y-131030482D02*
X67235077Y-131030482D01*
X67520791Y-131030482D02*
X67520791Y-130030482D01*
X67425553Y-130173339D01*
X67330315Y-130268577D01*
X67235077Y-130316196D01*
X69982381Y-131146981D02*
X69982381Y-130146981D01*
X70363334Y-130146981D01*
X70458572Y-130194600D01*
X70506191Y-130242219D01*
X70553810Y-130337457D01*
X70553810Y-130480314D01*
X70506191Y-130575552D01*
X70458572Y-130623171D01*
X70363334Y-130670790D01*
X69982381Y-130670790D01*
X71506191Y-131146981D02*
X70934762Y-131146981D01*
X71220476Y-131146981D02*
X71220476Y-130146981D01*
X71125238Y-130289838D01*
X71030000Y-130385076D01*
X70934762Y-130432695D01*
X71887143Y-130242219D02*
X71934762Y-130194600D01*
X72030000Y-130146981D01*
X72268096Y-130146981D01*
X72363334Y-130194600D01*
X72410953Y-130242219D01*
X72458572Y-130337457D01*
X72458572Y-130432695D01*
X72410953Y-130575552D01*
X71839524Y-131146981D01*
X72458572Y-131146981D01*
X68756119Y-133250482D02*
X68756119Y-132250482D01*
X69137072Y-132250482D01*
X69232310Y-132298101D01*
X69279929Y-132345720D01*
X69327548Y-132440958D01*
X69327548Y-132583815D01*
X69279929Y-132679053D01*
X69232310Y-132726672D01*
X69137072Y-132774291D01*
X68756119Y-132774291D01*
X70279929Y-133250482D02*
X69708500Y-133250482D01*
X69994214Y-133250482D02*
X69994214Y-132250482D01*
X69898976Y-132393339D01*
X69803738Y-132488577D01*
X69708500Y-132536196D01*
X70613262Y-132250482D02*
X71232310Y-132250482D01*
X70898976Y-132631434D01*
X71041834Y-132631434D01*
X71137072Y-132679053D01*
X71184691Y-132726672D01*
X71232310Y-132821911D01*
X71232310Y-133060006D01*
X71184691Y-133155244D01*
X71137072Y-133202863D01*
X71041834Y-133250482D01*
X70756119Y-133250482D01*
X70660881Y-133202863D01*
X70613262Y-133155244D01*
X60438315Y-136244482D02*
X60438315Y-135244482D01*
X60819268Y-135244482D01*
X60914506Y-135292101D01*
X60962125Y-135339720D01*
X61009744Y-135434958D01*
X61009744Y-135577815D01*
X60962125Y-135673053D01*
X60914506Y-135720672D01*
X60819268Y-135768291D01*
X60438315Y-135768291D01*
X61962125Y-136244482D02*
X61390696Y-136244482D01*
X61676410Y-136244482D02*
X61676410Y-135244482D01*
X61581172Y-135387339D01*
X61485934Y-135482577D01*
X61390696Y-135530196D01*
X62819268Y-135577815D02*
X62819268Y-136244482D01*
X62581172Y-135196863D02*
X62343077Y-135911149D01*
X62962125Y-135911149D01*
X56570315Y-127960482D02*
X56570315Y-126960482D01*
X56951268Y-126960482D01*
X57046506Y-127008101D01*
X57094125Y-127055720D01*
X57141744Y-127150958D01*
X57141744Y-127293815D01*
X57094125Y-127389053D01*
X57046506Y-127436672D01*
X56951268Y-127484291D01*
X56570315Y-127484291D01*
X58094125Y-127960482D02*
X57522696Y-127960482D01*
X57808410Y-127960482D02*
X57808410Y-126960482D01*
X57713172Y-127103339D01*
X57617934Y-127198577D01*
X57522696Y-127246196D01*
X58998887Y-126960482D02*
X58522696Y-126960482D01*
X58475077Y-127436672D01*
X58522696Y-127389053D01*
X58617934Y-127341434D01*
X58856030Y-127341434D01*
X58951268Y-127389053D01*
X58998887Y-127436672D01*
X59046506Y-127531911D01*
X59046506Y-127770006D01*
X58998887Y-127865244D01*
X58951268Y-127912863D01*
X58856030Y-127960482D01*
X58617934Y-127960482D01*
X58522696Y-127912863D01*
X58475077Y-127865244D01*
X66720315Y-136117481D02*
X66720315Y-135117481D01*
X67101268Y-135117481D01*
X67196506Y-135165100D01*
X67244125Y-135212719D01*
X67291744Y-135307957D01*
X67291744Y-135450814D01*
X67244125Y-135546052D01*
X67196506Y-135593671D01*
X67101268Y-135641290D01*
X66720315Y-135641290D01*
X68244125Y-136117481D02*
X67672696Y-136117481D01*
X67958410Y-136117481D02*
X67958410Y-135117481D01*
X67863172Y-135260338D01*
X67767934Y-135355576D01*
X67672696Y-135403195D01*
X69101268Y-135117481D02*
X68910791Y-135117481D01*
X68815553Y-135165100D01*
X68767934Y-135212719D01*
X68672696Y-135355576D01*
X68625077Y-135546052D01*
X68625077Y-135927005D01*
X68672696Y-136022243D01*
X68720315Y-136069862D01*
X68815553Y-136117481D01*
X69006030Y-136117481D01*
X69101268Y-136069862D01*
X69148887Y-136022243D01*
X69196506Y-135927005D01*
X69196506Y-135688910D01*
X69148887Y-135593671D01*
X69101268Y-135546052D01*
X69006030Y-135498433D01*
X68815553Y-135498433D01*
X68720315Y-135546052D01*
X68672696Y-135593671D01*
X68625077Y-135688910D01*
X62582333Y-134978481D02*
X62582333Y-133978481D01*
X62963286Y-133978481D01*
X63058524Y-134026100D01*
X63106143Y-134073719D01*
X63153762Y-134168957D01*
X63153762Y-134311814D01*
X63106143Y-134407052D01*
X63058524Y-134454671D01*
X62963286Y-134502290D01*
X62582333Y-134502290D01*
X64106143Y-134978481D02*
X63534714Y-134978481D01*
X63820428Y-134978481D02*
X63820428Y-133978481D01*
X63725190Y-134121338D01*
X63629952Y-134216576D01*
X63534714Y-134264195D01*
X64439476Y-133978481D02*
X65106143Y-133978481D01*
X64677571Y-134978481D01*
X62582333Y-136500482D02*
X62582333Y-135500482D01*
X62963286Y-135500482D01*
X63058524Y-135548101D01*
X63106143Y-135595720D01*
X63153762Y-135690958D01*
X63153762Y-135833815D01*
X63106143Y-135929053D01*
X63058524Y-135976672D01*
X62963286Y-136024291D01*
X62582333Y-136024291D01*
X64106143Y-136500482D02*
X63534714Y-136500482D01*
X63820428Y-136500482D02*
X63820428Y-135500482D01*
X63725190Y-135643339D01*
X63629952Y-135738577D01*
X63534714Y-135786196D01*
X64677571Y-135929053D02*
X64582333Y-135881434D01*
X64534714Y-135833815D01*
X64487095Y-135738577D01*
X64487095Y-135690958D01*
X64534714Y-135595720D01*
X64582333Y-135548101D01*
X64677571Y-135500482D01*
X64868048Y-135500482D01*
X64963286Y-135548101D01*
X65010905Y-135595720D01*
X65058524Y-135690958D01*
X65058524Y-135738577D01*
X65010905Y-135833815D01*
X64963286Y-135881434D01*
X64868048Y-135929053D01*
X64677571Y-135929053D01*
X64582333Y-135976672D01*
X64534714Y-136024291D01*
X64487095Y-136119530D01*
X64487095Y-136310006D01*
X64534714Y-136405244D01*
X64582333Y-136452863D01*
X64677571Y-136500482D01*
X64868048Y-136500482D01*
X64963286Y-136452863D01*
X65010905Y-136405244D01*
X65058524Y-136310006D01*
X65058524Y-136119530D01*
X65010905Y-136024291D01*
X64963286Y-135976672D01*
X64868048Y-135929053D01*
X65201119Y-135220482D02*
X65201119Y-134220482D01*
X65582072Y-134220482D01*
X65677310Y-134268101D01*
X65724929Y-134315720D01*
X65772548Y-134410958D01*
X65772548Y-134553815D01*
X65724929Y-134649053D01*
X65677310Y-134696672D01*
X65582072Y-134744291D01*
X65201119Y-134744291D01*
X66724929Y-135220482D02*
X66153500Y-135220482D01*
X66439214Y-135220482D02*
X66439214Y-134220482D01*
X66343976Y-134363339D01*
X66248738Y-134458577D01*
X66153500Y-134506196D01*
X67201119Y-135220482D02*
X67391595Y-135220482D01*
X67486834Y-135172863D01*
X67534453Y-135125244D01*
X67629691Y-134982387D01*
X67677310Y-134791911D01*
X67677310Y-134410958D01*
X67629691Y-134315720D01*
X67582072Y-134268101D01*
X67486834Y-134220482D01*
X67296357Y-134220482D01*
X67201119Y-134268101D01*
X67153500Y-134315720D01*
X67105881Y-134410958D01*
X67105881Y-134649053D01*
X67153500Y-134744291D01*
X67201119Y-134791911D01*
X67296357Y-134839530D01*
X67486834Y-134839530D01*
X67582072Y-134791911D01*
X67629691Y-134744291D01*
X67677310Y-134649053D01*
X71062119Y-136730482D02*
X71062119Y-135730482D01*
X71443072Y-135730482D01*
X71538310Y-135778101D01*
X71585929Y-135825720D01*
X71633548Y-135920958D01*
X71633548Y-136063815D01*
X71585929Y-136159053D01*
X71538310Y-136206672D01*
X71443072Y-136254291D01*
X71062119Y-136254291D01*
X72014500Y-135825720D02*
X72062119Y-135778101D01*
X72157357Y-135730482D01*
X72395453Y-135730482D01*
X72490691Y-135778101D01*
X72538310Y-135825720D01*
X72585929Y-135920958D01*
X72585929Y-136016196D01*
X72538310Y-136159053D01*
X71966881Y-136730482D01*
X72585929Y-136730482D01*
X73204976Y-135730482D02*
X73300215Y-135730482D01*
X73395453Y-135778101D01*
X73443072Y-135825720D01*
X73490691Y-135920958D01*
X73538310Y-136111434D01*
X73538310Y-136349530D01*
X73490691Y-136540006D01*
X73443072Y-136635244D01*
X73395453Y-136682863D01*
X73300215Y-136730482D01*
X73204976Y-136730482D01*
X73109738Y-136682863D01*
X73062119Y-136635244D01*
X73014500Y-136540006D01*
X72966881Y-136349530D01*
X72966881Y-136111434D01*
X73014500Y-135920958D01*
X73062119Y-135825720D01*
X73109738Y-135778101D01*
X73204976Y-135730482D01*
X73052119Y-134380482D02*
X73052119Y-133380482D01*
X73433072Y-133380482D01*
X73528310Y-133428101D01*
X73575929Y-133475720D01*
X73623548Y-133570958D01*
X73623548Y-133713815D01*
X73575929Y-133809053D01*
X73528310Y-133856672D01*
X73433072Y-133904291D01*
X73052119Y-133904291D01*
X74004500Y-133475720D02*
X74052119Y-133428101D01*
X74147357Y-133380482D01*
X74385453Y-133380482D01*
X74480691Y-133428101D01*
X74528310Y-133475720D01*
X74575929Y-133570958D01*
X74575929Y-133666196D01*
X74528310Y-133809053D01*
X73956881Y-134380482D01*
X74575929Y-134380482D01*
X75528310Y-134380482D02*
X74956881Y-134380482D01*
X75242595Y-134380482D02*
X75242595Y-133380482D01*
X75147357Y-133523339D01*
X75052119Y-133618577D01*
X74956881Y-133666196D01*
X74560976Y-130440482D02*
X74560976Y-129440482D01*
X74941929Y-129440482D01*
X75037167Y-129488101D01*
X75084786Y-129535720D01*
X75132405Y-129630958D01*
X75132405Y-129773815D01*
X75084786Y-129869053D01*
X75037167Y-129916672D01*
X74941929Y-129964291D01*
X74560976Y-129964291D01*
X75513357Y-129535720D02*
X75560976Y-129488101D01*
X75656214Y-129440482D01*
X75894310Y-129440482D01*
X75989548Y-129488101D01*
X76037167Y-129535720D01*
X76084786Y-129630958D01*
X76084786Y-129726196D01*
X76037167Y-129869053D01*
X75465738Y-130440482D01*
X76084786Y-130440482D01*
X76465738Y-129535720D02*
X76513357Y-129488101D01*
X76608595Y-129440482D01*
X76846691Y-129440482D01*
X76941929Y-129488101D01*
X76989548Y-129535720D01*
X77037167Y-129630958D01*
X77037167Y-129726196D01*
X76989548Y-129869053D01*
X76418119Y-130440482D01*
X77037167Y-130440482D01*
X71086309Y-135210482D02*
X71086309Y-134210482D01*
X71467262Y-134210482D01*
X71562500Y-134258101D01*
X71610119Y-134305720D01*
X71657738Y-134400958D01*
X71657738Y-134543815D01*
X71610119Y-134639053D01*
X71562500Y-134686672D01*
X71467262Y-134734291D01*
X71086309Y-134734291D01*
X72038690Y-134305720D02*
X72086309Y-134258101D01*
X72181547Y-134210482D01*
X72419643Y-134210482D01*
X72514881Y-134258101D01*
X72562500Y-134305720D01*
X72610119Y-134400958D01*
X72610119Y-134496196D01*
X72562500Y-134639053D01*
X71991071Y-135210482D01*
X72610119Y-135210482D01*
X72943452Y-134210482D02*
X73562500Y-134210482D01*
X73229166Y-134591434D01*
X73372024Y-134591434D01*
X73467262Y-134639053D01*
X73514881Y-134686672D01*
X73562500Y-134781911D01*
X73562500Y-135020006D01*
X73514881Y-135115244D01*
X73467262Y-135162863D01*
X73372024Y-135210482D01*
X73086309Y-135210482D01*
X72991071Y-135162863D01*
X72943452Y-135115244D01*
X72966309Y-132860482D02*
X72966309Y-131860482D01*
X73347262Y-131860482D01*
X73442500Y-131908101D01*
X73490119Y-131955720D01*
X73537738Y-132050958D01*
X73537738Y-132193815D01*
X73490119Y-132289053D01*
X73442500Y-132336672D01*
X73347262Y-132384291D01*
X72966309Y-132384291D01*
X73918690Y-131955720D02*
X73966309Y-131908101D01*
X74061547Y-131860482D01*
X74299643Y-131860482D01*
X74394881Y-131908101D01*
X74442500Y-131955720D01*
X74490119Y-132050958D01*
X74490119Y-132146196D01*
X74442500Y-132289053D01*
X73871071Y-132860482D01*
X74490119Y-132860482D01*
X75347262Y-132193815D02*
X75347262Y-132860482D01*
X75109166Y-131812863D02*
X74871071Y-132527149D01*
X75490119Y-132527149D01*
X71039809Y-133693981D02*
X71039809Y-132693981D01*
X71420762Y-132693981D01*
X71516000Y-132741600D01*
X71563619Y-132789219D01*
X71611238Y-132884457D01*
X71611238Y-133027314D01*
X71563619Y-133122552D01*
X71516000Y-133170171D01*
X71420762Y-133217790D01*
X71039809Y-133217790D01*
X71992190Y-132789219D02*
X72039809Y-132741600D01*
X72135047Y-132693981D01*
X72373143Y-132693981D01*
X72468381Y-132741600D01*
X72516000Y-132789219D01*
X72563619Y-132884457D01*
X72563619Y-132979695D01*
X72516000Y-133122552D01*
X71944571Y-133693981D01*
X72563619Y-133693981D01*
X73468381Y-132693981D02*
X72992190Y-132693981D01*
X72944571Y-133170171D01*
X72992190Y-133122552D01*
X73087428Y-133074933D01*
X73325524Y-133074933D01*
X73420762Y-133122552D01*
X73468381Y-133170171D01*
X73516000Y-133265410D01*
X73516000Y-133503505D01*
X73468381Y-133598743D01*
X73420762Y-133646362D01*
X73325524Y-133693981D01*
X73087428Y-133693981D01*
X72992190Y-133646362D01*
X72944571Y-133598743D01*
X72549809Y-131337481D02*
X72549809Y-130337481D01*
X72930762Y-130337481D01*
X73026000Y-130385100D01*
X73073619Y-130432719D01*
X73121238Y-130527957D01*
X73121238Y-130670814D01*
X73073619Y-130766052D01*
X73026000Y-130813671D01*
X72930762Y-130861290D01*
X72549809Y-130861290D01*
X73502190Y-130432719D02*
X73549809Y-130385100D01*
X73645047Y-130337481D01*
X73883143Y-130337481D01*
X73978381Y-130385100D01*
X74026000Y-130432719D01*
X74073619Y-130527957D01*
X74073619Y-130623195D01*
X74026000Y-130766052D01*
X73454571Y-131337481D01*
X74073619Y-131337481D01*
X74930762Y-130337481D02*
X74740285Y-130337481D01*
X74645047Y-130385100D01*
X74597428Y-130432719D01*
X74502190Y-130575576D01*
X74454571Y-130766052D01*
X74454571Y-131147005D01*
X74502190Y-131242243D01*
X74549809Y-131289862D01*
X74645047Y-131337481D01*
X74835524Y-131337481D01*
X74930762Y-131289862D01*
X74978381Y-131242243D01*
X75026000Y-131147005D01*
X75026000Y-130908910D01*
X74978381Y-130813671D01*
X74930762Y-130766052D01*
X74835524Y-130718433D01*
X74645047Y-130718433D01*
X74549809Y-130766052D01*
X74502190Y-130813671D01*
X74454571Y-130908910D01*
X76872809Y-128090482D02*
X76872809Y-127090482D01*
X77253762Y-127090482D01*
X77349000Y-127138101D01*
X77396619Y-127185720D01*
X77444238Y-127280958D01*
X77444238Y-127423815D01*
X77396619Y-127519053D01*
X77349000Y-127566672D01*
X77253762Y-127614291D01*
X76872809Y-127614291D01*
X77825190Y-127185720D02*
X77872809Y-127138101D01*
X77968047Y-127090482D01*
X78206143Y-127090482D01*
X78301381Y-127138101D01*
X78349000Y-127185720D01*
X78396619Y-127280958D01*
X78396619Y-127376196D01*
X78349000Y-127519053D01*
X77777571Y-128090482D01*
X78396619Y-128090482D01*
X78729952Y-127090482D02*
X79396619Y-127090482D01*
X78968047Y-128090482D01*
X77563309Y-126443981D02*
X77563309Y-125443981D01*
X77944262Y-125443981D01*
X78039500Y-125491600D01*
X78087119Y-125539219D01*
X78134738Y-125634457D01*
X78134738Y-125777314D01*
X78087119Y-125872552D01*
X78039500Y-125920171D01*
X77944262Y-125967790D01*
X77563309Y-125967790D01*
X78515690Y-125539219D02*
X78563309Y-125491600D01*
X78658547Y-125443981D01*
X78896643Y-125443981D01*
X78991881Y-125491600D01*
X79039500Y-125539219D01*
X79087119Y-125634457D01*
X79087119Y-125729695D01*
X79039500Y-125872552D01*
X78468071Y-126443981D01*
X79087119Y-126443981D01*
X79658547Y-125872552D02*
X79563309Y-125824933D01*
X79515690Y-125777314D01*
X79468071Y-125682076D01*
X79468071Y-125634457D01*
X79515690Y-125539219D01*
X79563309Y-125491600D01*
X79658547Y-125443981D01*
X79849024Y-125443981D01*
X79944262Y-125491600D01*
X79991881Y-125539219D01*
X80039500Y-125634457D01*
X80039500Y-125682076D01*
X79991881Y-125777314D01*
X79944262Y-125824933D01*
X79849024Y-125872552D01*
X79658547Y-125872552D01*
X79563309Y-125920171D01*
X79515690Y-125967790D01*
X79468071Y-126063029D01*
X79468071Y-126253505D01*
X79515690Y-126348743D01*
X79563309Y-126396362D01*
X79658547Y-126443981D01*
X79849024Y-126443981D01*
X79944262Y-126396362D01*
X79991881Y-126348743D01*
X80039500Y-126253505D01*
X80039500Y-126063029D01*
X79991881Y-125967790D01*
X79944262Y-125920171D01*
X79849024Y-125872552D01*
X69159809Y-136023981D02*
X69159809Y-135023981D01*
X69540762Y-135023981D01*
X69636000Y-135071600D01*
X69683619Y-135119219D01*
X69731238Y-135214457D01*
X69731238Y-135357314D01*
X69683619Y-135452552D01*
X69636000Y-135500171D01*
X69540762Y-135547790D01*
X69159809Y-135547790D01*
X70112190Y-135119219D02*
X70159809Y-135071600D01*
X70255047Y-135023981D01*
X70493143Y-135023981D01*
X70588381Y-135071600D01*
X70636000Y-135119219D01*
X70683619Y-135214457D01*
X70683619Y-135309695D01*
X70636000Y-135452552D01*
X70064571Y-136023981D01*
X70683619Y-136023981D01*
X71159809Y-136023981D02*
X71350285Y-136023981D01*
X71445524Y-135976362D01*
X71493143Y-135928743D01*
X71588381Y-135785886D01*
X71636000Y-135595410D01*
X71636000Y-135214457D01*
X71588381Y-135119219D01*
X71540762Y-135071600D01*
X71445524Y-135023981D01*
X71255047Y-135023981D01*
X71159809Y-135071600D01*
X71112190Y-135119219D01*
X71064571Y-135214457D01*
X71064571Y-135452552D01*
X71112190Y-135547790D01*
X71159809Y-135595410D01*
X71255047Y-135643029D01*
X71445524Y-135643029D01*
X71540762Y-135595410D01*
X71588381Y-135547790D01*
X71636000Y-135452552D01*
X73159809Y-128090482D02*
X73159809Y-127090482D01*
X73540762Y-127090482D01*
X73636000Y-127138101D01*
X73683619Y-127185720D01*
X73731238Y-127280958D01*
X73731238Y-127423815D01*
X73683619Y-127519053D01*
X73636000Y-127566672D01*
X73540762Y-127614291D01*
X73159809Y-127614291D01*
X74064571Y-127090482D02*
X74683619Y-127090482D01*
X74350285Y-127471434D01*
X74493143Y-127471434D01*
X74588381Y-127519053D01*
X74636000Y-127566672D01*
X74683619Y-127661911D01*
X74683619Y-127900006D01*
X74636000Y-127995244D01*
X74588381Y-128042863D01*
X74493143Y-128090482D01*
X74207428Y-128090482D01*
X74112190Y-128042863D01*
X74064571Y-127995244D01*
X75302666Y-127090482D02*
X75397905Y-127090482D01*
X75493143Y-127138101D01*
X75540762Y-127185720D01*
X75588381Y-127280958D01*
X75636000Y-127471434D01*
X75636000Y-127709530D01*
X75588381Y-127900006D01*
X75540762Y-127995244D01*
X75493143Y-128042863D01*
X75397905Y-128090482D01*
X75302666Y-128090482D01*
X75207428Y-128042863D01*
X75159809Y-127995244D01*
X75112190Y-127900006D01*
X75064571Y-127709530D01*
X75064571Y-127471434D01*
X75112190Y-127280958D01*
X75159809Y-127185720D01*
X75207428Y-127138101D01*
X75302666Y-127090482D01*
X76936309Y-130380482D02*
X76936309Y-129380482D01*
X77317262Y-129380482D01*
X77412500Y-129428101D01*
X77460119Y-129475720D01*
X77507738Y-129570958D01*
X77507738Y-129713815D01*
X77460119Y-129809053D01*
X77412500Y-129856672D01*
X77317262Y-129904291D01*
X76936309Y-129904291D01*
X77841071Y-129380482D02*
X78460119Y-129380482D01*
X78126785Y-129761434D01*
X78269643Y-129761434D01*
X78364881Y-129809053D01*
X78412500Y-129856672D01*
X78460119Y-129951911D01*
X78460119Y-130190006D01*
X78412500Y-130285244D01*
X78364881Y-130332863D01*
X78269643Y-130380482D01*
X77983928Y-130380482D01*
X77888690Y-130332863D01*
X77841071Y-130285244D01*
X79412500Y-130380482D02*
X78841071Y-130380482D01*
X79126785Y-130380482D02*
X79126785Y-129380482D01*
X79031547Y-129523339D01*
X78936309Y-129618577D01*
X78841071Y-129666196D01*
X74956309Y-131960482D02*
X74956309Y-130960482D01*
X75337262Y-130960482D01*
X75432500Y-131008101D01*
X75480119Y-131055720D01*
X75527738Y-131150958D01*
X75527738Y-131293815D01*
X75480119Y-131389053D01*
X75432500Y-131436672D01*
X75337262Y-131484291D01*
X74956309Y-131484291D01*
X75861071Y-130960482D02*
X76480119Y-130960482D01*
X76146785Y-131341434D01*
X76289643Y-131341434D01*
X76384881Y-131389053D01*
X76432500Y-131436672D01*
X76480119Y-131531911D01*
X76480119Y-131770006D01*
X76432500Y-131865244D01*
X76384881Y-131912863D01*
X76289643Y-131960482D01*
X76003928Y-131960482D01*
X75908690Y-131912863D01*
X75861071Y-131865244D01*
X76861071Y-131055720D02*
X76908690Y-131008101D01*
X77003928Y-130960482D01*
X77242024Y-130960482D01*
X77337262Y-131008101D01*
X77384881Y-131055720D01*
X77432500Y-131150958D01*
X77432500Y-131246196D01*
X77384881Y-131389053D01*
X76813452Y-131960482D01*
X77432500Y-131960482D01*
X63073114Y-126258581D02*
X63073114Y-125258581D01*
X63454067Y-125258581D01*
X63549305Y-125306200D01*
X63596924Y-125353819D01*
X63644543Y-125449057D01*
X63644543Y-125591914D01*
X63596924Y-125687152D01*
X63549305Y-125734771D01*
X63454067Y-125782390D01*
X63073114Y-125782390D01*
X63977876Y-125258581D02*
X64596924Y-125258581D01*
X64263590Y-125639533D01*
X64406448Y-125639533D01*
X64501686Y-125687152D01*
X64549305Y-125734771D01*
X64596924Y-125830010D01*
X64596924Y-126068105D01*
X64549305Y-126163343D01*
X64501686Y-126210962D01*
X64406448Y-126258581D01*
X64120733Y-126258581D01*
X64025495Y-126210962D01*
X63977876Y-126163343D01*
X64930257Y-125258581D02*
X65549305Y-125258581D01*
X65215971Y-125639533D01*
X65358829Y-125639533D01*
X65454067Y-125687152D01*
X65501686Y-125734771D01*
X65549305Y-125830010D01*
X65549305Y-126068105D01*
X65501686Y-126163343D01*
X65454067Y-126210962D01*
X65358829Y-126258581D01*
X65073114Y-126258581D01*
X64977876Y-126210962D01*
X64930257Y-126163343D01*
X75681785Y-126570981D02*
X75681785Y-125570981D01*
X76062738Y-125570981D01*
X76157976Y-125618600D01*
X76205595Y-125666219D01*
X76253214Y-125761457D01*
X76253214Y-125904314D01*
X76205595Y-125999552D01*
X76157976Y-126047171D01*
X76062738Y-126094790D01*
X75681785Y-126094790D01*
X76586547Y-125570981D02*
X77205595Y-125570981D01*
X76872261Y-125951933D01*
X77015119Y-125951933D01*
X77110357Y-125999552D01*
X77157976Y-126047171D01*
X77205595Y-126142410D01*
X77205595Y-126380505D01*
X77157976Y-126475743D01*
X77110357Y-126523362D01*
X77015119Y-126570981D01*
X76729404Y-126570981D01*
X76634166Y-126523362D01*
X76586547Y-126475743D01*
X77538928Y-125570981D02*
X78205595Y-125570981D01*
X77777023Y-126570981D01*
M02*
