G04 #@! TF.FileFunction,Soldermask,Top*
%FSLAX46Y46*%
G04 Gerber Fmt 4.6, Leading zero omitted, Abs format (unit mm)*
G04 Created by KiCad (PCBNEW 4.0.0-rc1-stable) date 26/07/2016 12:52:27*
%MOMM*%
G01*
G04 APERTURE LIST*
%ADD10C,0.100000*%
%ADD11C,0.600000*%
%ADD12R,1.524000X4.064000*%
%ADD13C,0.762000*%
%ADD14R,0.600000X0.500000*%
%ADD15O,1.342240X0.462240*%
%ADD16O,0.462240X1.342240*%
%ADD17R,2.451880X2.451880*%
%ADD18O,0.346600X0.971600*%
%ADD19O,0.971600X0.346600*%
%ADD20R,4.321800X4.321800*%
%ADD21O,0.422240X1.042240*%
%ADD22O,1.042240X0.422240*%
%ADD23R,5.096800X5.096800*%
%ADD24R,0.500000X0.600000*%
%ADD25R,0.800100X0.800100*%
%ADD26R,0.248920X0.551180*%
%ADD27R,1.198880X1.399540*%
%ADD28R,1.150620X1.440180*%
%ADD29R,0.508000X0.558800*%
%ADD30R,0.803200X0.703200*%
%ADD31R,0.400000X0.600000*%
%ADD32R,0.600000X0.400000*%
%ADD33R,0.803200X0.603200*%
%ADD34R,0.603200X0.803200*%
%ADD35R,0.797560X0.797560*%
%ADD36R,1.000000X1.000000*%
%ADD37C,4.064000*%
%ADD38R,1.727200X1.727200*%
%ADD39O,1.727200X1.727200*%
G04 APERTURE END LIST*
D10*
D11*
X49022000Y-68199000D03*
X28194000Y-75311000D03*
X29464000Y-76200000D03*
X23368000Y-70612000D03*
X49149000Y-109728000D03*
X22606000Y-68199000D03*
X21336000Y-68199000D03*
X55753000Y-72644000D03*
X71882000Y-69850000D03*
X66421000Y-73787000D03*
X30454600Y-72745600D03*
X29311600Y-71475600D03*
X28295600Y-70586600D03*
X27279600Y-69570600D03*
X26771600Y-68173600D03*
X28549600Y-68173600D03*
X30454600Y-68173600D03*
X44577000Y-68199000D03*
X45974000Y-68199000D03*
X86995000Y-116713000D03*
X84836000Y-116713000D03*
X82423000Y-116713000D03*
X80264000Y-116713000D03*
X77978000Y-116713000D03*
X75692000Y-116713000D03*
X73533000Y-116713000D03*
X71628000Y-116713000D03*
X69723000Y-116713000D03*
X67691000Y-116713000D03*
X65659000Y-116713000D03*
X63754000Y-116713000D03*
X61976000Y-116713000D03*
X60071000Y-116713000D03*
X56388000Y-79883000D03*
X59182000Y-80899000D03*
X61468000Y-76962000D03*
X59182000Y-73914000D03*
X62230000Y-73914000D03*
X64770000Y-73914000D03*
X67945000Y-73660000D03*
X68961000Y-72771000D03*
X69850000Y-71882000D03*
X70866000Y-70866000D03*
X73152000Y-68326000D03*
X71882000Y-68326000D03*
X70612000Y-68326000D03*
X69342000Y-68326000D03*
X68072000Y-68326000D03*
X66802000Y-68326000D03*
X65532000Y-68326000D03*
X64262000Y-68326000D03*
X62992000Y-68326000D03*
X61722000Y-68326000D03*
X39979600Y-74269600D03*
X28575000Y-102235000D03*
X31115000Y-102235000D03*
X31115000Y-100203000D03*
X28575000Y-100203000D03*
X31115000Y-98425000D03*
X28575000Y-98425000D03*
X30226000Y-81915000D03*
X27940000Y-83947000D03*
X37084000Y-80899000D03*
X37211000Y-77470000D03*
X35052000Y-80899000D03*
X33655000Y-77470000D03*
X35179000Y-88646000D03*
X35179000Y-85979000D03*
X35179000Y-83439000D03*
X32385000Y-88646000D03*
X32385000Y-85979000D03*
X32385000Y-83439000D03*
X32448500Y-90297000D03*
X30289500Y-90297000D03*
X28257500Y-90297000D03*
X34544000Y-94043500D03*
X32321500Y-94043500D03*
X30226000Y-94043500D03*
X28194000Y-94043500D03*
X60452000Y-68326000D03*
X59290000Y-68324000D03*
X52806600Y-78968600D03*
X38862000Y-73279000D03*
X40995600Y-75285600D03*
X37846000Y-72136000D03*
X47879000Y-76708000D03*
X41910000Y-76200000D03*
X54483000Y-77470000D03*
X55499000Y-76454000D03*
X56515000Y-75438000D03*
X57531000Y-74295000D03*
X24511000Y-117094000D03*
X21463000Y-108966000D03*
X21463000Y-113919000D03*
X21463000Y-110490000D03*
X22479000Y-117094000D03*
X21463000Y-115697000D03*
X21463000Y-112141000D03*
X21336000Y-71882000D03*
X21336000Y-70104000D03*
X89281000Y-116713000D03*
X58970000Y-84700000D03*
X43307000Y-100584000D03*
X65024000Y-76962000D03*
X52705000Y-93599000D03*
X43307000Y-98679000D03*
X61087000Y-87630000D03*
X26543000Y-117094000D03*
X28448000Y-117094000D03*
X61214000Y-82042000D03*
X69088000Y-76962000D03*
X30480000Y-117094000D03*
X32385000Y-117094000D03*
X67056000Y-76962000D03*
X44577000Y-101600000D03*
X34290000Y-117094000D03*
X42799000Y-96774000D03*
X36576000Y-101600000D03*
X61277500Y-90678000D03*
X36576000Y-100076000D03*
X40132000Y-80772000D03*
X67310000Y-108585000D03*
X92329000Y-115824000D03*
X49149000Y-116967000D03*
X36083240Y-117000020D03*
X50546000Y-116967000D03*
X46228000Y-116967000D03*
X47752000Y-116967000D03*
X92329000Y-114173000D03*
X44704000Y-116967000D03*
X35433000Y-77470000D03*
X80010000Y-102870000D03*
X59436000Y-93726000D03*
X65151000Y-96520000D03*
X62230000Y-94488000D03*
X37779960Y-105780840D03*
X36830000Y-98679000D03*
X80010000Y-100965000D03*
X77470000Y-102870000D03*
X59245500Y-89154000D03*
X77470000Y-100965000D03*
X72517000Y-88900000D03*
X74930000Y-100965000D03*
X90932000Y-116713000D03*
X80010000Y-105156000D03*
X42123360Y-105811320D03*
X77470000Y-105092500D03*
X42166540Y-108231940D03*
X54356000Y-95186500D03*
X74930000Y-105092500D03*
X55562500Y-93154500D03*
X40020240Y-105780840D03*
X60325000Y-95885000D03*
X60960000Y-93726000D03*
X33147000Y-102870000D03*
X40005000Y-108712000D03*
X63246000Y-96393000D03*
X73025000Y-106045000D03*
X71755000Y-107315000D03*
X69850000Y-108585000D03*
X72517000Y-102870000D03*
X64770000Y-108585000D03*
X59690000Y-108585000D03*
X59436000Y-76327000D03*
X41021000Y-96266000D03*
X56515000Y-108585000D03*
X62230000Y-108585000D03*
X52832000Y-89535000D03*
X39370000Y-96266000D03*
X33147000Y-108712000D03*
X33177480Y-105780840D03*
X44041060Y-108209080D03*
X44089320Y-105780840D03*
X63246000Y-76962000D03*
X29464000Y-108966000D03*
X27813000Y-105537000D03*
X70612000Y-104013000D03*
X72644000Y-100330000D03*
X70993000Y-100330000D03*
X69088000Y-94488000D03*
X66040000Y-106045000D03*
X68580000Y-102870000D03*
X67310000Y-104140000D03*
X41910000Y-101981000D03*
X64770000Y-104140000D03*
X66040000Y-103251000D03*
X62230000Y-104140000D03*
X60960000Y-106045000D03*
X59690000Y-104140000D03*
X57150000Y-104140000D03*
X69850000Y-101600000D03*
X41910000Y-98679000D03*
X35311080Y-105780840D03*
X63500000Y-106045000D03*
X35306000Y-108712000D03*
X60960000Y-103251000D03*
X63500000Y-103251000D03*
X58420000Y-103251000D03*
X37846000Y-108712000D03*
X66040000Y-101346000D03*
X69215000Y-105410000D03*
X63754000Y-101346000D03*
X61468000Y-101346000D03*
X38100000Y-97409000D03*
X58801000Y-101346000D03*
X59055000Y-106045000D03*
X80010000Y-97155000D03*
X51562000Y-94742000D03*
X77470000Y-97155000D03*
X70612000Y-95885000D03*
X66675000Y-94488000D03*
X80010000Y-99695000D03*
X55245000Y-91630500D03*
X55245000Y-89408000D03*
X77470000Y-99695000D03*
X74930000Y-102870000D03*
X74930000Y-99695000D03*
X74930000Y-97155000D03*
X40132000Y-97536000D03*
X71755000Y-97155000D03*
X69215000Y-97155000D03*
X41910000Y-100584000D03*
X41680000Y-103160000D03*
X54356000Y-88519000D03*
X66040000Y-97155000D03*
X64135000Y-97155000D03*
X62230000Y-97155000D03*
X60325000Y-97155000D03*
X58420000Y-97155000D03*
X56515000Y-97155000D03*
X54610000Y-97155000D03*
X52705000Y-97155000D03*
X77089000Y-92583000D03*
X79121000Y-92583000D03*
X29464000Y-107442000D03*
X69088000Y-100330000D03*
X67310000Y-100330000D03*
X64770000Y-100330000D03*
X62865000Y-100330000D03*
X71374000Y-94615000D03*
X60325000Y-100330000D03*
X38100000Y-103124000D03*
X58801000Y-99695000D03*
X57404000Y-99695000D03*
X56007000Y-99695000D03*
X54483000Y-99695000D03*
X51435000Y-99695000D03*
X50800000Y-97155000D03*
X53975000Y-91313000D03*
X50165000Y-98425000D03*
X51689000Y-90551000D03*
X50165000Y-95885000D03*
X37338000Y-102362000D03*
X48260000Y-96520000D03*
X46736000Y-92456000D03*
X45720000Y-91821000D03*
X44450000Y-91821000D03*
X43307000Y-91821000D03*
X41910000Y-91821000D03*
X40640000Y-91567000D03*
X39497000Y-91948000D03*
X39624000Y-90424000D03*
X39370000Y-89154000D03*
X39370000Y-87884000D03*
X39370000Y-86614000D03*
X38227000Y-90424000D03*
X38227000Y-89154000D03*
X38227000Y-87884000D03*
X38227000Y-86614000D03*
X37846000Y-85090000D03*
X39370000Y-83693000D03*
X40894000Y-85090000D03*
X41656000Y-82804000D03*
X41656000Y-80772000D03*
X50647600Y-68173600D03*
X47498000Y-68199000D03*
X32385000Y-68199000D03*
X34290000Y-68199000D03*
X35941000Y-68199000D03*
D12*
X40386000Y-115824000D03*
X37846000Y-115824000D03*
X42926000Y-115824000D03*
D13*
X38186000Y-114256000D03*
X37486000Y-114256000D03*
X38186000Y-115256000D03*
X38186000Y-116256000D03*
X37486000Y-116256000D03*
X37486000Y-115256000D03*
X42586000Y-114256000D03*
X42586000Y-115256000D03*
X42586000Y-116256000D03*
X43286000Y-116256000D03*
X43286000Y-115256000D03*
X43286000Y-114256000D03*
D14*
X55330000Y-83312000D03*
X56430000Y-83312000D03*
X56430000Y-85852000D03*
X55330000Y-85852000D03*
D15*
X45806000Y-102378000D03*
X45806000Y-102878000D03*
X45806000Y-103378000D03*
X45806000Y-103878000D03*
X45806000Y-104378000D03*
D16*
X47006000Y-105578000D03*
X47506000Y-105578000D03*
X48006000Y-105578000D03*
X48506000Y-105578000D03*
X49006000Y-105578000D03*
D15*
X50206000Y-104378000D03*
X50206000Y-103878000D03*
X50206000Y-103378000D03*
X50206000Y-102878000D03*
X50206000Y-102378000D03*
D16*
X49006000Y-101178000D03*
X48506000Y-101178000D03*
X48006000Y-101178000D03*
X47506000Y-101178000D03*
X47006000Y-101178000D03*
D17*
X48006000Y-103378000D03*
D18*
X50206000Y-81963000D03*
X49806000Y-81963000D03*
X49406000Y-81963000D03*
X49006000Y-81963000D03*
X48606000Y-81963000D03*
X48206000Y-81963000D03*
X47806000Y-81963000D03*
X47406000Y-81963000D03*
X47006000Y-81963000D03*
X46606000Y-81963000D03*
X46206000Y-81963000D03*
X45806000Y-81963000D03*
D19*
X45006000Y-82763000D03*
X45006000Y-83163000D03*
X45006000Y-83563000D03*
X45006000Y-83963000D03*
X45006000Y-84363000D03*
X45006000Y-84763000D03*
X45006000Y-85163000D03*
X45006000Y-85563000D03*
X45006000Y-85963000D03*
X45006000Y-86363000D03*
X45006000Y-86763000D03*
X45006000Y-87163000D03*
D18*
X45806000Y-87963000D03*
X46206000Y-87963000D03*
X46606000Y-87963000D03*
X47006000Y-87963000D03*
X47406000Y-87963000D03*
X47806000Y-87963000D03*
X48206000Y-87963000D03*
X48606000Y-87963000D03*
X49006000Y-87963000D03*
X49406000Y-87963000D03*
X49806000Y-87963000D03*
X50206000Y-87963000D03*
D19*
X51006000Y-87163000D03*
X51006000Y-86763000D03*
X51006000Y-86363000D03*
X51006000Y-85963000D03*
X51006000Y-85563000D03*
X51006000Y-85163000D03*
X51006000Y-84763000D03*
X51006000Y-84363000D03*
X51006000Y-83963000D03*
X51006000Y-83563000D03*
X51006000Y-83163000D03*
X51006000Y-82763000D03*
D20*
X48006000Y-84963000D03*
D21*
X65957000Y-88413000D03*
X66457000Y-88413000D03*
X66957000Y-88413000D03*
X67457000Y-88413000D03*
X67957000Y-88413000D03*
X68457000Y-88413000D03*
X68957000Y-88413000D03*
X69457000Y-88413000D03*
X69957000Y-88413000D03*
X70457000Y-88413000D03*
X70957000Y-88413000D03*
X71457000Y-88413000D03*
D22*
X72157000Y-87713000D03*
X72157000Y-87213000D03*
X72157000Y-86713000D03*
X72157000Y-86213000D03*
X72157000Y-85713000D03*
X72157000Y-85213000D03*
X72157000Y-84713000D03*
X72157000Y-84213000D03*
X72157000Y-83713000D03*
X72157000Y-83213000D03*
X72157000Y-82713000D03*
X72157000Y-82213000D03*
D21*
X71457000Y-81513000D03*
X70957000Y-81513000D03*
X70457000Y-81513000D03*
X69957000Y-81513000D03*
X69457000Y-81513000D03*
X68957000Y-81513000D03*
X68457000Y-81513000D03*
X67957000Y-81513000D03*
X67457000Y-81513000D03*
X66957000Y-81513000D03*
X66457000Y-81513000D03*
X65957000Y-81513000D03*
D22*
X65257000Y-82213000D03*
X65257000Y-82713000D03*
X65257000Y-83213000D03*
X65257000Y-83713000D03*
X65257000Y-84213000D03*
X65257000Y-84713000D03*
X65257000Y-85213000D03*
X65257000Y-85713000D03*
X65257000Y-86213000D03*
X65257000Y-86713000D03*
X65257000Y-87213000D03*
X65257000Y-87713000D03*
D23*
X68707000Y-84963000D03*
D24*
X49530000Y-77004000D03*
X49530000Y-75904000D03*
D25*
X81600000Y-111871760D03*
X83500000Y-111871760D03*
X82550000Y-109872780D03*
D12*
X54864000Y-69469000D03*
X57404000Y-69469000D03*
X52324000Y-69469000D03*
D13*
X57064000Y-71037000D03*
X57764000Y-71037000D03*
X57064000Y-70037000D03*
X57064000Y-69037000D03*
X57764000Y-69037000D03*
X57764000Y-70037000D03*
X52664000Y-71037000D03*
X52664000Y-70037000D03*
X52664000Y-69037000D03*
X51964000Y-69037000D03*
X51964000Y-70037000D03*
X51964000Y-71037000D03*
D26*
X52697380Y-72473820D03*
X52197000Y-72473820D03*
X51696620Y-72473820D03*
X51696620Y-73322180D03*
X52197000Y-73322180D03*
X52697380Y-73322180D03*
X42552620Y-73322180D03*
X43053000Y-73322180D03*
X43553380Y-73322180D03*
X43553380Y-72473820D03*
X43053000Y-72473820D03*
X42552620Y-72473820D03*
D12*
X40386000Y-69342000D03*
X42926000Y-69342000D03*
X37846000Y-69342000D03*
D13*
X42586000Y-70910000D03*
X43286000Y-70910000D03*
X42586000Y-69910000D03*
X42586000Y-68910000D03*
X43286000Y-68910000D03*
X43286000Y-69910000D03*
X38186000Y-70910000D03*
X38186000Y-69910000D03*
X38186000Y-68910000D03*
X37486000Y-68910000D03*
X37486000Y-69910000D03*
X37486000Y-70910000D03*
D27*
X40551100Y-101175820D03*
X38950900Y-98976180D03*
X40551100Y-98976180D03*
X38950900Y-101175820D03*
D28*
X81534000Y-107315000D03*
X83566000Y-107315000D03*
D12*
X54864000Y-115824000D03*
X52324000Y-115824000D03*
X57404000Y-115824000D03*
D13*
X52664000Y-114256000D03*
X51964000Y-114256000D03*
X52664000Y-115256000D03*
X52664000Y-116256000D03*
X51964000Y-116256000D03*
X51964000Y-115256000D03*
X57064000Y-114256000D03*
X57064000Y-115256000D03*
X57064000Y-116256000D03*
X57764000Y-116256000D03*
X57764000Y-115256000D03*
X57764000Y-114256000D03*
D29*
X49504600Y-74803000D03*
X50571400Y-74803000D03*
X49504600Y-78105000D03*
X50571400Y-78105000D03*
X44678600Y-74803000D03*
X45745400Y-74803000D03*
X44678600Y-78105000D03*
X45745400Y-78105000D03*
D24*
X48006000Y-79798000D03*
X48006000Y-78698000D03*
X42989500Y-82274500D03*
X42989500Y-81174500D03*
X51816000Y-79798000D03*
X51816000Y-78698000D03*
X69342000Y-90509000D03*
X69342000Y-91609000D03*
D14*
X42968000Y-86487000D03*
X41868000Y-86487000D03*
D30*
X42968000Y-84709000D03*
X41868000Y-84709000D03*
D24*
X47244000Y-89747000D03*
X47244000Y-90847000D03*
X70993000Y-90509000D03*
X70993000Y-91609000D03*
D14*
X63161000Y-82931000D03*
X62061000Y-82931000D03*
X42968000Y-85598000D03*
X41868000Y-85598000D03*
X63161000Y-85217000D03*
X62061000Y-85217000D03*
X53234500Y-83312000D03*
X54334500Y-83312000D03*
X63288000Y-87122000D03*
X62188000Y-87122000D03*
D24*
X52578000Y-104860000D03*
X52578000Y-105960000D03*
X67056000Y-79163000D03*
X67056000Y-78063000D03*
X86106000Y-111929000D03*
X86106000Y-110829000D03*
D14*
X78147000Y-107061000D03*
X77047000Y-107061000D03*
D24*
X50546000Y-77004000D03*
X50546000Y-75904000D03*
X58166000Y-89747000D03*
X58166000Y-90847000D03*
X58166000Y-94192000D03*
X58166000Y-95292000D03*
X45720000Y-77004000D03*
X45720000Y-75904000D03*
X46355000Y-89747000D03*
X46355000Y-90847000D03*
D14*
X70760500Y-93472000D03*
X71860500Y-93472000D03*
X69638000Y-93472000D03*
X68538000Y-93472000D03*
X66125000Y-93472000D03*
X67225000Y-93472000D03*
X65002500Y-93472000D03*
X63902500Y-93472000D03*
D24*
X44704000Y-77004000D03*
X44704000Y-75904000D03*
X43434000Y-89704000D03*
X43434000Y-88604000D03*
X46482000Y-99483000D03*
X46482000Y-98383000D03*
X66294000Y-90509000D03*
X66294000Y-91609000D03*
D14*
X39201000Y-102616000D03*
X40301000Y-102616000D03*
D24*
X37592000Y-100626000D03*
X37592000Y-99526000D03*
D14*
X38820000Y-85598000D03*
X39920000Y-85598000D03*
D24*
X40894000Y-89704000D03*
X40894000Y-88604000D03*
D14*
X39920000Y-84709000D03*
X38820000Y-84709000D03*
X55414000Y-100965000D03*
X54314000Y-100965000D03*
X55414000Y-104013000D03*
X54314000Y-104013000D03*
X55414000Y-107061000D03*
X54314000Y-107061000D03*
X54314000Y-111760000D03*
X55414000Y-111760000D03*
D24*
X52578000Y-102658000D03*
X52578000Y-101558000D03*
X84836000Y-111929000D03*
X84836000Y-110829000D03*
X48133000Y-99483000D03*
X48133000Y-98383000D03*
D30*
X51520000Y-107061000D03*
X52620000Y-107061000D03*
D14*
X40936000Y-111760000D03*
X39836000Y-111760000D03*
X55414000Y-110363000D03*
X54314000Y-110363000D03*
D31*
X85921000Y-113284000D03*
X85021000Y-113284000D03*
X58362000Y-81788000D03*
X57462000Y-81788000D03*
X58362000Y-82804000D03*
X57462000Y-82804000D03*
X58362000Y-86360000D03*
X57462000Y-86360000D03*
X58362000Y-87376000D03*
X57462000Y-87376000D03*
X56330000Y-87376000D03*
X55430000Y-87376000D03*
X57462000Y-85344000D03*
X58362000Y-85344000D03*
X57462000Y-83947000D03*
X58362000Y-83947000D03*
X56330000Y-81788000D03*
X55430000Y-81788000D03*
X57092000Y-89789000D03*
X56192000Y-89789000D03*
X57092000Y-90805000D03*
X56192000Y-90805000D03*
X57092000Y-94234000D03*
X56192000Y-94234000D03*
X57092000Y-95250000D03*
X56192000Y-95250000D03*
D32*
X45212000Y-90747000D03*
X45212000Y-89847000D03*
D31*
X42614000Y-88646000D03*
X41714000Y-88646000D03*
X42614000Y-89662000D03*
X41714000Y-89662000D03*
X55314000Y-102235000D03*
X54414000Y-102235000D03*
X55314000Y-105283000D03*
X54414000Y-105283000D03*
X55314000Y-108331000D03*
X54414000Y-108331000D03*
X39936000Y-110363000D03*
X40836000Y-110363000D03*
X52266000Y-111760000D03*
X51366000Y-111760000D03*
X88969000Y-114046000D03*
X88069000Y-114046000D03*
X76904000Y-91440000D03*
X76004000Y-91440000D03*
X76904000Y-81026000D03*
X76004000Y-81026000D03*
X76004000Y-82296000D03*
X76904000Y-82296000D03*
X76904000Y-83566000D03*
X76004000Y-83566000D03*
X76004000Y-84836000D03*
X76904000Y-84836000D03*
X76004000Y-87630000D03*
X76904000Y-87630000D03*
X76004000Y-90170000D03*
X76904000Y-90170000D03*
X76004000Y-88900000D03*
X76904000Y-88900000D03*
D33*
X63500000Y-70300000D03*
X63500000Y-69400000D03*
X31750000Y-70300000D03*
X31750000Y-69400000D03*
D34*
X71813000Y-113665000D03*
X72713000Y-113665000D03*
D35*
X63500000Y-73139300D03*
X63500000Y-71640700D03*
X31750000Y-73139300D03*
X31750000Y-71640700D03*
X73012300Y-111760000D03*
X71513700Y-111760000D03*
D14*
X75904000Y-86106000D03*
X77004000Y-86106000D03*
D32*
X37084000Y-74480000D03*
X37084000Y-75380000D03*
D14*
X53234500Y-87376000D03*
X54334500Y-87376000D03*
D24*
X40386000Y-73448000D03*
X40386000Y-72348000D03*
D36*
X46482000Y-96710500D03*
X47625000Y-71120000D03*
X47752000Y-113411000D03*
D37*
X34798000Y-72390000D03*
D38*
X77597000Y-111760000D03*
D39*
X77597000Y-109220000D03*
D14*
X53234500Y-85852000D03*
X54334500Y-85852000D03*
D11*
X51816000Y-76708000D03*
D36*
X36576000Y-86360000D03*
X57404000Y-101092000D03*
D11*
X38608000Y-77470000D03*
D38*
X24713000Y-73679000D03*
D39*
X22173000Y-73679000D03*
X24713000Y-76219000D03*
X22173000Y-76219000D03*
X24713000Y-78759000D03*
X22173000Y-78759000D03*
X24713000Y-81299000D03*
X22173000Y-81299000D03*
X24713000Y-83839000D03*
X22173000Y-83839000D03*
X24713000Y-86379000D03*
X22173000Y-86379000D03*
X24713000Y-88919000D03*
X22173000Y-88919000D03*
X24713000Y-91459000D03*
X22173000Y-91459000D03*
X24713000Y-93999000D03*
X22173000Y-93999000D03*
X24713000Y-96539000D03*
X22173000Y-96539000D03*
X24713000Y-99079000D03*
X22173000Y-99079000D03*
X24713000Y-101619000D03*
X22173000Y-101619000D03*
X24713000Y-104159000D03*
X22173000Y-104159000D03*
X24713000Y-106699000D03*
X22173000Y-106699000D03*
D38*
X85213000Y-76219000D03*
D39*
X82673000Y-76219000D03*
X85213000Y-78759000D03*
X82673000Y-78759000D03*
X85213000Y-81299000D03*
X82673000Y-81299000D03*
X85213000Y-83839000D03*
X82673000Y-83839000D03*
X85213000Y-86379000D03*
X82673000Y-86379000D03*
X85213000Y-88919000D03*
X82673000Y-88919000D03*
X85213000Y-91459000D03*
X82673000Y-91459000D03*
X85213000Y-93999000D03*
X82673000Y-93999000D03*
X85213000Y-96539000D03*
X82673000Y-96539000D03*
X85213000Y-99079000D03*
X82673000Y-99079000D03*
X85213000Y-101619000D03*
X82673000Y-101619000D03*
X85213000Y-104159000D03*
X82673000Y-104159000D03*
D38*
X91213000Y-68599000D03*
D39*
X88673000Y-68599000D03*
X91213000Y-71139000D03*
X88673000Y-71139000D03*
X91213000Y-73679000D03*
X88673000Y-73679000D03*
X91213000Y-76219000D03*
X88673000Y-76219000D03*
X91213000Y-78759000D03*
X88673000Y-78759000D03*
X91213000Y-81299000D03*
X88673000Y-81299000D03*
X91213000Y-83839000D03*
X88673000Y-83839000D03*
X91213000Y-86379000D03*
X88673000Y-86379000D03*
X91213000Y-88919000D03*
X88673000Y-88919000D03*
X91213000Y-91459000D03*
X88673000Y-91459000D03*
X91213000Y-93999000D03*
X88673000Y-93999000D03*
X91213000Y-96539000D03*
X88673000Y-96539000D03*
X91213000Y-99079000D03*
X88673000Y-99079000D03*
X91213000Y-101619000D03*
X88673000Y-101619000D03*
X91213000Y-104159000D03*
X88673000Y-104159000D03*
X91213000Y-106699000D03*
X88673000Y-106699000D03*
X91213000Y-109239000D03*
X88673000Y-109239000D03*
X91213000Y-111779000D03*
X88673000Y-111779000D03*
D11*
X43942000Y-77470000D03*
X78232000Y-86106000D03*
X42672000Y-76962000D03*
X54038500Y-82169000D03*
X60706000Y-73914000D03*
X58420000Y-77851000D03*
X26924000Y-78740000D03*
M02*
