G04 #@! TF.FileFunction,Legend,Bot*
%FSLAX46Y46*%
G04 Gerber Fmt 4.6, Leading zero omitted, Abs format (unit mm)*
G04 Created by KiCad (PCBNEW 4.0.0-rc1-stable) date 26/07/2016 12:52:27*
%MOMM*%
G01*
G04 APERTURE LIST*
%ADD10C,0.100000*%
%ADD11C,0.150000*%
%ADD12C,0.110000*%
%ADD13C,0.125000*%
%ADD14C,0.120000*%
G04 APERTURE END LIST*
D10*
D11*
X50804000Y-86012000D02*
X51304000Y-86012000D01*
X51304000Y-86962000D02*
X50804000Y-86962000D01*
X49944000Y-82165000D02*
X49944000Y-81665000D01*
X50894000Y-81665000D02*
X50894000Y-82165000D01*
X47531000Y-82165000D02*
X47531000Y-81665000D01*
X48481000Y-81665000D02*
X48481000Y-82165000D01*
X65782000Y-83787000D02*
X65282000Y-83787000D01*
X65282000Y-82837000D02*
X65782000Y-82837000D01*
X50804000Y-82964000D02*
X51304000Y-82964000D01*
X51304000Y-83914000D02*
X50804000Y-83914000D01*
X69182000Y-87888000D02*
X69182000Y-88388000D01*
X68232000Y-88388000D02*
X68232000Y-87888000D01*
X65782000Y-85438000D02*
X65282000Y-85438000D01*
X65282000Y-84488000D02*
X65782000Y-84488000D01*
X65782000Y-87089000D02*
X65282000Y-87089000D01*
X65282000Y-86139000D02*
X65782000Y-86139000D01*
X66581000Y-82038000D02*
X66581000Y-81538000D01*
X67531000Y-81538000D02*
X67531000Y-82038000D01*
X62488000Y-87663000D02*
X62988000Y-87663000D01*
X62988000Y-88613000D02*
X62488000Y-88613000D01*
X62488000Y-88679000D02*
X62988000Y-88679000D01*
X62988000Y-89629000D02*
X62488000Y-89629000D01*
X62488000Y-89568000D02*
X62988000Y-89568000D01*
X62988000Y-90518000D02*
X62488000Y-90518000D01*
X67531000Y-87888000D02*
X67531000Y-88388000D01*
X66581000Y-88388000D02*
X66581000Y-87888000D01*
X29735000Y-105160000D02*
X29735000Y-105660000D01*
X28685000Y-105660000D02*
X28685000Y-105160000D01*
X32275000Y-105160000D02*
X32275000Y-105660000D01*
X31225000Y-105660000D02*
X31225000Y-105160000D01*
X31005000Y-105160000D02*
X31005000Y-105660000D01*
X29955000Y-105660000D02*
X29955000Y-105160000D01*
X29955000Y-107819000D02*
X29955000Y-107319000D01*
X31005000Y-107319000D02*
X31005000Y-107819000D01*
X45208000Y-84930000D02*
X44708000Y-84930000D01*
X44708000Y-83980000D02*
X45208000Y-83980000D01*
X45208000Y-86962000D02*
X44708000Y-86962000D01*
X44708000Y-86012000D02*
X45208000Y-86012000D01*
X45208000Y-83914000D02*
X44708000Y-83914000D01*
X44708000Y-82964000D02*
X45208000Y-82964000D01*
X70833000Y-87888000D02*
X70833000Y-88388000D01*
X69883000Y-88388000D02*
X69883000Y-87888000D01*
X45208000Y-85946000D02*
X44708000Y-85946000D01*
X44708000Y-84996000D02*
X45208000Y-84996000D01*
X71759000Y-84488000D02*
X72259000Y-84488000D01*
X72259000Y-85438000D02*
X71759000Y-85438000D01*
X50804000Y-84488000D02*
X51304000Y-84488000D01*
X51304000Y-85438000D02*
X50804000Y-85438000D01*
X50042000Y-103665000D02*
X50542000Y-103665000D01*
X50542000Y-104615000D02*
X50042000Y-104615000D01*
X49243000Y-105414000D02*
X49243000Y-105914000D01*
X48293000Y-105914000D02*
X48293000Y-105414000D01*
X50042000Y-102141000D02*
X50542000Y-102141000D01*
X50542000Y-103091000D02*
X50042000Y-103091000D01*
X46515000Y-101342000D02*
X46515000Y-100842000D01*
X47465000Y-100842000D02*
X47465000Y-101342000D01*
X48293000Y-101342000D02*
X48293000Y-100842000D01*
X49243000Y-100842000D02*
X49243000Y-101342000D01*
X20903000Y-107969000D02*
X20903000Y-72409000D01*
X25983000Y-74949000D02*
X25983000Y-107969000D01*
X20903000Y-107969000D02*
X25983000Y-107969000D01*
X20903000Y-72409000D02*
X23443000Y-72409000D01*
X25983000Y-72409000D02*
X25983000Y-74949000D01*
X23443000Y-72409000D02*
X23443000Y-74949000D01*
X23443000Y-74949000D02*
X25983000Y-74949000D01*
X25983000Y-72409000D02*
X23443000Y-72409000D01*
X81403000Y-105429000D02*
X81403000Y-74949000D01*
X86483000Y-77489000D02*
X86483000Y-105429000D01*
X81403000Y-105429000D02*
X86483000Y-105429000D01*
X81403000Y-74949000D02*
X83943000Y-74949000D01*
X86483000Y-74949000D02*
X86483000Y-77489000D01*
X83943000Y-74949000D02*
X83943000Y-77489000D01*
X83943000Y-77489000D02*
X86483000Y-77489000D01*
X86483000Y-74949000D02*
X83943000Y-74949000D01*
X87403000Y-67329000D02*
X87403000Y-113049000D01*
X92483000Y-113049000D02*
X92483000Y-69869000D01*
X87403000Y-113049000D02*
X92483000Y-113049000D01*
X87403000Y-67329000D02*
X89943000Y-67329000D01*
X92483000Y-67329000D02*
X92483000Y-69869000D01*
X89943000Y-67329000D02*
X89943000Y-69869000D01*
X89943000Y-69869000D02*
X92483000Y-69869000D01*
X92483000Y-67329000D02*
X89943000Y-67329000D01*
D12*
X52788333Y-86665571D02*
X52812143Y-86689381D01*
X52883571Y-86713190D01*
X52931190Y-86713190D01*
X53002619Y-86689381D01*
X53050238Y-86641762D01*
X53074047Y-86594143D01*
X53097857Y-86498905D01*
X53097857Y-86427476D01*
X53074047Y-86332238D01*
X53050238Y-86284619D01*
X53002619Y-86237000D01*
X52931190Y-86213190D01*
X52883571Y-86213190D01*
X52812143Y-86237000D01*
X52788333Y-86260810D01*
X52359762Y-86379857D02*
X52359762Y-86713190D01*
X52478809Y-86189381D02*
X52597857Y-86546524D01*
X52288333Y-86546524D01*
X49486333Y-82093571D02*
X49510143Y-82117381D01*
X49581571Y-82141190D01*
X49629190Y-82141190D01*
X49700619Y-82117381D01*
X49748238Y-82069762D01*
X49772047Y-82022143D01*
X49795857Y-81926905D01*
X49795857Y-81855476D01*
X49772047Y-81760238D01*
X49748238Y-81712619D01*
X49700619Y-81665000D01*
X49629190Y-81641190D01*
X49581571Y-81641190D01*
X49510143Y-81665000D01*
X49486333Y-81688810D01*
X49033952Y-81641190D02*
X49272047Y-81641190D01*
X49295857Y-81879286D01*
X49272047Y-81855476D01*
X49224428Y-81831667D01*
X49105381Y-81831667D01*
X49057762Y-81855476D01*
X49033952Y-81879286D01*
X49010143Y-81926905D01*
X49010143Y-82045952D01*
X49033952Y-82093571D01*
X49057762Y-82117381D01*
X49105381Y-82141190D01*
X49224428Y-82141190D01*
X49272047Y-82117381D01*
X49295857Y-82093571D01*
X47200333Y-82093571D02*
X47224143Y-82117381D01*
X47295571Y-82141190D01*
X47343190Y-82141190D01*
X47414619Y-82117381D01*
X47462238Y-82069762D01*
X47486047Y-82022143D01*
X47509857Y-81926905D01*
X47509857Y-81855476D01*
X47486047Y-81760238D01*
X47462238Y-81712619D01*
X47414619Y-81665000D01*
X47343190Y-81641190D01*
X47295571Y-81641190D01*
X47224143Y-81665000D01*
X47200333Y-81688810D01*
X46771762Y-81641190D02*
X46867000Y-81641190D01*
X46914619Y-81665000D01*
X46938428Y-81688810D01*
X46986047Y-81760238D01*
X47009857Y-81855476D01*
X47009857Y-82045952D01*
X46986047Y-82093571D01*
X46962238Y-82117381D01*
X46914619Y-82141190D01*
X46819381Y-82141190D01*
X46771762Y-82117381D01*
X46747952Y-82093571D01*
X46724143Y-82045952D01*
X46724143Y-81926905D01*
X46747952Y-81879286D01*
X46771762Y-81855476D01*
X46819381Y-81831667D01*
X46914619Y-81831667D01*
X46962238Y-81855476D01*
X46986047Y-81879286D01*
X47009857Y-81926905D01*
X63186428Y-83363571D02*
X63210238Y-83387381D01*
X63281666Y-83411190D01*
X63329285Y-83411190D01*
X63400714Y-83387381D01*
X63448333Y-83339762D01*
X63472142Y-83292143D01*
X63495952Y-83196905D01*
X63495952Y-83125476D01*
X63472142Y-83030238D01*
X63448333Y-82982619D01*
X63400714Y-82935000D01*
X63329285Y-82911190D01*
X63281666Y-82911190D01*
X63210238Y-82935000D01*
X63186428Y-82958810D01*
X62710238Y-83411190D02*
X62995952Y-83411190D01*
X62853095Y-83411190D02*
X62853095Y-82911190D01*
X62900714Y-82982619D01*
X62948333Y-83030238D01*
X62995952Y-83054048D01*
X62543571Y-82911190D02*
X62234048Y-82911190D01*
X62400714Y-83101667D01*
X62329286Y-83101667D01*
X62281667Y-83125476D01*
X62257857Y-83149286D01*
X62234048Y-83196905D01*
X62234048Y-83315952D01*
X62257857Y-83363571D01*
X62281667Y-83387381D01*
X62329286Y-83411190D01*
X62472143Y-83411190D01*
X62519762Y-83387381D01*
X62543571Y-83363571D01*
X53661428Y-83617571D02*
X53685238Y-83641381D01*
X53756666Y-83665190D01*
X53804285Y-83665190D01*
X53875714Y-83641381D01*
X53923333Y-83593762D01*
X53947142Y-83546143D01*
X53970952Y-83450905D01*
X53970952Y-83379476D01*
X53947142Y-83284238D01*
X53923333Y-83236619D01*
X53875714Y-83189000D01*
X53804285Y-83165190D01*
X53756666Y-83165190D01*
X53685238Y-83189000D01*
X53661428Y-83212810D01*
X53185238Y-83665190D02*
X53470952Y-83665190D01*
X53328095Y-83665190D02*
X53328095Y-83165190D01*
X53375714Y-83236619D01*
X53423333Y-83284238D01*
X53470952Y-83308048D01*
X52732857Y-83165190D02*
X52970952Y-83165190D01*
X52994762Y-83403286D01*
X52970952Y-83379476D01*
X52923333Y-83355667D01*
X52804286Y-83355667D01*
X52756667Y-83379476D01*
X52732857Y-83403286D01*
X52709048Y-83450905D01*
X52709048Y-83569952D01*
X52732857Y-83617571D01*
X52756667Y-83641381D01*
X52804286Y-83665190D01*
X52923333Y-83665190D01*
X52970952Y-83641381D01*
X52994762Y-83617571D01*
X68123571Y-87816572D02*
X68147381Y-87792762D01*
X68171190Y-87721334D01*
X68171190Y-87673715D01*
X68147381Y-87602286D01*
X68099762Y-87554667D01*
X68052143Y-87530858D01*
X67956905Y-87507048D01*
X67885476Y-87507048D01*
X67790238Y-87530858D01*
X67742619Y-87554667D01*
X67695000Y-87602286D01*
X67671190Y-87673715D01*
X67671190Y-87721334D01*
X67695000Y-87792762D01*
X67718810Y-87816572D01*
X68171190Y-88292762D02*
X68171190Y-88007048D01*
X68171190Y-88149905D02*
X67671190Y-88149905D01*
X67742619Y-88102286D01*
X67790238Y-88054667D01*
X67814048Y-88007048D01*
X67671190Y-88721333D02*
X67671190Y-88626095D01*
X67695000Y-88578476D01*
X67718810Y-88554667D01*
X67790238Y-88507048D01*
X67885476Y-88483238D01*
X68075952Y-88483238D01*
X68123571Y-88507048D01*
X68147381Y-88530857D01*
X68171190Y-88578476D01*
X68171190Y-88673714D01*
X68147381Y-88721333D01*
X68123571Y-88745143D01*
X68075952Y-88768952D01*
X67956905Y-88768952D01*
X67909286Y-88745143D01*
X67885476Y-88721333D01*
X67861667Y-88673714D01*
X67861667Y-88578476D01*
X67885476Y-88530857D01*
X67909286Y-88507048D01*
X67956905Y-88483238D01*
X63313428Y-85141571D02*
X63337238Y-85165381D01*
X63408666Y-85189190D01*
X63456285Y-85189190D01*
X63527714Y-85165381D01*
X63575333Y-85117762D01*
X63599142Y-85070143D01*
X63622952Y-84974905D01*
X63622952Y-84903476D01*
X63599142Y-84808238D01*
X63575333Y-84760619D01*
X63527714Y-84713000D01*
X63456285Y-84689190D01*
X63408666Y-84689190D01*
X63337238Y-84713000D01*
X63313428Y-84736810D01*
X62837238Y-85189190D02*
X63122952Y-85189190D01*
X62980095Y-85189190D02*
X62980095Y-84689190D01*
X63027714Y-84760619D01*
X63075333Y-84808238D01*
X63122952Y-84832048D01*
X62551524Y-84903476D02*
X62599143Y-84879667D01*
X62622952Y-84855857D01*
X62646762Y-84808238D01*
X62646762Y-84784429D01*
X62622952Y-84736810D01*
X62599143Y-84713000D01*
X62551524Y-84689190D01*
X62456286Y-84689190D01*
X62408667Y-84713000D01*
X62384857Y-84736810D01*
X62361048Y-84784429D01*
X62361048Y-84808238D01*
X62384857Y-84855857D01*
X62408667Y-84879667D01*
X62456286Y-84903476D01*
X62551524Y-84903476D01*
X62599143Y-84927286D01*
X62622952Y-84951095D01*
X62646762Y-84998714D01*
X62646762Y-85093952D01*
X62622952Y-85141571D01*
X62599143Y-85165381D01*
X62551524Y-85189190D01*
X62456286Y-85189190D01*
X62408667Y-85165381D01*
X62384857Y-85141571D01*
X62361048Y-85093952D01*
X62361048Y-84998714D01*
X62384857Y-84951095D01*
X62408667Y-84927286D01*
X62456286Y-84903476D01*
X63313428Y-86792571D02*
X63337238Y-86816381D01*
X63408666Y-86840190D01*
X63456285Y-86840190D01*
X63527714Y-86816381D01*
X63575333Y-86768762D01*
X63599142Y-86721143D01*
X63622952Y-86625905D01*
X63622952Y-86554476D01*
X63599142Y-86459238D01*
X63575333Y-86411619D01*
X63527714Y-86364000D01*
X63456285Y-86340190D01*
X63408666Y-86340190D01*
X63337238Y-86364000D01*
X63313428Y-86387810D01*
X62837238Y-86840190D02*
X63122952Y-86840190D01*
X62980095Y-86840190D02*
X62980095Y-86340190D01*
X63027714Y-86411619D01*
X63075333Y-86459238D01*
X63122952Y-86483048D01*
X62599143Y-86840190D02*
X62503905Y-86840190D01*
X62456286Y-86816381D01*
X62432476Y-86792571D01*
X62384857Y-86721143D01*
X62361048Y-86625905D01*
X62361048Y-86435429D01*
X62384857Y-86387810D01*
X62408667Y-86364000D01*
X62456286Y-86340190D01*
X62551524Y-86340190D01*
X62599143Y-86364000D01*
X62622952Y-86387810D01*
X62646762Y-86435429D01*
X62646762Y-86554476D01*
X62622952Y-86602095D01*
X62599143Y-86625905D01*
X62551524Y-86649714D01*
X62456286Y-86649714D01*
X62408667Y-86625905D01*
X62384857Y-86602095D01*
X62361048Y-86554476D01*
X66234428Y-81458571D02*
X66258238Y-81482381D01*
X66329666Y-81506190D01*
X66377285Y-81506190D01*
X66448714Y-81482381D01*
X66496333Y-81434762D01*
X66520142Y-81387143D01*
X66543952Y-81291905D01*
X66543952Y-81220476D01*
X66520142Y-81125238D01*
X66496333Y-81077619D01*
X66448714Y-81030000D01*
X66377285Y-81006190D01*
X66329666Y-81006190D01*
X66258238Y-81030000D01*
X66234428Y-81053810D01*
X66043952Y-81053810D02*
X66020142Y-81030000D01*
X65972523Y-81006190D01*
X65853476Y-81006190D01*
X65805857Y-81030000D01*
X65782047Y-81053810D01*
X65758238Y-81101429D01*
X65758238Y-81149048D01*
X65782047Y-81220476D01*
X66067761Y-81506190D01*
X65758238Y-81506190D01*
X65591571Y-81006190D02*
X65282048Y-81006190D01*
X65448714Y-81196667D01*
X65377286Y-81196667D01*
X65329667Y-81220476D01*
X65305857Y-81244286D01*
X65282048Y-81291905D01*
X65282048Y-81410952D01*
X65305857Y-81458571D01*
X65329667Y-81482381D01*
X65377286Y-81506190D01*
X65520143Y-81506190D01*
X65567762Y-81482381D01*
X65591571Y-81458571D01*
X61281428Y-88316571D02*
X61305238Y-88340381D01*
X61376666Y-88364190D01*
X61424285Y-88364190D01*
X61495714Y-88340381D01*
X61543333Y-88292762D01*
X61567142Y-88245143D01*
X61590952Y-88149905D01*
X61590952Y-88078476D01*
X61567142Y-87983238D01*
X61543333Y-87935619D01*
X61495714Y-87888000D01*
X61424285Y-87864190D01*
X61376666Y-87864190D01*
X61305238Y-87888000D01*
X61281428Y-87911810D01*
X61090952Y-87911810D02*
X61067142Y-87888000D01*
X61019523Y-87864190D01*
X60900476Y-87864190D01*
X60852857Y-87888000D01*
X60829047Y-87911810D01*
X60805238Y-87959429D01*
X60805238Y-88007048D01*
X60829047Y-88078476D01*
X61114761Y-88364190D01*
X60805238Y-88364190D01*
X60519524Y-88078476D02*
X60567143Y-88054667D01*
X60590952Y-88030857D01*
X60614762Y-87983238D01*
X60614762Y-87959429D01*
X60590952Y-87911810D01*
X60567143Y-87888000D01*
X60519524Y-87864190D01*
X60424286Y-87864190D01*
X60376667Y-87888000D01*
X60352857Y-87911810D01*
X60329048Y-87959429D01*
X60329048Y-87983238D01*
X60352857Y-88030857D01*
X60376667Y-88054667D01*
X60424286Y-88078476D01*
X60519524Y-88078476D01*
X60567143Y-88102286D01*
X60590952Y-88126095D01*
X60614762Y-88173714D01*
X60614762Y-88268952D01*
X60590952Y-88316571D01*
X60567143Y-88340381D01*
X60519524Y-88364190D01*
X60424286Y-88364190D01*
X60376667Y-88340381D01*
X60352857Y-88316571D01*
X60329048Y-88268952D01*
X60329048Y-88173714D01*
X60352857Y-88126095D01*
X60376667Y-88102286D01*
X60424286Y-88078476D01*
X61281428Y-89332571D02*
X61305238Y-89356381D01*
X61376666Y-89380190D01*
X61424285Y-89380190D01*
X61495714Y-89356381D01*
X61543333Y-89308762D01*
X61567142Y-89261143D01*
X61590952Y-89165905D01*
X61590952Y-89094476D01*
X61567142Y-88999238D01*
X61543333Y-88951619D01*
X61495714Y-88904000D01*
X61424285Y-88880190D01*
X61376666Y-88880190D01*
X61305238Y-88904000D01*
X61281428Y-88927810D01*
X61090952Y-88927810D02*
X61067142Y-88904000D01*
X61019523Y-88880190D01*
X60900476Y-88880190D01*
X60852857Y-88904000D01*
X60829047Y-88927810D01*
X60805238Y-88975429D01*
X60805238Y-89023048D01*
X60829047Y-89094476D01*
X61114761Y-89380190D01*
X60805238Y-89380190D01*
X60567143Y-89380190D02*
X60471905Y-89380190D01*
X60424286Y-89356381D01*
X60400476Y-89332571D01*
X60352857Y-89261143D01*
X60329048Y-89165905D01*
X60329048Y-88975429D01*
X60352857Y-88927810D01*
X60376667Y-88904000D01*
X60424286Y-88880190D01*
X60519524Y-88880190D01*
X60567143Y-88904000D01*
X60590952Y-88927810D01*
X60614762Y-88975429D01*
X60614762Y-89094476D01*
X60590952Y-89142095D01*
X60567143Y-89165905D01*
X60519524Y-89189714D01*
X60424286Y-89189714D01*
X60376667Y-89165905D01*
X60352857Y-89142095D01*
X60329048Y-89094476D01*
X61281428Y-90221571D02*
X61305238Y-90245381D01*
X61376666Y-90269190D01*
X61424285Y-90269190D01*
X61495714Y-90245381D01*
X61543333Y-90197762D01*
X61567142Y-90150143D01*
X61590952Y-90054905D01*
X61590952Y-89983476D01*
X61567142Y-89888238D01*
X61543333Y-89840619D01*
X61495714Y-89793000D01*
X61424285Y-89769190D01*
X61376666Y-89769190D01*
X61305238Y-89793000D01*
X61281428Y-89816810D01*
X61114761Y-89769190D02*
X60805238Y-89769190D01*
X60971904Y-89959667D01*
X60900476Y-89959667D01*
X60852857Y-89983476D01*
X60829047Y-90007286D01*
X60805238Y-90054905D01*
X60805238Y-90173952D01*
X60829047Y-90221571D01*
X60852857Y-90245381D01*
X60900476Y-90269190D01*
X61043333Y-90269190D01*
X61090952Y-90245381D01*
X61114761Y-90221571D01*
X60614762Y-89816810D02*
X60590952Y-89793000D01*
X60543333Y-89769190D01*
X60424286Y-89769190D01*
X60376667Y-89793000D01*
X60352857Y-89816810D01*
X60329048Y-89864429D01*
X60329048Y-89912048D01*
X60352857Y-89983476D01*
X60638571Y-90269190D01*
X60329048Y-90269190D01*
X66345571Y-87816572D02*
X66369381Y-87792762D01*
X66393190Y-87721334D01*
X66393190Y-87673715D01*
X66369381Y-87602286D01*
X66321762Y-87554667D01*
X66274143Y-87530858D01*
X66178905Y-87507048D01*
X66107476Y-87507048D01*
X66012238Y-87530858D01*
X65964619Y-87554667D01*
X65917000Y-87602286D01*
X65893190Y-87673715D01*
X65893190Y-87721334D01*
X65917000Y-87792762D01*
X65940810Y-87816572D01*
X66059857Y-88245143D02*
X66393190Y-88245143D01*
X65869381Y-88126096D02*
X66226524Y-88007048D01*
X66226524Y-88316572D01*
X65893190Y-88721333D02*
X65893190Y-88626095D01*
X65917000Y-88578476D01*
X65940810Y-88554667D01*
X66012238Y-88507048D01*
X66107476Y-88483238D01*
X66297952Y-88483238D01*
X66345571Y-88507048D01*
X66369381Y-88530857D01*
X66393190Y-88578476D01*
X66393190Y-88673714D01*
X66369381Y-88721333D01*
X66345571Y-88745143D01*
X66297952Y-88768952D01*
X66178905Y-88768952D01*
X66131286Y-88745143D01*
X66107476Y-88721333D01*
X66083667Y-88673714D01*
X66083667Y-88578476D01*
X66107476Y-88530857D01*
X66131286Y-88507048D01*
X66178905Y-88483238D01*
X29150428Y-103858190D02*
X29317095Y-103620095D01*
X29436142Y-103858190D02*
X29436142Y-103358190D01*
X29245666Y-103358190D01*
X29198047Y-103382000D01*
X29174238Y-103405810D01*
X29150428Y-103453429D01*
X29150428Y-103524857D01*
X29174238Y-103572476D01*
X29198047Y-103596286D01*
X29245666Y-103620095D01*
X29436142Y-103620095D01*
X28674238Y-103858190D02*
X28959952Y-103858190D01*
X28817095Y-103858190D02*
X28817095Y-103358190D01*
X28864714Y-103429619D01*
X28912333Y-103477238D01*
X28959952Y-103501048D01*
X28507571Y-103358190D02*
X28174238Y-103358190D01*
X28388524Y-103858190D01*
X32325428Y-103858190D02*
X32492095Y-103620095D01*
X32611142Y-103858190D02*
X32611142Y-103358190D01*
X32420666Y-103358190D01*
X32373047Y-103382000D01*
X32349238Y-103405810D01*
X32325428Y-103453429D01*
X32325428Y-103524857D01*
X32349238Y-103572476D01*
X32373047Y-103596286D01*
X32420666Y-103620095D01*
X32611142Y-103620095D01*
X31849238Y-103858190D02*
X32134952Y-103858190D01*
X31992095Y-103858190D02*
X31992095Y-103358190D01*
X32039714Y-103429619D01*
X32087333Y-103477238D01*
X32134952Y-103501048D01*
X31563524Y-103572476D02*
X31611143Y-103548667D01*
X31634952Y-103524857D01*
X31658762Y-103477238D01*
X31658762Y-103453429D01*
X31634952Y-103405810D01*
X31611143Y-103382000D01*
X31563524Y-103358190D01*
X31468286Y-103358190D01*
X31420667Y-103382000D01*
X31396857Y-103405810D01*
X31373048Y-103453429D01*
X31373048Y-103477238D01*
X31396857Y-103524857D01*
X31420667Y-103548667D01*
X31468286Y-103572476D01*
X31563524Y-103572476D01*
X31611143Y-103596286D01*
X31634952Y-103620095D01*
X31658762Y-103667714D01*
X31658762Y-103762952D01*
X31634952Y-103810571D01*
X31611143Y-103834381D01*
X31563524Y-103858190D01*
X31468286Y-103858190D01*
X31420667Y-103834381D01*
X31396857Y-103810571D01*
X31373048Y-103762952D01*
X31373048Y-103667714D01*
X31396857Y-103620095D01*
X31420667Y-103596286D01*
X31468286Y-103572476D01*
X30801428Y-103858190D02*
X30968095Y-103620095D01*
X31087142Y-103858190D02*
X31087142Y-103358190D01*
X30896666Y-103358190D01*
X30849047Y-103382000D01*
X30825238Y-103405810D01*
X30801428Y-103453429D01*
X30801428Y-103524857D01*
X30825238Y-103572476D01*
X30849047Y-103596286D01*
X30896666Y-103620095D01*
X31087142Y-103620095D01*
X30325238Y-103858190D02*
X30610952Y-103858190D01*
X30468095Y-103858190D02*
X30468095Y-103358190D01*
X30515714Y-103429619D01*
X30563333Y-103477238D01*
X30610952Y-103501048D01*
X30087143Y-103858190D02*
X29991905Y-103858190D01*
X29944286Y-103834381D01*
X29920476Y-103810571D01*
X29872857Y-103739143D01*
X29849048Y-103643905D01*
X29849048Y-103453429D01*
X29872857Y-103405810D01*
X29896667Y-103382000D01*
X29944286Y-103358190D01*
X30039524Y-103358190D01*
X30087143Y-103382000D01*
X30110952Y-103405810D01*
X30134762Y-103453429D01*
X30134762Y-103572476D01*
X30110952Y-103620095D01*
X30087143Y-103643905D01*
X30039524Y-103667714D01*
X29944286Y-103667714D01*
X29896667Y-103643905D01*
X29872857Y-103620095D01*
X29849048Y-103572476D01*
X31055428Y-109192190D02*
X31222095Y-108954095D01*
X31341142Y-109192190D02*
X31341142Y-108692190D01*
X31150666Y-108692190D01*
X31103047Y-108716000D01*
X31079238Y-108739810D01*
X31055428Y-108787429D01*
X31055428Y-108858857D01*
X31079238Y-108906476D01*
X31103047Y-108930286D01*
X31150666Y-108954095D01*
X31341142Y-108954095D01*
X30864952Y-108739810D02*
X30841142Y-108716000D01*
X30793523Y-108692190D01*
X30674476Y-108692190D01*
X30626857Y-108716000D01*
X30603047Y-108739810D01*
X30579238Y-108787429D01*
X30579238Y-108835048D01*
X30603047Y-108906476D01*
X30888761Y-109192190D01*
X30579238Y-109192190D01*
X30126857Y-108692190D02*
X30364952Y-108692190D01*
X30388762Y-108930286D01*
X30364952Y-108906476D01*
X30317333Y-108882667D01*
X30198286Y-108882667D01*
X30150667Y-108906476D01*
X30126857Y-108930286D01*
X30103048Y-108977905D01*
X30103048Y-109096952D01*
X30126857Y-109144571D01*
X30150667Y-109168381D01*
X30198286Y-109192190D01*
X30317333Y-109192190D01*
X30364952Y-109168381D01*
X30388762Y-109144571D01*
X42993428Y-84633571D02*
X43017238Y-84657381D01*
X43088666Y-84681190D01*
X43136285Y-84681190D01*
X43207714Y-84657381D01*
X43255333Y-84609762D01*
X43279142Y-84562143D01*
X43302952Y-84466905D01*
X43302952Y-84395476D01*
X43279142Y-84300238D01*
X43255333Y-84252619D01*
X43207714Y-84205000D01*
X43136285Y-84181190D01*
X43088666Y-84181190D01*
X43017238Y-84205000D01*
X42993428Y-84228810D01*
X42564857Y-84181190D02*
X42660095Y-84181190D01*
X42707714Y-84205000D01*
X42731523Y-84228810D01*
X42779142Y-84300238D01*
X42802952Y-84395476D01*
X42802952Y-84585952D01*
X42779142Y-84633571D01*
X42755333Y-84657381D01*
X42707714Y-84681190D01*
X42612476Y-84681190D01*
X42564857Y-84657381D01*
X42541047Y-84633571D01*
X42517238Y-84585952D01*
X42517238Y-84466905D01*
X42541047Y-84419286D01*
X42564857Y-84395476D01*
X42612476Y-84371667D01*
X42707714Y-84371667D01*
X42755333Y-84395476D01*
X42779142Y-84419286D01*
X42802952Y-84466905D01*
X42041048Y-84681190D02*
X42326762Y-84681190D01*
X42183905Y-84681190D02*
X42183905Y-84181190D01*
X42231524Y-84252619D01*
X42279143Y-84300238D01*
X42326762Y-84324048D01*
X42993428Y-86665571D02*
X43017238Y-86689381D01*
X43088666Y-86713190D01*
X43136285Y-86713190D01*
X43207714Y-86689381D01*
X43255333Y-86641762D01*
X43279142Y-86594143D01*
X43302952Y-86498905D01*
X43302952Y-86427476D01*
X43279142Y-86332238D01*
X43255333Y-86284619D01*
X43207714Y-86237000D01*
X43136285Y-86213190D01*
X43088666Y-86213190D01*
X43017238Y-86237000D01*
X42993428Y-86260810D01*
X42564857Y-86213190D02*
X42660095Y-86213190D01*
X42707714Y-86237000D01*
X42731523Y-86260810D01*
X42779142Y-86332238D01*
X42802952Y-86427476D01*
X42802952Y-86617952D01*
X42779142Y-86665571D01*
X42755333Y-86689381D01*
X42707714Y-86713190D01*
X42612476Y-86713190D01*
X42564857Y-86689381D01*
X42541047Y-86665571D01*
X42517238Y-86617952D01*
X42517238Y-86498905D01*
X42541047Y-86451286D01*
X42564857Y-86427476D01*
X42612476Y-86403667D01*
X42707714Y-86403667D01*
X42755333Y-86427476D01*
X42779142Y-86451286D01*
X42802952Y-86498905D01*
X42326762Y-86260810D02*
X42302952Y-86237000D01*
X42255333Y-86213190D01*
X42136286Y-86213190D01*
X42088667Y-86237000D01*
X42064857Y-86260810D01*
X42041048Y-86308429D01*
X42041048Y-86356048D01*
X42064857Y-86427476D01*
X42350571Y-86713190D01*
X42041048Y-86713190D01*
X42993428Y-83617571D02*
X43017238Y-83641381D01*
X43088666Y-83665190D01*
X43136285Y-83665190D01*
X43207714Y-83641381D01*
X43255333Y-83593762D01*
X43279142Y-83546143D01*
X43302952Y-83450905D01*
X43302952Y-83379476D01*
X43279142Y-83284238D01*
X43255333Y-83236619D01*
X43207714Y-83189000D01*
X43136285Y-83165190D01*
X43088666Y-83165190D01*
X43017238Y-83189000D01*
X42993428Y-83212810D01*
X42564857Y-83165190D02*
X42660095Y-83165190D01*
X42707714Y-83189000D01*
X42731523Y-83212810D01*
X42779142Y-83284238D01*
X42802952Y-83379476D01*
X42802952Y-83569952D01*
X42779142Y-83617571D01*
X42755333Y-83641381D01*
X42707714Y-83665190D01*
X42612476Y-83665190D01*
X42564857Y-83641381D01*
X42541047Y-83617571D01*
X42517238Y-83569952D01*
X42517238Y-83450905D01*
X42541047Y-83403286D01*
X42564857Y-83379476D01*
X42612476Y-83355667D01*
X42707714Y-83355667D01*
X42755333Y-83379476D01*
X42779142Y-83403286D01*
X42802952Y-83450905D01*
X42350571Y-83165190D02*
X42041048Y-83165190D01*
X42207714Y-83355667D01*
X42136286Y-83355667D01*
X42088667Y-83379476D01*
X42064857Y-83403286D01*
X42041048Y-83450905D01*
X42041048Y-83569952D01*
X42064857Y-83617571D01*
X42088667Y-83641381D01*
X42136286Y-83665190D01*
X42279143Y-83665190D01*
X42326762Y-83641381D01*
X42350571Y-83617571D01*
X69774571Y-87816572D02*
X69798381Y-87792762D01*
X69822190Y-87721334D01*
X69822190Y-87673715D01*
X69798381Y-87602286D01*
X69750762Y-87554667D01*
X69703143Y-87530858D01*
X69607905Y-87507048D01*
X69536476Y-87507048D01*
X69441238Y-87530858D01*
X69393619Y-87554667D01*
X69346000Y-87602286D01*
X69322190Y-87673715D01*
X69322190Y-87721334D01*
X69346000Y-87792762D01*
X69369810Y-87816572D01*
X69322190Y-88245143D02*
X69322190Y-88149905D01*
X69346000Y-88102286D01*
X69369810Y-88078477D01*
X69441238Y-88030858D01*
X69536476Y-88007048D01*
X69726952Y-88007048D01*
X69774571Y-88030858D01*
X69798381Y-88054667D01*
X69822190Y-88102286D01*
X69822190Y-88197524D01*
X69798381Y-88245143D01*
X69774571Y-88268953D01*
X69726952Y-88292762D01*
X69607905Y-88292762D01*
X69560286Y-88268953D01*
X69536476Y-88245143D01*
X69512667Y-88197524D01*
X69512667Y-88102286D01*
X69536476Y-88054667D01*
X69560286Y-88030858D01*
X69607905Y-88007048D01*
X69488857Y-88721333D02*
X69822190Y-88721333D01*
X69298381Y-88602286D02*
X69655524Y-88483238D01*
X69655524Y-88792762D01*
X42993428Y-85649571D02*
X43017238Y-85673381D01*
X43088666Y-85697190D01*
X43136285Y-85697190D01*
X43207714Y-85673381D01*
X43255333Y-85625762D01*
X43279142Y-85578143D01*
X43302952Y-85482905D01*
X43302952Y-85411476D01*
X43279142Y-85316238D01*
X43255333Y-85268619D01*
X43207714Y-85221000D01*
X43136285Y-85197190D01*
X43088666Y-85197190D01*
X43017238Y-85221000D01*
X42993428Y-85244810D01*
X42564857Y-85197190D02*
X42660095Y-85197190D01*
X42707714Y-85221000D01*
X42731523Y-85244810D01*
X42779142Y-85316238D01*
X42802952Y-85411476D01*
X42802952Y-85601952D01*
X42779142Y-85649571D01*
X42755333Y-85673381D01*
X42707714Y-85697190D01*
X42612476Y-85697190D01*
X42564857Y-85673381D01*
X42541047Y-85649571D01*
X42517238Y-85601952D01*
X42517238Y-85482905D01*
X42541047Y-85435286D01*
X42564857Y-85411476D01*
X42612476Y-85387667D01*
X42707714Y-85387667D01*
X42755333Y-85411476D01*
X42779142Y-85435286D01*
X42802952Y-85482905D01*
X42064857Y-85197190D02*
X42302952Y-85197190D01*
X42326762Y-85435286D01*
X42302952Y-85411476D01*
X42255333Y-85387667D01*
X42136286Y-85387667D01*
X42088667Y-85411476D01*
X42064857Y-85435286D01*
X42041048Y-85482905D01*
X42041048Y-85601952D01*
X42064857Y-85649571D01*
X42088667Y-85673381D01*
X42136286Y-85697190D01*
X42255333Y-85697190D01*
X42302952Y-85673381D01*
X42326762Y-85649571D01*
X72330428Y-84252571D02*
X72354238Y-84276381D01*
X72425666Y-84300190D01*
X72473285Y-84300190D01*
X72544714Y-84276381D01*
X72592333Y-84228762D01*
X72616142Y-84181143D01*
X72639952Y-84085905D01*
X72639952Y-84014476D01*
X72616142Y-83919238D01*
X72592333Y-83871619D01*
X72544714Y-83824000D01*
X72473285Y-83800190D01*
X72425666Y-83800190D01*
X72354238Y-83824000D01*
X72330428Y-83847810D01*
X71901857Y-83800190D02*
X71997095Y-83800190D01*
X72044714Y-83824000D01*
X72068523Y-83847810D01*
X72116142Y-83919238D01*
X72139952Y-84014476D01*
X72139952Y-84204952D01*
X72116142Y-84252571D01*
X72092333Y-84276381D01*
X72044714Y-84300190D01*
X71949476Y-84300190D01*
X71901857Y-84276381D01*
X71878047Y-84252571D01*
X71854238Y-84204952D01*
X71854238Y-84085905D01*
X71878047Y-84038286D01*
X71901857Y-84014476D01*
X71949476Y-83990667D01*
X72044714Y-83990667D01*
X72092333Y-84014476D01*
X72116142Y-84038286D01*
X72139952Y-84085905D01*
X71425667Y-83800190D02*
X71520905Y-83800190D01*
X71568524Y-83824000D01*
X71592333Y-83847810D01*
X71639952Y-83919238D01*
X71663762Y-84014476D01*
X71663762Y-84204952D01*
X71639952Y-84252571D01*
X71616143Y-84276381D01*
X71568524Y-84300190D01*
X71473286Y-84300190D01*
X71425667Y-84276381D01*
X71401857Y-84252571D01*
X71378048Y-84204952D01*
X71378048Y-84085905D01*
X71401857Y-84038286D01*
X71425667Y-84014476D01*
X71473286Y-83990667D01*
X71568524Y-83990667D01*
X71616143Y-84014476D01*
X71639952Y-84038286D01*
X71663762Y-84085905D01*
X53280428Y-85141571D02*
X53304238Y-85165381D01*
X53375666Y-85189190D01*
X53423285Y-85189190D01*
X53494714Y-85165381D01*
X53542333Y-85117762D01*
X53566142Y-85070143D01*
X53589952Y-84974905D01*
X53589952Y-84903476D01*
X53566142Y-84808238D01*
X53542333Y-84760619D01*
X53494714Y-84713000D01*
X53423285Y-84689190D01*
X53375666Y-84689190D01*
X53304238Y-84713000D01*
X53280428Y-84736810D01*
X52851857Y-84689190D02*
X52947095Y-84689190D01*
X52994714Y-84713000D01*
X53018523Y-84736810D01*
X53066142Y-84808238D01*
X53089952Y-84903476D01*
X53089952Y-85093952D01*
X53066142Y-85141571D01*
X53042333Y-85165381D01*
X52994714Y-85189190D01*
X52899476Y-85189190D01*
X52851857Y-85165381D01*
X52828047Y-85141571D01*
X52804238Y-85093952D01*
X52804238Y-84974905D01*
X52828047Y-84927286D01*
X52851857Y-84903476D01*
X52899476Y-84879667D01*
X52994714Y-84879667D01*
X53042333Y-84903476D01*
X53066142Y-84927286D01*
X53089952Y-84974905D01*
X52518524Y-84903476D02*
X52566143Y-84879667D01*
X52589952Y-84855857D01*
X52613762Y-84808238D01*
X52613762Y-84784429D01*
X52589952Y-84736810D01*
X52566143Y-84713000D01*
X52518524Y-84689190D01*
X52423286Y-84689190D01*
X52375667Y-84713000D01*
X52351857Y-84736810D01*
X52328048Y-84784429D01*
X52328048Y-84808238D01*
X52351857Y-84855857D01*
X52375667Y-84879667D01*
X52423286Y-84903476D01*
X52518524Y-84903476D01*
X52566143Y-84927286D01*
X52589952Y-84951095D01*
X52613762Y-84998714D01*
X52613762Y-85093952D01*
X52589952Y-85141571D01*
X52566143Y-85165381D01*
X52518524Y-85189190D01*
X52423286Y-85189190D01*
X52375667Y-85165381D01*
X52351857Y-85141571D01*
X52328048Y-85093952D01*
X52328048Y-84998714D01*
X52351857Y-84951095D01*
X52375667Y-84927286D01*
X52423286Y-84903476D01*
D13*
X53153428Y-104318571D02*
X53177238Y-104342381D01*
X53248666Y-104366190D01*
X53296285Y-104366190D01*
X53367714Y-104342381D01*
X53415333Y-104294762D01*
X53439142Y-104247143D01*
X53462952Y-104151905D01*
X53462952Y-104080476D01*
X53439142Y-103985238D01*
X53415333Y-103937619D01*
X53367714Y-103890000D01*
X53296285Y-103866190D01*
X53248666Y-103866190D01*
X53177238Y-103890000D01*
X53153428Y-103913810D01*
X52986761Y-103866190D02*
X52653428Y-103866190D01*
X52867714Y-104366190D01*
X52367714Y-103866190D02*
X52320095Y-103866190D01*
X52272476Y-103890000D01*
X52248667Y-103913810D01*
X52224857Y-103961429D01*
X52201048Y-104056667D01*
X52201048Y-104175714D01*
X52224857Y-104270952D01*
X52248667Y-104318571D01*
X52272476Y-104342381D01*
X52320095Y-104366190D01*
X52367714Y-104366190D01*
X52415333Y-104342381D01*
X52439143Y-104318571D01*
X52462952Y-104270952D01*
X52486762Y-104175714D01*
X52486762Y-104056667D01*
X52462952Y-103961429D01*
X52439143Y-103913810D01*
X52415333Y-103890000D01*
X52367714Y-103866190D01*
X47819428Y-105334571D02*
X47843238Y-105358381D01*
X47914666Y-105382190D01*
X47962285Y-105382190D01*
X48033714Y-105358381D01*
X48081333Y-105310762D01*
X48105142Y-105263143D01*
X48128952Y-105167905D01*
X48128952Y-105096476D01*
X48105142Y-105001238D01*
X48081333Y-104953619D01*
X48033714Y-104906000D01*
X47962285Y-104882190D01*
X47914666Y-104882190D01*
X47843238Y-104906000D01*
X47819428Y-104929810D01*
X47652761Y-104882190D02*
X47319428Y-104882190D01*
X47533714Y-105382190D01*
X46867048Y-105382190D02*
X47152762Y-105382190D01*
X47009905Y-105382190D02*
X47009905Y-104882190D01*
X47057524Y-104953619D01*
X47105143Y-105001238D01*
X47152762Y-105025048D01*
X53153428Y-102921571D02*
X53177238Y-102945381D01*
X53248666Y-102969190D01*
X53296285Y-102969190D01*
X53367714Y-102945381D01*
X53415333Y-102897762D01*
X53439142Y-102850143D01*
X53462952Y-102754905D01*
X53462952Y-102683476D01*
X53439142Y-102588238D01*
X53415333Y-102540619D01*
X53367714Y-102493000D01*
X53296285Y-102469190D01*
X53248666Y-102469190D01*
X53177238Y-102493000D01*
X53153428Y-102516810D01*
X52986761Y-102469190D02*
X52653428Y-102469190D01*
X52867714Y-102969190D01*
X52510571Y-102469190D02*
X52201048Y-102469190D01*
X52367714Y-102659667D01*
X52296286Y-102659667D01*
X52248667Y-102683476D01*
X52224857Y-102707286D01*
X52201048Y-102754905D01*
X52201048Y-102873952D01*
X52224857Y-102921571D01*
X52248667Y-102945381D01*
X52296286Y-102969190D01*
X52439143Y-102969190D01*
X52486762Y-102945381D01*
X52510571Y-102921571D01*
D12*
X47311428Y-99492571D02*
X47335238Y-99516381D01*
X47406666Y-99540190D01*
X47454285Y-99540190D01*
X47525714Y-99516381D01*
X47573333Y-99468762D01*
X47597142Y-99421143D01*
X47620952Y-99325905D01*
X47620952Y-99254476D01*
X47597142Y-99159238D01*
X47573333Y-99111619D01*
X47525714Y-99064000D01*
X47454285Y-99040190D01*
X47406666Y-99040190D01*
X47335238Y-99064000D01*
X47311428Y-99087810D01*
X47144761Y-99040190D02*
X46811428Y-99040190D01*
X47025714Y-99540190D01*
X46406667Y-99206857D02*
X46406667Y-99540190D01*
X46525714Y-99016381D02*
X46644762Y-99373524D01*
X46335238Y-99373524D01*
D14*
X49470428Y-99492571D02*
X49494238Y-99516381D01*
X49565666Y-99540190D01*
X49613285Y-99540190D01*
X49684714Y-99516381D01*
X49732333Y-99468762D01*
X49756142Y-99421143D01*
X49779952Y-99325905D01*
X49779952Y-99254476D01*
X49756142Y-99159238D01*
X49732333Y-99111619D01*
X49684714Y-99064000D01*
X49613285Y-99040190D01*
X49565666Y-99040190D01*
X49494238Y-99064000D01*
X49470428Y-99087810D01*
X49303761Y-99040190D02*
X48970428Y-99040190D01*
X49184714Y-99540190D01*
X48541857Y-99040190D02*
X48779952Y-99040190D01*
X48803762Y-99278286D01*
X48779952Y-99254476D01*
X48732333Y-99230667D01*
X48613286Y-99230667D01*
X48565667Y-99254476D01*
X48541857Y-99278286D01*
X48518048Y-99325905D01*
X48518048Y-99444952D01*
X48541857Y-99492571D01*
X48565667Y-99516381D01*
X48613286Y-99540190D01*
X48732333Y-99540190D01*
X48779952Y-99516381D01*
X48803762Y-99492571D01*
X25135857Y-72041381D02*
X25135857Y-71041381D01*
X24754904Y-71041381D01*
X24659666Y-71089000D01*
X24612047Y-71136619D01*
X24564428Y-71231857D01*
X24564428Y-71374714D01*
X24612047Y-71469952D01*
X24659666Y-71517571D01*
X24754904Y-71565190D01*
X25135857Y-71565190D01*
X24183476Y-71993762D02*
X24040619Y-72041381D01*
X23802523Y-72041381D01*
X23707285Y-71993762D01*
X23659666Y-71946143D01*
X23612047Y-71850905D01*
X23612047Y-71755667D01*
X23659666Y-71660429D01*
X23707285Y-71612810D01*
X23802523Y-71565190D01*
X23993000Y-71517571D01*
X24088238Y-71469952D01*
X24135857Y-71422333D01*
X24183476Y-71327095D01*
X24183476Y-71231857D01*
X24135857Y-71136619D01*
X24088238Y-71089000D01*
X23993000Y-71041381D01*
X23754904Y-71041381D01*
X23612047Y-71089000D01*
X23231095Y-71755667D02*
X22754904Y-71755667D01*
X23326333Y-72041381D02*
X22993000Y-71041381D01*
X22659666Y-72041381D01*
X21802523Y-72041381D02*
X22373952Y-72041381D01*
X22088238Y-72041381D02*
X22088238Y-71041381D01*
X22183476Y-71184238D01*
X22278714Y-71279476D01*
X22373952Y-71327095D01*
X85631571Y-74391381D02*
X85631571Y-73391381D01*
X85250618Y-73391381D01*
X85155380Y-73439000D01*
X85107761Y-73486619D01*
X85060142Y-73581857D01*
X85060142Y-73724714D01*
X85107761Y-73819952D01*
X85155380Y-73867571D01*
X85250618Y-73915190D01*
X85631571Y-73915190D01*
X84298237Y-73867571D02*
X84631571Y-73867571D01*
X84631571Y-74391381D02*
X84631571Y-73391381D01*
X84155380Y-73391381D01*
X83774428Y-74391381D02*
X83774428Y-73391381D01*
X83107762Y-73391381D02*
X82917285Y-73391381D01*
X82822047Y-73439000D01*
X82726809Y-73534238D01*
X82679190Y-73724714D01*
X82679190Y-74058048D01*
X82726809Y-74248524D01*
X82822047Y-74343762D01*
X82917285Y-74391381D01*
X83107762Y-74391381D01*
X83203000Y-74343762D01*
X83298238Y-74248524D01*
X83345857Y-74058048D01*
X83345857Y-73724714D01*
X83298238Y-73534238D01*
X83203000Y-73439000D01*
X83107762Y-73391381D01*
X82298238Y-73486619D02*
X82250619Y-73439000D01*
X82155381Y-73391381D01*
X81917285Y-73391381D01*
X81822047Y-73439000D01*
X81774428Y-73486619D01*
X81726809Y-73581857D01*
X81726809Y-73677095D01*
X81774428Y-73819952D01*
X82345857Y-74391381D01*
X81726809Y-74391381D01*
X91881571Y-67091381D02*
X91881571Y-66091381D01*
X91500618Y-66091381D01*
X91405380Y-66139000D01*
X91357761Y-66186619D01*
X91310142Y-66281857D01*
X91310142Y-66424714D01*
X91357761Y-66519952D01*
X91405380Y-66567571D01*
X91500618Y-66615190D01*
X91881571Y-66615190D01*
X90548237Y-66567571D02*
X90881571Y-66567571D01*
X90881571Y-67091381D02*
X90881571Y-66091381D01*
X90405380Y-66091381D01*
X90024428Y-67091381D02*
X90024428Y-66091381D01*
X89357762Y-66091381D02*
X89167285Y-66091381D01*
X89072047Y-66139000D01*
X88976809Y-66234238D01*
X88929190Y-66424714D01*
X88929190Y-66758048D01*
X88976809Y-66948524D01*
X89072047Y-67043762D01*
X89167285Y-67091381D01*
X89357762Y-67091381D01*
X89453000Y-67043762D01*
X89548238Y-66948524D01*
X89595857Y-66758048D01*
X89595857Y-66424714D01*
X89548238Y-66234238D01*
X89453000Y-66139000D01*
X89357762Y-66091381D01*
X87976809Y-67091381D02*
X88548238Y-67091381D01*
X88262524Y-67091381D02*
X88262524Y-66091381D01*
X88357762Y-66234238D01*
X88453000Y-66329476D01*
X88548238Y-66377095D01*
M02*
