G04 #@! TF.FileFunction,Soldermask,Bot*
%FSLAX46Y46*%
G04 Gerber Fmt 4.6, Leading zero omitted, Abs format (unit mm)*
G04 Created by KiCad (PCBNEW 4.0.0-rc1-stable) date 26/07/2016 12:52:27*
%MOMM*%
G01*
G04 APERTURE LIST*
%ADD10C,0.100000*%
%ADD11C,0.600000*%
%ADD12R,1.524000X4.064000*%
%ADD13C,0.762000*%
%ADD14C,0.742240*%
%ADD15C,0.736600*%
%ADD16C,0.777240*%
%ADD17R,0.600000X0.500000*%
%ADD18R,0.500000X0.600000*%
%ADD19R,0.600000X0.400000*%
%ADD20C,4.064000*%
%ADD21R,1.727200X1.727200*%
%ADD22O,1.727200X1.727200*%
G04 APERTURE END LIST*
D10*
D11*
X49022000Y-68199000D03*
X28194000Y-75311000D03*
X29464000Y-76200000D03*
X23368000Y-70612000D03*
X49149000Y-109728000D03*
X22606000Y-68199000D03*
X21336000Y-68199000D03*
X55753000Y-72644000D03*
X71882000Y-69850000D03*
X66421000Y-73787000D03*
X30454600Y-72745600D03*
X29311600Y-71475600D03*
X28295600Y-70586600D03*
X27279600Y-69570600D03*
X26771600Y-68173600D03*
X28549600Y-68173600D03*
X30454600Y-68173600D03*
X44577000Y-68199000D03*
X45974000Y-68199000D03*
X86995000Y-116713000D03*
X84836000Y-116713000D03*
X82423000Y-116713000D03*
X80264000Y-116713000D03*
X77978000Y-116713000D03*
X75692000Y-116713000D03*
X73533000Y-116713000D03*
X71628000Y-116713000D03*
X69723000Y-116713000D03*
X67691000Y-116713000D03*
X65659000Y-116713000D03*
X63754000Y-116713000D03*
X61976000Y-116713000D03*
X60071000Y-116713000D03*
X56388000Y-79883000D03*
X59182000Y-80899000D03*
X61468000Y-76962000D03*
X59182000Y-73914000D03*
X62230000Y-73914000D03*
X64770000Y-73914000D03*
X67945000Y-73660000D03*
X68961000Y-72771000D03*
X69850000Y-71882000D03*
X70866000Y-70866000D03*
X73152000Y-68326000D03*
X71882000Y-68326000D03*
X70612000Y-68326000D03*
X69342000Y-68326000D03*
X68072000Y-68326000D03*
X66802000Y-68326000D03*
X65532000Y-68326000D03*
X64262000Y-68326000D03*
X62992000Y-68326000D03*
X61722000Y-68326000D03*
X39979600Y-74269600D03*
X28575000Y-102235000D03*
X31115000Y-102235000D03*
X31115000Y-100203000D03*
X28575000Y-100203000D03*
X31115000Y-98425000D03*
X28575000Y-98425000D03*
X30226000Y-81915000D03*
X27940000Y-83947000D03*
X37084000Y-80899000D03*
X37211000Y-77470000D03*
X35052000Y-80899000D03*
X33655000Y-77470000D03*
X35179000Y-88646000D03*
X35179000Y-85979000D03*
X35179000Y-83439000D03*
X32385000Y-88646000D03*
X32385000Y-85979000D03*
X32385000Y-83439000D03*
X32448500Y-90297000D03*
X30289500Y-90297000D03*
X28257500Y-90297000D03*
X34544000Y-94043500D03*
X32321500Y-94043500D03*
X30226000Y-94043500D03*
X28194000Y-94043500D03*
X60452000Y-68326000D03*
X59290000Y-68324000D03*
X52806600Y-78968600D03*
X38862000Y-73279000D03*
X40995600Y-75285600D03*
X37846000Y-72136000D03*
X47879000Y-76708000D03*
X41910000Y-76200000D03*
X54483000Y-77470000D03*
X55499000Y-76454000D03*
X56515000Y-75438000D03*
X57531000Y-74295000D03*
X24511000Y-117094000D03*
X21463000Y-108966000D03*
X21463000Y-113919000D03*
X21463000Y-110490000D03*
X22479000Y-117094000D03*
X21463000Y-115697000D03*
X21463000Y-112141000D03*
X21336000Y-71882000D03*
X21336000Y-70104000D03*
X89281000Y-116713000D03*
X58970000Y-84700000D03*
X43307000Y-100584000D03*
X65024000Y-76962000D03*
X52705000Y-93599000D03*
X43307000Y-98679000D03*
X61087000Y-87630000D03*
X26543000Y-117094000D03*
X28448000Y-117094000D03*
X61214000Y-82042000D03*
X69088000Y-76962000D03*
X30480000Y-117094000D03*
X32385000Y-117094000D03*
X67056000Y-76962000D03*
X44577000Y-101600000D03*
X34290000Y-117094000D03*
X42799000Y-96774000D03*
X36576000Y-101600000D03*
X61277500Y-90678000D03*
X36576000Y-100076000D03*
X40132000Y-80772000D03*
X67310000Y-108585000D03*
X92329000Y-115824000D03*
X49149000Y-116967000D03*
X36083240Y-117000020D03*
X50546000Y-116967000D03*
X46228000Y-116967000D03*
X47752000Y-116967000D03*
X92329000Y-114173000D03*
X44704000Y-116967000D03*
X35433000Y-77470000D03*
X80010000Y-102870000D03*
X59436000Y-93726000D03*
X65151000Y-96520000D03*
X62230000Y-94488000D03*
X37779960Y-105780840D03*
X36830000Y-98679000D03*
X80010000Y-100965000D03*
X77470000Y-102870000D03*
X59245500Y-89154000D03*
X77470000Y-100965000D03*
X72517000Y-88900000D03*
X74930000Y-100965000D03*
X90932000Y-116713000D03*
X80010000Y-105156000D03*
X42123360Y-105811320D03*
X77470000Y-105092500D03*
X42166540Y-108231940D03*
X54356000Y-95186500D03*
X74930000Y-105092500D03*
X55562500Y-93154500D03*
X40020240Y-105780840D03*
X60325000Y-95885000D03*
X60960000Y-93726000D03*
X33147000Y-102870000D03*
X40005000Y-108712000D03*
X63246000Y-96393000D03*
X73025000Y-106045000D03*
X71755000Y-107315000D03*
X69850000Y-108585000D03*
X72517000Y-102870000D03*
X64770000Y-108585000D03*
X59690000Y-108585000D03*
X59436000Y-76327000D03*
X41021000Y-96266000D03*
X56515000Y-108585000D03*
X62230000Y-108585000D03*
X52832000Y-89535000D03*
X39370000Y-96266000D03*
X33147000Y-108712000D03*
X33177480Y-105780840D03*
X44041060Y-108209080D03*
X44089320Y-105780840D03*
X63246000Y-76962000D03*
X29464000Y-108966000D03*
X27813000Y-105537000D03*
X70612000Y-104013000D03*
X72644000Y-100330000D03*
X70993000Y-100330000D03*
X69088000Y-94488000D03*
X66040000Y-106045000D03*
X68580000Y-102870000D03*
X67310000Y-104140000D03*
X41910000Y-101981000D03*
X64770000Y-104140000D03*
X66040000Y-103251000D03*
X62230000Y-104140000D03*
X60960000Y-106045000D03*
X59690000Y-104140000D03*
X57150000Y-104140000D03*
X69850000Y-101600000D03*
X41910000Y-98679000D03*
X35311080Y-105780840D03*
X63500000Y-106045000D03*
X35306000Y-108712000D03*
X60960000Y-103251000D03*
X63500000Y-103251000D03*
X58420000Y-103251000D03*
X37846000Y-108712000D03*
X66040000Y-101346000D03*
X69215000Y-105410000D03*
X63754000Y-101346000D03*
X61468000Y-101346000D03*
X38100000Y-97409000D03*
X58801000Y-101346000D03*
X59055000Y-106045000D03*
X80010000Y-97155000D03*
X51562000Y-94742000D03*
X77470000Y-97155000D03*
X70612000Y-95885000D03*
X66675000Y-94488000D03*
X80010000Y-99695000D03*
X55245000Y-91630500D03*
X55245000Y-89408000D03*
X77470000Y-99695000D03*
X74930000Y-102870000D03*
X74930000Y-99695000D03*
X74930000Y-97155000D03*
X40132000Y-97536000D03*
X71755000Y-97155000D03*
X69215000Y-97155000D03*
X41910000Y-100584000D03*
X41680000Y-103160000D03*
X54356000Y-88519000D03*
X66040000Y-97155000D03*
X64135000Y-97155000D03*
X62230000Y-97155000D03*
X60325000Y-97155000D03*
X58420000Y-97155000D03*
X56515000Y-97155000D03*
X54610000Y-97155000D03*
X52705000Y-97155000D03*
X77089000Y-92583000D03*
X79121000Y-92583000D03*
X29464000Y-107442000D03*
X69088000Y-100330000D03*
X67310000Y-100330000D03*
X64770000Y-100330000D03*
X62865000Y-100330000D03*
X71374000Y-94615000D03*
X60325000Y-100330000D03*
X38100000Y-103124000D03*
X58801000Y-99695000D03*
X57404000Y-99695000D03*
X56007000Y-99695000D03*
X54483000Y-99695000D03*
X51435000Y-99695000D03*
X50800000Y-97155000D03*
X53975000Y-91313000D03*
X50165000Y-98425000D03*
X51689000Y-90551000D03*
X50165000Y-95885000D03*
X37338000Y-102362000D03*
X48260000Y-96520000D03*
X46736000Y-92456000D03*
X45720000Y-91821000D03*
X44450000Y-91821000D03*
X43307000Y-91821000D03*
X41910000Y-91821000D03*
X40640000Y-91567000D03*
X39497000Y-91948000D03*
X39624000Y-90424000D03*
X39370000Y-89154000D03*
X39370000Y-87884000D03*
X39370000Y-86614000D03*
X38227000Y-90424000D03*
X38227000Y-89154000D03*
X38227000Y-87884000D03*
X38227000Y-86614000D03*
X37846000Y-85090000D03*
X39370000Y-83693000D03*
X40894000Y-85090000D03*
X41656000Y-82804000D03*
X41656000Y-80772000D03*
X50647600Y-68173600D03*
X47498000Y-68199000D03*
X32385000Y-68199000D03*
X34290000Y-68199000D03*
X35941000Y-68199000D03*
D12*
X42926000Y-115824000D03*
X37846000Y-115824000D03*
D13*
X38186000Y-114256000D03*
X37486000Y-114256000D03*
X38186000Y-115256000D03*
X38186000Y-116256000D03*
X37486000Y-116256000D03*
X37486000Y-115256000D03*
X42586000Y-114256000D03*
X42586000Y-115256000D03*
X42586000Y-116256000D03*
X43286000Y-116256000D03*
X43286000Y-115256000D03*
X43286000Y-114256000D03*
D14*
X48006000Y-103378000D03*
X47346000Y-102718000D03*
X48666000Y-102718000D03*
X48666000Y-104038000D03*
X47346000Y-104038000D03*
D15*
X48006000Y-84963000D03*
X48006000Y-83463000D03*
X49506000Y-83463000D03*
X49506000Y-84963000D03*
X49506000Y-86463000D03*
X48006000Y-86463000D03*
X46506000Y-86463000D03*
X46506000Y-84963000D03*
X46506000Y-83463000D03*
D16*
X68707000Y-84963000D03*
X68707000Y-86613000D03*
X67057000Y-86613000D03*
X67057000Y-84963000D03*
X67057000Y-83313000D03*
X68707000Y-83313000D03*
X70357000Y-83313000D03*
X70357000Y-84963000D03*
X70357000Y-86613000D03*
D17*
X51604000Y-86487000D03*
X50504000Y-86487000D03*
D18*
X50419000Y-81365000D03*
X50419000Y-82465000D03*
D12*
X52324000Y-69469000D03*
X57404000Y-69469000D03*
D13*
X57064000Y-71037000D03*
X57764000Y-71037000D03*
X57064000Y-70037000D03*
X57064000Y-69037000D03*
X57764000Y-69037000D03*
X57764000Y-70037000D03*
X52664000Y-71037000D03*
X52664000Y-70037000D03*
X52664000Y-69037000D03*
X51964000Y-69037000D03*
X51964000Y-70037000D03*
X51964000Y-71037000D03*
D12*
X37846000Y-69342000D03*
X42926000Y-69342000D03*
D13*
X42586000Y-70910000D03*
X43286000Y-70910000D03*
X42586000Y-69910000D03*
X42586000Y-68910000D03*
X43286000Y-68910000D03*
X43286000Y-69910000D03*
X38186000Y-70910000D03*
X38186000Y-69910000D03*
X38186000Y-68910000D03*
X37486000Y-68910000D03*
X37486000Y-69910000D03*
X37486000Y-70910000D03*
D12*
X57404000Y-115824000D03*
X52324000Y-115824000D03*
D13*
X52664000Y-114256000D03*
X51964000Y-114256000D03*
X52664000Y-115256000D03*
X52664000Y-116256000D03*
X51964000Y-116256000D03*
X51964000Y-115256000D03*
X57064000Y-114256000D03*
X57064000Y-115256000D03*
X57064000Y-116256000D03*
X57764000Y-116256000D03*
X57764000Y-115256000D03*
X57764000Y-114256000D03*
D18*
X48006000Y-81365000D03*
X48006000Y-82465000D03*
D17*
X64982000Y-83312000D03*
X66082000Y-83312000D03*
X51604000Y-83439000D03*
X50504000Y-83439000D03*
D18*
X68707000Y-88688000D03*
X68707000Y-87588000D03*
D17*
X64982000Y-84963000D03*
X66082000Y-84963000D03*
X64982000Y-86614000D03*
X66082000Y-86614000D03*
D18*
X67056000Y-81238000D03*
X67056000Y-82338000D03*
D17*
X63288000Y-88138000D03*
X62188000Y-88138000D03*
X63288000Y-89154000D03*
X62188000Y-89154000D03*
X63288000Y-90043000D03*
X62188000Y-90043000D03*
D18*
X67056000Y-88688000D03*
X67056000Y-87588000D03*
D19*
X29210000Y-105860000D03*
X29210000Y-104960000D03*
X31750000Y-105860000D03*
X31750000Y-104960000D03*
X30480000Y-105860000D03*
X30480000Y-104960000D03*
X30480000Y-107119000D03*
X30480000Y-108019000D03*
D17*
X44408000Y-84455000D03*
X45508000Y-84455000D03*
X44408000Y-86487000D03*
X45508000Y-86487000D03*
X44408000Y-83439000D03*
X45508000Y-83439000D03*
D18*
X70358000Y-88688000D03*
X70358000Y-87588000D03*
D17*
X44408000Y-85471000D03*
X45508000Y-85471000D03*
X72559000Y-84963000D03*
X71459000Y-84963000D03*
X51604000Y-84963000D03*
X50504000Y-84963000D03*
D20*
X34798000Y-72390000D03*
D21*
X77597000Y-111760000D03*
D22*
X77597000Y-109220000D03*
D11*
X51816000Y-76708000D03*
X38608000Y-77470000D03*
D17*
X50842000Y-104140000D03*
X49742000Y-104140000D03*
D18*
X48768000Y-106214000D03*
X48768000Y-105114000D03*
D17*
X50842000Y-102616000D03*
X49742000Y-102616000D03*
D18*
X46990000Y-100542000D03*
X46990000Y-101642000D03*
X48768000Y-100542000D03*
X48768000Y-101642000D03*
D21*
X24713000Y-73679000D03*
D22*
X22173000Y-73679000D03*
X24713000Y-76219000D03*
X22173000Y-76219000D03*
X24713000Y-78759000D03*
X22173000Y-78759000D03*
X24713000Y-81299000D03*
X22173000Y-81299000D03*
X24713000Y-83839000D03*
X22173000Y-83839000D03*
X24713000Y-86379000D03*
X22173000Y-86379000D03*
X24713000Y-88919000D03*
X22173000Y-88919000D03*
X24713000Y-91459000D03*
X22173000Y-91459000D03*
X24713000Y-93999000D03*
X22173000Y-93999000D03*
X24713000Y-96539000D03*
X22173000Y-96539000D03*
X24713000Y-99079000D03*
X22173000Y-99079000D03*
X24713000Y-101619000D03*
X22173000Y-101619000D03*
X24713000Y-104159000D03*
X22173000Y-104159000D03*
X24713000Y-106699000D03*
X22173000Y-106699000D03*
D21*
X85213000Y-76219000D03*
D22*
X82673000Y-76219000D03*
X85213000Y-78759000D03*
X82673000Y-78759000D03*
X85213000Y-81299000D03*
X82673000Y-81299000D03*
X85213000Y-83839000D03*
X82673000Y-83839000D03*
X85213000Y-86379000D03*
X82673000Y-86379000D03*
X85213000Y-88919000D03*
X82673000Y-88919000D03*
X85213000Y-91459000D03*
X82673000Y-91459000D03*
X85213000Y-93999000D03*
X82673000Y-93999000D03*
X85213000Y-96539000D03*
X82673000Y-96539000D03*
X85213000Y-99079000D03*
X82673000Y-99079000D03*
X85213000Y-101619000D03*
X82673000Y-101619000D03*
X85213000Y-104159000D03*
X82673000Y-104159000D03*
D21*
X91213000Y-68599000D03*
D22*
X88673000Y-68599000D03*
X91213000Y-71139000D03*
X88673000Y-71139000D03*
X91213000Y-73679000D03*
X88673000Y-73679000D03*
X91213000Y-76219000D03*
X88673000Y-76219000D03*
X91213000Y-78759000D03*
X88673000Y-78759000D03*
X91213000Y-81299000D03*
X88673000Y-81299000D03*
X91213000Y-83839000D03*
X88673000Y-83839000D03*
X91213000Y-86379000D03*
X88673000Y-86379000D03*
X91213000Y-88919000D03*
X88673000Y-88919000D03*
X91213000Y-91459000D03*
X88673000Y-91459000D03*
X91213000Y-93999000D03*
X88673000Y-93999000D03*
X91213000Y-96539000D03*
X88673000Y-96539000D03*
X91213000Y-99079000D03*
X88673000Y-99079000D03*
X91213000Y-101619000D03*
X88673000Y-101619000D03*
X91213000Y-104159000D03*
X88673000Y-104159000D03*
X91213000Y-106699000D03*
X88673000Y-106699000D03*
X91213000Y-109239000D03*
X88673000Y-109239000D03*
X91213000Y-111779000D03*
X88673000Y-111779000D03*
D11*
X43942000Y-77470000D03*
X78232000Y-86106000D03*
X42672000Y-76962000D03*
X54038500Y-82169000D03*
X60706000Y-73914000D03*
X58420000Y-77851000D03*
X26924000Y-78740000D03*
M02*
