G04 #@! TF.FileFunction,Soldermask,Top*
%FSLAX46Y46*%
G04 Gerber Fmt 4.6, Leading zero omitted, Abs format (unit mm)*
G04 Created by KiCad (PCBNEW 4.0.0-rc1-stable) date 05/07/2016 17:06:47*
%MOMM*%
G01*
G04 APERTURE LIST*
%ADD10C,0.100000*%
%ADD11C,0.600000*%
%ADD12R,0.500000X0.600000*%
%ADD13R,0.600000X0.500000*%
%ADD14R,1.524000X4.064000*%
%ADD15C,0.762000*%
%ADD16R,1.727200X1.727200*%
%ADD17O,1.727200X1.727200*%
%ADD18R,0.800100X0.800100*%
%ADD19R,0.551180X0.248920*%
%ADD20O,0.346600X0.971600*%
%ADD21O,0.971600X0.346600*%
%ADD22R,4.321800X4.321800*%
%ADD23O,0.422240X1.042240*%
%ADD24O,1.042240X0.422240*%
%ADD25R,5.096800X5.096800*%
%ADD26R,1.399540X1.198880*%
%ADD27C,4.000000*%
%ADD28R,2.000000X2.000000*%
%ADD29C,2.000000*%
%ADD30R,1.440180X1.150620*%
%ADD31O,1.342240X0.462240*%
%ADD32O,0.462240X1.342240*%
%ADD33R,2.451880X2.451880*%
%ADD34R,0.508000X0.558800*%
%ADD35R,0.803200X0.703200*%
%ADD36R,0.703200X0.803200*%
%ADD37R,0.400000X0.600000*%
%ADD38R,0.600000X0.400000*%
%ADD39R,0.603200X0.803200*%
%ADD40R,0.797560X0.797560*%
%ADD41C,4.064000*%
%ADD42R,1.000000X1.000000*%
G04 APERTURE END LIST*
D10*
D11*
X47129700Y-97574100D03*
X41668700Y-81267300D03*
X76263500Y-77470000D03*
X64643000Y-78486000D03*
X63906400Y-91490800D03*
X76708000Y-93091000D03*
X73088500Y-94297500D03*
X70993000Y-94297500D03*
X69215000Y-94297500D03*
X33464500Y-78295500D03*
X34734500Y-79565500D03*
X34734500Y-85407500D03*
X59245500Y-101536500D03*
X60642500Y-100139500D03*
X63119000Y-97663000D03*
X51498500Y-105791000D03*
X51435000Y-107315000D03*
X56007000Y-104775000D03*
X55562500Y-108712000D03*
X55562500Y-110236000D03*
X35623500Y-110236000D03*
X35623500Y-108712000D03*
X35623500Y-106870500D03*
X35623500Y-105092500D03*
X35687000Y-103251000D03*
X61150500Y-85280500D03*
X61023500Y-87122000D03*
X69215000Y-91503500D03*
X65659000Y-92202000D03*
X61823600Y-92913200D03*
X61785500Y-94361000D03*
X61785500Y-96075500D03*
X60769500Y-97726500D03*
X57975500Y-100139500D03*
X55943500Y-100076000D03*
X51371500Y-100584000D03*
X45148500Y-97472500D03*
X37274500Y-97472500D03*
X35687000Y-99123500D03*
X35687000Y-111887000D03*
X46101000Y-117538500D03*
X43751500Y-117538500D03*
X41656000Y-117538500D03*
X48514000Y-117475000D03*
X55562500Y-111950500D03*
X55562500Y-107315000D03*
X57848500Y-102933500D03*
X66548000Y-94488000D03*
X75501500Y-94297500D03*
X77787500Y-92011500D03*
X77787500Y-90297000D03*
X77787500Y-88900000D03*
X77787500Y-87439500D03*
X77787500Y-86169500D03*
X77787500Y-84455000D03*
X77787500Y-83058000D03*
X77787500Y-81597500D03*
X77089000Y-78232000D03*
X71170800Y-75742800D03*
X69532500Y-75755500D03*
X67310000Y-75755500D03*
X65976500Y-77089000D03*
X63817500Y-79248000D03*
X62293500Y-80835500D03*
X55181500Y-85725000D03*
X38735000Y-86169500D03*
X33718500Y-90678000D03*
X42354500Y-92392500D03*
X33655000Y-73914000D03*
X35179000Y-73914000D03*
X59372500Y-92900500D03*
X55753000Y-90360500D03*
X53594000Y-90424000D03*
X53022500Y-93535500D03*
X53594000Y-91694000D03*
X50292000Y-90995500D03*
X50736500Y-89217500D03*
X51816000Y-94742000D03*
X50736500Y-93662500D03*
X41592500Y-94107000D03*
X39751000Y-94107000D03*
X36703000Y-93916500D03*
X33655000Y-92900500D03*
X34480500Y-94107000D03*
X32893000Y-95885000D03*
X31623000Y-97091500D03*
X30543500Y-98171000D03*
X30416500Y-100266500D03*
X30416500Y-102933500D03*
X30416500Y-105092500D03*
X30416500Y-106870500D03*
X30416500Y-108712000D03*
X30416500Y-110236000D03*
X30416500Y-111823500D03*
X30416500Y-113855500D03*
X29146500Y-115125500D03*
X26352500Y-115125500D03*
X25463500Y-114236500D03*
X25463500Y-110299500D03*
X26860500Y-108331000D03*
X51943000Y-92456000D03*
X59372500Y-89154000D03*
X59372500Y-87376000D03*
X59372500Y-85598000D03*
X58991500Y-83820000D03*
X59372500Y-82232500D03*
X56451500Y-81089500D03*
X58166000Y-80899000D03*
X56832500Y-79692500D03*
X55181500Y-78041500D03*
X54800500Y-76327000D03*
X54800500Y-74422000D03*
X47117000Y-67945000D03*
X44894500Y-67945000D03*
X36639500Y-67945000D03*
X34861500Y-67945000D03*
X32766000Y-67945000D03*
X30607000Y-67881500D03*
X28575000Y-67881500D03*
X26924000Y-69532500D03*
X26924000Y-67945000D03*
X26924000Y-71374000D03*
X26860500Y-72834500D03*
X26860500Y-74231500D03*
X26860500Y-75501500D03*
X26924000Y-77025500D03*
X26860500Y-78168500D03*
X26860500Y-79502000D03*
X26860500Y-80518000D03*
X26860500Y-82867500D03*
X26860500Y-85407500D03*
X26924000Y-88328500D03*
X26924000Y-89408000D03*
X26924000Y-90614500D03*
X26924000Y-93091000D03*
X26860500Y-95885000D03*
X27622500Y-96964500D03*
X26860500Y-97980500D03*
X26860500Y-99314000D03*
X26860500Y-101473000D03*
X26924000Y-103251000D03*
X26860500Y-104838500D03*
X26860500Y-106172000D03*
X36893500Y-84772500D03*
X36893500Y-88455500D03*
X36893500Y-86868000D03*
X61023500Y-91440000D03*
X61023500Y-90106500D03*
D12*
X50038000Y-76623000D03*
X50038000Y-75523000D03*
D13*
X54250500Y-87630000D03*
X55350500Y-87630000D03*
D14*
X37719000Y-115697000D03*
X35179000Y-115697000D03*
X40259000Y-115697000D03*
D15*
X35519000Y-114129000D03*
X34819000Y-114129000D03*
X35519000Y-115129000D03*
X35519000Y-116129000D03*
X34819000Y-116129000D03*
X34819000Y-115129000D03*
X39919000Y-114129000D03*
X39919000Y-115129000D03*
X39919000Y-116129000D03*
X40619000Y-116129000D03*
X40619000Y-115129000D03*
X40619000Y-114129000D03*
D16*
X91213000Y-68599000D03*
D17*
X88673000Y-68599000D03*
X91213000Y-71139000D03*
X88673000Y-71139000D03*
X91213000Y-73679000D03*
X88673000Y-73679000D03*
X91213000Y-76219000D03*
X88673000Y-76219000D03*
X91213000Y-78759000D03*
X88673000Y-78759000D03*
X91213000Y-81299000D03*
X88673000Y-81299000D03*
X91213000Y-83839000D03*
X88673000Y-83839000D03*
X91213000Y-86379000D03*
X88673000Y-86379000D03*
X91213000Y-88919000D03*
X88673000Y-88919000D03*
X91213000Y-91459000D03*
X88673000Y-91459000D03*
X91213000Y-93999000D03*
X88673000Y-93999000D03*
X91213000Y-96539000D03*
X88673000Y-96539000D03*
X91213000Y-99079000D03*
X88673000Y-99079000D03*
X91213000Y-101619000D03*
X88673000Y-101619000D03*
X91213000Y-104159000D03*
X88673000Y-104159000D03*
X91213000Y-106699000D03*
X88673000Y-106699000D03*
X91213000Y-109239000D03*
X88673000Y-109239000D03*
X91213000Y-111779000D03*
X88673000Y-111779000D03*
D16*
X85213000Y-76219000D03*
D17*
X82673000Y-76219000D03*
X85213000Y-78759000D03*
X82673000Y-78759000D03*
X85213000Y-81299000D03*
X82673000Y-81299000D03*
X85213000Y-83839000D03*
X82673000Y-83839000D03*
X85213000Y-86379000D03*
X82673000Y-86379000D03*
X85213000Y-88919000D03*
X82673000Y-88919000D03*
X85213000Y-91459000D03*
X82673000Y-91459000D03*
X85213000Y-93999000D03*
X82673000Y-93999000D03*
X85213000Y-96539000D03*
X82673000Y-96539000D03*
X85213000Y-99079000D03*
X82673000Y-99079000D03*
X85213000Y-101619000D03*
X82673000Y-101619000D03*
X85213000Y-104159000D03*
X82673000Y-104159000D03*
D16*
X24713000Y-73679000D03*
D17*
X22173000Y-73679000D03*
X24713000Y-76219000D03*
X22173000Y-76219000D03*
X24713000Y-78759000D03*
X22173000Y-78759000D03*
X24713000Y-81299000D03*
X22173000Y-81299000D03*
X24713000Y-83839000D03*
X22173000Y-83839000D03*
X24713000Y-86379000D03*
X22173000Y-86379000D03*
X24713000Y-88919000D03*
X22173000Y-88919000D03*
X24713000Y-91459000D03*
X22173000Y-91459000D03*
X24713000Y-93999000D03*
X22173000Y-93999000D03*
X24713000Y-96539000D03*
X22173000Y-96539000D03*
X24713000Y-99079000D03*
X22173000Y-99079000D03*
X24713000Y-101619000D03*
X22173000Y-101619000D03*
X24713000Y-104159000D03*
X22173000Y-104159000D03*
X24713000Y-106699000D03*
X22173000Y-106699000D03*
D18*
X73804000Y-106064760D03*
X75704000Y-106064760D03*
X74754000Y-104065780D03*
D14*
X51689000Y-69469000D03*
X54229000Y-69469000D03*
X49149000Y-69469000D03*
D15*
X53889000Y-71037000D03*
X54589000Y-71037000D03*
X53889000Y-70037000D03*
X53889000Y-69037000D03*
X54589000Y-69037000D03*
X54589000Y-70037000D03*
X49489000Y-71037000D03*
X49489000Y-70037000D03*
X49489000Y-69037000D03*
X48789000Y-69037000D03*
X48789000Y-70037000D03*
X48789000Y-71037000D03*
D19*
X51264820Y-73032620D03*
X51264820Y-73533000D03*
X51264820Y-74033380D03*
X52113180Y-74033380D03*
X52113180Y-73533000D03*
X52113180Y-73032620D03*
X40088820Y-73286620D03*
X40088820Y-73787000D03*
X40088820Y-74287380D03*
X40937180Y-74287380D03*
X40937180Y-73787000D03*
X40937180Y-73286620D03*
D14*
X40513000Y-69469000D03*
X43053000Y-69469000D03*
X37973000Y-69469000D03*
D15*
X42713000Y-71037000D03*
X43413000Y-71037000D03*
X42713000Y-70037000D03*
X42713000Y-69037000D03*
X43413000Y-69037000D03*
X43413000Y-70037000D03*
X38313000Y-71037000D03*
X38313000Y-70037000D03*
X38313000Y-69037000D03*
X37613000Y-69037000D03*
X37613000Y-70037000D03*
X37613000Y-71037000D03*
D20*
X50206000Y-81963000D03*
X49806000Y-81963000D03*
X49406000Y-81963000D03*
X49006000Y-81963000D03*
X48606000Y-81963000D03*
X48206000Y-81963000D03*
X47806000Y-81963000D03*
X47406000Y-81963000D03*
X47006000Y-81963000D03*
X46606000Y-81963000D03*
X46206000Y-81963000D03*
X45806000Y-81963000D03*
D21*
X45006000Y-82763000D03*
X45006000Y-83163000D03*
X45006000Y-83563000D03*
X45006000Y-83963000D03*
X45006000Y-84363000D03*
X45006000Y-84763000D03*
X45006000Y-85163000D03*
X45006000Y-85563000D03*
X45006000Y-85963000D03*
X45006000Y-86363000D03*
X45006000Y-86763000D03*
X45006000Y-87163000D03*
D20*
X45806000Y-87963000D03*
X46206000Y-87963000D03*
X46606000Y-87963000D03*
X47006000Y-87963000D03*
X47406000Y-87963000D03*
X47806000Y-87963000D03*
X48206000Y-87963000D03*
X48606000Y-87963000D03*
X49006000Y-87963000D03*
X49406000Y-87963000D03*
X49806000Y-87963000D03*
X50206000Y-87963000D03*
D21*
X51006000Y-87163000D03*
X51006000Y-86763000D03*
X51006000Y-86363000D03*
X51006000Y-85963000D03*
X51006000Y-85563000D03*
X51006000Y-85163000D03*
X51006000Y-84763000D03*
X51006000Y-84363000D03*
X51006000Y-83963000D03*
X51006000Y-83563000D03*
X51006000Y-83163000D03*
X51006000Y-82763000D03*
D22*
X48006000Y-84963000D03*
D23*
X65957000Y-88413000D03*
X66457000Y-88413000D03*
X66957000Y-88413000D03*
X67457000Y-88413000D03*
X67957000Y-88413000D03*
X68457000Y-88413000D03*
X68957000Y-88413000D03*
X69457000Y-88413000D03*
X69957000Y-88413000D03*
X70457000Y-88413000D03*
X70957000Y-88413000D03*
X71457000Y-88413000D03*
D24*
X72157000Y-87713000D03*
X72157000Y-87213000D03*
X72157000Y-86713000D03*
X72157000Y-86213000D03*
X72157000Y-85713000D03*
X72157000Y-85213000D03*
X72157000Y-84713000D03*
X72157000Y-84213000D03*
X72157000Y-83713000D03*
X72157000Y-83213000D03*
X72157000Y-82713000D03*
X72157000Y-82213000D03*
D23*
X71457000Y-81513000D03*
X70957000Y-81513000D03*
X70457000Y-81513000D03*
X69957000Y-81513000D03*
X69457000Y-81513000D03*
X68957000Y-81513000D03*
X68457000Y-81513000D03*
X67957000Y-81513000D03*
X67457000Y-81513000D03*
X66957000Y-81513000D03*
X66457000Y-81513000D03*
X65957000Y-81513000D03*
D24*
X65257000Y-82213000D03*
X65257000Y-82713000D03*
X65257000Y-83213000D03*
X65257000Y-83713000D03*
X65257000Y-84213000D03*
X65257000Y-84713000D03*
X65257000Y-85213000D03*
X65257000Y-85713000D03*
X65257000Y-86213000D03*
X65257000Y-86713000D03*
X65257000Y-87213000D03*
X65257000Y-87713000D03*
D25*
X68707000Y-84963000D03*
D26*
X39222680Y-100939600D03*
X41422320Y-99339400D03*
X41422320Y-100939600D03*
X39222680Y-99339400D03*
D27*
X27823000Y-112679000D03*
D28*
X68072000Y-109728000D03*
D29*
X71072000Y-109728000D03*
D30*
X74724000Y-109630000D03*
X74724000Y-107598000D03*
D14*
X52451000Y-115570000D03*
X49911000Y-115570000D03*
X54991000Y-115570000D03*
D15*
X50251000Y-114002000D03*
X49551000Y-114002000D03*
X50251000Y-115002000D03*
X50251000Y-116002000D03*
X49551000Y-116002000D03*
X49551000Y-115002000D03*
X54651000Y-114002000D03*
X54651000Y-115002000D03*
X54651000Y-116002000D03*
X55351000Y-116002000D03*
X55351000Y-115002000D03*
X55351000Y-114002000D03*
D31*
X44028000Y-102505000D03*
X44028000Y-103005000D03*
X44028000Y-103505000D03*
X44028000Y-104005000D03*
X44028000Y-104505000D03*
D32*
X45228000Y-105705000D03*
X45728000Y-105705000D03*
X46228000Y-105705000D03*
X46728000Y-105705000D03*
X47228000Y-105705000D03*
D31*
X48428000Y-104505000D03*
X48428000Y-104005000D03*
X48428000Y-103505000D03*
X48428000Y-103005000D03*
X48428000Y-102505000D03*
D32*
X47228000Y-101305000D03*
X46728000Y-101305000D03*
X46228000Y-101305000D03*
X45728000Y-101305000D03*
X45228000Y-101305000D03*
D33*
X46228000Y-103505000D03*
D34*
X51155600Y-75311000D03*
X52222400Y-75311000D03*
X51155600Y-76835000D03*
X52222400Y-76835000D03*
X39979600Y-75565000D03*
X41046400Y-75565000D03*
X39979600Y-76835000D03*
X41046400Y-76835000D03*
D10*
G36*
X43576818Y-82783764D02*
X43223264Y-83137318D01*
X42799000Y-82713054D01*
X43152554Y-82359500D01*
X43576818Y-82783764D01*
X43576818Y-82783764D01*
G37*
G36*
X42799000Y-82005946D02*
X42445446Y-82359500D01*
X42021182Y-81935236D01*
X42374736Y-81581682D01*
X42799000Y-82005946D01*
X42799000Y-82005946D01*
G37*
G36*
X48724736Y-79009818D02*
X48371182Y-78656264D01*
X48795446Y-78232000D01*
X49149000Y-78585554D01*
X48724736Y-79009818D01*
X48724736Y-79009818D01*
G37*
G36*
X49502554Y-78232000D02*
X49149000Y-77878446D01*
X49573264Y-77454182D01*
X49926818Y-77807736D01*
X49502554Y-78232000D01*
X49502554Y-78232000D01*
G37*
G36*
X51518736Y-79009818D02*
X51165182Y-78656264D01*
X51589446Y-78232000D01*
X51943000Y-78585554D01*
X51518736Y-79009818D01*
X51518736Y-79009818D01*
G37*
G36*
X52296554Y-78232000D02*
X51943000Y-77878446D01*
X52367264Y-77454182D01*
X52720818Y-77807736D01*
X52296554Y-78232000D01*
X52296554Y-78232000D01*
G37*
G36*
X67099264Y-90344682D02*
X67452818Y-90698236D01*
X67028554Y-91122500D01*
X66675000Y-90768946D01*
X67099264Y-90344682D01*
X67099264Y-90344682D01*
G37*
G36*
X66321446Y-91122500D02*
X66675000Y-91476054D01*
X66250736Y-91900318D01*
X65897182Y-91546764D01*
X66321446Y-91122500D01*
X66321446Y-91122500D01*
G37*
D13*
X40936000Y-88138000D03*
X39836000Y-88138000D03*
D35*
X40936000Y-86868000D03*
X39836000Y-86868000D03*
D12*
X46037500Y-91144000D03*
X46037500Y-92244000D03*
D10*
G36*
X70591764Y-89582682D02*
X70945318Y-89936236D01*
X70521054Y-90360500D01*
X70167500Y-90006946D01*
X70591764Y-89582682D01*
X70591764Y-89582682D01*
G37*
G36*
X69813946Y-90360500D02*
X70167500Y-90714054D01*
X69743236Y-91138318D01*
X69389682Y-90784764D01*
X69813946Y-90360500D01*
X69813946Y-90360500D01*
G37*
D13*
X63034000Y-83058000D03*
X61934000Y-83058000D03*
X40936000Y-85598000D03*
X39836000Y-85598000D03*
X63034000Y-84963000D03*
X61934000Y-84963000D03*
X53996500Y-79756000D03*
X55096500Y-79756000D03*
X63034000Y-87122000D03*
X61934000Y-87122000D03*
X52409000Y-104775000D03*
X53509000Y-104775000D03*
D12*
X67246500Y-78718500D03*
X67246500Y-77618500D03*
X78359000Y-105071000D03*
X78359000Y-103971000D03*
X54864000Y-81111000D03*
X54864000Y-82211000D03*
X54864000Y-83587500D03*
X54864000Y-84687500D03*
D13*
X63034000Y-88646000D03*
X61934000Y-88646000D03*
X63034000Y-90043000D03*
X61934000Y-90043000D03*
X76920000Y-110998000D03*
X78020000Y-110998000D03*
D12*
X53340000Y-76623000D03*
X53340000Y-75523000D03*
D13*
X63034000Y-91376500D03*
X61934000Y-91376500D03*
D12*
X58356500Y-90699500D03*
X58356500Y-91799500D03*
X54864000Y-93176000D03*
X54864000Y-94276000D03*
X42291000Y-76750000D03*
X42291000Y-75650000D03*
X44767500Y-91144000D03*
X44767500Y-92244000D03*
D13*
X56219000Y-94488000D03*
X57319000Y-94488000D03*
X56219000Y-92837000D03*
X57319000Y-92837000D03*
X56219000Y-91249500D03*
X57319000Y-91249500D03*
X56219000Y-89471500D03*
X57319000Y-89471500D03*
D12*
X38862000Y-76750000D03*
X38862000Y-75650000D03*
X42164000Y-90974000D03*
X42164000Y-89874000D03*
X44577000Y-99483000D03*
X44577000Y-98383000D03*
D10*
G36*
X65194264Y-89519182D02*
X65547818Y-89872736D01*
X65123554Y-90297000D01*
X64770000Y-89943446D01*
X65194264Y-89519182D01*
X65194264Y-89519182D01*
G37*
G36*
X64416446Y-90297000D02*
X64770000Y-90650554D01*
X64345736Y-91074818D01*
X63992182Y-90721264D01*
X64416446Y-90297000D01*
X64416446Y-90297000D01*
G37*
D12*
X37655500Y-99526000D03*
X37655500Y-100626000D03*
D13*
X39772500Y-97790000D03*
X40872500Y-97790000D03*
X39836000Y-83058000D03*
X40936000Y-83058000D03*
D12*
X39052500Y-90974000D03*
X39052500Y-89874000D03*
X24701500Y-71352500D03*
X24701500Y-70252500D03*
D13*
X40936000Y-84328000D03*
X39836000Y-84328000D03*
D12*
X55118000Y-101896000D03*
X55118000Y-100796000D03*
X55118000Y-103526500D03*
X55118000Y-104626500D03*
D13*
X52409000Y-108458000D03*
X53509000Y-108458000D03*
X52409000Y-111760000D03*
X53509000Y-111760000D03*
X52409000Y-100393500D03*
X53509000Y-100393500D03*
D12*
X77216000Y-105071000D03*
X77216000Y-103971000D03*
X46355000Y-99483000D03*
X46355000Y-98383000D03*
D36*
X49276000Y-108543000D03*
X49276000Y-109643000D03*
D12*
X43053000Y-109643000D03*
X43053000Y-108543000D03*
D13*
X53509000Y-110363000D03*
X52409000Y-110363000D03*
D37*
X75154000Y-111034000D03*
X74254000Y-111034000D03*
X58870000Y-82931000D03*
X57970000Y-82931000D03*
X58870000Y-84709000D03*
X57970000Y-84709000D03*
X58870000Y-86487000D03*
X57970000Y-86487000D03*
X58870000Y-88265000D03*
X57970000Y-88265000D03*
X56319000Y-87376000D03*
X57219000Y-87376000D03*
X56319000Y-85598000D03*
X57219000Y-85598000D03*
X56319000Y-83820000D03*
X57219000Y-83820000D03*
X56319000Y-82105500D03*
X57219000Y-82105500D03*
D38*
X54864000Y-89604000D03*
X54864000Y-88704000D03*
X54864000Y-91826500D03*
X54864000Y-90926500D03*
D37*
X52393000Y-89852500D03*
X51493000Y-89852500D03*
X52393000Y-91249500D03*
X51493000Y-91249500D03*
D38*
X43434000Y-92144000D03*
X43434000Y-91244000D03*
D37*
X40830500Y-89725500D03*
X39930500Y-89725500D03*
X40836000Y-91186000D03*
X39936000Y-91186000D03*
X38793000Y-106045000D03*
X39693000Y-106045000D03*
X38793000Y-104394000D03*
X39693000Y-104394000D03*
X38793000Y-102870000D03*
X39693000Y-102870000D03*
X53409000Y-101854000D03*
X52509000Y-101854000D03*
X53409000Y-103378000D03*
X52509000Y-103378000D03*
D38*
X47625000Y-109543000D03*
X47625000Y-108643000D03*
X41529000Y-108643000D03*
X41529000Y-109543000D03*
X46101000Y-109543000D03*
X46101000Y-108643000D03*
X44577000Y-109543000D03*
X44577000Y-108643000D03*
D37*
X88969000Y-114046000D03*
X88069000Y-114046000D03*
X76904000Y-90932000D03*
X76004000Y-90932000D03*
X76004000Y-79502000D03*
X76904000Y-79502000D03*
X76004000Y-80899000D03*
X76904000Y-80899000D03*
X76004000Y-82296000D03*
X76904000Y-82296000D03*
X76004000Y-83820000D03*
X76904000Y-83820000D03*
X76004000Y-86741000D03*
X76904000Y-86741000D03*
X76004000Y-88138000D03*
X76904000Y-88138000D03*
X76004000Y-89535000D03*
X76904000Y-89535000D03*
D39*
X32443000Y-83820000D03*
X33343000Y-83820000D03*
X32443000Y-81280000D03*
X33343000Y-81280000D03*
X32443000Y-86360000D03*
X33343000Y-86360000D03*
D40*
X28968700Y-83820000D03*
X30467300Y-83820000D03*
X28968700Y-81280000D03*
X30467300Y-81280000D03*
X28968700Y-86360000D03*
X30467300Y-86360000D03*
D13*
X75904000Y-85217000D03*
X77004000Y-85217000D03*
D11*
X59372500Y-90932000D03*
D37*
X32951000Y-109474000D03*
X33851000Y-109474000D03*
D12*
X54229000Y-85619500D03*
X54229000Y-86719500D03*
D11*
X61023500Y-88709500D03*
D12*
X38963600Y-73448000D03*
X38963600Y-72348000D03*
D13*
X56281000Y-128184001D03*
X57381000Y-128184001D03*
X56281000Y-128184001D03*
X57381000Y-128184001D03*
D41*
X56831000Y-128184001D03*
D11*
X56831000Y-128184001D03*
X56831000Y-128184001D03*
D42*
X75847024Y-129868600D03*
X67609119Y-134647600D03*
X68558644Y-127388600D03*
X63151477Y-132872100D03*
X59021477Y-136869100D03*
X68419548Y-129738600D03*
X71556643Y-129865600D03*
X71493976Y-127388600D03*
X66163601Y-131975101D03*
X70815667Y-132091600D03*
X69589405Y-134195101D03*
X62033601Y-134395101D03*
X57403601Y-128905101D03*
X67553601Y-137062100D03*
X63415619Y-135923100D03*
X63415619Y-137445101D03*
X66034405Y-136165101D03*
X71895405Y-137675101D03*
X73885405Y-135325101D03*
X75394262Y-131385101D03*
X71919595Y-136155101D03*
X73799595Y-133805101D03*
X71873095Y-134638600D03*
X73383095Y-132282100D03*
X77706095Y-129035101D03*
X78396595Y-127388600D03*
X69993095Y-136968600D03*
X73993095Y-129035101D03*
X77769595Y-131325101D03*
X75789595Y-132905101D03*
X63906400Y-127203200D03*
X76515071Y-127515600D03*
M02*
