G04 #@! TF.FileFunction,Soldermask,Bot*
%FSLAX46Y46*%
G04 Gerber Fmt 4.6, Leading zero omitted, Abs format (unit mm)*
G04 Created by KiCad (PCBNEW 4.0.0-rc1-stable) date 05/07/2016 17:06:47*
%MOMM*%
G01*
G04 APERTURE LIST*
%ADD10C,0.100000*%
%ADD11C,0.600000*%
%ADD12R,0.600000X0.500000*%
%ADD13R,1.524000X4.064000*%
%ADD14C,0.762000*%
%ADD15R,1.727200X1.727200*%
%ADD16O,1.727200X1.727200*%
%ADD17C,0.736600*%
%ADD18C,0.777240*%
%ADD19C,4.000000*%
%ADD20R,2.000000X2.000000*%
%ADD21C,2.000000*%
%ADD22C,0.742240*%
%ADD23R,0.500000X0.600000*%
%ADD24C,4.064000*%
G04 APERTURE END LIST*
D10*
D11*
X47129700Y-97574100D03*
X41668700Y-81267300D03*
X76263500Y-77470000D03*
X64643000Y-78486000D03*
X63906400Y-91490800D03*
X76708000Y-93091000D03*
X73088500Y-94297500D03*
X70993000Y-94297500D03*
X69215000Y-94297500D03*
X33464500Y-78295500D03*
X34734500Y-79565500D03*
X34734500Y-85407500D03*
X59245500Y-101536500D03*
X60642500Y-100139500D03*
X63119000Y-97663000D03*
X51498500Y-105791000D03*
X51435000Y-107315000D03*
X56007000Y-104775000D03*
X55562500Y-108712000D03*
X55562500Y-110236000D03*
X35623500Y-110236000D03*
X35623500Y-108712000D03*
X35623500Y-106870500D03*
X35623500Y-105092500D03*
X35687000Y-103251000D03*
X61150500Y-85280500D03*
X61023500Y-87122000D03*
X69215000Y-91503500D03*
X65659000Y-92202000D03*
X61823600Y-92913200D03*
X61785500Y-94361000D03*
X61785500Y-96075500D03*
X60769500Y-97726500D03*
X57975500Y-100139500D03*
X55943500Y-100076000D03*
X51371500Y-100584000D03*
X45148500Y-97472500D03*
X37274500Y-97472500D03*
X35687000Y-99123500D03*
X35687000Y-111887000D03*
X46101000Y-117538500D03*
X43751500Y-117538500D03*
X41656000Y-117538500D03*
X48514000Y-117475000D03*
X55562500Y-111950500D03*
X55562500Y-107315000D03*
X57848500Y-102933500D03*
X66548000Y-94488000D03*
X75501500Y-94297500D03*
X77787500Y-92011500D03*
X77787500Y-90297000D03*
X77787500Y-88900000D03*
X77787500Y-87439500D03*
X77787500Y-86169500D03*
X77787500Y-84455000D03*
X77787500Y-83058000D03*
X77787500Y-81597500D03*
X77089000Y-78232000D03*
X71170800Y-75742800D03*
X69532500Y-75755500D03*
X67310000Y-75755500D03*
X65976500Y-77089000D03*
X63817500Y-79248000D03*
X62293500Y-80835500D03*
X55181500Y-85725000D03*
X38735000Y-86169500D03*
X33718500Y-90678000D03*
X42354500Y-92392500D03*
X33655000Y-73914000D03*
X35179000Y-73914000D03*
X59372500Y-92900500D03*
X55753000Y-90360500D03*
X53594000Y-90424000D03*
X53022500Y-93535500D03*
X53594000Y-91694000D03*
X50292000Y-90995500D03*
X50736500Y-89217500D03*
X51816000Y-94742000D03*
X50736500Y-93662500D03*
X41592500Y-94107000D03*
X39751000Y-94107000D03*
X36703000Y-93916500D03*
X33655000Y-92900500D03*
X34480500Y-94107000D03*
X32893000Y-95885000D03*
X31623000Y-97091500D03*
X30543500Y-98171000D03*
X30416500Y-100266500D03*
X30416500Y-102933500D03*
X30416500Y-105092500D03*
X30416500Y-106870500D03*
X30416500Y-108712000D03*
X30416500Y-110236000D03*
X30416500Y-111823500D03*
X30416500Y-113855500D03*
X29146500Y-115125500D03*
X26352500Y-115125500D03*
X25463500Y-114236500D03*
X25463500Y-110299500D03*
X26860500Y-108331000D03*
X51943000Y-92456000D03*
X59372500Y-89154000D03*
X59372500Y-87376000D03*
X59372500Y-85598000D03*
X58991500Y-83820000D03*
X59372500Y-82232500D03*
X56451500Y-81089500D03*
X58166000Y-80899000D03*
X56832500Y-79692500D03*
X55181500Y-78041500D03*
X54800500Y-76327000D03*
X54800500Y-74422000D03*
X47117000Y-67945000D03*
X44894500Y-67945000D03*
X36639500Y-67945000D03*
X34861500Y-67945000D03*
X32766000Y-67945000D03*
X30607000Y-67881500D03*
X28575000Y-67881500D03*
X26924000Y-69532500D03*
X26924000Y-67945000D03*
X26924000Y-71374000D03*
X26860500Y-72834500D03*
X26860500Y-74231500D03*
X26860500Y-75501500D03*
X26924000Y-77025500D03*
X26860500Y-78168500D03*
X26860500Y-79502000D03*
X26860500Y-80518000D03*
X26860500Y-82867500D03*
X26860500Y-85407500D03*
X26924000Y-88328500D03*
X26924000Y-89408000D03*
X26924000Y-90614500D03*
X26924000Y-93091000D03*
X26860500Y-95885000D03*
X27622500Y-96964500D03*
X26860500Y-97980500D03*
X26860500Y-99314000D03*
X26860500Y-101473000D03*
X26924000Y-103251000D03*
X26860500Y-104838500D03*
X26860500Y-106172000D03*
X36893500Y-84772500D03*
X36893500Y-88455500D03*
X36893500Y-86868000D03*
X61023500Y-91440000D03*
X61023500Y-90106500D03*
D12*
X54250500Y-87630000D03*
X55350500Y-87630000D03*
D10*
G36*
X48724736Y-79009818D02*
X48371182Y-78656264D01*
X48795446Y-78232000D01*
X49149000Y-78585554D01*
X48724736Y-79009818D01*
X48724736Y-79009818D01*
G37*
G36*
X49502554Y-78232000D02*
X49149000Y-77878446D01*
X49573264Y-77454182D01*
X49926818Y-77807736D01*
X49502554Y-78232000D01*
X49502554Y-78232000D01*
G37*
D13*
X40259000Y-115697000D03*
X35179000Y-115697000D03*
D14*
X35519000Y-114129000D03*
X34819000Y-114129000D03*
X35519000Y-115129000D03*
X35519000Y-116129000D03*
X34819000Y-116129000D03*
X34819000Y-115129000D03*
X39919000Y-114129000D03*
X39919000Y-115129000D03*
X39919000Y-116129000D03*
X40619000Y-116129000D03*
X40619000Y-115129000D03*
X40619000Y-114129000D03*
D15*
X91213000Y-68599000D03*
D16*
X88673000Y-68599000D03*
X91213000Y-71139000D03*
X88673000Y-71139000D03*
X91213000Y-73679000D03*
X88673000Y-73679000D03*
X91213000Y-76219000D03*
X88673000Y-76219000D03*
X91213000Y-78759000D03*
X88673000Y-78759000D03*
X91213000Y-81299000D03*
X88673000Y-81299000D03*
X91213000Y-83839000D03*
X88673000Y-83839000D03*
X91213000Y-86379000D03*
X88673000Y-86379000D03*
X91213000Y-88919000D03*
X88673000Y-88919000D03*
X91213000Y-91459000D03*
X88673000Y-91459000D03*
X91213000Y-93999000D03*
X88673000Y-93999000D03*
X91213000Y-96539000D03*
X88673000Y-96539000D03*
X91213000Y-99079000D03*
X88673000Y-99079000D03*
X91213000Y-101619000D03*
X88673000Y-101619000D03*
X91213000Y-104159000D03*
X88673000Y-104159000D03*
X91213000Y-106699000D03*
X88673000Y-106699000D03*
X91213000Y-109239000D03*
X88673000Y-109239000D03*
X91213000Y-111779000D03*
X88673000Y-111779000D03*
D15*
X85213000Y-76219000D03*
D16*
X82673000Y-76219000D03*
X85213000Y-78759000D03*
X82673000Y-78759000D03*
X85213000Y-81299000D03*
X82673000Y-81299000D03*
X85213000Y-83839000D03*
X82673000Y-83839000D03*
X85213000Y-86379000D03*
X82673000Y-86379000D03*
X85213000Y-88919000D03*
X82673000Y-88919000D03*
X85213000Y-91459000D03*
X82673000Y-91459000D03*
X85213000Y-93999000D03*
X82673000Y-93999000D03*
X85213000Y-96539000D03*
X82673000Y-96539000D03*
X85213000Y-99079000D03*
X82673000Y-99079000D03*
X85213000Y-101619000D03*
X82673000Y-101619000D03*
X85213000Y-104159000D03*
X82673000Y-104159000D03*
D15*
X24713000Y-73679000D03*
D16*
X22173000Y-73679000D03*
X24713000Y-76219000D03*
X22173000Y-76219000D03*
X24713000Y-78759000D03*
X22173000Y-78759000D03*
X24713000Y-81299000D03*
X22173000Y-81299000D03*
X24713000Y-83839000D03*
X22173000Y-83839000D03*
X24713000Y-86379000D03*
X22173000Y-86379000D03*
X24713000Y-88919000D03*
X22173000Y-88919000D03*
X24713000Y-91459000D03*
X22173000Y-91459000D03*
X24713000Y-93999000D03*
X22173000Y-93999000D03*
X24713000Y-96539000D03*
X22173000Y-96539000D03*
X24713000Y-99079000D03*
X22173000Y-99079000D03*
X24713000Y-101619000D03*
X22173000Y-101619000D03*
X24713000Y-104159000D03*
X22173000Y-104159000D03*
X24713000Y-106699000D03*
X22173000Y-106699000D03*
D13*
X49149000Y-69469000D03*
X54229000Y-69469000D03*
D14*
X53889000Y-71037000D03*
X54589000Y-71037000D03*
X53889000Y-70037000D03*
X53889000Y-69037000D03*
X54589000Y-69037000D03*
X54589000Y-70037000D03*
X49489000Y-71037000D03*
X49489000Y-70037000D03*
X49489000Y-69037000D03*
X48789000Y-69037000D03*
X48789000Y-70037000D03*
X48789000Y-71037000D03*
D13*
X37973000Y-69469000D03*
X43053000Y-69469000D03*
D14*
X42713000Y-71037000D03*
X43413000Y-71037000D03*
X42713000Y-70037000D03*
X42713000Y-69037000D03*
X43413000Y-69037000D03*
X43413000Y-70037000D03*
X38313000Y-71037000D03*
X38313000Y-70037000D03*
X38313000Y-69037000D03*
X37613000Y-69037000D03*
X37613000Y-70037000D03*
X37613000Y-71037000D03*
D17*
X48006000Y-84963000D03*
X48006000Y-83463000D03*
X49506000Y-83463000D03*
X49506000Y-84963000D03*
X49506000Y-86463000D03*
X48006000Y-86463000D03*
X46506000Y-86463000D03*
X46506000Y-84963000D03*
X46506000Y-83463000D03*
D18*
X68707000Y-84963000D03*
X68707000Y-86613000D03*
X67057000Y-86613000D03*
X67057000Y-84963000D03*
X67057000Y-83313000D03*
X68707000Y-83313000D03*
X70357000Y-83313000D03*
X70357000Y-84963000D03*
X70357000Y-86613000D03*
D19*
X27823000Y-112679000D03*
D20*
X68072000Y-109728000D03*
D21*
X71072000Y-109728000D03*
D13*
X54991000Y-115570000D03*
X49911000Y-115570000D03*
D14*
X50251000Y-114002000D03*
X49551000Y-114002000D03*
X50251000Y-115002000D03*
X50251000Y-116002000D03*
X49551000Y-116002000D03*
X49551000Y-115002000D03*
X54651000Y-114002000D03*
X54651000Y-115002000D03*
X54651000Y-116002000D03*
X55351000Y-116002000D03*
X55351000Y-115002000D03*
X55351000Y-114002000D03*
D22*
X46228000Y-103505000D03*
X45568000Y-102845000D03*
X46888000Y-102845000D03*
X46888000Y-104165000D03*
X45568000Y-104165000D03*
D10*
G36*
X51518736Y-79009818D02*
X51165182Y-78656264D01*
X51589446Y-78232000D01*
X51943000Y-78585554D01*
X51518736Y-79009818D01*
X51518736Y-79009818D01*
G37*
G36*
X52296554Y-78232000D02*
X51943000Y-77878446D01*
X52367264Y-77454182D01*
X52720818Y-77807736D01*
X52296554Y-78232000D01*
X52296554Y-78232000D01*
G37*
G36*
X43576818Y-82783764D02*
X43223264Y-83137318D01*
X42799000Y-82713054D01*
X43152554Y-82359500D01*
X43576818Y-82783764D01*
X43576818Y-82783764D01*
G37*
G36*
X42799000Y-82005946D02*
X42445446Y-82359500D01*
X42021182Y-81935236D01*
X42374736Y-81581682D01*
X42799000Y-82005946D01*
X42799000Y-82005946D01*
G37*
D12*
X63034000Y-83058000D03*
X61934000Y-83058000D03*
X53996500Y-79756000D03*
X55096500Y-79756000D03*
D10*
G36*
X67099264Y-90344682D02*
X67452818Y-90698236D01*
X67028554Y-91122500D01*
X66675000Y-90768946D01*
X67099264Y-90344682D01*
X67099264Y-90344682D01*
G37*
G36*
X66321446Y-91122500D02*
X66675000Y-91476054D01*
X66250736Y-91900318D01*
X65897182Y-91546764D01*
X66321446Y-91122500D01*
X66321446Y-91122500D01*
G37*
D12*
X63034000Y-84963000D03*
X61934000Y-84963000D03*
X63034000Y-87122000D03*
X61934000Y-87122000D03*
D23*
X67246500Y-78718500D03*
X67246500Y-77618500D03*
D10*
G36*
X65194264Y-89519182D02*
X65547818Y-89872736D01*
X65123554Y-90297000D01*
X64770000Y-89943446D01*
X65194264Y-89519182D01*
X65194264Y-89519182D01*
G37*
G36*
X64416446Y-90297000D02*
X64770000Y-90650554D01*
X64345736Y-91074818D01*
X63992182Y-90721264D01*
X64416446Y-90297000D01*
X64416446Y-90297000D01*
G37*
D12*
X40936000Y-86868000D03*
X39836000Y-86868000D03*
X40936000Y-88138000D03*
X39836000Y-88138000D03*
X40936000Y-85598000D03*
X39836000Y-85598000D03*
D10*
G36*
X70591764Y-89582682D02*
X70945318Y-89936236D01*
X70521054Y-90360500D01*
X70167500Y-90006946D01*
X70591764Y-89582682D01*
X70591764Y-89582682D01*
G37*
G36*
X69813946Y-90360500D02*
X70167500Y-90714054D01*
X69743236Y-91138318D01*
X69389682Y-90784764D01*
X69813946Y-90360500D01*
X69813946Y-90360500D01*
G37*
D23*
X46037500Y-91144000D03*
X46037500Y-92244000D03*
D12*
X75904000Y-85217000D03*
X77004000Y-85217000D03*
D11*
X59372500Y-90932000D03*
D23*
X54229000Y-85619500D03*
X54229000Y-86719500D03*
D11*
X61023500Y-88709500D03*
D24*
X56831000Y-128184001D03*
D11*
X56831000Y-128184001D03*
X56831000Y-128184001D03*
M02*
