G04 #@! TF.FileFunction,Legend,Bot*
%FSLAX46Y46*%
G04 Gerber Fmt 4.6, Leading zero omitted, Abs format (unit mm)*
G04 Created by KiCad (PCBNEW 4.0.0-rc1-stable) date 05/07/2016 17:06:47*
%MOMM*%
G01*
G04 APERTURE LIST*
%ADD10C,0.100000*%
%ADD11C,0.150000*%
%ADD12C,0.110000*%
G04 APERTURE END LIST*
D10*
D11*
X55050500Y-88105000D02*
X54550500Y-88105000D01*
X54550500Y-87155000D02*
X55050500Y-87155000D01*
X49661652Y-78391099D02*
X49308099Y-78744652D01*
X48636348Y-78072901D02*
X48989901Y-77719348D01*
X52455652Y-78391099D02*
X52102099Y-78744652D01*
X51430348Y-78072901D02*
X51783901Y-77719348D01*
X42958099Y-81846848D02*
X43311652Y-82200401D01*
X42639901Y-82872152D02*
X42286348Y-82518599D01*
X62234000Y-82583000D02*
X62734000Y-82583000D01*
X62734000Y-83533000D02*
X62234000Y-83533000D01*
X54796500Y-80231000D02*
X54296500Y-80231000D01*
X54296500Y-79281000D02*
X54796500Y-79281000D01*
X66162348Y-90963401D02*
X66515901Y-90609848D01*
X67187652Y-91281599D02*
X66834099Y-91635152D01*
X62234000Y-84488000D02*
X62734000Y-84488000D01*
X62734000Y-85438000D02*
X62234000Y-85438000D01*
X62234000Y-86647000D02*
X62734000Y-86647000D01*
X62734000Y-87597000D02*
X62234000Y-87597000D01*
X67721500Y-77918500D02*
X67721500Y-78418500D01*
X66771500Y-78418500D02*
X66771500Y-77918500D01*
X64257348Y-90137901D02*
X64610901Y-89784348D01*
X65282652Y-90456099D02*
X64929099Y-90809652D01*
X40136000Y-86393000D02*
X40636000Y-86393000D01*
X40636000Y-87343000D02*
X40136000Y-87343000D01*
X40136000Y-87663000D02*
X40636000Y-87663000D01*
X40636000Y-88613000D02*
X40136000Y-88613000D01*
X40136000Y-85123000D02*
X40636000Y-85123000D01*
X40636000Y-86073000D02*
X40136000Y-86073000D01*
X69654848Y-90201401D02*
X70008401Y-89847848D01*
X70680152Y-90519599D02*
X70326599Y-90873152D01*
X45562500Y-91944000D02*
X45562500Y-91444000D01*
X46512500Y-91444000D02*
X46512500Y-91944000D01*
X76704000Y-85692000D02*
X76204000Y-85692000D01*
X76204000Y-84742000D02*
X76704000Y-84742000D01*
X53754000Y-86419500D02*
X53754000Y-85919500D01*
X54704000Y-85919500D02*
X54704000Y-86419500D01*
D12*
X56039533Y-88672171D02*
X56063343Y-88695981D01*
X56134771Y-88719790D01*
X56182390Y-88719790D01*
X56253819Y-88695981D01*
X56301438Y-88648362D01*
X56325247Y-88600743D01*
X56349057Y-88505505D01*
X56349057Y-88434076D01*
X56325247Y-88338838D01*
X56301438Y-88291219D01*
X56253819Y-88243600D01*
X56182390Y-88219790D01*
X56134771Y-88219790D01*
X56063343Y-88243600D01*
X56039533Y-88267410D01*
X55610962Y-88386457D02*
X55610962Y-88719790D01*
X55730009Y-88195981D02*
X55849057Y-88553124D01*
X55539533Y-88553124D01*
X50536276Y-79501425D02*
X50569949Y-79501425D01*
X50637291Y-79467754D01*
X50670963Y-79434082D01*
X50704635Y-79366739D01*
X50704635Y-79299395D01*
X50687799Y-79248888D01*
X50637292Y-79164708D01*
X50586784Y-79114200D01*
X50502604Y-79063693D01*
X50452097Y-79046857D01*
X50384754Y-79046857D01*
X50317410Y-79080529D01*
X50283738Y-79114200D01*
X50250067Y-79181544D01*
X50250067Y-79215216D01*
X49896513Y-79501425D02*
X50064871Y-79333067D01*
X50250067Y-79484590D01*
X50216394Y-79484590D01*
X50165887Y-79501426D01*
X50081708Y-79585605D01*
X50064872Y-79636112D01*
X50064872Y-79669785D01*
X50081708Y-79720292D01*
X50165887Y-79804471D01*
X50216394Y-79821307D01*
X50250067Y-79821307D01*
X50300574Y-79804471D01*
X50384753Y-79720292D01*
X50401589Y-79669785D01*
X50401589Y-79636112D01*
X53330276Y-79501425D02*
X53363949Y-79501425D01*
X53431291Y-79467754D01*
X53464963Y-79434082D01*
X53498635Y-79366739D01*
X53498635Y-79299395D01*
X53481799Y-79248888D01*
X53431292Y-79164708D01*
X53380784Y-79114200D01*
X53296604Y-79063693D01*
X53246097Y-79046857D01*
X53178754Y-79046857D01*
X53111410Y-79080529D01*
X53077738Y-79114200D01*
X53044067Y-79181544D01*
X53044067Y-79215216D01*
X52825200Y-79602441D02*
X53060902Y-79838143D01*
X52774692Y-79383575D02*
X53111410Y-79551933D01*
X52892544Y-79770800D01*
X43933739Y-81342612D02*
X43933739Y-81376285D01*
X43967410Y-81443627D01*
X44001082Y-81477299D01*
X44068425Y-81510971D01*
X44135769Y-81510971D01*
X44186276Y-81494135D01*
X44270456Y-81443628D01*
X44320964Y-81393120D01*
X44371471Y-81308940D01*
X44388307Y-81258433D01*
X44388307Y-81191090D01*
X44354635Y-81123746D01*
X44320964Y-81090074D01*
X44253620Y-81056403D01*
X44219948Y-81056403D01*
X43950575Y-80719685D02*
X44017918Y-80787028D01*
X44034754Y-80837536D01*
X44034753Y-80871208D01*
X44017918Y-80955387D01*
X43967410Y-81039567D01*
X43832723Y-81174254D01*
X43782215Y-81191089D01*
X43748544Y-81191090D01*
X43698037Y-81174254D01*
X43630693Y-81106910D01*
X43613857Y-81056403D01*
X43613857Y-81022730D01*
X43630693Y-80972223D01*
X43714872Y-80888044D01*
X43765379Y-80871208D01*
X43799052Y-80871208D01*
X43849559Y-80888044D01*
X43916902Y-80955388D01*
X43933739Y-81005895D01*
X43933738Y-81039567D01*
X43916902Y-81090075D01*
X62805428Y-82296771D02*
X62829238Y-82320581D01*
X62900666Y-82344390D01*
X62948285Y-82344390D01*
X63019714Y-82320581D01*
X63067333Y-82272962D01*
X63091142Y-82225343D01*
X63114952Y-82130105D01*
X63114952Y-82058676D01*
X63091142Y-81963438D01*
X63067333Y-81915819D01*
X63019714Y-81868200D01*
X62948285Y-81844390D01*
X62900666Y-81844390D01*
X62829238Y-81868200D01*
X62805428Y-81892010D01*
X62329238Y-82344390D02*
X62614952Y-82344390D01*
X62472095Y-82344390D02*
X62472095Y-81844390D01*
X62519714Y-81915819D01*
X62567333Y-81963438D01*
X62614952Y-81987248D01*
X62162571Y-81844390D02*
X61853048Y-81844390D01*
X62019714Y-82034867D01*
X61948286Y-82034867D01*
X61900667Y-82058676D01*
X61876857Y-82082486D01*
X61853048Y-82130105D01*
X61853048Y-82249152D01*
X61876857Y-82296771D01*
X61900667Y-82320581D01*
X61948286Y-82344390D01*
X62091143Y-82344390D01*
X62138762Y-82320581D01*
X62162571Y-82296771D01*
X54867928Y-81634571D02*
X54891738Y-81658381D01*
X54963166Y-81682190D01*
X55010785Y-81682190D01*
X55082214Y-81658381D01*
X55129833Y-81610762D01*
X55153642Y-81563143D01*
X55177452Y-81467905D01*
X55177452Y-81396476D01*
X55153642Y-81301238D01*
X55129833Y-81253619D01*
X55082214Y-81206000D01*
X55010785Y-81182190D01*
X54963166Y-81182190D01*
X54891738Y-81206000D01*
X54867928Y-81229810D01*
X54391738Y-81682190D02*
X54677452Y-81682190D01*
X54534595Y-81682190D02*
X54534595Y-81182190D01*
X54582214Y-81253619D01*
X54629833Y-81301238D01*
X54677452Y-81325048D01*
X53939357Y-81182190D02*
X54177452Y-81182190D01*
X54201262Y-81420286D01*
X54177452Y-81396476D01*
X54129833Y-81372667D01*
X54010786Y-81372667D01*
X53963167Y-81396476D01*
X53939357Y-81420286D01*
X53915548Y-81467905D01*
X53915548Y-81586952D01*
X53939357Y-81634571D01*
X53963167Y-81658381D01*
X54010786Y-81682190D01*
X54129833Y-81682190D01*
X54177452Y-81658381D01*
X54201262Y-81634571D01*
X65826471Y-89819403D02*
X65860143Y-89819403D01*
X65927486Y-89785731D01*
X65961158Y-89752059D01*
X65994830Y-89684716D01*
X65994830Y-89617373D01*
X65977994Y-89566865D01*
X65927487Y-89482686D01*
X65876979Y-89432178D01*
X65792799Y-89381671D01*
X65742292Y-89364834D01*
X65674948Y-89364834D01*
X65607604Y-89398506D01*
X65573932Y-89432178D01*
X65540261Y-89499521D01*
X65540261Y-89533194D01*
X65523425Y-90189792D02*
X65725456Y-89987761D01*
X65624440Y-90088777D02*
X65270887Y-89735223D01*
X65355067Y-89752059D01*
X65422410Y-89752059D01*
X65472918Y-89735224D01*
X64866826Y-90139284D02*
X64934170Y-90071940D01*
X64984678Y-90055105D01*
X65018349Y-90055106D01*
X65102528Y-90071941D01*
X65186708Y-90122448D01*
X65321395Y-90257135D01*
X65338230Y-90307643D01*
X65338231Y-90341315D01*
X65321395Y-90391822D01*
X65254051Y-90459165D01*
X65203544Y-90476002D01*
X65169872Y-90476002D01*
X65119365Y-90459165D01*
X65035186Y-90374987D01*
X65018349Y-90324479D01*
X65018349Y-90290807D01*
X65035186Y-90240300D01*
X65102529Y-90172956D01*
X65153036Y-90156120D01*
X65186708Y-90156121D01*
X65237216Y-90172956D01*
X62805428Y-84201771D02*
X62829238Y-84225581D01*
X62900666Y-84249390D01*
X62948285Y-84249390D01*
X63019714Y-84225581D01*
X63067333Y-84177962D01*
X63091142Y-84130343D01*
X63114952Y-84035105D01*
X63114952Y-83963676D01*
X63091142Y-83868438D01*
X63067333Y-83820819D01*
X63019714Y-83773200D01*
X62948285Y-83749390D01*
X62900666Y-83749390D01*
X62829238Y-83773200D01*
X62805428Y-83797010D01*
X62329238Y-84249390D02*
X62614952Y-84249390D01*
X62472095Y-84249390D02*
X62472095Y-83749390D01*
X62519714Y-83820819D01*
X62567333Y-83868438D01*
X62614952Y-83892248D01*
X62043524Y-83963676D02*
X62091143Y-83939867D01*
X62114952Y-83916057D01*
X62138762Y-83868438D01*
X62138762Y-83844629D01*
X62114952Y-83797010D01*
X62091143Y-83773200D01*
X62043524Y-83749390D01*
X61948286Y-83749390D01*
X61900667Y-83773200D01*
X61876857Y-83797010D01*
X61853048Y-83844629D01*
X61853048Y-83868438D01*
X61876857Y-83916057D01*
X61900667Y-83939867D01*
X61948286Y-83963676D01*
X62043524Y-83963676D01*
X62091143Y-83987486D01*
X62114952Y-84011295D01*
X62138762Y-84058914D01*
X62138762Y-84154152D01*
X62114952Y-84201771D01*
X62091143Y-84225581D01*
X62043524Y-84249390D01*
X61948286Y-84249390D01*
X61900667Y-84225581D01*
X61876857Y-84201771D01*
X61853048Y-84154152D01*
X61853048Y-84058914D01*
X61876857Y-84011295D01*
X61900667Y-83987486D01*
X61948286Y-83963676D01*
X62805428Y-86360771D02*
X62829238Y-86384581D01*
X62900666Y-86408390D01*
X62948285Y-86408390D01*
X63019714Y-86384581D01*
X63067333Y-86336962D01*
X63091142Y-86289343D01*
X63114952Y-86194105D01*
X63114952Y-86122676D01*
X63091142Y-86027438D01*
X63067333Y-85979819D01*
X63019714Y-85932200D01*
X62948285Y-85908390D01*
X62900666Y-85908390D01*
X62829238Y-85932200D01*
X62805428Y-85956010D01*
X62329238Y-86408390D02*
X62614952Y-86408390D01*
X62472095Y-86408390D02*
X62472095Y-85908390D01*
X62519714Y-85979819D01*
X62567333Y-86027438D01*
X62614952Y-86051248D01*
X62091143Y-86408390D02*
X61995905Y-86408390D01*
X61948286Y-86384581D01*
X61924476Y-86360771D01*
X61876857Y-86289343D01*
X61853048Y-86194105D01*
X61853048Y-86003629D01*
X61876857Y-85956010D01*
X61900667Y-85932200D01*
X61948286Y-85908390D01*
X62043524Y-85908390D01*
X62091143Y-85932200D01*
X62114952Y-85956010D01*
X62138762Y-86003629D01*
X62138762Y-86122676D01*
X62114952Y-86170295D01*
X62091143Y-86194105D01*
X62043524Y-86217914D01*
X61948286Y-86217914D01*
X61900667Y-86194105D01*
X61876857Y-86170295D01*
X61853048Y-86122676D01*
X69125071Y-77847072D02*
X69148881Y-77823262D01*
X69172690Y-77751834D01*
X69172690Y-77704215D01*
X69148881Y-77632786D01*
X69101262Y-77585167D01*
X69053643Y-77561358D01*
X68958405Y-77537548D01*
X68886976Y-77537548D01*
X68791738Y-77561358D01*
X68744119Y-77585167D01*
X68696500Y-77632786D01*
X68672690Y-77704215D01*
X68672690Y-77751834D01*
X68696500Y-77823262D01*
X68720310Y-77847072D01*
X68720310Y-78037548D02*
X68696500Y-78061358D01*
X68672690Y-78108977D01*
X68672690Y-78228024D01*
X68696500Y-78275643D01*
X68720310Y-78299453D01*
X68767929Y-78323262D01*
X68815548Y-78323262D01*
X68886976Y-78299453D01*
X69172690Y-78013739D01*
X69172690Y-78323262D01*
X68672690Y-78489929D02*
X68672690Y-78799452D01*
X68863167Y-78632786D01*
X68863167Y-78704214D01*
X68886976Y-78751833D01*
X68910786Y-78775643D01*
X68958405Y-78799452D01*
X69077452Y-78799452D01*
X69125071Y-78775643D01*
X69148881Y-78751833D01*
X69172690Y-78704214D01*
X69172690Y-78561357D01*
X69148881Y-78513738D01*
X69125071Y-78489929D01*
X64488553Y-89408585D02*
X64522225Y-89408585D01*
X64589568Y-89374913D01*
X64623240Y-89341241D01*
X64656912Y-89273898D01*
X64656912Y-89206555D01*
X64640076Y-89156047D01*
X64589569Y-89071868D01*
X64539061Y-89021360D01*
X64454881Y-88970853D01*
X64404374Y-88954016D01*
X64337030Y-88954016D01*
X64269686Y-88987688D01*
X64236014Y-89021360D01*
X64202343Y-89088703D01*
X64202343Y-89122376D01*
X63983477Y-89509600D02*
X64219179Y-89745302D01*
X63932969Y-89290734D02*
X64269687Y-89459093D01*
X64050820Y-89677959D01*
X63528908Y-89728466D02*
X63596252Y-89661122D01*
X63646760Y-89644287D01*
X63680431Y-89644288D01*
X63764610Y-89661123D01*
X63848790Y-89711630D01*
X63983477Y-89846317D01*
X64000312Y-89896825D01*
X64000313Y-89930497D01*
X63983477Y-89981004D01*
X63916133Y-90048347D01*
X63865626Y-90065184D01*
X63831954Y-90065184D01*
X63781447Y-90048347D01*
X63697268Y-89964169D01*
X63680431Y-89913661D01*
X63680431Y-89879989D01*
X63697268Y-89829482D01*
X63764611Y-89762138D01*
X63815118Y-89745302D01*
X63848790Y-89745303D01*
X63899298Y-89762138D01*
X40707428Y-85346571D02*
X40731238Y-85370381D01*
X40802666Y-85394190D01*
X40850285Y-85394190D01*
X40921714Y-85370381D01*
X40969333Y-85322762D01*
X40993142Y-85275143D01*
X41016952Y-85179905D01*
X41016952Y-85108476D01*
X40993142Y-85013238D01*
X40969333Y-84965619D01*
X40921714Y-84918000D01*
X40850285Y-84894190D01*
X40802666Y-84894190D01*
X40731238Y-84918000D01*
X40707428Y-84941810D01*
X40278857Y-84894190D02*
X40374095Y-84894190D01*
X40421714Y-84918000D01*
X40445523Y-84941810D01*
X40493142Y-85013238D01*
X40516952Y-85108476D01*
X40516952Y-85298952D01*
X40493142Y-85346571D01*
X40469333Y-85370381D01*
X40421714Y-85394190D01*
X40326476Y-85394190D01*
X40278857Y-85370381D01*
X40255047Y-85346571D01*
X40231238Y-85298952D01*
X40231238Y-85179905D01*
X40255047Y-85132286D01*
X40278857Y-85108476D01*
X40326476Y-85084667D01*
X40421714Y-85084667D01*
X40469333Y-85108476D01*
X40493142Y-85132286D01*
X40516952Y-85179905D01*
X39755048Y-85394190D02*
X40040762Y-85394190D01*
X39897905Y-85394190D02*
X39897905Y-84894190D01*
X39945524Y-84965619D01*
X39993143Y-85013238D01*
X40040762Y-85037048D01*
X40707428Y-86616571D02*
X40731238Y-86640381D01*
X40802666Y-86664190D01*
X40850285Y-86664190D01*
X40921714Y-86640381D01*
X40969333Y-86592762D01*
X40993142Y-86545143D01*
X41016952Y-86449905D01*
X41016952Y-86378476D01*
X40993142Y-86283238D01*
X40969333Y-86235619D01*
X40921714Y-86188000D01*
X40850285Y-86164190D01*
X40802666Y-86164190D01*
X40731238Y-86188000D01*
X40707428Y-86211810D01*
X40278857Y-86164190D02*
X40374095Y-86164190D01*
X40421714Y-86188000D01*
X40445523Y-86211810D01*
X40493142Y-86283238D01*
X40516952Y-86378476D01*
X40516952Y-86568952D01*
X40493142Y-86616571D01*
X40469333Y-86640381D01*
X40421714Y-86664190D01*
X40326476Y-86664190D01*
X40278857Y-86640381D01*
X40255047Y-86616571D01*
X40231238Y-86568952D01*
X40231238Y-86449905D01*
X40255047Y-86402286D01*
X40278857Y-86378476D01*
X40326476Y-86354667D01*
X40421714Y-86354667D01*
X40469333Y-86378476D01*
X40493142Y-86402286D01*
X40516952Y-86449905D01*
X40040762Y-86211810D02*
X40016952Y-86188000D01*
X39969333Y-86164190D01*
X39850286Y-86164190D01*
X39802667Y-86188000D01*
X39778857Y-86211810D01*
X39755048Y-86259429D01*
X39755048Y-86307048D01*
X39778857Y-86378476D01*
X40064571Y-86664190D01*
X39755048Y-86664190D01*
X40707428Y-84076571D02*
X40731238Y-84100381D01*
X40802666Y-84124190D01*
X40850285Y-84124190D01*
X40921714Y-84100381D01*
X40969333Y-84052762D01*
X40993142Y-84005143D01*
X41016952Y-83909905D01*
X41016952Y-83838476D01*
X40993142Y-83743238D01*
X40969333Y-83695619D01*
X40921714Y-83648000D01*
X40850285Y-83624190D01*
X40802666Y-83624190D01*
X40731238Y-83648000D01*
X40707428Y-83671810D01*
X40278857Y-83624190D02*
X40374095Y-83624190D01*
X40421714Y-83648000D01*
X40445523Y-83671810D01*
X40493142Y-83743238D01*
X40516952Y-83838476D01*
X40516952Y-84028952D01*
X40493142Y-84076571D01*
X40469333Y-84100381D01*
X40421714Y-84124190D01*
X40326476Y-84124190D01*
X40278857Y-84100381D01*
X40255047Y-84076571D01*
X40231238Y-84028952D01*
X40231238Y-83909905D01*
X40255047Y-83862286D01*
X40278857Y-83838476D01*
X40326476Y-83814667D01*
X40421714Y-83814667D01*
X40469333Y-83838476D01*
X40493142Y-83862286D01*
X40516952Y-83909905D01*
X40064571Y-83624190D02*
X39755048Y-83624190D01*
X39921714Y-83814667D01*
X39850286Y-83814667D01*
X39802667Y-83838476D01*
X39778857Y-83862286D01*
X39755048Y-83909905D01*
X39755048Y-84028952D01*
X39778857Y-84076571D01*
X39802667Y-84100381D01*
X39850286Y-84124190D01*
X39993143Y-84124190D01*
X40040762Y-84100381D01*
X40064571Y-84076571D01*
X69898753Y-89637185D02*
X69932425Y-89637185D01*
X69999768Y-89603513D01*
X70033440Y-89569841D01*
X70067112Y-89502498D01*
X70067112Y-89435155D01*
X70050276Y-89384647D01*
X69999769Y-89300468D01*
X69949261Y-89249960D01*
X69865081Y-89199453D01*
X69814574Y-89182616D01*
X69747230Y-89182616D01*
X69679886Y-89216288D01*
X69646214Y-89249960D01*
X69612543Y-89317303D01*
X69612543Y-89350976D01*
X69275826Y-89620349D02*
X69343169Y-89553005D01*
X69393677Y-89536170D01*
X69427349Y-89536170D01*
X69511528Y-89553006D01*
X69595707Y-89603513D01*
X69730394Y-89738200D01*
X69747230Y-89788708D01*
X69747230Y-89822380D01*
X69730394Y-89872887D01*
X69663051Y-89940230D01*
X69612543Y-89957067D01*
X69578871Y-89957067D01*
X69528364Y-89940230D01*
X69444185Y-89856051D01*
X69427349Y-89805544D01*
X69427349Y-89771872D01*
X69444185Y-89721364D01*
X69511528Y-89654021D01*
X69562036Y-89637185D01*
X69595707Y-89637186D01*
X69646215Y-89654021D01*
X69056960Y-90074917D02*
X69292662Y-90310619D01*
X69006452Y-89856051D02*
X69343170Y-90024410D01*
X69124303Y-90243276D01*
X44516071Y-91372572D02*
X44539881Y-91348762D01*
X44563690Y-91277334D01*
X44563690Y-91229715D01*
X44539881Y-91158286D01*
X44492262Y-91110667D01*
X44444643Y-91086858D01*
X44349405Y-91063048D01*
X44277976Y-91063048D01*
X44182738Y-91086858D01*
X44135119Y-91110667D01*
X44087500Y-91158286D01*
X44063690Y-91229715D01*
X44063690Y-91277334D01*
X44087500Y-91348762D01*
X44111310Y-91372572D01*
X44063690Y-91801143D02*
X44063690Y-91705905D01*
X44087500Y-91658286D01*
X44111310Y-91634477D01*
X44182738Y-91586858D01*
X44277976Y-91563048D01*
X44468452Y-91563048D01*
X44516071Y-91586858D01*
X44539881Y-91610667D01*
X44563690Y-91658286D01*
X44563690Y-91753524D01*
X44539881Y-91801143D01*
X44516071Y-91824953D01*
X44468452Y-91848762D01*
X44349405Y-91848762D01*
X44301786Y-91824953D01*
X44277976Y-91801143D01*
X44254167Y-91753524D01*
X44254167Y-91658286D01*
X44277976Y-91610667D01*
X44301786Y-91586858D01*
X44349405Y-91563048D01*
X44063690Y-92301143D02*
X44063690Y-92063048D01*
X44301786Y-92039238D01*
X44277976Y-92063048D01*
X44254167Y-92110667D01*
X44254167Y-92229714D01*
X44277976Y-92277333D01*
X44301786Y-92301143D01*
X44349405Y-92324952D01*
X44468452Y-92324952D01*
X44516071Y-92301143D01*
X44539881Y-92277333D01*
X44563690Y-92229714D01*
X44563690Y-92110667D01*
X44539881Y-92063048D01*
X44516071Y-92039238D01*
X76775428Y-87095571D02*
X76799238Y-87119381D01*
X76870666Y-87143190D01*
X76918285Y-87143190D01*
X76989714Y-87119381D01*
X77037333Y-87071762D01*
X77061142Y-87024143D01*
X77084952Y-86928905D01*
X77084952Y-86857476D01*
X77061142Y-86762238D01*
X77037333Y-86714619D01*
X76989714Y-86667000D01*
X76918285Y-86643190D01*
X76870666Y-86643190D01*
X76799238Y-86667000D01*
X76775428Y-86690810D01*
X76346857Y-86643190D02*
X76442095Y-86643190D01*
X76489714Y-86667000D01*
X76513523Y-86690810D01*
X76561142Y-86762238D01*
X76584952Y-86857476D01*
X76584952Y-87047952D01*
X76561142Y-87095571D01*
X76537333Y-87119381D01*
X76489714Y-87143190D01*
X76394476Y-87143190D01*
X76346857Y-87119381D01*
X76323047Y-87095571D01*
X76299238Y-87047952D01*
X76299238Y-86928905D01*
X76323047Y-86881286D01*
X76346857Y-86857476D01*
X76394476Y-86833667D01*
X76489714Y-86833667D01*
X76537333Y-86857476D01*
X76561142Y-86881286D01*
X76584952Y-86928905D01*
X75870667Y-86643190D02*
X75965905Y-86643190D01*
X76013524Y-86667000D01*
X76037333Y-86690810D01*
X76084952Y-86762238D01*
X76108762Y-86857476D01*
X76108762Y-87047952D01*
X76084952Y-87095571D01*
X76061143Y-87119381D01*
X76013524Y-87143190D01*
X75918286Y-87143190D01*
X75870667Y-87119381D01*
X75846857Y-87095571D01*
X75823048Y-87047952D01*
X75823048Y-86928905D01*
X75846857Y-86881286D01*
X75870667Y-86857476D01*
X75918286Y-86833667D01*
X76013524Y-86833667D01*
X76061143Y-86857476D01*
X76084952Y-86881286D01*
X76108762Y-86928905D01*
X52707571Y-85848072D02*
X52731381Y-85824262D01*
X52755190Y-85752834D01*
X52755190Y-85705215D01*
X52731381Y-85633786D01*
X52683762Y-85586167D01*
X52636143Y-85562358D01*
X52540905Y-85538548D01*
X52469476Y-85538548D01*
X52374238Y-85562358D01*
X52326619Y-85586167D01*
X52279000Y-85633786D01*
X52255190Y-85705215D01*
X52255190Y-85752834D01*
X52279000Y-85824262D01*
X52302810Y-85848072D01*
X52255190Y-86276643D02*
X52255190Y-86181405D01*
X52279000Y-86133786D01*
X52302810Y-86109977D01*
X52374238Y-86062358D01*
X52469476Y-86038548D01*
X52659952Y-86038548D01*
X52707571Y-86062358D01*
X52731381Y-86086167D01*
X52755190Y-86133786D01*
X52755190Y-86229024D01*
X52731381Y-86276643D01*
X52707571Y-86300453D01*
X52659952Y-86324262D01*
X52540905Y-86324262D01*
X52493286Y-86300453D01*
X52469476Y-86276643D01*
X52445667Y-86229024D01*
X52445667Y-86133786D01*
X52469476Y-86086167D01*
X52493286Y-86062358D01*
X52540905Y-86038548D01*
X52469476Y-86609976D02*
X52445667Y-86562357D01*
X52421857Y-86538548D01*
X52374238Y-86514738D01*
X52350429Y-86514738D01*
X52302810Y-86538548D01*
X52279000Y-86562357D01*
X52255190Y-86609976D01*
X52255190Y-86705214D01*
X52279000Y-86752833D01*
X52302810Y-86776643D01*
X52350429Y-86800452D01*
X52374238Y-86800452D01*
X52421857Y-86776643D01*
X52445667Y-86752833D01*
X52469476Y-86705214D01*
X52469476Y-86609976D01*
X52493286Y-86562357D01*
X52517095Y-86538548D01*
X52564714Y-86514738D01*
X52659952Y-86514738D01*
X52707571Y-86538548D01*
X52731381Y-86562357D01*
X52755190Y-86609976D01*
X52755190Y-86705214D01*
X52731381Y-86752833D01*
X52707571Y-86776643D01*
X52659952Y-86800452D01*
X52564714Y-86800452D01*
X52517095Y-86776643D01*
X52493286Y-86752833D01*
X52469476Y-86705214D01*
M02*
