G04 #@! TF.FileFunction,Paste,Bot*
%FSLAX46Y46*%
G04 Gerber Fmt 4.6, Leading zero omitted, Abs format (unit mm)*
G04 Created by KiCad (PCBNEW 4.0.0-rc1-stable) date 05/07/2016 17:06:47*
%MOMM*%
G01*
G04 APERTURE LIST*
%ADD10C,0.100000*%
%ADD11R,0.600000X0.500000*%
%ADD12R,0.500000X0.600000*%
G04 APERTURE END LIST*
D10*
D11*
X54250500Y-87630000D03*
X55350500Y-87630000D03*
D10*
G36*
X48724736Y-79009818D02*
X48371182Y-78656264D01*
X48795446Y-78232000D01*
X49149000Y-78585554D01*
X48724736Y-79009818D01*
X48724736Y-79009818D01*
G37*
G36*
X49502554Y-78232000D02*
X49149000Y-77878446D01*
X49573264Y-77454182D01*
X49926818Y-77807736D01*
X49502554Y-78232000D01*
X49502554Y-78232000D01*
G37*
G36*
X51518736Y-79009818D02*
X51165182Y-78656264D01*
X51589446Y-78232000D01*
X51943000Y-78585554D01*
X51518736Y-79009818D01*
X51518736Y-79009818D01*
G37*
G36*
X52296554Y-78232000D02*
X51943000Y-77878446D01*
X52367264Y-77454182D01*
X52720818Y-77807736D01*
X52296554Y-78232000D01*
X52296554Y-78232000D01*
G37*
G36*
X43576818Y-82783764D02*
X43223264Y-83137318D01*
X42799000Y-82713054D01*
X43152554Y-82359500D01*
X43576818Y-82783764D01*
X43576818Y-82783764D01*
G37*
G36*
X42799000Y-82005946D02*
X42445446Y-82359500D01*
X42021182Y-81935236D01*
X42374736Y-81581682D01*
X42799000Y-82005946D01*
X42799000Y-82005946D01*
G37*
D11*
X63034000Y-83058000D03*
X61934000Y-83058000D03*
X53996500Y-79756000D03*
X55096500Y-79756000D03*
D10*
G36*
X67099264Y-90344682D02*
X67452818Y-90698236D01*
X67028554Y-91122500D01*
X66675000Y-90768946D01*
X67099264Y-90344682D01*
X67099264Y-90344682D01*
G37*
G36*
X66321446Y-91122500D02*
X66675000Y-91476054D01*
X66250736Y-91900318D01*
X65897182Y-91546764D01*
X66321446Y-91122500D01*
X66321446Y-91122500D01*
G37*
D11*
X63034000Y-84963000D03*
X61934000Y-84963000D03*
X63034000Y-87122000D03*
X61934000Y-87122000D03*
D12*
X67246500Y-78718500D03*
X67246500Y-77618500D03*
D10*
G36*
X65194264Y-89519182D02*
X65547818Y-89872736D01*
X65123554Y-90297000D01*
X64770000Y-89943446D01*
X65194264Y-89519182D01*
X65194264Y-89519182D01*
G37*
G36*
X64416446Y-90297000D02*
X64770000Y-90650554D01*
X64345736Y-91074818D01*
X63992182Y-90721264D01*
X64416446Y-90297000D01*
X64416446Y-90297000D01*
G37*
D11*
X40936000Y-86868000D03*
X39836000Y-86868000D03*
X40936000Y-88138000D03*
X39836000Y-88138000D03*
X40936000Y-85598000D03*
X39836000Y-85598000D03*
D10*
G36*
X70591764Y-89582682D02*
X70945318Y-89936236D01*
X70521054Y-90360500D01*
X70167500Y-90006946D01*
X70591764Y-89582682D01*
X70591764Y-89582682D01*
G37*
G36*
X69813946Y-90360500D02*
X70167500Y-90714054D01*
X69743236Y-91138318D01*
X69389682Y-90784764D01*
X69813946Y-90360500D01*
X69813946Y-90360500D01*
G37*
D12*
X46037500Y-91144000D03*
X46037500Y-92244000D03*
D11*
X75904000Y-85217000D03*
X77004000Y-85217000D03*
D12*
X54229000Y-85619500D03*
X54229000Y-86719500D03*
M02*
