M48
;DRILL file {KiCad 4.0.0-rc1-stable} date 05/07/2016 17:07:10
;FORMAT={-:-/ absolute / metric / decimal}
FMAT,2
METRIC,TZ
T1C0.305
T2C0.350
T3C0.381
T4C0.400
T5C1.000
T6C1.016
T7C3.000
T8C3.048
%
G90
G05
M71
T1
X34.819Y-114.129
X34.819Y-115.129
X34.819Y-116.129
X35.519Y-114.129
X35.519Y-115.129
X35.519Y-116.129
X37.613Y-69.037
X37.613Y-70.037
X37.613Y-71.037
X38.313Y-69.037
X38.313Y-70.037
X38.313Y-71.037
X39.919Y-114.129
X39.919Y-115.129
X39.919Y-116.129
X40.619Y-114.129
X40.619Y-115.129
X40.619Y-116.129
X42.713Y-69.037
X42.713Y-70.037
X42.713Y-71.037
X43.413Y-69.037
X43.413Y-70.037
X43.413Y-71.037
X48.789Y-69.037
X48.789Y-70.037
X48.789Y-71.037
X49.489Y-69.037
X49.489Y-70.037
X49.489Y-71.037
X49.551Y-114.002
X49.551Y-115.002
X49.551Y-116.002
X50.251Y-114.002
X50.251Y-115.002
X50.251Y-116.002
X53.889Y-69.037
X53.889Y-70.037
X53.889Y-71.037
X54.589Y-69.037
X54.589Y-70.037
X54.589Y-71.037
X54.651Y-114.002
X54.651Y-115.002
X54.651Y-116.002
X55.351Y-114.002
X55.351Y-115.002
X55.351Y-116.002
T2
X45.568Y-102.845
X45.568Y-104.165
X46.228Y-103.505
X46.888Y-102.845
X46.888Y-104.165
T3
X46.506Y-83.463
X46.506Y-84.963
X46.506Y-86.463
X48.006Y-83.463
X48.006Y-84.963
X48.006Y-86.463
X49.506Y-83.463
X49.506Y-84.963
X49.506Y-86.463
X67.057Y-83.313
X67.057Y-84.963
X67.057Y-86.613
X68.707Y-83.313
X68.707Y-84.963
X68.707Y-86.613
X70.357Y-83.313
X70.357Y-84.963
X70.357Y-86.613
T4
X23.495Y-108.521
X25.463Y-110.299
X25.463Y-114.236
X26.352Y-115.125
X26.86Y-72.834
X26.86Y-74.231
X26.86Y-75.501
X26.86Y-78.168
X26.86Y-79.502
X26.86Y-80.518
X26.86Y-82.867
X26.86Y-85.407
X26.86Y-95.885
X26.86Y-97.98
X26.86Y-99.314
X26.86Y-101.473
X26.86Y-104.838
X26.86Y-106.172
X26.86Y-108.331
X26.924Y-67.945
X26.924Y-69.532
X26.924Y-71.374
X26.924Y-77.025
X26.924Y-87.122
X26.924Y-88.328
X26.924Y-89.408
X26.924Y-90.614
X26.924Y-93.091
X26.924Y-103.251
X27.622Y-96.965
X28.575Y-67.882
X29.083Y-93.98
X29.146Y-115.125
X29.972Y-93.98
X30.416Y-100.266
X30.416Y-102.933
X30.416Y-105.093
X30.416Y-106.87
X30.416Y-108.712
X30.416Y-110.236
X30.416Y-111.823
X30.416Y-113.855
X30.543Y-98.171
X30.607Y-67.882
X30.924Y-93.98
X30.988Y-97.536
X31.623Y-97.091
X31.686Y-113.602
X31.941Y-93.98
X32.766Y-67.945
X32.893Y-93.98
X32.893Y-95.885
X33.21Y-75.501
X33.465Y-78.295
X33.655Y-73.914
X33.655Y-92.9
X33.718Y-90.678
X33.909Y-87.82
X33.972Y-87.058
X34.163Y-75.501
X34.48Y-94.107
X34.734Y-79.566
X34.734Y-85.407
X34.861Y-67.945
X35.052Y-72.771
X35.179Y-73.914
X35.623Y-105.093
X35.623Y-106.87
X35.623Y-108.712
X35.623Y-110.236
X35.687Y-99.123
X35.687Y-103.251
X35.687Y-111.887
X36.639Y-67.945
X36.639Y-111.95
X36.703Y-93.916
X36.893Y-84.772
X36.893Y-86.868
X36.893Y-88.456
X37.274Y-97.472
X37.973Y-102.235
X37.973Y-103.759
X37.973Y-106.045
X38.735Y-86.169
X39.751Y-94.107
X41.084Y-92.964
X41.13Y-107.911
X41.465Y-92.202
X41.593Y-94.107
X41.656Y-117.538
X41.669Y-81.267
X42.037Y-85.598
X42.037Y-86.868
X42.037Y-88.138
X42.355Y-92.392
X42.545Y-93.98
X42.608Y-84.963
X42.926Y-80.645
X43.497Y-93.98
X43.624Y-99.441
X43.752Y-86.931
X43.752Y-117.538
X44.005Y-82.486
X44.577Y-110.934
X44.895Y-67.945
X44.958Y-107.505
X45.148Y-97.472
X45.783Y-89.535
X46.038Y-79.819
X46.101Y-117.538
X46.863Y-79.819
X46.926Y-90.233
X47.117Y-67.945
X47.13Y-97.574
X47.434Y-98.87
X47.561Y-80.454
X47.688Y-90.678
X48.069Y-77.914
X48.069Y-79.819
X48.069Y-91.376
X48.387Y-97.663
X48.514Y-117.475
X48.831Y-105.41
X50.101Y-79.819
X50.101Y-101.854
X50.292Y-90.995
X50.609Y-94.869
X50.736Y-89.218
X50.736Y-93.662
X50.927Y-82.042
X51.371Y-100.584
X51.435Y-107.315
X51.498Y-105.791
X51.613Y-104.089
X51.816Y-94.742
X51.943Y-92.456
X52.197Y-109.41
X52.832Y-85.979
X53.023Y-93.535
X53.404Y-85.471
X53.404Y-86.614
X53.404Y-95.694
X53.467Y-81.724
X53.467Y-96.456
X53.594Y-90.424
X53.594Y-91.694
X54.8Y-74.422
X54.8Y-76.327
X55.181Y-78.041
X55.181Y-85.725
X55.562Y-107.315
X55.562Y-108.712
X55.562Y-110.236
X55.562Y-111.95
X55.753Y-72.009
X55.753Y-72.771
X55.753Y-73.596
X55.753Y-90.361
X55.944Y-100.076
X56.007Y-104.775
X56.325Y-101.917
X56.451Y-81.09
X56.831Y-128.184
X56.831Y-128.184
X56.832Y-79.692
X57.848Y-102.933
X57.975Y-100.139
X58.166Y-80.899
X58.991Y-83.82
X59.245Y-101.536
X59.372Y-82.233
X59.372Y-85.598
X59.372Y-87.376
X59.372Y-89.154
X59.372Y-90.932
X59.372Y-92.9
X59.817Y-112.649
X59.944Y-83.185
X60.642Y-100.139
X60.706Y-83.185
X60.77Y-97.727
X61.023Y-87.122
X61.023Y-88.709
X61.023Y-90.106
X61.023Y-91.44
X61.15Y-85.28
X61.785Y-94.361
X61.785Y-96.075
X61.824Y-92.913
X62.293Y-80.835
X63.119Y-97.663
X63.817Y-79.248
X63.906Y-91.491
X64.008Y-82.995
X64.008Y-85.09
X64.008Y-86.931
X64.643Y-78.486
X65.659Y-92.202
X65.722Y-89.408
X65.977Y-77.089
X66.548Y-94.488
X67.31Y-75.755
X67.31Y-79.756
X67.754Y-90.106
X68.008Y-89.344
X69.215Y-91.504
X69.215Y-94.297
X69.532Y-75.755
X70.104Y-92.075
X70.993Y-94.297
X71.171Y-75.743
X71.501Y-89.471
X73.088Y-94.297
X74.358Y-85.217
X74.739Y-79.756
X74.803Y-71.31
X74.803Y-80.645
X75.501Y-94.297
X75.997Y-111.049
X76.263Y-77.47
X76.708Y-93.091
X77.089Y-78.232
X77.114Y-107.036
X77.216Y-103.06
X77.787Y-81.597
X77.787Y-83.058
X77.787Y-84.455
X77.787Y-86.169
X77.787Y-87.439
X77.787Y-88.9
X77.787Y-90.297
X77.787Y-92.011
X78.359Y-108.077
X78.803Y-80.835
X78.803Y-98.361
X79.438Y-106.997
T5
X68.072Y-109.728
X71.072Y-109.728
T6
X22.173Y-73.679
X22.173Y-76.219
X22.173Y-78.759
X22.173Y-81.299
X22.173Y-83.839
X22.173Y-86.379
X22.173Y-88.919
X22.173Y-91.459
X22.173Y-93.999
X22.173Y-96.539
X22.173Y-99.079
X22.173Y-101.619
X22.173Y-104.159
X22.173Y-106.699
X24.713Y-73.679
X24.713Y-76.219
X24.713Y-78.759
X24.713Y-81.299
X24.713Y-83.839
X24.713Y-86.379
X24.713Y-88.919
X24.713Y-91.459
X24.713Y-93.999
X24.713Y-96.539
X24.713Y-99.079
X24.713Y-101.619
X24.713Y-104.159
X24.713Y-106.699
X82.673Y-76.219
X82.673Y-78.759
X82.673Y-81.299
X82.673Y-83.839
X82.673Y-86.379
X82.673Y-88.919
X82.673Y-91.459
X82.673Y-93.999
X82.673Y-96.539
X82.673Y-99.079
X82.673Y-101.619
X82.673Y-104.159
X85.213Y-76.219
X85.213Y-78.759
X85.213Y-81.299
X85.213Y-83.839
X85.213Y-86.379
X85.213Y-88.919
X85.213Y-91.459
X85.213Y-93.999
X85.213Y-96.539
X85.213Y-99.079
X85.213Y-101.619
X85.213Y-104.159
X88.673Y-68.599
X88.673Y-71.139
X88.673Y-73.679
X88.673Y-76.219
X88.673Y-78.759
X88.673Y-81.299
X88.673Y-83.839
X88.673Y-86.379
X88.673Y-88.919
X88.673Y-91.459
X88.673Y-93.999
X88.673Y-96.539
X88.673Y-99.079
X88.673Y-101.619
X88.673Y-104.159
X88.673Y-106.699
X88.673Y-109.239
X88.673Y-111.779
X91.213Y-68.599
X91.213Y-71.139
X91.213Y-73.679
X91.213Y-76.219
X91.213Y-78.759
X91.213Y-81.299
X91.213Y-83.839
X91.213Y-86.379
X91.213Y-88.919
X91.213Y-91.459
X91.213Y-93.999
X91.213Y-96.539
X91.213Y-99.079
X91.213Y-101.619
X91.213Y-104.159
X91.213Y-106.699
X91.213Y-109.239
X91.213Y-111.779
T7
X27.823Y-112.679
T8
X56.831Y-128.184
T0
M30
