M48
;DRILL file {KiCad 4.0.0-rc1-stable} date 25/07/2016 14:35:59
;FORMAT={-:-/ absolute / metric / decimal}
FMAT,2
METRIC,TZ
T1C0.300
T2C0.305
T3C0.350
T4C0.381
T5C0.400
T6C1.016
T7C3.048
%
G90
G05
M71
T1
X28.575Y-104.394
X29.845Y-104.394
X30.353Y-77.406
X30.416Y-76.581
X31.115Y-104.394
X31.75Y-78.994
X32.385Y-79.629
X32.893Y-80.137
X33.465Y-80.645
X33.972Y-81.153
X34.608Y-82.359
X36.449Y-91.376
X37.02Y-91.948
X37.529Y-92.456
X38.1Y-93.027
X40.957Y-90.424
X43.752Y-82.74
X43.752Y-84.582
X43.752Y-85.471
X43.752Y-86.36
X44.45Y-79.311
X45.847Y-79.311
X46.545Y-79.311
X46.545Y-100.203
X47.006Y-88.916
X47.498Y-107.569
X47.942Y-80.581
X48.069Y-100.203
X49.085Y-93.599
X49.34Y-79.311
X49.847Y-94.297
X50.101Y-93.345
X50.419Y-91.313
X50.736Y-79.311
X51.117Y-91.313
X51.371Y-80.581
X52.324Y-83.312
X52.514Y-85.788
X52.514Y-87.058
X53.594Y-86.614
X53.594Y-100.584
X53.594Y-103.632
X53.594Y-106.426
X56.261Y-78.549
X56.325Y-77.787
X60.198Y-80.2
X60.896Y-79.502
X60.896Y-80.899
X67.818Y-101.473
X82.169Y-113.284
T2
X37.486Y-68.91
X37.486Y-69.91
X37.486Y-70.91
X37.486Y-114.256
X37.486Y-115.256
X37.486Y-116.256
X38.186Y-68.91
X38.186Y-69.91
X38.186Y-70.91
X38.186Y-114.256
X38.186Y-115.256
X38.186Y-116.256
X42.586Y-68.91
X42.586Y-69.91
X42.586Y-70.91
X42.586Y-114.256
X42.586Y-115.256
X42.586Y-116.256
X43.286Y-68.91
X43.286Y-69.91
X43.286Y-70.91
X43.286Y-114.256
X43.286Y-115.256
X43.286Y-116.256
X51.964Y-69.037
X51.964Y-70.037
X51.964Y-71.037
X51.964Y-114.256
X51.964Y-115.256
X51.964Y-116.256
X52.664Y-69.037
X52.664Y-70.037
X52.664Y-71.037
X52.664Y-114.256
X52.664Y-115.256
X52.664Y-116.256
X57.064Y-69.037
X57.064Y-70.037
X57.064Y-71.037
X57.064Y-114.256
X57.064Y-115.256
X57.064Y-116.256
X57.764Y-69.037
X57.764Y-70.037
X57.764Y-71.037
X57.764Y-114.256
X57.764Y-115.256
X57.764Y-116.256
T3
X47.346Y-102.718
X47.346Y-104.038
X48.006Y-103.378
X48.666Y-102.718
X48.666Y-104.038
T4
X46.506Y-83.463
X46.506Y-84.963
X46.506Y-86.463
X48.006Y-83.463
X48.006Y-84.963
X48.006Y-86.463
X49.506Y-83.463
X49.506Y-84.963
X49.506Y-86.463
X67.057Y-83.313
X67.057Y-84.963
X67.057Y-86.613
X68.707Y-83.313
X68.707Y-84.963
X68.707Y-86.613
X70.357Y-83.313
X70.357Y-84.963
X70.357Y-86.613
T5
X21.336Y-69.215
X21.336Y-70.612
X21.336Y-71.882
X21.336Y-108.712
X21.336Y-109.855
X21.336Y-111.125
X21.336Y-112.522
X21.336Y-113.792
X21.336Y-115.062
X21.336Y-116.332
X21.971Y-68.199
X22.606Y-117.348
X22.606Y-117.348
X22.606Y-117.348
X22.606Y-117.348
X22.606Y-117.348
X22.606Y-117.348
X22.606Y-117.348
X22.606Y-117.348
X22.606Y-117.348
X22.606Y-117.348
X22.606Y-117.348
X22.606Y-117.348
X22.606Y-117.348
X22.606Y-117.348
X22.606Y-117.348
X22.606Y-117.348
X23.368Y-68.199
X23.368Y-68.199
X23.368Y-68.199
X23.368Y-68.199
X23.368Y-68.199
X23.368Y-68.199
X23.368Y-68.199
X23.368Y-68.199
X23.368Y-68.199
X23.368Y-68.199
X23.368Y-68.199
X23.368Y-68.199
X23.368Y-68.199
X23.368Y-68.199
X23.368Y-68.199
X23.368Y-68.199
X23.876Y-117.348
X23.876Y-117.348
X23.876Y-117.348
X23.876Y-117.348
X23.876Y-117.348
X23.876Y-117.348
X23.876Y-117.348
X23.876Y-117.348
X23.876Y-117.348
X23.876Y-117.348
X23.876Y-117.348
X23.876Y-117.348
X23.876Y-117.348
X23.876Y-117.348
X23.876Y-117.348
X23.876Y-117.348
X24.765Y-68.199
X24.765Y-68.199
X24.765Y-68.199
X24.765Y-68.199
X24.765Y-68.199
X24.765Y-68.199
X24.765Y-68.199
X24.765Y-68.199
X24.765Y-68.199
X24.765Y-68.199
X24.765Y-68.199
X24.765Y-68.199
X24.765Y-68.199
X24.765Y-68.199
X24.765Y-68.199
X24.765Y-68.199
X25.273Y-117.348
X25.273Y-117.348
X25.273Y-117.348
X25.273Y-117.348
X25.273Y-117.348
X25.273Y-117.348
X25.273Y-117.348
X25.273Y-117.348
X25.273Y-117.348
X25.273Y-117.348
X25.273Y-117.348
X25.273Y-117.348
X25.273Y-117.348
X25.273Y-117.348
X25.273Y-117.348
X25.273Y-117.348
X26.035Y-68.199
X26.035Y-68.199
X26.035Y-68.199
X26.035Y-68.199
X26.035Y-68.199
X26.035Y-68.199
X26.035Y-68.199
X26.035Y-68.199
X26.035Y-68.199
X26.035Y-68.199
X26.035Y-68.199
X26.035Y-68.199
X26.035Y-68.199
X26.035Y-68.199
X26.035Y-68.199
X26.035Y-68.199
X26.67Y-117.348
X26.67Y-117.348
X26.67Y-117.348
X26.67Y-117.348
X26.67Y-117.348
X26.67Y-117.348
X26.67Y-117.348
X26.67Y-117.348
X26.67Y-117.348
X26.67Y-117.348
X26.67Y-117.348
X26.67Y-117.348
X26.67Y-117.348
X26.67Y-117.348
X26.67Y-117.348
X26.67Y-117.348
X26.924Y-78.74
X27.432Y-68.199
X27.432Y-68.199
X27.432Y-68.199
X27.432Y-68.199
X27.432Y-68.199
X27.432Y-68.199
X27.432Y-68.199
X27.432Y-68.199
X27.432Y-68.199
X27.432Y-68.199
X27.432Y-68.199
X27.432Y-68.199
X27.432Y-68.199
X27.432Y-68.199
X27.432Y-68.199
X27.432Y-68.199
X27.94Y-83.947
X27.94Y-105.664
X28.067Y-117.348
X28.067Y-117.348
X28.067Y-117.348
X28.067Y-117.348
X28.067Y-117.348
X28.067Y-117.348
X28.067Y-117.348
X28.067Y-117.348
X28.067Y-117.348
X28.067Y-117.348
X28.067Y-117.348
X28.067Y-117.348
X28.067Y-117.348
X28.067Y-117.348
X28.067Y-117.348
X28.067Y-117.348
X28.194Y-90.551
X28.194Y-93.726
X28.829Y-68.199
X28.829Y-68.199
X28.829Y-68.199
X28.829Y-68.199
X28.829Y-68.199
X28.829Y-68.199
X28.829Y-68.199
X28.829Y-68.199
X28.829Y-68.199
X28.829Y-68.199
X28.829Y-68.199
X28.829Y-68.199
X28.829Y-68.199
X28.829Y-68.199
X28.829Y-68.199
X28.829Y-68.199
X28.829Y-98.425
X28.829Y-100.203
X28.829Y-102.235
X29.464Y-107.442
X29.464Y-108.966
X29.464Y-117.348
X29.464Y-117.348
X29.464Y-117.348
X29.464Y-117.348
X29.464Y-117.348
X29.464Y-117.348
X29.464Y-117.348
X29.464Y-117.348
X29.464Y-117.348
X29.464Y-117.348
X29.464Y-117.348
X29.464Y-117.348
X29.464Y-117.348
X29.464Y-117.348
X29.464Y-117.348
X29.464Y-117.348
X30.226Y-68.199
X30.226Y-68.199
X30.226Y-68.199
X30.226Y-68.199
X30.226Y-68.199
X30.226Y-68.199
X30.226Y-68.199
X30.226Y-68.199
X30.226Y-68.199
X30.226Y-68.199
X30.226Y-68.199
X30.226Y-68.199
X30.226Y-68.199
X30.226Y-68.199
X30.226Y-68.199
X30.226Y-68.199
X30.226Y-81.915
X30.226Y-90.551
X30.226Y-93.726
X30.861Y-117.348
X30.861Y-117.348
X30.861Y-117.348
X30.861Y-117.348
X30.861Y-117.348
X30.861Y-117.348
X30.861Y-117.348
X30.861Y-117.348
X30.861Y-117.348
X30.861Y-117.348
X30.861Y-117.348
X30.861Y-117.348
X30.861Y-117.348
X30.861Y-117.348
X30.861Y-117.348
X30.861Y-117.348
X30.988Y-98.425
X30.988Y-100.203
X30.988Y-102.235
X31.623Y-68.199
X31.623Y-68.199
X31.623Y-68.199
X31.623Y-68.199
X31.623Y-68.199
X31.623Y-68.199
X31.623Y-68.199
X31.623Y-68.199
X31.623Y-68.199
X31.623Y-68.199
X31.623Y-68.199
X31.623Y-68.199
X31.623Y-68.199
X31.623Y-68.199
X31.623Y-68.199
X31.623Y-68.199
X32.258Y-117.348
X32.258Y-117.348
X32.258Y-117.348
X32.258Y-117.348
X32.258Y-117.348
X32.258Y-117.348
X32.258Y-117.348
X32.258Y-117.348
X32.258Y-117.348
X32.258Y-117.348
X32.258Y-117.348
X32.258Y-117.348
X32.258Y-117.348
X32.258Y-117.348
X32.258Y-117.348
X32.258Y-117.348
X32.385Y-77.216
X32.385Y-83.439
X32.385Y-85.979
X32.385Y-88.646
X32.385Y-90.551
X32.385Y-93.726
X33.02Y-68.199
X33.02Y-68.199
X33.02Y-68.199
X33.02Y-68.199
X33.02Y-68.199
X33.02Y-68.199
X33.02Y-68.199
X33.02Y-68.199
X33.02Y-68.199
X33.02Y-68.199
X33.02Y-68.199
X33.02Y-68.199
X33.02Y-68.199
X33.02Y-68.199
X33.02Y-68.199
X33.02Y-68.199
X33.147Y-102.997
X33.147Y-105.791
X33.147Y-108.331
X33.528Y-117.348
X34.417Y-68.199
X34.417Y-68.199
X34.417Y-68.199
X34.417Y-68.199
X34.417Y-68.199
X34.417Y-68.199
X34.417Y-68.199
X34.417Y-68.199
X34.417Y-68.199
X34.417Y-68.199
X34.417Y-68.199
X34.417Y-68.199
X34.417Y-68.199
X34.417Y-68.199
X34.417Y-68.199
X34.417Y-68.199
X34.417Y-70.231
X34.417Y-71.882
X34.417Y-73.787
X34.544Y-93.726
X34.671Y-77.216
X34.798Y-117.348
X35.052Y-80.899
X35.179Y-74.93
X35.179Y-83.439
X35.179Y-85.979
X35.179Y-88.646
X35.306Y-105.791
X35.306Y-108.331
X36.195Y-75.946
X36.195Y-117.348
X36.576Y-100.076
X36.576Y-101.6
X36.83Y-98.679
X37.084Y-80.899
X37.338Y-76.962
X37.338Y-102.362
X37.719Y-105.791
X37.719Y-108.331
X37.846Y-72.136
X37.846Y-85.09
X38.1Y-97.409
X38.1Y-103.124
X38.227Y-86.614
X38.227Y-87.884
X38.227Y-89.154
X38.227Y-90.424
X38.862Y-73.279
X39.37Y-83.693
X39.37Y-86.614
X39.37Y-87.884
X39.37Y-89.154
X39.37Y-96.266
X39.497Y-91.948
X39.624Y-90.424
X39.98Y-74.27
X40.005Y-105.791
X40.005Y-108.331
X40.132Y-80.772
X40.132Y-97.536
X40.64Y-91.567
X40.894Y-85.09
X40.996Y-75.286
X41.021Y-96.266
X41.656Y-80.772
X41.656Y-82.804
X41.68Y-103.16
X41.91Y-76.2
X41.91Y-91.821
X41.91Y-98.679
X41.91Y-100.584
X41.91Y-101.981
X42.164Y-105.791
X42.164Y-108.331
X42.672Y-76.962
X42.799Y-96.774
X43.307Y-91.821
X43.307Y-98.679
X43.307Y-100.584
X43.942Y-77.47
X44.069Y-105.791
X44.069Y-108.331
X44.45Y-91.821
X44.552Y-68.174
X44.577Y-101.6
X45.085Y-117.221
X45.72Y-91.821
X46.076Y-68.174
X46.355Y-117.221
X46.736Y-92.456
X47.6Y-68.174
X47.752Y-117.221
X47.879Y-76.708
X48.26Y-96.52
X49.124Y-68.174
X49.276Y-117.221
X50.165Y-95.885
X50.165Y-98.425
X50.228Y-106.68
X50.648Y-68.174
X50.8Y-97.155
X50.8Y-117.221
X51.435Y-99.695
X51.562Y-94.742
X51.689Y-90.551
X51.689Y-102.743
X51.689Y-104.902
X51.816Y-76.708
X52.705Y-93.599
X52.705Y-97.155
X52.807Y-78.969
X52.832Y-89.535
X53.594Y-82.423
X53.721Y-91.313
X54.356Y-88.519
X54.483Y-77.47
X54.483Y-95.123
X54.483Y-99.695
X54.61Y-97.155
X55.245Y-89.408
X55.245Y-91.313
X55.372Y-93.472
X55.499Y-76.454
X56.007Y-99.695
X56.388Y-79.883
X56.515Y-75.438
X56.515Y-97.155
X56.515Y-108.585
X57.15Y-104.14
X57.404Y-99.695
X57.531Y-74.295
X57.912Y-79.629
X58.42Y-77.851
X58.42Y-97.155
X58.42Y-102.87
X58.801Y-99.695
X58.801Y-101.6
X59.055Y-106.045
X59.055Y-117.094
X59.055Y-117.094
X59.055Y-117.094
X59.055Y-117.094
X59.055Y-117.094
X59.055Y-117.094
X59.055Y-117.094
X59.055Y-117.094
X59.055Y-117.094
X59.055Y-117.094
X59.055Y-117.094
X59.055Y-117.094
X59.055Y-117.094
X59.055Y-117.094
X59.055Y-117.094
X59.055Y-117.094
X59.182Y-73.914
X59.182Y-80.899
X59.182Y-84.709
X59.182Y-89.154
X59.29Y-68.07
X59.436Y-76.327
X59.436Y-93.726
X59.69Y-104.14
X59.69Y-108.585
X60.325Y-97.155
X60.325Y-100.33
X60.452Y-68.072
X60.452Y-95.631
X60.452Y-117.094
X60.452Y-117.094
X60.452Y-117.094
X60.452Y-117.094
X60.452Y-117.094
X60.452Y-117.094
X60.452Y-117.094
X60.452Y-117.094
X60.452Y-117.094
X60.452Y-117.094
X60.452Y-117.094
X60.452Y-117.094
X60.452Y-117.094
X60.452Y-117.094
X60.452Y-117.094
X60.452Y-117.094
X60.706Y-73.914
X60.96Y-93.726
X60.96Y-102.87
X60.96Y-106.045
X61.087Y-87.63
X61.087Y-90.805
X61.214Y-82.042
X61.468Y-101.6
X61.722Y-68.072
X61.722Y-117.094
X61.722Y-117.094
X61.722Y-117.094
X61.722Y-117.094
X61.722Y-117.094
X61.722Y-117.094
X61.722Y-117.094
X61.722Y-117.094
X61.722Y-117.094
X61.722Y-117.094
X61.722Y-117.094
X61.722Y-117.094
X61.722Y-117.094
X61.722Y-117.094
X61.722Y-117.094
X61.722Y-117.094
X62.23Y-73.914
X62.23Y-76.835
X62.23Y-94.488
X62.23Y-97.155
X62.23Y-104.14
X62.23Y-108.585
X62.865Y-100.33
X62.992Y-68.072
X63.119Y-117.094
X63.119Y-117.094
X63.119Y-117.094
X63.119Y-117.094
X63.119Y-117.094
X63.119Y-117.094
X63.119Y-117.094
X63.119Y-117.094
X63.119Y-117.094
X63.119Y-117.094
X63.119Y-117.094
X63.119Y-117.094
X63.119Y-117.094
X63.119Y-117.094
X63.119Y-117.094
X63.119Y-117.094
X63.246Y-96.266
X63.5Y-101.6
X63.5Y-102.87
X63.5Y-106.045
X64.008Y-82.931
X64.008Y-85.217
X64.008Y-86.995
X64.008Y-88.138
X64.008Y-89.154
X64.008Y-90.043
X64.135Y-97.155
X64.262Y-68.072
X64.453Y-92.583
X64.516Y-76.835
X64.516Y-117.094
X64.516Y-117.094
X64.516Y-117.094
X64.516Y-117.094
X64.516Y-117.094
X64.516Y-117.094
X64.516Y-117.094
X64.516Y-117.094
X64.516Y-117.094
X64.516Y-117.094
X64.516Y-117.094
X64.516Y-117.094
X64.516Y-117.094
X64.516Y-117.094
X64.516Y-117.094
X64.516Y-117.094
X64.77Y-73.914
X64.77Y-100.33
X64.77Y-104.14
X64.77Y-108.585
X64.96Y-81.28
X65.151Y-96.266
X65.532Y-68.072
X65.596Y-79.248
X65.913Y-117.094
X65.913Y-117.094
X65.913Y-117.094
X65.913Y-117.094
X65.913Y-117.094
X65.913Y-117.094
X65.913Y-117.094
X65.913Y-117.094
X65.913Y-117.094
X65.913Y-117.094
X65.913Y-117.094
X65.913Y-117.094
X65.913Y-117.094
X65.913Y-117.094
X65.913Y-117.094
X65.913Y-117.094
X66.04Y-76.835
X66.04Y-97.155
X66.04Y-101.6
X66.04Y-102.87
X66.04Y-106.045
X66.294Y-89.662
X66.802Y-68.072
X66.802Y-94.615
X67.056Y-96.266
X67.183Y-80.137
X67.31Y-100.33
X67.31Y-104.14
X67.31Y-108.585
X67.31Y-117.094
X67.31Y-117.094
X67.31Y-117.094
X67.31Y-117.094
X67.31Y-117.094
X67.31Y-117.094
X67.31Y-117.094
X67.31Y-117.094
X67.31Y-117.094
X67.31Y-117.094
X67.31Y-117.094
X67.31Y-117.094
X67.31Y-117.094
X67.31Y-117.094
X67.31Y-117.094
X67.31Y-117.094
X67.691Y-92.583
X67.882Y-94.297
X68.072Y-68.072
X68.58Y-76.835
X68.58Y-102.87
X68.707Y-117.094
X68.707Y-117.094
X68.707Y-117.094
X68.707Y-117.094
X68.707Y-117.094
X68.707Y-117.094
X68.707Y-117.094
X68.707Y-117.094
X68.707Y-117.094
X68.707Y-117.094
X68.707Y-117.094
X68.707Y-117.094
X68.707Y-117.094
X68.707Y-117.094
X68.707Y-117.094
X68.707Y-117.094
X68.961Y-94.615
X69.215Y-97.155
X69.215Y-99.695
X69.215Y-105.41
X69.342Y-68.072
X69.342Y-92.583
X69.406Y-89.662
X69.85Y-101.6
X69.85Y-108.585
X70.104Y-117.094
X70.104Y-117.094
X70.104Y-117.094
X70.104Y-117.094
X70.104Y-117.094
X70.104Y-117.094
X70.104Y-117.094
X70.104Y-117.094
X70.104Y-117.094
X70.104Y-117.094
X70.104Y-117.094
X70.104Y-117.094
X70.104Y-117.094
X70.104Y-117.094
X70.104Y-117.094
X70.104Y-117.094
X70.358Y-71.374
X70.485Y-95.885
X70.612Y-68.072
X70.993Y-89.662
X70.993Y-92.583
X71.12Y-94.615
X71.12Y-99.695
X71.12Y-100.965
X71.374Y-70.612
X71.374Y-117.094
X71.755Y-97.155
X71.755Y-102.87
X71.755Y-107.315
X71.882Y-68.072
X72.136Y-69.85
X72.517Y-88.9
X72.644Y-117.094
X72.898Y-103.505
X73.025Y-99.695
X73.025Y-100.965
X73.025Y-106.045
X73.152Y-68.072
X73.152Y-69.088
X73.724Y-85.534
X74.041Y-117.094
X74.549Y-104.775
X74.93Y-97.155
X74.93Y-99.695
X74.93Y-100.965
X74.93Y-102.87
X75.311Y-117.094
X75.311Y-117.094
X75.311Y-117.094
X75.311Y-117.094
X75.311Y-117.094
X75.311Y-117.094
X75.311Y-117.094
X75.311Y-117.094
X75.311Y-117.094
X75.311Y-117.094
X75.311Y-117.094
X75.311Y-117.094
X75.311Y-117.094
X75.311Y-117.094
X75.311Y-117.094
X75.311Y-117.094
X76.708Y-117.094
X76.708Y-117.094
X76.708Y-117.094
X76.708Y-117.094
X76.708Y-117.094
X76.708Y-117.094
X76.708Y-117.094
X76.708Y-117.094
X76.708Y-117.094
X76.708Y-117.094
X76.708Y-117.094
X76.708Y-117.094
X76.708Y-117.094
X76.708Y-117.094
X76.708Y-117.094
X76.708Y-117.094
X77.47Y-97.155
X77.47Y-99.695
X77.47Y-100.965
X77.47Y-102.87
X77.47Y-104.775
X77.978Y-117.094
X77.978Y-117.094
X77.978Y-117.094
X77.978Y-117.094
X77.978Y-117.094
X77.978Y-117.094
X77.978Y-117.094
X77.978Y-117.094
X77.978Y-117.094
X77.978Y-117.094
X77.978Y-117.094
X77.978Y-117.094
X77.978Y-117.094
X77.978Y-117.094
X77.978Y-117.094
X77.978Y-117.094
X78.232Y-86.106
X79.375Y-117.094
X79.375Y-117.094
X79.375Y-117.094
X79.375Y-117.094
X79.375Y-117.094
X79.375Y-117.094
X79.375Y-117.094
X79.375Y-117.094
X79.375Y-117.094
X79.375Y-117.094
X79.375Y-117.094
X79.375Y-117.094
X79.375Y-117.094
X79.375Y-117.094
X79.375Y-117.094
X79.375Y-117.094
X80.01Y-97.155
X80.01Y-99.695
X80.01Y-100.965
X80.01Y-102.87
X80.01Y-104.775
X80.772Y-117.094
X80.772Y-117.094
X80.772Y-117.094
X80.772Y-117.094
X80.772Y-117.094
X80.772Y-117.094
X80.772Y-117.094
X80.772Y-117.094
X80.772Y-117.094
X80.772Y-117.094
X80.772Y-117.094
X80.772Y-117.094
X80.772Y-117.094
X80.772Y-117.094
X80.772Y-117.094
X80.772Y-117.094
X82.169Y-117.094
X82.169Y-117.094
X82.169Y-117.094
X82.169Y-117.094
X82.169Y-117.094
X82.169Y-117.094
X82.169Y-117.094
X82.169Y-117.094
X82.169Y-117.094
X82.169Y-117.094
X82.169Y-117.094
X82.169Y-117.094
X82.169Y-117.094
X82.169Y-117.094
X82.169Y-117.094
X82.169Y-117.094
X83.566Y-117.094
X83.566Y-117.094
X83.566Y-117.094
X83.566Y-117.094
X83.566Y-117.094
X83.566Y-117.094
X83.566Y-117.094
X83.566Y-117.094
X83.566Y-117.094
X83.566Y-117.094
X83.566Y-117.094
X83.566Y-117.094
X83.566Y-117.094
X83.566Y-117.094
X83.566Y-117.094
X83.566Y-117.094
X84.963Y-117.094
X84.963Y-117.094
X84.963Y-117.094
X84.963Y-117.094
X84.963Y-117.094
X84.963Y-117.094
X84.963Y-117.094
X84.963Y-117.094
X84.963Y-117.094
X84.963Y-117.094
X84.963Y-117.094
X84.963Y-117.094
X84.963Y-117.094
X84.963Y-117.094
X84.963Y-117.094
X84.963Y-117.094
X86.36Y-117.094
X86.36Y-117.094
X86.36Y-117.094
X86.36Y-117.094
X86.36Y-117.094
X86.36Y-117.094
X86.36Y-117.094
X86.36Y-117.094
X86.36Y-117.094
X86.36Y-117.094
X86.36Y-117.094
X86.36Y-117.094
X86.36Y-117.094
X86.36Y-117.094
X86.36Y-117.094
X86.36Y-117.094
X87.63Y-117.094
X88.9Y-117.094
X90.297Y-117.094
X91.694Y-117.094
X92.329Y-114.173
X92.329Y-115.824
T6
X22.173Y-73.679
X22.173Y-76.219
X22.173Y-78.759
X22.173Y-81.299
X22.173Y-83.839
X22.173Y-86.379
X22.173Y-88.919
X22.173Y-91.459
X22.173Y-93.999
X22.173Y-96.539
X22.173Y-99.079
X22.173Y-101.619
X22.173Y-104.159
X22.173Y-106.699
X24.713Y-73.679
X24.713Y-76.219
X24.713Y-78.759
X24.713Y-81.299
X24.713Y-83.839
X24.713Y-86.379
X24.713Y-88.919
X24.713Y-91.459
X24.713Y-93.999
X24.713Y-96.539
X24.713Y-99.079
X24.713Y-101.619
X24.713Y-104.159
X24.713Y-106.699
X77.597Y-109.22
X77.597Y-111.76
X82.673Y-76.219
X82.673Y-78.759
X82.673Y-81.299
X82.673Y-83.839
X82.673Y-86.379
X82.673Y-88.919
X82.673Y-91.459
X82.673Y-93.999
X82.673Y-96.539
X82.673Y-99.079
X82.673Y-101.619
X82.673Y-104.159
X85.213Y-76.219
X85.213Y-78.759
X85.213Y-81.299
X85.213Y-83.839
X85.213Y-86.379
X85.213Y-88.919
X85.213Y-91.459
X85.213Y-93.999
X85.213Y-96.539
X85.213Y-99.079
X85.213Y-101.619
X85.213Y-104.159
X88.673Y-68.599
X88.673Y-71.139
X88.673Y-73.679
X88.673Y-76.219
X88.673Y-78.759
X88.673Y-81.299
X88.673Y-83.839
X88.673Y-86.379
X88.673Y-88.919
X88.673Y-91.459
X88.673Y-93.999
X88.673Y-96.539
X88.673Y-99.079
X88.673Y-101.619
X88.673Y-104.159
X88.673Y-106.699
X88.673Y-109.239
X88.673Y-111.779
X91.213Y-68.599
X91.213Y-71.139
X91.213Y-73.679
X91.213Y-76.219
X91.213Y-78.759
X91.213Y-81.299
X91.213Y-83.839
X91.213Y-86.379
X91.213Y-88.919
X91.213Y-91.459
X91.213Y-93.999
X91.213Y-96.539
X91.213Y-99.079
X91.213Y-101.619
X91.213Y-104.159
X91.213Y-106.699
X91.213Y-109.239
X91.213Y-111.779
T7
X67.31Y-72.39
T0
M30
