M48
;DRILL file {KiCad 4.0.2-stable} date 24/10/2016 06:45:55 p.m.
;FORMAT={-:-/ absolute / inch / decimal}
FMAT,2
INCH,TZ
T1C0.016
T2C0.031
T3C0.040
T4C0.051
%
G90
G05
M72
T1
X3.3036Y-2.6657
T2
X2.4856Y-3.0277
X2.4856Y-3.1065
X2.4856Y-3.1852
X2.4856Y-3.264
X2.4856Y-3.3427
X2.4856Y-3.4214
X2.4856Y-3.5002
X2.4856Y-3.5789
X2.4856Y-3.6577
X2.4856Y-3.7364
X2.4856Y-3.8151
X2.4856Y-3.8939
X2.4856Y-3.9726
X2.4856Y-4.0514
X2.4856Y-4.1301
X2.5643Y-3.0277
X2.5643Y-3.1065
X2.5643Y-3.1852
X2.5643Y-3.264
X2.5643Y-3.3427
X2.5643Y-3.4214
X2.5643Y-3.5002
X2.5643Y-3.5789
X2.5643Y-3.6577
X2.5643Y-3.7364
X2.5643Y-3.8151
X2.5643Y-3.8939
X2.5643Y-3.9726
X2.5643Y-4.0514
X2.5643Y-4.1301
T3
X2.9446Y-2.8347
X2.9446Y-2.9347
X2.9446Y-3.0347
X2.9446Y-3.1347
X2.9446Y-3.2347
X2.9446Y-3.3347
X2.9446Y-3.4347
X2.9446Y-3.5347
X2.9446Y-3.6347
X2.9446Y-3.7347
X2.9446Y-3.8347
X2.9446Y-3.9347
X2.9446Y-4.0347
X2.9446Y-4.1347
X2.9446Y-4.2347
X3.0446Y-2.8347
X3.0446Y-2.9347
X3.0446Y-3.0347
X3.0446Y-3.1347
X3.0446Y-3.2347
X3.0446Y-3.3347
X3.0446Y-3.4347
X3.0446Y-3.5347
X3.0446Y-3.6347
X3.0446Y-3.7347
X3.0446Y-3.8347
X3.0446Y-3.9347
X3.0446Y-4.0347
X3.0446Y-4.1347
X3.0446Y-4.2347
X3.4446Y-2.6657
X3.4446Y-2.7657
X3.4446Y-2.8657
X3.4446Y-2.9657
X3.4446Y-3.0657
X3.4446Y-3.1657
X3.4446Y-3.2657
X3.4446Y-3.3657
X3.4446Y-3.4657
X3.4446Y-3.5657
X3.4446Y-3.6657
X3.4446Y-3.7657
X3.4446Y-3.8657
X3.4446Y-3.9657
X3.4446Y-4.0657
X3.4446Y-4.1657
X3.4446Y-4.2657
X3.4446Y-4.3657
X3.5446Y-2.6657
X3.5446Y-2.7657
X3.5446Y-2.8657
X3.5446Y-2.9657
X3.5446Y-3.0657
X3.5446Y-3.1657
X3.5446Y-3.2657
X3.5446Y-3.3657
X3.5446Y-3.4657
X3.5446Y-3.5657
X3.5446Y-3.6657
X3.5446Y-3.7657
X3.5446Y-3.8657
X3.5446Y-3.9657
X3.5446Y-4.0657
X3.5446Y-4.1657
X3.5446Y-4.2657
X3.5446Y-4.3657
T4
X3.8626Y-3.6743
X3.8626Y-4.2452
X4.0575Y-3.6507
X4.0575Y-4.2688
T0
M30
