G04 #@! TF.FileFunction,Legend,Top*
%FSLAX46Y46*%
G04 Gerber Fmt 4.6, Leading zero omitted, Abs format (unit mm)*
G04 Created by KiCad (PCBNEW 4.0.2-stable) date 24/10/2016 06:45:45 p.m.*
%MOMM*%
G01*
G04 APERTURE LIST*
%ADD10C,0.100000*%
%ADD11C,0.250000*%
%ADD12C,0.110000*%
%ADD13C,0.150000*%
%ADD14C,0.203200*%
G04 APERTURE END LIST*
D10*
D11*
X84674286Y-67577619D02*
X84721905Y-67530000D01*
X84817143Y-67482381D01*
X85055239Y-67482381D01*
X85150477Y-67530000D01*
X85198096Y-67577619D01*
X85245715Y-67672857D01*
X85245715Y-67768095D01*
X85198096Y-67910952D01*
X84626667Y-68482381D01*
X85245715Y-68482381D01*
X78934286Y-74617619D02*
X78981905Y-74570000D01*
X79077143Y-74522381D01*
X79315239Y-74522381D01*
X79410477Y-74570000D01*
X79458096Y-74617619D01*
X79505715Y-74712857D01*
X79505715Y-74808095D01*
X79458096Y-74950952D01*
X78886667Y-75522381D01*
X79505715Y-75522381D01*
X26615715Y-73982381D02*
X26044286Y-73982381D01*
X26330000Y-73982381D02*
X26330000Y-72982381D01*
X26234762Y-73125238D01*
X26139524Y-73220476D01*
X26044286Y-73268095D01*
D12*
X39545933Y-108701647D02*
X39545933Y-108463552D01*
X39688790Y-108749266D02*
X39188790Y-108582599D01*
X39688790Y-108415933D01*
X29815000Y-99665714D02*
X29815000Y-99394285D01*
X29977857Y-99719999D02*
X29407857Y-99529999D01*
X29977857Y-99339999D01*
X29922457Y-100762806D02*
X29352457Y-100762806D01*
X29922457Y-100437091D02*
X29596743Y-100681377D01*
X29352457Y-100437091D02*
X29678171Y-100762806D01*
X39868790Y-112043552D02*
X39368790Y-112043552D01*
X39868790Y-111757838D02*
X39583076Y-111972124D01*
X39368790Y-111757838D02*
X39654505Y-112043552D01*
D13*
X91303000Y-112160000D02*
X91303000Y-66440000D01*
X86223000Y-66440000D02*
X86223000Y-109620000D01*
X91303000Y-66440000D02*
X86223000Y-66440000D01*
X91303000Y-112160000D02*
X88763000Y-112160000D01*
X85943000Y-110890000D02*
X85943000Y-112440000D01*
X88763000Y-112160000D02*
X88763000Y-109620000D01*
X88763000Y-109620000D02*
X86223000Y-109620000D01*
X85943000Y-112440000D02*
X87493000Y-112440000D01*
D14*
X97080200Y-108077600D02*
X97080200Y-93077600D01*
X106580200Y-108077600D02*
X97080200Y-108077600D01*
X106580200Y-93077600D02*
X97080200Y-93077600D01*
X106580200Y-93077600D02*
X106580200Y-108077600D01*
D13*
X62134400Y-77904800D02*
X64134400Y-77904800D01*
X64134400Y-77904800D02*
X64134400Y-75904800D01*
X64134400Y-75904800D02*
X66134400Y-75904800D01*
X66134400Y-75904800D02*
X66134400Y-77904800D01*
X66134400Y-77904800D02*
X66134400Y-105904800D01*
X66134400Y-105904800D02*
X62134400Y-105904800D01*
X62134400Y-105904800D02*
X62134400Y-77904800D01*
X61634400Y-76904800D02*
X61634400Y-75404800D01*
X61634400Y-75404800D02*
X63134400Y-75404800D01*
X73523000Y-108832600D02*
X73523000Y-70732600D01*
X78603000Y-73272600D02*
X78603000Y-108832600D01*
X73523000Y-108832600D02*
X78603000Y-108832600D01*
X73523000Y-70732600D02*
X76063000Y-70732600D01*
X78883000Y-72002600D02*
X78883000Y-70452600D01*
X76063000Y-70732600D02*
X76063000Y-73272600D01*
X76063000Y-73272600D02*
X78603000Y-73272600D01*
X78883000Y-70452600D02*
X77333000Y-70452600D01*
X82845381Y-112818571D02*
X81845381Y-112818571D01*
X81845381Y-112437618D01*
X81893000Y-112342380D01*
X81940619Y-112294761D01*
X82035857Y-112247142D01*
X82178714Y-112247142D01*
X82273952Y-112294761D01*
X82321571Y-112342380D01*
X82369190Y-112437618D01*
X82369190Y-112818571D01*
X82321571Y-111485237D02*
X82321571Y-111818571D01*
X82845381Y-111818571D02*
X81845381Y-111818571D01*
X81845381Y-111342380D01*
X82845381Y-110961428D02*
X81845381Y-110961428D01*
X81845381Y-110294762D02*
X81845381Y-110104285D01*
X81893000Y-110009047D01*
X81988238Y-109913809D01*
X82178714Y-109866190D01*
X82512048Y-109866190D01*
X82702524Y-109913809D01*
X82797762Y-110009047D01*
X82845381Y-110104285D01*
X82845381Y-110294762D01*
X82797762Y-110390000D01*
X82702524Y-110485238D01*
X82512048Y-110532857D01*
X82178714Y-110532857D01*
X81988238Y-110485238D01*
X81893000Y-110390000D01*
X81845381Y-110294762D01*
X81940619Y-109485238D02*
X81893000Y-109437619D01*
X81845381Y-109342381D01*
X81845381Y-109104285D01*
X81893000Y-109009047D01*
X81940619Y-108961428D01*
X82035857Y-108913809D01*
X82131095Y-108913809D01*
X82273952Y-108961428D01*
X82845381Y-109532857D01*
X82845381Y-108913809D01*
X97288771Y-101077600D02*
X98360200Y-101077600D01*
X98574486Y-101149028D01*
X98717343Y-101291885D01*
X98788771Y-101506171D01*
X98788771Y-101649028D01*
X98788771Y-99577600D02*
X98788771Y-100434743D01*
X98788771Y-100006171D02*
X97288771Y-100006171D01*
X97503057Y-100149028D01*
X97645914Y-100291886D01*
X97717343Y-100434743D01*
X98788771Y-104184743D02*
X97288771Y-104184743D01*
X98003057Y-104184743D02*
X98003057Y-103327600D01*
X98788771Y-103327600D02*
X97288771Y-103327600D01*
X98788771Y-102613314D02*
X97288771Y-102613314D01*
X97288771Y-102256171D01*
X97360200Y-102041886D01*
X97503057Y-101899028D01*
X97645914Y-101827600D01*
X97931629Y-101756171D01*
X98145914Y-101756171D01*
X98431629Y-101827600D01*
X98574486Y-101899028D01*
X98717343Y-102041886D01*
X98788771Y-102256171D01*
X98788771Y-102613314D01*
X98788771Y-101113314D02*
X97288771Y-101113314D01*
X98360200Y-100613314D01*
X97288771Y-100113314D01*
X98788771Y-100113314D01*
X98788771Y-99399028D02*
X97288771Y-99399028D01*
X98931629Y-99041885D02*
X98931629Y-97899028D01*
X98360200Y-97613314D02*
X98360200Y-96899028D01*
X98788771Y-97756171D02*
X97288771Y-97256171D01*
X98788771Y-96756171D01*
X62396305Y-72357181D02*
X62396305Y-71357181D01*
X62777258Y-71357181D01*
X62872496Y-71404800D01*
X62920115Y-71452419D01*
X62967734Y-71547657D01*
X62967734Y-71690514D01*
X62920115Y-71785752D01*
X62872496Y-71833371D01*
X62777258Y-71880990D01*
X62396305Y-71880990D01*
X63920115Y-72357181D02*
X63348686Y-72357181D01*
X63634400Y-72357181D02*
X63634400Y-71357181D01*
X63539162Y-71500038D01*
X63443924Y-71595276D01*
X63348686Y-71642895D01*
X82885381Y-72740695D02*
X81885381Y-72740695D01*
X81885381Y-72359742D01*
X81933000Y-72264504D01*
X81980619Y-72216885D01*
X82075857Y-72169266D01*
X82218714Y-72169266D01*
X82313952Y-72216885D01*
X82361571Y-72264504D01*
X82409190Y-72359742D01*
X82409190Y-72740695D01*
X81980619Y-71788314D02*
X81933000Y-71740695D01*
X81885381Y-71645457D01*
X81885381Y-71407361D01*
X81933000Y-71312123D01*
X81980619Y-71264504D01*
X82075857Y-71216885D01*
X82171095Y-71216885D01*
X82313952Y-71264504D01*
X82885381Y-71835933D01*
X82885381Y-71216885D01*
M02*
