G04 #@! TF.FileFunction,Copper,L1,Top,Signal*
%FSLAX46Y46*%
G04 Gerber Fmt 4.6, Leading zero omitted, Abs format (unit mm)*
G04 Created by KiCad (PCBNEW 4.0.2-stable) date 24/10/2016 06:45:45 p.m.*
%MOMM*%
G01*
G04 APERTURE LIST*
%ADD10C,0.100000*%
%ADD11R,1.727200X1.727200*%
%ADD12O,1.727200X1.727200*%
%ADD13C,2.000000*%
%ADD14R,1.900000X0.300000*%
%ADD15R,1.350000X1.350000*%
%ADD16C,1.350000*%
%ADD17C,0.700000*%
%ADD18C,0.300000*%
%ADD19C,0.700000*%
%ADD20C,0.800000*%
%ADD21C,0.400000*%
G04 APERTURE END LIST*
D10*
D11*
X87493000Y-110890000D03*
D12*
X90033000Y-110890000D03*
X87493000Y-108350000D03*
X90033000Y-108350000D03*
X87493000Y-105810000D03*
X90033000Y-105810000D03*
X87493000Y-103270000D03*
X90033000Y-103270000D03*
X87493000Y-100730000D03*
X90033000Y-100730000D03*
X87493000Y-98190000D03*
X90033000Y-98190000D03*
X87493000Y-95650000D03*
X90033000Y-95650000D03*
X87493000Y-93110000D03*
X90033000Y-93110000D03*
X87493000Y-90570000D03*
X90033000Y-90570000D03*
X87493000Y-88030000D03*
X90033000Y-88030000D03*
X87493000Y-85490000D03*
X90033000Y-85490000D03*
X87493000Y-82950000D03*
X90033000Y-82950000D03*
X87493000Y-80410000D03*
X90033000Y-80410000D03*
X87493000Y-77870000D03*
X90033000Y-77870000D03*
X87493000Y-75330000D03*
X90033000Y-75330000D03*
X87493000Y-72790000D03*
X90033000Y-72790000D03*
X87493000Y-70250000D03*
X90033000Y-70250000D03*
X87493000Y-67710000D03*
X90033000Y-67710000D03*
D13*
X103060200Y-108427600D03*
X103060200Y-92727600D03*
X98110200Y-107827600D03*
X98110200Y-93327600D03*
D14*
X97210200Y-95827600D03*
X97210200Y-96327600D03*
X97210200Y-96827600D03*
X97210200Y-97327600D03*
X97210200Y-97827600D03*
X97210200Y-98327600D03*
X97210200Y-98827600D03*
X97210200Y-99327600D03*
X97210200Y-99827600D03*
X97210200Y-100327600D03*
X97210200Y-100827600D03*
X97210200Y-101327600D03*
X97210200Y-101827600D03*
X97210200Y-102327600D03*
X97210200Y-102827600D03*
X97210200Y-103327600D03*
X97210200Y-103827600D03*
X97210200Y-104327600D03*
X97210200Y-104827600D03*
D15*
X63134400Y-76904800D03*
D16*
X63134400Y-78904800D03*
X63134400Y-80904800D03*
X63134400Y-82904800D03*
X63134400Y-84904800D03*
X63134400Y-86904800D03*
X63134400Y-88904800D03*
X63134400Y-90904800D03*
X63134400Y-92904800D03*
X63134400Y-94904800D03*
X63134400Y-96904800D03*
X63134400Y-98904800D03*
X63134400Y-100904800D03*
X63134400Y-102904800D03*
X63134400Y-104904800D03*
X65134400Y-76904800D03*
X65134400Y-78904800D03*
X65134400Y-80904800D03*
X65134400Y-82904800D03*
X65134400Y-84904800D03*
X65134400Y-86904800D03*
X65134400Y-88904800D03*
X65134400Y-90904800D03*
X65134400Y-92904800D03*
X65134400Y-94904800D03*
X65134400Y-96904800D03*
X65134400Y-98904800D03*
X65134400Y-100904800D03*
X65134400Y-102904800D03*
X65134400Y-104904800D03*
D11*
X77333000Y-72002600D03*
D12*
X74793000Y-72002600D03*
X77333000Y-74542600D03*
X74793000Y-74542600D03*
X77333000Y-77082600D03*
X74793000Y-77082600D03*
X77333000Y-79622600D03*
X74793000Y-79622600D03*
X77333000Y-82162600D03*
X74793000Y-82162600D03*
X77333000Y-84702600D03*
X74793000Y-84702600D03*
X77333000Y-87242600D03*
X74793000Y-87242600D03*
X77333000Y-89782600D03*
X74793000Y-89782600D03*
X77333000Y-92322600D03*
X74793000Y-92322600D03*
X77333000Y-94862600D03*
X74793000Y-94862600D03*
X77333000Y-97402600D03*
X74793000Y-97402600D03*
X77333000Y-99942600D03*
X74793000Y-99942600D03*
X77333000Y-102482600D03*
X74793000Y-102482600D03*
X77333000Y-105022600D03*
X74793000Y-105022600D03*
X77333000Y-107562600D03*
X74793000Y-107562600D03*
D17*
X83911600Y-67710000D03*
D18*
X65134400Y-84904800D02*
X64735600Y-84904800D01*
X64735600Y-84904800D02*
X63744000Y-85896400D01*
X61559600Y-86658400D02*
X61559600Y-89554000D01*
X62321600Y-85896400D02*
X61559600Y-86658400D01*
X63744000Y-85896400D02*
X62321600Y-85896400D01*
X65134400Y-90904800D02*
X64577600Y-90904800D01*
X64577600Y-90904800D02*
X63591600Y-91890800D01*
X62016800Y-91890800D02*
X61559600Y-91433600D01*
X63591600Y-91890800D02*
X62016800Y-91890800D01*
X87493000Y-67710000D02*
X83911600Y-67710000D01*
X74793000Y-82162600D02*
X75199400Y-82162600D01*
X73650000Y-85998000D02*
X71821200Y-85998000D01*
X71821200Y-85998000D02*
X69890800Y-87928400D01*
X74793000Y-82162600D02*
X70627400Y-82162600D01*
X67885200Y-84904800D02*
X65134400Y-84904800D01*
X70627400Y-82162600D02*
X67885200Y-84904800D01*
X63134400Y-100904800D02*
X62445600Y-100904800D01*
X61559600Y-100018800D02*
X61559600Y-91433600D01*
X61559600Y-91433600D02*
X61559600Y-90570000D01*
X62445600Y-100904800D02*
X61559600Y-100018800D01*
X65134400Y-102904800D02*
X63134400Y-100904800D01*
X74793000Y-105022600D02*
X70932200Y-105022600D01*
X68814400Y-102904800D02*
X65134400Y-102904800D01*
X70932200Y-105022600D02*
X68814400Y-102904800D01*
X63134400Y-88904800D02*
X62056400Y-88904800D01*
X62056400Y-88904800D02*
X61559600Y-89401600D01*
X61559600Y-89401600D02*
X61559600Y-89554000D01*
X61559600Y-89554000D02*
X61559600Y-90570000D01*
X61559600Y-93330000D02*
X63134400Y-94904800D01*
X61559600Y-90570000D02*
X61559600Y-93330000D01*
X65134400Y-96904800D02*
X63134400Y-94904800D01*
X74793000Y-97402600D02*
X68798600Y-97402600D01*
X68300800Y-96904800D02*
X65134400Y-96904800D01*
X68798600Y-97402600D02*
X68300800Y-96904800D01*
X74793000Y-89782600D02*
X72710200Y-89782600D01*
X67066800Y-90904800D02*
X65134400Y-90904800D01*
X67503200Y-90468400D02*
X67066800Y-90904800D01*
X72024400Y-90468400D02*
X67503200Y-90468400D01*
X72710200Y-89782600D02*
X72024400Y-90468400D01*
X63134400Y-88904800D02*
X63134400Y-88842800D01*
X63134400Y-88842800D02*
X64048800Y-87928400D01*
X64048800Y-87928400D02*
X69890800Y-87928400D01*
X73650000Y-85998000D02*
X75275600Y-85998000D01*
X75275600Y-85998000D02*
X76520200Y-87242600D01*
X76520200Y-87242600D02*
X77333000Y-87242600D01*
X63134400Y-76904800D02*
X63134400Y-73463100D01*
X93970000Y-67138500D02*
X93970000Y-70694500D01*
X91049000Y-64217500D02*
X93970000Y-67138500D01*
X72380000Y-64217500D02*
X91049000Y-64217500D01*
X63134400Y-73463100D02*
X72380000Y-64217500D01*
X74793000Y-105022600D02*
X77333000Y-102482600D01*
X77333000Y-102482600D02*
X77244100Y-102482600D01*
X77244100Y-102482600D02*
X76063000Y-101301500D01*
X76063000Y-101301500D02*
X76063000Y-98672600D01*
X76063000Y-98672600D02*
X74793000Y-97402600D01*
X87493000Y-67710000D02*
X87493000Y-67900500D01*
X87493000Y-67900500D02*
X88572500Y-68980000D01*
X93970000Y-89187400D02*
X98110200Y-93327600D01*
X93970000Y-70694500D02*
X93970000Y-89187400D01*
X92255500Y-68980000D02*
X93970000Y-70694500D01*
X88572500Y-68980000D02*
X92255500Y-68980000D01*
X87493000Y-88030000D02*
X86413500Y-88030000D01*
X79580900Y-94862600D02*
X77333000Y-94862600D01*
X86413500Y-88030000D02*
X79580900Y-94862600D01*
X77333000Y-94862600D02*
X74793000Y-97402600D01*
D19*
X87493000Y-67710000D02*
X81625600Y-67710000D01*
X81625600Y-67710000D02*
X77333000Y-72002600D01*
X77739400Y-72002600D02*
X77333000Y-72002600D01*
D18*
X87493000Y-88030000D02*
X87924800Y-88030000D01*
X87924800Y-88030000D02*
X89144000Y-89249200D01*
X89144000Y-89249200D02*
X94031800Y-89249200D01*
X94031800Y-89249200D02*
X98110200Y-93327600D01*
X97210200Y-100827600D02*
X102322600Y-100827600D01*
X102322600Y-100827600D02*
X103060200Y-101565200D01*
X97210200Y-99327600D02*
X102448200Y-99327600D01*
X102448200Y-99327600D02*
X103060200Y-99939600D01*
X97210200Y-97827600D02*
X102784600Y-97827600D01*
X102784600Y-97827600D02*
X103060200Y-97552000D01*
X97210200Y-96327600D02*
X102369200Y-96327600D01*
X102369200Y-96327600D02*
X103060200Y-97018600D01*
D20*
X98110200Y-93327600D02*
X102460200Y-93327600D01*
X102460200Y-93327600D02*
X103060200Y-92727600D01*
X103060200Y-92727600D02*
X98710200Y-92727600D01*
X98710200Y-92727600D02*
X98110200Y-93327600D01*
X98710200Y-92727600D02*
X98110200Y-93327600D01*
X103060200Y-108427600D02*
X103060200Y-101565200D01*
X103060200Y-101565200D02*
X103060200Y-99939600D01*
X103060200Y-99939600D02*
X103060200Y-97552000D01*
X103060200Y-97552000D02*
X103060200Y-97018600D01*
X103060200Y-97018600D02*
X103060200Y-92727600D01*
X103060200Y-108427600D02*
X98710200Y-108427600D01*
X98710200Y-108427600D02*
X98110200Y-107827600D01*
X98110200Y-107827600D02*
X102460200Y-107827600D01*
X102460200Y-107827600D02*
X103060200Y-108427600D01*
D18*
X98710200Y-108427600D02*
X98110200Y-107827600D01*
X103060200Y-108427600D02*
X102460200Y-107827600D01*
D21*
X87035800Y-68167200D02*
X87493000Y-67710000D01*
D10*
X87035800Y-68167200D02*
X87493000Y-67710000D01*
D18*
X65134400Y-76904800D02*
X65134400Y-78904800D01*
X65134400Y-78904800D02*
X63134400Y-78904800D01*
X74793000Y-74542600D02*
X70309900Y-74542600D01*
X67947700Y-76904800D02*
X65134400Y-76904800D01*
X70309900Y-74542600D02*
X67947700Y-76904800D01*
X74793000Y-72002600D02*
X74793000Y-74542600D01*
X74793000Y-74542600D02*
X77333000Y-74542600D01*
D19*
X90033000Y-67710000D02*
X90033000Y-65855800D01*
X74793000Y-69411800D02*
X74793000Y-72002600D01*
X78984000Y-65220800D02*
X74793000Y-69411800D01*
X89398000Y-65220800D02*
X78984000Y-65220800D01*
X90033000Y-65855800D02*
X89398000Y-65220800D01*
D18*
X97210200Y-101327600D02*
X93524800Y-101327600D01*
X87493000Y-112134600D02*
X87493000Y-110890000D01*
X89017000Y-113658600D02*
X87493000Y-112134600D01*
X91049000Y-113658600D02*
X89017000Y-113658600D01*
X93131800Y-111575800D02*
X91049000Y-113658600D01*
X93131800Y-101720600D02*
X93131800Y-111575800D01*
X93524800Y-101327600D02*
X93131800Y-101720600D01*
X87493000Y-110890000D02*
X87493000Y-111601200D01*
X97210200Y-100327600D02*
X92467400Y-100327600D01*
X91506200Y-101288800D02*
X91506200Y-109416800D01*
X92467400Y-100327600D02*
X91506200Y-101288800D01*
X91506200Y-109416800D02*
X90033000Y-110890000D01*
X91506200Y-109416800D02*
X90033000Y-110890000D01*
X97210200Y-99827600D02*
X91569000Y-99827600D01*
X88763000Y-99460000D02*
X87493000Y-98190000D01*
X91201400Y-99460000D02*
X88763000Y-99460000D01*
X91569000Y-99827600D02*
X91201400Y-99460000D01*
X97210200Y-98827600D02*
X93896400Y-98827600D01*
X93258800Y-98190000D02*
X90033000Y-98190000D01*
X93896400Y-98827600D02*
X93258800Y-98190000D01*
X97210200Y-98327600D02*
X94234600Y-98327600D01*
X88737600Y-94354600D02*
X87493000Y-93110000D01*
X90693400Y-94354600D02*
X88737600Y-94354600D01*
X91379200Y-95040400D02*
X90693400Y-94354600D01*
X91379200Y-95472200D02*
X91379200Y-95040400D01*
X94234600Y-98327600D02*
X91379200Y-95472200D01*
X97210200Y-97327600D02*
X94961800Y-97327600D01*
X94961800Y-97327600D02*
X90744200Y-93110000D01*
X90744200Y-93110000D02*
X90033000Y-93110000D01*
X97210200Y-96827600D02*
X95350800Y-96827600D01*
X91404600Y-92246400D02*
X91023600Y-91865400D01*
X91404600Y-92881400D02*
X91404600Y-92246400D01*
X95350800Y-96827600D02*
X91404600Y-92881400D01*
X88788400Y-91865400D02*
X87493000Y-90570000D01*
X91023600Y-91865400D02*
X88788400Y-91865400D01*
X87493000Y-90570000D02*
X87493000Y-90595400D01*
X90033000Y-90570000D02*
X91887200Y-90570000D01*
X91887200Y-90570000D02*
X97144800Y-95827600D01*
X97144800Y-95827600D02*
X97210200Y-95827600D01*
X90033000Y-90036600D02*
X90033000Y-90570000D01*
X74793000Y-92322600D02*
X69916200Y-92322600D01*
X69334000Y-92904800D02*
X65134400Y-92904800D01*
X69916200Y-92322600D02*
X69334000Y-92904800D01*
X87493000Y-80410000D02*
X85080000Y-80410000D01*
X85080000Y-80410000D02*
X83200400Y-82289600D01*
X76024900Y-93554500D02*
X74793000Y-92322600D01*
X78539500Y-93554500D02*
X76024900Y-93554500D01*
X83200400Y-88893600D02*
X78539500Y-93554500D01*
X83200400Y-82289600D02*
X83200400Y-88893600D01*
D21*
X74793000Y-92322600D02*
X74843800Y-92322600D01*
D18*
X67198400Y-91890800D02*
X64760000Y-91890800D01*
X64760000Y-91890800D02*
X63746000Y-92904800D01*
X63746000Y-92904800D02*
X63134400Y-92904800D01*
X63134400Y-92904800D02*
X63746000Y-92904800D01*
X77333000Y-92322600D02*
X78399800Y-92322600D01*
X82540000Y-88182400D02*
X82540000Y-81362500D01*
X78399800Y-92322600D02*
X82540000Y-88182400D01*
X87874000Y-79076500D02*
X84826000Y-79076500D01*
X84826000Y-79076500D02*
X82540000Y-81362500D01*
X89842500Y-80410000D02*
X88509000Y-79076500D01*
X88509000Y-79076500D02*
X87874000Y-79076500D01*
X77333000Y-92322600D02*
X77333000Y-92068600D01*
X77333000Y-92068600D02*
X76342400Y-91078000D01*
X67655600Y-91890800D02*
X67198400Y-91890800D01*
X68468400Y-91078000D02*
X67655600Y-91890800D01*
X76342400Y-91078000D02*
X68468400Y-91078000D01*
X82540000Y-81362500D02*
X82540000Y-82442000D01*
X90033000Y-80410000D02*
X89842500Y-80410000D01*
X82540000Y-81362500D02*
X82540000Y-82442000D01*
D21*
X90033000Y-80410000D02*
X89728200Y-80410000D01*
D18*
X81968500Y-85236000D02*
X81968500Y-87229900D01*
X79415800Y-89782600D02*
X77333000Y-89782600D01*
X81968500Y-87229900D02*
X79415800Y-89782600D01*
X87162800Y-76600000D02*
X85842000Y-76600000D01*
X81968500Y-80473500D02*
X81968500Y-85236000D01*
X85842000Y-76600000D02*
X81968500Y-80473500D01*
X78501400Y-89782600D02*
X77333000Y-89782600D01*
X87429500Y-76600000D02*
X87162800Y-76600000D01*
X88636000Y-76600000D02*
X87556500Y-76600000D01*
X78501400Y-89782600D02*
X77333000Y-89782600D01*
X89906000Y-77870000D02*
X88636000Y-76600000D01*
X87556500Y-76600000D02*
X87429500Y-76600000D01*
X77333000Y-89782600D02*
X76520200Y-89782600D01*
X76520200Y-89782600D02*
X75224800Y-88487200D01*
X64129600Y-89909600D02*
X63134400Y-90904800D01*
X70805200Y-89909600D02*
X64129600Y-89909600D01*
X72227600Y-88487200D02*
X70805200Y-89909600D01*
X75224800Y-88487200D02*
X72227600Y-88487200D01*
X90033000Y-77870000D02*
X89906000Y-77870000D01*
D21*
X90033000Y-77870000D02*
X89601200Y-77870000D01*
D18*
X74793000Y-87242600D02*
X71960900Y-87242600D01*
X70298700Y-88904800D02*
X65134400Y-88904800D01*
X71960900Y-87242600D02*
X70298700Y-88904800D01*
X87493000Y-75330000D02*
X85791200Y-75330000D01*
X85791200Y-75330000D02*
X81333500Y-79787700D01*
X76024900Y-88474500D02*
X74793000Y-87242600D01*
X79149100Y-88474500D02*
X76024900Y-88474500D01*
X81333500Y-86290100D02*
X79149100Y-88474500D01*
X81333500Y-79787700D02*
X81333500Y-86290100D01*
X87721600Y-74060000D02*
X85740400Y-74060000D01*
X80660400Y-79140000D02*
X80660400Y-81172000D01*
X85740400Y-74060000D02*
X80660400Y-79140000D01*
X90033000Y-75330000D02*
X90033000Y-75101400D01*
X90033000Y-75101400D02*
X88991600Y-74060000D01*
X88991600Y-74060000D02*
X87721600Y-74060000D01*
X74793000Y-84702600D02*
X74894600Y-84702600D01*
X74894600Y-84702600D02*
X76139200Y-85947200D01*
X76139200Y-85947200D02*
X79898400Y-85947200D01*
X79898400Y-85947200D02*
X80660400Y-85185200D01*
X80660400Y-85185200D02*
X80660400Y-81172000D01*
X74793000Y-84702600D02*
X71579900Y-84702600D01*
X69377700Y-86904800D02*
X65134400Y-86904800D01*
X71579900Y-84702600D02*
X69377700Y-86904800D01*
X90033000Y-75330000D02*
X89779000Y-75330000D01*
D21*
X74793000Y-84702600D02*
X74945400Y-84702600D01*
X74793000Y-84702600D02*
X74843800Y-84702600D01*
D18*
X65471200Y-85896400D02*
X64709200Y-85896400D01*
X64709200Y-85896400D02*
X63700800Y-86904800D01*
X63700800Y-86904800D02*
X63134400Y-86904800D01*
X77333000Y-84702600D02*
X76571000Y-84702600D01*
X76571000Y-84702600D02*
X75326400Y-83458000D01*
X77333000Y-84702600D02*
X79111000Y-84702600D01*
X79111000Y-84702600D02*
X80063500Y-83750100D01*
X80063500Y-78365300D02*
X85638800Y-72790000D01*
X80063500Y-83750100D02*
X80063500Y-78365300D01*
X77333000Y-84702600D02*
X77180600Y-84702600D01*
X68874800Y-85896400D02*
X65471200Y-85896400D01*
X71313200Y-83458000D02*
X68874800Y-85896400D01*
X75326400Y-83458000D02*
X71313200Y-83458000D01*
X87493000Y-72790000D02*
X85638800Y-72790000D01*
X79428500Y-75330000D02*
X79428500Y-76968300D01*
X76088400Y-80359200D02*
X75529600Y-80918000D01*
X76088400Y-78936800D02*
X76088400Y-80359200D01*
X76647200Y-78378000D02*
X76088400Y-78936800D01*
X78018800Y-78378000D02*
X76647200Y-78378000D01*
X79428500Y-76968300D02*
X78018800Y-78378000D01*
X72380000Y-80918000D02*
X70043200Y-80918000D01*
X75529600Y-80918000D02*
X72380000Y-80918000D01*
X70043200Y-80918000D02*
X67058700Y-83902500D01*
X67058700Y-83902500D02*
X64136700Y-83902500D01*
X64136700Y-83902500D02*
X63134400Y-84904800D01*
X77333000Y-82162600D02*
X77307600Y-82162600D01*
X77307600Y-82162600D02*
X76063000Y-80918000D01*
X76063000Y-80918000D02*
X75529600Y-80918000D01*
X64136700Y-83902500D02*
X63134400Y-84904800D01*
X86858000Y-71520000D02*
X82032000Y-71520000D01*
X82032000Y-71520000D02*
X79428500Y-74123500D01*
X90033000Y-72790000D02*
X90033000Y-72599500D01*
X90033000Y-72599500D02*
X88953500Y-71520000D01*
X79428500Y-74123500D02*
X79428500Y-75330000D01*
X88953500Y-71520000D02*
X86858000Y-71520000D01*
D21*
X90033000Y-72790000D02*
X90007600Y-72790000D01*
D18*
X78857000Y-74720400D02*
X78857000Y-74745800D01*
X72837200Y-77666800D02*
X74793000Y-79622600D01*
X72837200Y-76650800D02*
X72837200Y-77666800D01*
X73650000Y-75838000D02*
X72837200Y-76650800D01*
X77764800Y-75838000D02*
X73650000Y-75838000D01*
X78857000Y-74745800D02*
X77764800Y-75838000D01*
X74793000Y-79622600D02*
X69547900Y-79622600D01*
X69547900Y-79622600D02*
X66265700Y-82904800D01*
X66265700Y-82904800D02*
X65134400Y-82904800D01*
X87493000Y-70250000D02*
X81905000Y-70250000D01*
X78857000Y-73298000D02*
X78857000Y-74720400D01*
X81905000Y-70250000D02*
X78857000Y-73298000D01*
D21*
X87493000Y-70250000D02*
X86807200Y-70250000D01*
X74793000Y-79622600D02*
X74793000Y-79470200D01*
M02*
