M48
;DRILL file {KiCad 4.0.2-stable} date 18/11/2016 09:29:31 a.m.
;FORMAT={-:-/ absolute / inch / decimal}
FMAT,2
INCH,TZ
T1C0.031
T2C0.040
T3C0.051
%
G90
G05
M72
T1
X2.4856Y-3.0277
X2.4856Y-3.1065
X2.4856Y-3.1852
X2.4856Y-3.264
X2.4856Y-3.3427
X2.4856Y-3.4214
X2.4856Y-3.5002
X2.4856Y-3.5789
X2.4856Y-3.6577
X2.4856Y-3.7364
X2.5643Y-3.0277
X2.5643Y-3.1065
X2.5643Y-3.1852
X2.5643Y-3.264
X2.5643Y-3.3427
X2.5643Y-3.4214
X2.5643Y-3.5002
X2.5643Y-3.5789
X2.5643Y-3.6577
X2.5643Y-3.7364
T2
X3.4846Y-2.6657
X3.4846Y-2.7657
X3.4846Y-2.8657
X3.4846Y-2.9657
X3.4846Y-3.0657
X3.4846Y-3.1657
X3.4846Y-3.2657
X3.4846Y-3.3657
X3.4846Y-3.4657
X3.4846Y-3.5657
X3.4846Y-3.6657
X3.4846Y-3.7657
X3.4846Y-3.8657
X3.4846Y-3.9657
X3.4846Y-4.0657
X3.4846Y-4.1657
X3.4846Y-4.2657
X3.4846Y-4.3657
X3.5846Y-2.6657
X3.5846Y-2.7657
X3.5846Y-2.8657
X3.5846Y-2.9657
X3.5846Y-3.0657
X3.5846Y-3.1657
X3.5846Y-3.2657
X3.5846Y-3.3657
X3.5846Y-3.4657
X3.5846Y-3.5657
X3.5846Y-3.6657
X3.5846Y-3.7657
X3.5846Y-3.8657
X3.5846Y-3.9657
X3.5846Y-4.0657
X3.5846Y-4.1657
X3.5846Y-4.2657
X3.5846Y-4.3657
T3
X3.8626Y-3.6743
X3.8626Y-4.2452
X4.0575Y-3.6507
X4.0575Y-4.2688
T0
M30
