G04 #@! TF.FileFunction,Soldermask,Bot*
%FSLAX46Y46*%
G04 Gerber Fmt 4.6, Leading zero omitted, Abs format (unit mm)*
G04 Created by KiCad (PCBNEW 4.0.2-stable) date 18/11/2016 09:29:09 a.m.*
%MOMM*%
G01*
G04 APERTURE LIST*
%ADD10C,0.100000*%
%ADD11R,1.727200X1.727200*%
%ADD12O,1.727200X1.727200*%
%ADD13C,2.000000*%
%ADD14R,1.350000X1.350000*%
%ADD15C,1.350000*%
G04 APERTURE END LIST*
D10*
D11*
X88509000Y-110890000D03*
D12*
X91049000Y-110890000D03*
X88509000Y-108350000D03*
X91049000Y-108350000D03*
X88509000Y-105810000D03*
X91049000Y-105810000D03*
X88509000Y-103270000D03*
X91049000Y-103270000D03*
X88509000Y-100730000D03*
X91049000Y-100730000D03*
X88509000Y-98190000D03*
X91049000Y-98190000D03*
X88509000Y-95650000D03*
X91049000Y-95650000D03*
X88509000Y-93110000D03*
X91049000Y-93110000D03*
X88509000Y-90570000D03*
X91049000Y-90570000D03*
X88509000Y-88030000D03*
X91049000Y-88030000D03*
X88509000Y-85490000D03*
X91049000Y-85490000D03*
X88509000Y-82950000D03*
X91049000Y-82950000D03*
X88509000Y-80410000D03*
X91049000Y-80410000D03*
X88509000Y-77870000D03*
X91049000Y-77870000D03*
X88509000Y-75330000D03*
X91049000Y-75330000D03*
X88509000Y-72790000D03*
X91049000Y-72790000D03*
X88509000Y-70250000D03*
X91049000Y-70250000D03*
X88509000Y-67710000D03*
X91049000Y-67710000D03*
D13*
X103060200Y-108427600D03*
X103060200Y-92727600D03*
X98110200Y-107827600D03*
X98110200Y-93327600D03*
D14*
X63134400Y-76904800D03*
D15*
X63134400Y-78904800D03*
X63134400Y-80904800D03*
X63134400Y-82904800D03*
X63134400Y-84904800D03*
X63134400Y-86904800D03*
X63134400Y-88904800D03*
X63134400Y-90904800D03*
X63134400Y-92904800D03*
X63134400Y-94904800D03*
X65134400Y-76904800D03*
X65134400Y-78904800D03*
X65134400Y-80904800D03*
X65134400Y-82904800D03*
X65134400Y-84904800D03*
X65134400Y-86904800D03*
X65134400Y-88904800D03*
X65134400Y-90904800D03*
X65134400Y-92904800D03*
X65134400Y-94904800D03*
M02*
