G04 #@! TF.FileFunction,Legend,Top*
%FSLAX46Y46*%
G04 Gerber Fmt 4.6, Leading zero omitted, Abs format (unit mm)*
G04 Created by KiCad (PCBNEW 4.0.2-stable) date 18/11/2016 09:29:09 a.m.*
%MOMM*%
G01*
G04 APERTURE LIST*
%ADD10C,0.100000*%
%ADD11C,0.250000*%
%ADD12C,0.110000*%
%ADD13C,0.203200*%
%ADD14C,0.150000*%
G04 APERTURE END LIST*
D10*
D11*
X84674286Y-67577619D02*
X84721905Y-67530000D01*
X84817143Y-67482381D01*
X85055239Y-67482381D01*
X85150477Y-67530000D01*
X85198096Y-67577619D01*
X85245715Y-67672857D01*
X85245715Y-67768095D01*
X85198096Y-67910952D01*
X84626667Y-68482381D01*
X85245715Y-68482381D01*
X78934286Y-74617619D02*
X78981905Y-74570000D01*
X79077143Y-74522381D01*
X79315239Y-74522381D01*
X79410477Y-74570000D01*
X79458096Y-74617619D01*
X79505715Y-74712857D01*
X79505715Y-74808095D01*
X79458096Y-74950952D01*
X78886667Y-75522381D01*
X79505715Y-75522381D01*
X26615715Y-73982381D02*
X26044286Y-73982381D01*
X26330000Y-73982381D02*
X26330000Y-72982381D01*
X26234762Y-73125238D01*
X26139524Y-73220476D01*
X26044286Y-73268095D01*
D12*
X39545933Y-108701647D02*
X39545933Y-108463552D01*
X39688790Y-108749266D02*
X39188790Y-108582599D01*
X39688790Y-108415933D01*
X29815000Y-99665714D02*
X29815000Y-99394285D01*
X29977857Y-99719999D02*
X29407857Y-99529999D01*
X29977857Y-99339999D01*
X29922457Y-100762806D02*
X29352457Y-100762806D01*
X29922457Y-100437091D02*
X29596743Y-100681377D01*
X29352457Y-100437091D02*
X29678171Y-100762806D01*
X39868790Y-112043552D02*
X39368790Y-112043552D01*
X39868790Y-111757838D02*
X39583076Y-111972124D01*
X39368790Y-111757838D02*
X39654505Y-112043552D01*
D13*
X97080200Y-108077600D02*
X97080200Y-93077600D01*
X106580200Y-108077600D02*
X97080200Y-108077600D01*
X106580200Y-93077600D02*
X97080200Y-93077600D01*
X106580200Y-93077600D02*
X106580200Y-108077600D01*
D14*
X83040000Y-109279000D02*
X82040000Y-109279000D01*
X82040000Y-107929000D02*
X83040000Y-107929000D01*
X83040000Y-106739000D02*
X82040000Y-106739000D01*
X82040000Y-105389000D02*
X83040000Y-105389000D01*
X83040000Y-104199000D02*
X82040000Y-104199000D01*
X82040000Y-102849000D02*
X83040000Y-102849000D01*
X83040000Y-101659000D02*
X82040000Y-101659000D01*
X82040000Y-100309000D02*
X83040000Y-100309000D01*
X83040000Y-99119000D02*
X82040000Y-99119000D01*
X82040000Y-97769000D02*
X83040000Y-97769000D01*
X83040000Y-96579000D02*
X82040000Y-96579000D01*
X82040000Y-95229000D02*
X83040000Y-95229000D01*
X83040000Y-94039000D02*
X82040000Y-94039000D01*
X82040000Y-92689000D02*
X83040000Y-92689000D01*
X83040000Y-91499000D02*
X82040000Y-91499000D01*
X82040000Y-90149000D02*
X83040000Y-90149000D01*
X62134400Y-77904800D02*
X64134400Y-77904800D01*
X64134400Y-77904800D02*
X64134400Y-75904800D01*
X64134400Y-75904800D02*
X66134400Y-75904800D01*
X66134400Y-75904800D02*
X66134400Y-77904800D01*
X66134400Y-77904800D02*
X66134400Y-95904800D01*
X66134400Y-95904800D02*
X62134400Y-95904800D01*
X62134400Y-95904800D02*
X62134400Y-77904800D01*
X61634400Y-76904800D02*
X61634400Y-75404800D01*
X61634400Y-75404800D02*
X63134400Y-75404800D01*
X97288771Y-101077600D02*
X98360200Y-101077600D01*
X98574486Y-101149028D01*
X98717343Y-101291885D01*
X98788771Y-101506171D01*
X98788771Y-101649028D01*
X98788771Y-99577600D02*
X98788771Y-100434743D01*
X98788771Y-100006171D02*
X97288771Y-100006171D01*
X97503057Y-100149028D01*
X97645914Y-100291886D01*
X97717343Y-100434743D01*
X98788771Y-104184743D02*
X97288771Y-104184743D01*
X98003057Y-104184743D02*
X98003057Y-103327600D01*
X98788771Y-103327600D02*
X97288771Y-103327600D01*
X98788771Y-102613314D02*
X97288771Y-102613314D01*
X97288771Y-102256171D01*
X97360200Y-102041886D01*
X97503057Y-101899028D01*
X97645914Y-101827600D01*
X97931629Y-101756171D01*
X98145914Y-101756171D01*
X98431629Y-101827600D01*
X98574486Y-101899028D01*
X98717343Y-102041886D01*
X98788771Y-102256171D01*
X98788771Y-102613314D01*
X98788771Y-101113314D02*
X97288771Y-101113314D01*
X98360200Y-100613314D01*
X97288771Y-100113314D01*
X98788771Y-100113314D01*
X98788771Y-99399028D02*
X97288771Y-99399028D01*
X98931629Y-99041885D02*
X98931629Y-97899028D01*
X98360200Y-97613314D02*
X98360200Y-96899028D01*
X98788771Y-97756171D02*
X97288771Y-97256171D01*
X98788771Y-96756171D01*
X82373334Y-107156381D02*
X82040000Y-106680190D01*
X81801905Y-107156381D02*
X81801905Y-106156381D01*
X82182858Y-106156381D01*
X82278096Y-106204000D01*
X82325715Y-106251619D01*
X82373334Y-106346857D01*
X82373334Y-106489714D01*
X82325715Y-106584952D01*
X82278096Y-106632571D01*
X82182858Y-106680190D01*
X81801905Y-106680190D01*
X83325715Y-107156381D02*
X82754286Y-107156381D01*
X83040000Y-107156381D02*
X83040000Y-106156381D01*
X82944762Y-106299238D01*
X82849524Y-106394476D01*
X82754286Y-106442095D01*
X82373334Y-104616381D02*
X82040000Y-104140190D01*
X81801905Y-104616381D02*
X81801905Y-103616381D01*
X82182858Y-103616381D01*
X82278096Y-103664000D01*
X82325715Y-103711619D01*
X82373334Y-103806857D01*
X82373334Y-103949714D01*
X82325715Y-104044952D01*
X82278096Y-104092571D01*
X82182858Y-104140190D01*
X81801905Y-104140190D01*
X82754286Y-103711619D02*
X82801905Y-103664000D01*
X82897143Y-103616381D01*
X83135239Y-103616381D01*
X83230477Y-103664000D01*
X83278096Y-103711619D01*
X83325715Y-103806857D01*
X83325715Y-103902095D01*
X83278096Y-104044952D01*
X82706667Y-104616381D01*
X83325715Y-104616381D01*
X82373334Y-102076381D02*
X82040000Y-101600190D01*
X81801905Y-102076381D02*
X81801905Y-101076381D01*
X82182858Y-101076381D01*
X82278096Y-101124000D01*
X82325715Y-101171619D01*
X82373334Y-101266857D01*
X82373334Y-101409714D01*
X82325715Y-101504952D01*
X82278096Y-101552571D01*
X82182858Y-101600190D01*
X81801905Y-101600190D01*
X82706667Y-101076381D02*
X83325715Y-101076381D01*
X82992381Y-101457333D01*
X83135239Y-101457333D01*
X83230477Y-101504952D01*
X83278096Y-101552571D01*
X83325715Y-101647810D01*
X83325715Y-101885905D01*
X83278096Y-101981143D01*
X83230477Y-102028762D01*
X83135239Y-102076381D01*
X82849524Y-102076381D01*
X82754286Y-102028762D01*
X82706667Y-101981143D01*
X82373334Y-99536381D02*
X82040000Y-99060190D01*
X81801905Y-99536381D02*
X81801905Y-98536381D01*
X82182858Y-98536381D01*
X82278096Y-98584000D01*
X82325715Y-98631619D01*
X82373334Y-98726857D01*
X82373334Y-98869714D01*
X82325715Y-98964952D01*
X82278096Y-99012571D01*
X82182858Y-99060190D01*
X81801905Y-99060190D01*
X83230477Y-98869714D02*
X83230477Y-99536381D01*
X82992381Y-98488762D02*
X82754286Y-99203048D01*
X83373334Y-99203048D01*
X82373334Y-96996381D02*
X82040000Y-96520190D01*
X81801905Y-96996381D02*
X81801905Y-95996381D01*
X82182858Y-95996381D01*
X82278096Y-96044000D01*
X82325715Y-96091619D01*
X82373334Y-96186857D01*
X82373334Y-96329714D01*
X82325715Y-96424952D01*
X82278096Y-96472571D01*
X82182858Y-96520190D01*
X81801905Y-96520190D01*
X83278096Y-95996381D02*
X82801905Y-95996381D01*
X82754286Y-96472571D01*
X82801905Y-96424952D01*
X82897143Y-96377333D01*
X83135239Y-96377333D01*
X83230477Y-96424952D01*
X83278096Y-96472571D01*
X83325715Y-96567810D01*
X83325715Y-96805905D01*
X83278096Y-96901143D01*
X83230477Y-96948762D01*
X83135239Y-96996381D01*
X82897143Y-96996381D01*
X82801905Y-96948762D01*
X82754286Y-96901143D01*
X82373334Y-94456381D02*
X82040000Y-93980190D01*
X81801905Y-94456381D02*
X81801905Y-93456381D01*
X82182858Y-93456381D01*
X82278096Y-93504000D01*
X82325715Y-93551619D01*
X82373334Y-93646857D01*
X82373334Y-93789714D01*
X82325715Y-93884952D01*
X82278096Y-93932571D01*
X82182858Y-93980190D01*
X81801905Y-93980190D01*
X83230477Y-93456381D02*
X83040000Y-93456381D01*
X82944762Y-93504000D01*
X82897143Y-93551619D01*
X82801905Y-93694476D01*
X82754286Y-93884952D01*
X82754286Y-94265905D01*
X82801905Y-94361143D01*
X82849524Y-94408762D01*
X82944762Y-94456381D01*
X83135239Y-94456381D01*
X83230477Y-94408762D01*
X83278096Y-94361143D01*
X83325715Y-94265905D01*
X83325715Y-94027810D01*
X83278096Y-93932571D01*
X83230477Y-93884952D01*
X83135239Y-93837333D01*
X82944762Y-93837333D01*
X82849524Y-93884952D01*
X82801905Y-93932571D01*
X82754286Y-94027810D01*
X82373334Y-91916381D02*
X82040000Y-91440190D01*
X81801905Y-91916381D02*
X81801905Y-90916381D01*
X82182858Y-90916381D01*
X82278096Y-90964000D01*
X82325715Y-91011619D01*
X82373334Y-91106857D01*
X82373334Y-91249714D01*
X82325715Y-91344952D01*
X82278096Y-91392571D01*
X82182858Y-91440190D01*
X81801905Y-91440190D01*
X82706667Y-90916381D02*
X83373334Y-90916381D01*
X82944762Y-91916381D01*
X82373334Y-89376381D02*
X82040000Y-88900190D01*
X81801905Y-89376381D02*
X81801905Y-88376381D01*
X82182858Y-88376381D01*
X82278096Y-88424000D01*
X82325715Y-88471619D01*
X82373334Y-88566857D01*
X82373334Y-88709714D01*
X82325715Y-88804952D01*
X82278096Y-88852571D01*
X82182858Y-88900190D01*
X81801905Y-88900190D01*
X82944762Y-88804952D02*
X82849524Y-88757333D01*
X82801905Y-88709714D01*
X82754286Y-88614476D01*
X82754286Y-88566857D01*
X82801905Y-88471619D01*
X82849524Y-88424000D01*
X82944762Y-88376381D01*
X83135239Y-88376381D01*
X83230477Y-88424000D01*
X83278096Y-88471619D01*
X83325715Y-88566857D01*
X83325715Y-88614476D01*
X83278096Y-88709714D01*
X83230477Y-88757333D01*
X83135239Y-88804952D01*
X82944762Y-88804952D01*
X82849524Y-88852571D01*
X82801905Y-88900190D01*
X82754286Y-88995429D01*
X82754286Y-89185905D01*
X82801905Y-89281143D01*
X82849524Y-89328762D01*
X82944762Y-89376381D01*
X83135239Y-89376381D01*
X83230477Y-89328762D01*
X83278096Y-89281143D01*
X83325715Y-89185905D01*
X83325715Y-88995429D01*
X83278096Y-88900190D01*
X83230477Y-88852571D01*
X83135239Y-88804952D01*
X62396305Y-72357181D02*
X62396305Y-71357181D01*
X62777258Y-71357181D01*
X62872496Y-71404800D01*
X62920115Y-71452419D01*
X62967734Y-71547657D01*
X62967734Y-71690514D01*
X62920115Y-71785752D01*
X62872496Y-71833371D01*
X62777258Y-71880990D01*
X62396305Y-71880990D01*
X63920115Y-72357181D02*
X63348686Y-72357181D01*
X63634400Y-72357181D02*
X63634400Y-71357181D01*
X63539162Y-71500038D01*
X63443924Y-71595276D01*
X63348686Y-71642895D01*
M02*
