G04 #@! TF.FileFunction,Copper,L1,Top,Signal*
%FSLAX46Y46*%
G04 Gerber Fmt 4.6, Leading zero omitted, Abs format (unit mm)*
G04 Created by KiCad (PCBNEW 4.0.2-stable) date 03/11/2016 07:27:08 a.m.*
%MOMM*%
G01*
G04 APERTURE LIST*
%ADD10C,0.100000*%
%ADD11R,1.350000X1.350000*%
%ADD12C,1.350000*%
%ADD13R,1.727200X1.727200*%
%ADD14O,1.727200X1.727200*%
%ADD15C,0.300000*%
G04 APERTURE END LIST*
D10*
D11*
X59172000Y-68472000D03*
D12*
X59172000Y-70472000D03*
X59172000Y-72472000D03*
X59172000Y-74472000D03*
X59172000Y-76472000D03*
X59172000Y-78472000D03*
X59172000Y-80472000D03*
X59172000Y-82472000D03*
X59172000Y-84472000D03*
X59172000Y-86472000D03*
X59172000Y-88472000D03*
X59172000Y-90472000D03*
X59172000Y-92472000D03*
X59172000Y-94472000D03*
X59172000Y-96472000D03*
X61172000Y-68472000D03*
X61172000Y-70472000D03*
X61172000Y-72472000D03*
X61172000Y-74472000D03*
X61172000Y-76472000D03*
X61172000Y-78472000D03*
X61172000Y-80472000D03*
X61172000Y-82472000D03*
X61172000Y-84472000D03*
X61172000Y-86472000D03*
X61172000Y-88472000D03*
X61172000Y-90472000D03*
X61172000Y-92472000D03*
X61172000Y-94472000D03*
X61172000Y-96472000D03*
D13*
X94986000Y-67202000D03*
D14*
X97526000Y-67202000D03*
X94986000Y-69742000D03*
X97526000Y-69742000D03*
X94986000Y-72282000D03*
X97526000Y-72282000D03*
X94986000Y-74822000D03*
X97526000Y-74822000D03*
X94986000Y-77362000D03*
X97526000Y-77362000D03*
X94986000Y-79902000D03*
X97526000Y-79902000D03*
X94986000Y-82442000D03*
X97526000Y-82442000D03*
X94986000Y-84982000D03*
X97526000Y-84982000D03*
X94986000Y-87522000D03*
X97526000Y-87522000D03*
X94986000Y-90062000D03*
X97526000Y-90062000D03*
X94986000Y-92602000D03*
X97526000Y-92602000D03*
X94986000Y-95142000D03*
X97526000Y-95142000D03*
X94986000Y-97682000D03*
X97526000Y-97682000D03*
X94986000Y-100222000D03*
X97526000Y-100222000D03*
X94986000Y-102762000D03*
X97526000Y-102762000D03*
D15*
X94986000Y-67202000D02*
X60442000Y-67202000D01*
X60442000Y-67202000D02*
X59172000Y-68472000D01*
X94986000Y-69742000D02*
X63744000Y-69742000D01*
X60156000Y-69488000D02*
X59172000Y-70472000D01*
X63490000Y-69488000D02*
X60156000Y-69488000D01*
X63744000Y-69742000D02*
X63490000Y-69488000D01*
X59172000Y-72472000D02*
X59172000Y-72332800D01*
X59172000Y-72332800D02*
X60035600Y-71469200D01*
X60035600Y-71469200D02*
X93106400Y-71469200D01*
X93106400Y-71469200D02*
X93919200Y-72282000D01*
X93919200Y-72282000D02*
X94986000Y-72282000D01*
X59172000Y-74472000D02*
X59172000Y-74212400D01*
X59172000Y-74212400D02*
X59934000Y-73450400D01*
X59934000Y-73450400D02*
X92192000Y-73450400D01*
X92192000Y-73450400D02*
X93563600Y-74822000D01*
X93563600Y-74822000D02*
X94986000Y-74822000D01*
X59172000Y-76472000D02*
X59172000Y-75838000D01*
X59172000Y-75838000D02*
X59527600Y-75482400D01*
X59527600Y-75482400D02*
X91430000Y-75482400D01*
X91430000Y-75482400D02*
X93309600Y-77362000D01*
X93309600Y-77362000D02*
X94986000Y-77362000D01*
X94986000Y-79902000D02*
X93512800Y-79902000D01*
X60180400Y-77463600D02*
X59172000Y-78472000D01*
X91074400Y-77463600D02*
X60180400Y-77463600D01*
X93512800Y-79902000D02*
X91074400Y-77463600D01*
X59172000Y-80472000D02*
X59172000Y-80333800D01*
X59172000Y-80333800D02*
X60035600Y-79470200D01*
X60035600Y-79470200D02*
X90033000Y-79470200D01*
X90033000Y-79470200D02*
X93004800Y-82442000D01*
X93004800Y-82442000D02*
X94986000Y-82442000D01*
X59172000Y-82472000D02*
X59172000Y-82416600D01*
X59172000Y-82416600D02*
X60111800Y-81476800D01*
X60111800Y-81476800D02*
X89525000Y-81476800D01*
X89525000Y-81476800D02*
X93030200Y-84982000D01*
X93030200Y-84982000D02*
X94986000Y-84982000D01*
X59172000Y-84472000D02*
X59172000Y-84245400D01*
X59172000Y-84245400D02*
X59934000Y-83483400D01*
X59934000Y-83483400D02*
X88915400Y-83483400D01*
X88915400Y-83483400D02*
X92954000Y-87522000D01*
X92954000Y-87522000D02*
X94986000Y-87522000D01*
X59172000Y-86472000D02*
X59172000Y-86074200D01*
X59172000Y-86074200D02*
X59781600Y-85464600D01*
X59781600Y-85464600D02*
X88178800Y-85464600D01*
X88178800Y-85464600D02*
X92776200Y-90062000D01*
X92776200Y-90062000D02*
X94986000Y-90062000D01*
X59172000Y-88472000D02*
X59172000Y-88461800D01*
X59172000Y-88461800D02*
X60162600Y-87471200D01*
X60162600Y-87471200D02*
X87823200Y-87471200D01*
X87823200Y-87471200D02*
X92954000Y-92602000D01*
X92954000Y-92602000D02*
X94986000Y-92602000D01*
X59172000Y-90472000D02*
X59172000Y-90443000D01*
X59172000Y-90443000D02*
X60137200Y-89477800D01*
X60137200Y-89477800D02*
X86959600Y-89477800D01*
X86959600Y-89477800D02*
X92623800Y-95142000D01*
X92623800Y-95142000D02*
X94986000Y-95142000D01*
X94986000Y-97682000D02*
X92420600Y-97682000D01*
X60185000Y-91459000D02*
X59172000Y-92472000D01*
X86197600Y-91459000D02*
X60185000Y-91459000D01*
X92420600Y-97682000D02*
X86197600Y-91459000D01*
X59172000Y-94472000D02*
X59172000Y-94456200D01*
X59172000Y-94456200D02*
X60162600Y-93465600D01*
X60162600Y-93465600D02*
X85689600Y-93465600D01*
X85689600Y-93465600D02*
X92446000Y-100222000D01*
X92446000Y-100222000D02*
X94986000Y-100222000D01*
X94986000Y-102762000D02*
X92674600Y-102762000D01*
X60171800Y-95472200D02*
X59172000Y-96472000D01*
X85384800Y-95472200D02*
X60171800Y-95472200D01*
X92674600Y-102762000D02*
X85384800Y-95472200D01*
X61172000Y-68472000D02*
X91684000Y-68472000D01*
X96256000Y-68472000D02*
X97526000Y-67202000D01*
X96002000Y-68472000D02*
X96256000Y-68472000D01*
X91684000Y-68472000D02*
X96002000Y-68472000D01*
X61172000Y-70472000D02*
X93176000Y-70472000D01*
X96256000Y-71012000D02*
X97526000Y-69742000D01*
X93716000Y-71012000D02*
X96256000Y-71012000D01*
X93176000Y-70472000D02*
X93716000Y-71012000D01*
X97526000Y-72282000D02*
X97424400Y-72282000D01*
X97424400Y-72282000D02*
X96230600Y-73475800D01*
X96230600Y-73475800D02*
X93538200Y-73475800D01*
X93538200Y-73475800D02*
X92534400Y-72472000D01*
X92534400Y-72472000D02*
X61172000Y-72472000D01*
X61172000Y-74472000D02*
X91918200Y-74472000D01*
X96230600Y-76117400D02*
X97526000Y-74822000D01*
X93563600Y-76117400D02*
X96230600Y-76117400D01*
X91918200Y-74472000D02*
X93563600Y-76117400D01*
X61172000Y-76472000D02*
X91302000Y-76472000D01*
X96281400Y-78606600D02*
X97526000Y-77362000D01*
X93436600Y-78606600D02*
X96281400Y-78606600D01*
X91302000Y-76472000D02*
X93436600Y-78606600D01*
X61172000Y-78472000D02*
X90254000Y-78472000D01*
X96256000Y-81172000D02*
X97526000Y-79902000D01*
X92954000Y-81172000D02*
X96256000Y-81172000D01*
X90254000Y-78472000D02*
X92954000Y-81172000D01*
X61172000Y-80472000D02*
X89942600Y-80472000D01*
X96306800Y-83661200D02*
X97526000Y-82442000D01*
X93131800Y-83661200D02*
X96306800Y-83661200D01*
X89942600Y-80472000D02*
X93131800Y-83661200D01*
X97526000Y-84982000D02*
X97500600Y-84982000D01*
X97500600Y-84982000D02*
X96179800Y-86302800D01*
X96179800Y-86302800D02*
X92954000Y-86302800D01*
X92954000Y-86302800D02*
X89123200Y-82472000D01*
X89123200Y-82472000D02*
X61172000Y-82472000D01*
X61172000Y-84472000D02*
X88710200Y-84472000D01*
X96281400Y-88766600D02*
X97526000Y-87522000D01*
X93004800Y-88766600D02*
X96281400Y-88766600D01*
X88710200Y-84472000D02*
X93004800Y-88766600D01*
X61172000Y-86472000D02*
X87992400Y-86472000D01*
X96256000Y-91332000D02*
X97526000Y-90062000D01*
X92852400Y-91332000D02*
X96256000Y-91332000D01*
X87992400Y-86472000D02*
X92852400Y-91332000D01*
X97526000Y-92602000D02*
X97475200Y-92602000D01*
X97475200Y-92602000D02*
X96230600Y-93846600D01*
X96230600Y-93846600D02*
X92801600Y-93846600D01*
X92801600Y-93846600D02*
X87427000Y-88472000D01*
X87427000Y-88472000D02*
X61172000Y-88472000D01*
X97526000Y-95142000D02*
X97246600Y-95142000D01*
X97246600Y-95142000D02*
X95951200Y-96437400D01*
X95951200Y-96437400D02*
X92522200Y-96437400D01*
X92522200Y-96437400D02*
X86556800Y-90472000D01*
X86556800Y-90472000D02*
X61172000Y-90472000D01*
X61172000Y-92472000D02*
X85915200Y-92472000D01*
X96256000Y-98952000D02*
X97526000Y-97682000D01*
X92395200Y-98952000D02*
X96256000Y-98952000D01*
X85915200Y-92472000D02*
X92395200Y-98952000D01*
X97526000Y-100222000D02*
X97526000Y-100476000D01*
X97526000Y-100476000D02*
X96510000Y-101492000D01*
X96510000Y-101492000D02*
X92573000Y-101492000D01*
X92573000Y-101492000D02*
X85553000Y-94472000D01*
X85553000Y-94472000D02*
X61172000Y-94472000D01*
X97526000Y-102762000D02*
X97526000Y-103981200D01*
X84708200Y-96472000D02*
X61172000Y-96472000D01*
X92801600Y-104565400D02*
X84708200Y-96472000D01*
X96941800Y-104565400D02*
X92801600Y-104565400D01*
X97526000Y-103981200D02*
X96941800Y-104565400D01*
M02*
