M48
;DRILL file {KiCad 4.0.2-stable} date 03/11/2016 07:27:40 a.m.
;FORMAT={-:-/ absolute / inch / decimal}
FMAT,2
INCH,TZ
T1C0.031
T2C0.040
%
G90
G05
M72
T1
X2.3296Y-2.6957
X2.3296Y-2.7745
X2.3296Y-2.8532
X2.3296Y-2.932
X2.3296Y-3.0107
X2.3296Y-3.0894
X2.3296Y-3.1682
X2.3296Y-3.2469
X2.3296Y-3.3257
X2.3296Y-3.4044
X2.3296Y-3.4831
X2.3296Y-3.5619
X2.3296Y-3.6406
X2.3296Y-3.7194
X2.3296Y-3.7981
X2.4083Y-2.6957
X2.4083Y-2.7745
X2.4083Y-2.8532
X2.4083Y-2.932
X2.4083Y-3.0107
X2.4083Y-3.0894
X2.4083Y-3.1682
X2.4083Y-3.2469
X2.4083Y-3.3257
X2.4083Y-3.4044
X2.4083Y-3.4831
X2.4083Y-3.5619
X2.4083Y-3.6406
X2.4083Y-3.7194
X2.4083Y-3.7981
T2
X3.7396Y-2.6457
X3.7396Y-2.7457
X3.7396Y-2.8457
X3.7396Y-2.9457
X3.7396Y-3.0457
X3.7396Y-3.1457
X3.7396Y-3.2457
X3.7396Y-3.3457
X3.7396Y-3.4457
X3.7396Y-3.5457
X3.7396Y-3.6457
X3.7396Y-3.7457
X3.7396Y-3.8457
X3.7396Y-3.9457
X3.7396Y-4.0457
X3.8396Y-2.6457
X3.8396Y-2.7457
X3.8396Y-2.8457
X3.8396Y-2.9457
X3.8396Y-3.0457
X3.8396Y-3.1457
X3.8396Y-3.2457
X3.8396Y-3.3457
X3.8396Y-3.4457
X3.8396Y-3.5457
X3.8396Y-3.6457
X3.8396Y-3.7457
X3.8396Y-3.8457
X3.8396Y-3.9457
X3.8396Y-4.0457
T0
M30
